<?xml version="1.0" encoding="utf-8"?>
<!-- Generator: Adobe Illustrator 24.3.0, SVG Export Plug-In . SVG Version: 6.00 Build 0)  -->
<svg version="1.1" id="Layer_1" xmlns="http://www.w3.org/2000/svg" xmlns:xlink="http://www.w3.org/1999/xlink" x="0px" y="0px"
	 viewBox="0 0 199.5 195.5" style="enable-background:new 0 0 199.5 195.5;" xml:space="preserve">
<style type="text/css">
	.st0{fill:#A2D5A8;}
	.st1{fill:#FFFDED;}
	.st2{fill:#86CCA7;}
	.st3{fill:#58C0A1;}
</style>
<g>
	
		<image style="overflow:visible;opacity:0.47;" width="860" height="860" xlink:href="6B4D6016AC3D88C7.png"  transform="matrix(0.24 0 0 0.24 -3.2428 -4.2094)">
	</image>
	<g>
		<g>
			<path class="st0" d="M180.4,187H19.5c-4.2,0-7.7-3.4-7.7-7.7V18.6c0-4.2,3.4-7.7,7.7-7.7h160.8c4.2,0,7.7,3.4,7.7,7.7v160.8
				C188,183.6,184.6,187,180.4,187z"/>
			<g>
				<path class="st1" d="M85.5,95.5c-3.3,0-6.1,2.9-6.1,6.2c0,3.7,3,6.3,6.6,6.3c1.2,0,2.6-0.2,3.7-0.8v-2.4c-1,0.8-2.4,1.1-3.7,1.1
					c-0.8,0-1.7-0.2-2.4-0.7l7.1-7C89.4,96.4,87.7,95.5,85.5,95.5z M82.3,103.8c-0.4-0.6-0.6-1.4-0.6-2.2c0-2.2,1.6-4,3.8-4
					c0.8,0,1.6,0.3,2.2,0.8L82.3,103.8z"/>
				<path class="st1" d="M97.7,95.5c-1.5,0-2.8,1-3.5,2.4v-2.1h-2.4v11.9h2.4v-6.6c0-0.1,0.1-0.5,0.1-0.6c0.3-0.9,0.9-1.8,1.8-2.2
					c0.2,0.7,0.9,1.2,1.7,1.2c1.1,0,2-0.9,2-2C99.7,96.3,98.8,95.5,97.7,95.5z"/>
				<path class="st1" d="M103.9,105.1l7.1-7c-1.3-1.7-3.1-2.7-5.2-2.7c-3.3,0-6.1,2.9-6.1,6.2c0,3.7,3,6.3,6.6,6.3
					c1.2,0,2.6-0.2,3.7-0.8v-2.4c-1,0.8-2.4,1.1-3.7,1.1C105.5,105.8,104.7,105.6,103.9,105.1z M102,101.7c0-2.2,1.6-4,3.8-4
					c0.8,0,1.6,0.3,2.2,0.8l-5.4,5.4C102.2,103.2,102,102.4,102,101.7z"/>
				<path class="st1" d="M127.7,105.1l7.1-7c-1.3-1.7-3.1-2.7-5.2-2.7c-3.3,0-6.1,2.9-6.1,6.2c0,1.5,0.5,2.7,1.2,3.8
					c-0.2,0.2-0.4,0.4-0.7,0.4c-1,0-1.6-0.8-1.6-1.7v-3.9c0-2.7-1.8-4.7-4.5-4.7c-1.5,0-2.8,0.8-3.5,2.1v-1.8H112v11.9h2.4v-6.6
					c0-2,1.3-3.5,3-3.5c1.7,0,2.6,1.2,2.6,2.8v3.9c0,1.9,1.2,3.6,3.3,3.7c1,0,2-0.2,2.9-1.2c1.1,0.8,2.5,1.2,4,1.2
					c1.2,0,2.6-0.2,3.7-0.8v-2.4c-1,0.8-2.4,1.1-3.7,1.1C129.2,105.8,128.4,105.6,127.7,105.1z M129.5,97.6c0.8,0,1.6,0.3,2.2,0.8
					l-5.4,5.4c-0.4-0.6-0.6-1.4-0.6-2.2C125.7,99.5,127.3,97.6,129.5,97.6z"/>
				<path class="st1" d="M73.1,95.5c-2.5-1.5-4.8-2.9-4.8-5.4c0-1.7,1.6-2.9,3.5-2.9c0.4,0,0.7,0,1.1,0.1c-0.2,0.5-0.1,1.1,0.2,1.7
					c0.6,0.9,1.8,1.1,2.7,0.5c0.9-0.7,1.1-1.9,0.5-2.8c-0.3-0.4-0.7-0.7-1.1-1v0C74,85,73,84.8,71.7,84.8c-3.6,0-6.3,2-6.3,5.3
					c0,3.6,3.1,5.5,5.9,7.2c2.3,1.4,4.4,2.8,4.4,5c0,2.7-2.6,4-5.4,4c-2.4,0-4.7-1.2-4.7-3.6c0-0.6,0.2-1,0.5-1.4
					c0.3,0.5,0.8,0.7,1.4,0.8c1.1,0.1,2-0.7,2.1-1.8c0.1-1.1-0.8-2.1-1.9-2.2c-0.6,0-1.2,0.1-1.7,0.4c-1.9,0.9-3.2,2.4-3.2,4.3
					c0,3.7,3.7,5.9,7.6,5.9c4.4,0,8.2-2.2,8.2-6.4C78.5,98.9,75.7,97.1,73.1,95.5z"/>
			</g>
			<g>
				<g>
					<path class="st2" d="M48.6,75.4c-3.6,3.2-6.1,3.8-9.3,3c3,1.4,4.6,3.4,5.4,8.1c1.5,8.4,1.5,9.2,3.4,12.4c1,1.7,1.1,3.3,1.1,3.3
						s-14.5-0.1-16.2-10.9c-2.3-14.8-5-16.8-5-16.8l0-0.1c0,0,3.3,0.1,14.3-10.1c8.1-7.5,19.5,1.5,19.5,1.5s-1.1,1.2-3,1.9
						C55.5,69.1,55,69.7,48.6,75.4z"/>
					<path class="st2" d="M150.6,123.3c3.6-3.2,6.1-3.8,9.3-3c-3-1.4-4.6-3.4-5.4-8.1c-1.5-8.4-1.5-9.2-3.4-12.4
						c-1-1.7-1.1-3.3-1.1-3.3s14.5,0.1,16.2,10.9c2.3,14.8,5,16.8,5,16.8l0,0.1c0,0-3.3-0.1-14.3,10.1c-8.1,7.5-19.5-1.5-19.5-1.5
						s1.1-1.2,3-1.9C143.7,129.6,144.2,129,150.6,123.3z"/>
					<path class="st2" d="M44.2,109.2c-1.1,4.7-2.8,6.6-5.8,7.8c3.2-0.6,5.7,0.1,9.1,3.5c6.1,6,6.5,6.7,9.9,8.1
						c1.8,0.8,2.9,2.1,2.9,2.1s-11.9,8.3-19.5,0.5c-10.4-10.7-13.7-10.8-13.7-10.8l0-0.1c0,0,2.8-1.9,5.8-16.5
						c2.3-10.7,16.8-10,16.8-10s-0.2,1.6-1.3,3.3C46.1,100.1,46.1,100.9,44.2,109.2z"/>
					<path class="st2" d="M155.1,89.4c1.1-4.7,2.8-6.6,5.8-7.8c-3.2,0.6-5.7-0.1-9.1-3.5c-6.1-6-6.5-6.7-9.9-8.1
						c-1.8-0.8-2.9-2.1-2.9-2.1s11.9-8.3,19.5-0.5c10.4,10.7,13.7,10.8,13.7,10.8l0,0.1c0,0-2.8,1.9-5.8,16.5
						c-2.3,10.7-16.8,10-16.8,10s0.2-1.6,1.3-3.3C153.1,98.6,153.1,97.8,155.1,89.4z"/>
					<path class="st2" d="M60.8,140.1c1.9,4.5,1.7,6.9-0.1,9.8c2.3-2.4,4.6-3.3,9.4-2.6c8.5,1.3,9.2,1.5,12.8,0.7
						c1.9-0.4,3.5,0,3.5,0s-4.6,13.8-15.5,11.9c-14.7-2.5-17.5-0.6-17.5-0.6l-0.1,0c0,0,1.1-3.1-5.1-16.8c-4.5-10,7.6-18,7.6-18
						s0.8,1.4,0.9,3.4C56.9,131.6,57.4,132.3,60.8,140.1z"/>
					<path class="st2" d="M138.5,58.5c-1.9-4.5-1.7-6.9,0.1-9.8c-2.3,2.4-4.6,3.3-9.4,2.6c-8.5-1.2-9.2-1.5-12.8-0.7
						c-1.9,0.4-3.5,0-3.5,0s4.6-13.8,15.5-11.9c14.7,2.5,17.5,0.6,17.5,0.6l0.1,0c0,0-1.1,3.1,5.1,16.8c4.5,10-7.6,18-7.6,18
						s-0.8-1.4-0.9-3.4C142.3,67,141.8,66.4,138.5,58.5z"/>
					<path class="st2" d="M92.6,155.2c4.2,2.4,5.5,4.6,5.7,7.9c0.4-3.3,1.8-5.4,6.1-7.7c7.6-4,8.3-4.2,10.7-7
						c1.3-1.5,2.8-2.1,2.8-2.1s4.4,13.8-5.4,18.8c-13.3,6.8-14.4,9.9-14.4,9.9l-0.1,0c0,0-1-3.2-14-10.5c-9.6-5.3-4.6-19-4.6-19
						s1.5,0.7,2.7,2.2C84.5,150.7,85.2,150.9,92.6,155.2z"/>
					<path class="st2" d="M106.6,43.4c-4.2-2.4-5.5-4.6-5.7-7.9c-0.4,3.3-1.8,5.4-6.1,7.7c-7.6,4-8.3,4.2-10.7,7
						c-1.3,1.5-2.8,2.1-2.8,2.1s-4.4-13.8,5.4-18.8c13.3-6.8,14.4-9.9,14.4-9.9l0.1,0c0,0,1,3.2,14,10.5c9.6,5.3,4.6,19,4.6,19
						s-1.5-0.7-2.7-2.2C114.7,48,114,47.8,106.6,43.4z"/>
					<path class="st2" d="M126.3,148.9c4.8-0.4,7.1,0.6,9.3,3.1c-1.6-2.9-1.7-5.4,0.5-9.7c3.8-7.7,4.3-8.3,4.6-11.9
						c0.2-2,1.1-3.4,1.1-3.4s11.6,8.7,6.5,18.4c-6.9,13.2-6,16.4-6,16.4l-0.1,0c0,0-2.6-2-17.5-0.4c-10.9,1.2-14.8-12.8-14.8-12.8
						s1.6-0.3,3.5,0.2C117.1,149.9,117.8,149.7,126.3,148.9z"/>
					<path class="st2" d="M72.9,49.7c-4.8,0.4-7.1-0.6-9.3-3.1c1.6,2.9,1.7,5.4-0.5,9.7c-3.8,7.7-4.3,8.3-4.6,11.9
						c-0.2,2-1.1,3.4-1.1,3.4S45.8,63,50.9,53.3c6.9-13.2,6-16.4,6-16.4l0.1,0c0,0,2.6,2,17.5,0.4C85.4,36,89.2,50,89.2,50
						s-1.6,0.3-3.5-0.2C82.2,48.7,81.4,49,72.9,49.7z"/>
				</g>
				<g>
					<path class="st3" d="M59.8,122.1c0.5,3.9-0.3,5.8-2.3,7.6c2.3-1.3,4.4-1.5,7.9,0.2c6.3,3,6.8,3.3,9.8,3.5
						c1.6,0.1,2.8,0.8,2.8,0.8s-6.8,9.6-14.9,5.7c-10.9-5.4-13.5-4.5-13.5-4.5l0,0c0,0,1.6-2.2,0-14.2c-1.2-8.9,10.1-12.3,10.1-12.3
						s0.3,1.3-0.1,2.9C58.8,114.6,59,115.2,59.8,122.1z"/>
					<g>
						<path class="st3" d="M90.3,54.4c-3.9-0.8-5.4-2.1-6.5-4.6c0.5,2.6,0,4.6-2.7,7.5c-4.8,5.1-5.3,5.5-6.4,8.2
							c-0.6,1.5-1.6,2.4-1.6,2.4s-7.1-9.5-0.8-15.9c8.5-8.7,8.5-11.4,8.5-11.4l0.1,0c0,0,1.6,2.2,13.6,4.4
							c8.8,1.6,8.5,13.4,8.5,13.4s-1.3-0.1-2.7-1C97.8,55.8,97.1,55.8,90.3,54.4z"/>
						<path class="st3" d="M108.9,144.2c3.9,0.8,5.4,2.1,6.5,4.6c-0.5-2.6,0-4.6,2.7-7.5c4.8-5.1,5.3-5.5,6.4-8.2
							c0.6-1.5,1.6-2.4,1.6-2.4s7.1,9.5,0.8,15.9c-8.5,8.7-8.5,11.4-8.5,11.4l-0.1,0c0,0-1.6-2.2-13.6-4.4
							c-8.8-1.6-8.5-13.4-8.5-13.4s1.3,0.1,2.7,1C101.5,142.9,102.1,142.8,108.9,144.2z"/>
						<path class="st3" d="M66.1,68.1c-3.6,1.6-5.6,1.4-7.9,0c2,1.8,2.7,3.7,2.2,7.6c-0.9,6.9-1.2,7.5-0.5,10.4
							c0.4,1.6,0.1,2.9,0.1,2.9s-11.2-3.7-9.8-12.5c1.9-12,0.3-14.2,0.3-14.2l0,0c0,0,2.6,0.9,13.6-4.3c8.1-3.8,14.7,6,14.7,6
							s-1.2,0.7-2.8,0.7C73,64.9,72.5,65.2,66.1,68.1z"/>
						<path class="st3" d="M133.2,130.6c3.6-1.6,5.6-1.4,7.9,0c-2-1.8-2.7-3.7-2.2-7.6c0.9-6.9,1.2-7.5,0.5-10.4
							c-0.4-1.6-0.1-2.9-0.1-2.9s11.2,3.7,9.8,12.5c-1.9,12-0.3,14.2-0.3,14.2l0,0c0,0-2.6-0.9-13.6,4.3c-8.1,3.8-14.7-6-14.7-6
							s1.2-0.7,2.8-0.7C126.3,133.8,126.8,133.4,133.2,130.6z"/>
						<path class="st3" d="M54.1,94c-2,3.4-3.7,4.5-6.4,4.7c2.7,0.3,4.4,1.4,6.3,4.9c3.3,6.1,3.5,6.7,5.8,8.7c1.2,1,1.7,2.3,1.7,2.3
							s-11.2,3.7-15.3-4.2C40.6,99.5,38,98.6,38,98.6l0-0.1c0,0,2.6-0.8,8.4-11.5c4.3-7.8,15.4-3.9,15.4-3.9s-0.5,1.2-1.8,2.2
							C57.7,87.3,57.5,87.9,54.1,94z"/>
						<path class="st3" d="M145.2,104.7c2-3.4,3.7-4.5,6.4-4.7c-2.7-0.3-4.4-1.4-6.3-4.9c-3.3-6.1-3.5-6.7-5.8-8.7
							c-1.2-1-1.7-2.3-1.7-2.3s11.2-3.7,15.3,4.2c5.6,10.8,8.2,11.7,8.2,11.7l0,0.1c0,0-2.6,0.8-8.4,11.5
							c-4.3,7.8-15.4,3.9-15.4,3.9s0.5-1.2,1.8-2.2C141.5,111.3,141.7,110.7,145.2,104.7z"/>
						<path class="st3" d="M139.4,76.6c-0.5-3.9,0.3-5.8,2.3-7.6c-2.3,1.3-4.4,1.5-7.9-0.2c-6.3-3-6.8-3.3-9.8-3.5
							c-1.6-0.1-2.8-0.8-2.8-0.8s6.8-9.6,14.9-5.7c10.9,5.4,13.5,4.5,13.5,4.5l0,0c0,0-1.6,2.2,0,14.2c1.2,8.9-10.1,12.3-10.1,12.3
							s-0.3-1.3,0.1-2.9C140.4,84.1,140.2,83.5,139.4,76.6z"/>
						<path class="st3" d="M80.4,141c2.6,2.9,3.1,4.9,2.5,7.5c1.1-2.4,2.7-3.7,6.6-4.4c6.9-1.3,7.5-1.2,10-2.8
							c1.4-0.8,2.7-0.9,2.7-0.9s0,11.8-8.8,13.3c-12,2-13.6,4.1-13.6,4.1l-0.1,0c0,0,0-2.7-8.3-11.6c-6.1-6.5,1.1-15.9,1.1-15.9
							s1,0.9,1.6,2.4C75.2,135.4,75.7,135.8,80.4,141z"/>
						<path class="st3" d="M118.8,57.7c-2.6-2.9-3.1-4.9-2.5-7.5c-1.1,2.4-2.7,3.7-6.6,4.4c-6.9,1.3-7.5,1.2-10,2.8
							c-1.4,0.8-2.7,0.9-2.7,0.9s0-11.8,8.8-13.3c12-2,13.6-4.1,13.6-4.1l0.1,0c0,0,0,2.7,8.3,11.6c6.1,6.5-1.1,15.9-1.1,15.9
							s-1-0.9-1.6-2.4C124,63.2,123.5,62.9,118.8,57.7z"/>
					</g>
				</g>
			</g>
		</g>
	</g>
</g>
</svg>
