<?xml version="1.0" encoding="utf-8"?>
<!-- Generator: Adobe Illustrator 24.3.0, SVG Export Plug-In . SVG Version: 6.00 Build 0)  -->
<svg version="1.1" id="Layer_1" xmlns="http://www.w3.org/2000/svg" xmlns:xlink="http://www.w3.org/1999/xlink" x="0px" y="0px"
	 viewBox="0 0 48.7 44.6" style="enable-background:new 0 0 48.7 44.6;" xml:space="preserve">
<style type="text/css">
	.st0{enable-background:new    ;}
	.st1{fill:#CD3927;}
</style>
<g class="st0">
	<path class="st1" d="M11.4,23.3h-1.3l1,3.8c0.1,0.5,0.2,0.9,0.2,1.1c0,0.6-0.4,0.8-1.1,0.8H1.4c-0.5,0-0.8-0.1-1-0.3
		C0.1,28.5,0,28.2,0,27.8c0-0.5,0.5-2.1,1.6-4.8c1-2.7,2.8-6.9,5.3-12.7C7,10.1,7.1,9.8,7.1,9.5c0-0.4-0.1-0.7-0.3-1
		C6.6,8.3,6.3,8,5.7,7.6C5.5,7.5,5.4,7.3,5.4,7.2V6.8c0-0.2,0.1-0.3,0.4-0.3h7.9c0.7,0,1.4,0.1,1.8,0.4c0.5,0.3,0.8,0.8,1.1,1.4
		l6.6,17.3c0.4,1.1,0.6,1.9,0.6,2.4c0,0.7-0.4,1.1-1.1,1.1h-8.5c-0.5,0-0.8-0.1-1-0.3c-0.2-0.2-0.4-0.6-0.6-1.2L11.4,23.3z
		 M9.8,21.7H11l-2.4-9.1c-0.1-0.1-0.3-0.2-0.4-0.2c-0.2,0-0.3,0.1-0.4,0.2c-0.1,0.1-0.2,0.2-0.2,0.4c0,0.1,0,0.2,0,0.3
		c0,0.1,0.1,0.2,0.1,0.4L9.8,21.7z"/>
	<path class="st1" d="M39.3,29.4c-2.3,0-3.9-0.9-4.9-2.8c-0.5,1-1.2,1.7-1.9,2.1c-0.8,0.5-1.7,0.7-2.8,0.7c-1.6,0-2.8-0.4-3.8-1.2
		s-1.4-1.8-1.4-3.1c0-1.1,0.4-2,1.2-2.6c0.8-0.6,2-1.1,3.6-1.3c4.2-0.5,6.3-2.1,6.3-4.7c0-1-0.4-1.9-1.1-2.7s-1.6-1.1-2.6-1.1
		c-0.5,0-0.7,0.2-0.7,0.5c0,0.1,0,0.2,0.1,0.3c1,0,1.7,0.3,2.3,0.8c0.6,0.6,0.9,1.3,0.9,2.2c0,1-0.4,1.9-1.3,2.6c-0.9,0.7-2,1-3.3,1
		c-1.4,0-2.5-0.3-3.3-1c-0.8-0.7-1.2-1.6-1.2-2.7c0-1.5,0.7-2.7,2.2-3.7s3.4-1.4,5.8-1.4c2.9,0,5.1,0.7,6.6,2.1
		c1.5,1.4,2.3,3.5,2.3,6.2v4.2c0,0.4,0,0.6,0.1,0.8c0.1,0.1,0.2,0.2,0.3,0.2c0.2,0,0.4-0.1,0.4-0.3c0.1-0.2,0.2-0.5,0.2-1.1
		c0-0.4,0.1-0.6,0.1-0.7c0-0.1,0.1-0.1,0.3-0.1h0.6c0.1,0,0.2,0.1,0.3,0.2s0.1,0.4,0.1,0.8c0,1.8-0.5,3.2-1.4,4.2
		C42.4,29,41.1,29.4,39.3,29.4z M33.9,22.1c-0.1-0.2-0.3-0.3-0.5-0.3c-0.4,0-0.6,0.2-0.6,0.7v2.2c0,0.5,0.2,0.7,0.6,0.7
		c0.2,0,0.4-0.1,0.5-0.3V22.1z"/>
</g>
</svg>
