<?xml version="1.0" encoding="utf-8"?>
<!-- Generator: Adobe Illustrator 24.3.0, SVG Export Plug-In . SVG Version: 6.00 Build 0)  -->
<svg version="1.1" id="Layer_1" xmlns="http://www.w3.org/2000/svg" xmlns:xlink="http://www.w3.org/1999/xlink" x="0px" y="0px"
	 viewBox="0 0 146.5 146" style="enable-background:new 0 0 146.5 146;" xml:space="preserve">
<style type="text/css">
	.st0{fill:#FFFFFF;stroke:#F05264;stroke-width:5.8496;stroke-miterlimit:10;}
</style>
<path class="st0" d="M73.78,4.19c-0.19,0-0.39,0-0.58,0v0C35.51,4.54,5.14,35.23,5.14,72.93c0,37.93,30.81,68.73,68.73,68.73
	c37.93,0,68.73-30.81,68.73-68.73S111.8,4.19,73.78,4.19z M73.78,114.56c-23.01,0-41.63-18.62-41.63-41.63
	c0-22.81,18.33-41.34,41.14-41.63c0.16,0,0.32,0,0.49,0c23.01,0,41.63,18.62,41.63,41.63S96.79,114.56,73.78,114.56z"/>
</svg>
