<?xml version="1.0" encoding="utf-8"?>
<!-- Generator: Adobe Illustrator 22.1.0, SVG Export Plug-In . SVG Version: 6.00 Build 0)  -->
<svg version="1.1" id="Layer_1" xmlns="http://www.w3.org/2000/svg" xmlns:xlink="http://www.w3.org/1999/xlink" x="0px" y="0px"
	 viewBox="0 0 146.5 146" style="enable-background:new 0 0 146.5 146;" xml:space="preserve">
<style type="text/css">
	.st0{fill:#383838;}
	.st1{fill:#252525;}
	.st2{fill:#EAEAEA;}
	.st3{fill:#72BF44;}
	.st4{fill:#BE4097;}
	.st5{fill:#F05264;}
	.st6{fill:#FFFEF9;}
</style>
<path class="st5" d="M73.2,3c-0.2,0-0.4,0-0.6,0v27.8c0.2,0,0.4,0,0.6,0c23.6,0,42.7,19.1,42.7,42.7c0,23.6-19.1,42.7-42.7,42.7
	S30.5,97.1,30.5,73.5c0-23.4,18.8-42.4,42.2-42.7V3C34,3.3,2.8,34.8,2.8,73.5c0,38.9,31.6,70.5,70.5,70.5s70.5-31.6,70.5-70.5
	C143.8,34.6,112.2,3,73.2,3z"/>
</svg>
