<?xml version="1.0" encoding="utf-8"?>
<!-- Generator: Adobe Illustrator 24.3.0, SVG Export Plug-In . SVG Version: 6.00 Build 0)  -->
<svg version="1.1" id="Layer_1" xmlns="http://www.w3.org/2000/svg" xmlns:xlink="http://www.w3.org/1999/xlink" x="0px" y="0px"
	 viewBox="0 0 235.4 59.9" style="enable-background:new 0 0 235.4 59.9;" xml:space="preserve">
<style type="text/css">
	.st0{fill:#2FB08F;}
</style>
<g>
	<path class="st0" d="M30.3,47.2V30H11.9v17.2H4v-39h7.9v15.1h18.4V8.2h7.9v39H30.3z"/>
	<path class="st0" d="M46.1,47.2v-39h25.4v6.2H54.1v9.2h14.2v6.2H54.1v11.3h17.5v6.2H46.1z"/>
	<path class="st0" d="M106,47.2l-4-9.6H86.2l-4,9.6h-7.7l16.6-39h6.2l16.6,39H106z M94.1,17.9l-5.8,14.2h11.5L94.1,17.9z"/>
	<path class="st0" d="M131.8,47.2h-13.7v-39h13.7c15.6,0,22.2,8.8,22.2,19.5C154,38.5,147.4,47.2,131.8,47.2z M131.4,14.6H126v26.3
		h5.4c10.7,0,14.4-5.3,14.4-13.1C145.9,19.9,142.1,14.6,131.4,14.6z"/>
	<path class="st0" d="M160,47.2v-39h25.4v6.2H168v9.2h14.2v6.2H168v11.3h17.5v6.2H160z"/>
	<path class="st0" d="M220.1,47.7c-4.7,0-8.6-2-11.2-7.7l-4.2-8.3h-4.5v15.5h-7.9v-39h15.3c9.2,0,13.2,5.5,13.2,11.8
		c0,5.5-3.1,9.8-8.6,11.1l3.8,6.7c1.9,3.4,3.8,4.5,6.5,4.5c0.8,0,1.4-0.1,2.2-0.3v5C223.2,47.4,221.5,47.7,220.1,47.7z M200.1,26.1
		h6.1c4.9,0,6.7-2.6,6.7-6c0-3.5-1.8-6.2-6.7-6.2h-6.1V26.1z"/>
</g>
</svg>
