<?xml version="1.0" encoding="utf-8"?>
<!-- Generator: Adobe Illustrator 22.1.0, SVG Export Plug-In . SVG Version: 6.00 Build 0)  -->
<svg version="1.1" id="Layer_1" xmlns="http://www.w3.org/2000/svg" xmlns:xlink="http://www.w3.org/1999/xlink" x="0px" y="0px"
	 viewBox="0 0 146.5 146" style="enable-background:new 0 0 146.5 146;" xml:space="preserve">
<style type="text/css">
	.st0{fill:#383838;}
	.st1{fill:#252525;}
	.st2{fill:#EAEAEA;}
	.st3{fill:#72BF44;}
	.st4{fill:#BE4097;}
	.st5{fill:#F05264;}
	.st6{fill:#FFFEF9;}
</style>
<path class="st3" d="M71.8,5c-0.2,0-0.4,0-0.6,0v26.6c0.2,0,0.4,0,0.6,0c22.6,0,40.9,18.3,40.9,40.9c0,22.6-18.3,40.9-40.9,40.9
	S30.9,95.1,30.9,72.5c0-22.4,18-40.6,40.4-40.9V5c-37,0.3-67,30.4-67,67.5c0,37.3,30.2,67.5,67.5,67.5s67.5-30.2,67.5-67.5
	C139.3,35.2,109.1,5,71.8,5z"/>
</svg>
