<svg id="Layer_1" data-name="Layer 1" xmlns="http://www.w3.org/2000/svg" viewBox="0 0 585.31 170.84"><defs><style>.cls-1{fill:#ef4823;}.cls-2{fill:#fdd317;}</style></defs><path class="cls-1" d="M166.83,318.72a33.77,33.77,0,0,1-4.08,12.21,27.77,27.77,0,0,1-9.34,9.61q-6.15,3.94-16.25,4.66-12.65.89-21.52-5.05a31.22,31.22,0,0,1-12.4-16l20.7-8.65a12.33,12.33,0,0,0,4,6.07,9.09,9.09,0,0,0,6.55,1.94q5.9-.4,7.51-4.61a25.78,25.78,0,0,0,1.15-10.81l-4.59-65.55,24.14-1.69,4.58,65.42A60.69,60.69,0,0,1,166.83,318.72Z" transform="translate(-103.24 -221.01)"/><path class="cls-1" d="M216,343.47l.74-9.68-.28,0a20.3,20.3,0,0,1-3.64,4.24,20.82,20.82,0,0,1-5.05,3.28,28.94,28.94,0,0,1-6.22,2.07,24.37,24.37,0,0,1-7,.46,25.4,25.4,0,0,1-11.67-3.42,23,23,0,0,1-7.36-7.12,25.82,25.82,0,0,1-3.66-9.45,41.85,41.85,0,0,1-.55-10.55l3.27-43.22,23.15,1.75-2.86,37.88a35.51,35.51,0,0,0,0,5.65,13.87,13.87,0,0,0,1.25,4.89,9,9,0,0,0,2.91,3.54,10,10,0,0,0,5.1,1.58,10.55,10.55,0,0,0,9.53-3.79,17.87,17.87,0,0,0,4-10.29l2.86-37.74,23,1.74-5.29,69.87Z" transform="translate(-103.24 -221.01)"/><path class="cls-1" d="M255.14,343.56l-7.45-69.68,22.95-2.45,7.45,69.68Z" transform="translate(-103.24 -221.01)"/><path class="cls-1" d="M327.73,292.22a14,14,0,0,0-5.94-3.15,16.31,16.31,0,0,0-7.06-.39,14.48,14.48,0,0,0-6.28,2.54,16,16,0,0,0-4.35,4.72,18.44,18.44,0,0,0-2.33,6.16,19.58,19.58,0,0,0,0,7,20.72,20.72,0,0,0,2.24,6.62,16.75,16.75,0,0,0,4.2,5.08,15.6,15.6,0,0,0,5.77,3,16.13,16.13,0,0,0,7,.27,19.19,19.19,0,0,0,6.65-2.47,13.28,13.28,0,0,0,4.85-4.73l15.19,13.31a30,30,0,0,1-10,8.37,44.2,44.2,0,0,1-14.05,4.76,46.25,46.25,0,0,1-15.7.05,36,36,0,0,1-13.55-5.23,34.77,34.77,0,0,1-10.17-10.22A38.31,38.31,0,0,1,278.54,313a37.88,37.88,0,0,1,.47-15.77,34.38,34.38,0,0,1,6.31-13,36.66,36.66,0,0,1,11.11-9.41,44.62,44.62,0,0,1,14.72-5.09,39.7,39.7,0,0,1,7.54-.54,49.62,49.62,0,0,1,7.39.69,32.79,32.79,0,0,1,6.73,1.88,26.51,26.51,0,0,1,5.57,3Z" transform="translate(-103.24 -221.01)"/><path class="cls-1" d="M399.75,354a61.47,61.47,0,0,1-.19,10.86,29.41,29.41,0,0,1-2.56,9.23,24.19,24.19,0,0,1-5.75,7.69,37.44,37.44,0,0,1-9.76,6.21,54.13,54.13,0,0,1-6.25,2.42,40.6,40.6,0,0,1-5.9,1.48l-5.83-18.69a26.75,26.75,0,0,0,3.77-.73,21.57,21.57,0,0,0,3.53-1.25c3.23-1.49,5.23-3.32,6-5.47a19.89,19.89,0,0,0,.79-8l-.37-6.18-55.46-50.35L345,290.41l33.05,34.35.38-.18-6.21-46.72,22.23-10.26Z" transform="translate(-103.24 -221.01)"/><path class="cls-1" d="M451,341.88,448.81,304a34.91,34.91,0,0,0-.75-5.59,13.17,13.17,0,0,0-1.89-4.61,9.15,9.15,0,0,0-3.35-3.05,9.75,9.75,0,0,0-5.13-.9q-6,.36-9,4.83a17.19,17.19,0,0,0-2.6,10.8l2.21,37.79-23,1.35L399,238.37l23-1.35,2.65,45.09.28,0a22,22,0,0,1,7.14-8,22.87,22.87,0,0,1,12.31-4,25.88,25.88,0,0,1,12.16,1.82,23.08,23.08,0,0,1,8.25,6.07,25.92,25.92,0,0,1,4.9,8.95,41.67,41.67,0,0,1,1.94,10.31l2.54,43.27Z" transform="translate(-103.24 -221.01)"/><path class="cls-1" d="M554.38,303.4a37.91,37.91,0,0,1-1.51,15.78,34.93,34.93,0,0,1-7.21,12.61,38.79,38.79,0,0,1-11.56,8.74,43.55,43.55,0,0,1-29.9,3,37.6,37.6,0,0,1-13.07-6.25,35.2,35.2,0,0,1-9.52-10.91A37.86,37.86,0,0,1,477,311.24a37.39,37.39,0,0,1,1.52-15.72,34.83,34.83,0,0,1,7.15-12.46,36.54,36.54,0,0,1,11.59-8.53,45.74,45.74,0,0,1,29.89-3,37.22,37.22,0,0,1,13,6,34.45,34.45,0,0,1,9.58,10.77A37.43,37.43,0,0,1,554.38,303.4Zm-22.12,2.24a20,20,0,0,0-1.79-6.47,17.48,17.48,0,0,0-3.79-5.34,16.6,16.6,0,0,0-5.58-3.47,17.49,17.49,0,0,0-14.29,1.45,15.61,15.61,0,0,0-4.7,4.51,17.25,17.25,0,0,0-2.51,6,21.27,21.27,0,0,0,1.34,13.16,18,18,0,0,0,3.73,5.49,15.42,15.42,0,0,0,5.6,3.6,17.4,17.4,0,0,0,14.28-1.44,15.57,15.57,0,0,0,4.76-4.66,18.08,18.08,0,0,0,2.57-6.13A21.13,21.13,0,0,0,532.26,305.64Z" transform="translate(-103.24 -221.01)"/><path class="cls-1" d="M558.11,344.32l5.4-106.25,23.47,1.2-5.4,106.24Z" transform="translate(-103.24 -221.01)"/><path class="cls-1" d="M596.25,343.34l-5.14-69.89,23-1.69,5.14,69.89Z" transform="translate(-103.24 -221.01)"/><path class="cls-1" d="M673.49,295.17a14,14,0,0,0-4.84-4.67,16.46,16.46,0,0,0-6.67-2.33,14.47,14.47,0,0,0-6.74.71,16.06,16.06,0,0,0-5.49,3.33,18.51,18.51,0,0,0-3.94,5.28,19.72,19.72,0,0,0-2,6.71,21.06,21.06,0,0,0,.32,7,17,17,0,0,0,2.63,6,15.68,15.68,0,0,0,4.73,4.44,15.91,15.91,0,0,0,6.62,2.19,19.14,19.14,0,0,0,7.07-.53,13.28,13.28,0,0,0,6-3.21l10.92,17a29.86,29.86,0,0,1-11.94,5.28,44.3,44.3,0,0,1-14.81.69,46.19,46.19,0,0,1-15.11-4.3A36,36,0,0,1,628.66,330a34.61,34.61,0,0,1-6.95-12.63,38.42,38.42,0,0,1-1.22-15.87,37.79,37.79,0,0,1,4.8-15,34.66,34.66,0,0,1,9.65-10.71,36.73,36.73,0,0,1,13.28-6,44.72,44.72,0,0,1,15.55-.82,39.79,39.79,0,0,1,7.4,1.57,49.35,49.35,0,0,1,6.91,2.71,32.54,32.54,0,0,1,5.95,3.66,26.76,26.76,0,0,1,4.52,4.42Z" transform="translate(-103.24 -221.01)"/><path class="cls-2" d="M358.66,279.24a1.19,1.19,0,0,1-2.35-.17c-1.3-14.08-1.54-37,9.38-44.31,6.32-4.23,12.66-1.83,15,2.1,3.05,5.14,2,11.71-1.85,16.27a45.46,45.46,0,0,1-8.77,7.87C363.07,265.89,360,273.15,358.66,279.24Z" transform="translate(-103.24 -221.01)"/><path class="cls-2" d="M346.84,257.68a1.16,1.16,0,0,1-2.11.76c-3.55-5.17-10.38-13.58-17.06-13.14-7.76.52-6.37-12.76,4.59-11.75a7.9,7.9,0,0,1,4.19,1.47C345.56,242.17,346.84,257.68,346.84,257.68Z" transform="translate(-103.24 -221.01)"/><path class="cls-2" d="M360,289.8a.92.92,0,0,1-1.22,1.28c-4.31-2.41-12.09-6-16.65-3.32-5.31,3.08-9-6.79-.87-9.91a6.18,6.18,0,0,1,3.47-.42C353.71,279.29,360,289.8,360,289.8Z" transform="translate(-103.24 -221.01)"/><circle class="cls-2" cx="277.74" cy="5.33" r="5.33"/><circle class="cls-2" cx="217.86" cy="8.93" r="2.59"/><circle class="cls-2" cx="268.31" cy="46.36" r="1.94"/><circle class="cls-2" cx="231.36" cy="40.62" r="2.13"/><circle class="cls-2" cx="245.88" cy="46.32" r="3.8"/><circle class="cls-2" cx="245.37" cy="18.41" r="2.83"/><circle class="cls-2" cx="502.57" cy="32.83" r="12.81"/><circle class="cls-2" cx="154.29" cy="32.83" r="12.81"/><path class="cls-2" d="M175,390.63l-2.11-6.45h-10l-2.17,6.45h-3.72l8.82-25.87h4.39l8.7,25.87Zm-7.09-22.24-4.21,12.83H172Z" transform="translate(-103.24 -221.01)"/><path class="cls-2" d="M198.34,364.76v11.1H210v-11.1h3.49v25.87H210V379H198.34v11.66h-3.48V364.76Z" transform="translate(-103.24 -221.01)"/><path class="cls-2" d="M236.61,364.76v3.07H226v8.07h9.71V379H226v8.59h10.76v3.07H222.51V364.76Z" transform="translate(-103.24 -221.01)"/><path class="cls-2" d="M260.89,390.63l-2.1-6.45H248.74l-2.18,6.45h-3.71l8.82-25.87h4.38l8.7,25.87Zm-7.09-22.24-4.2,12.83H258Z" transform="translate(-103.24 -221.01)"/><path class="cls-2" d="M274.91,364.76v22.76h10.84v3.11H271.42V364.76Z" transform="translate(-103.24 -221.01)"/><path class="cls-2" d="M307,364.76v3.11h-7.91v22.76h-3.49V367.87h-7.95v-3.11Z" transform="translate(-103.24 -221.01)"/><path class="cls-2" d="M317.35,364.76v11.1H329v-11.1h3.49v25.87H329V379H317.35v11.66h-3.49V364.76Z" transform="translate(-103.24 -221.01)"/><path class="cls-2" d="M343.16,364.76,349,376.91l5.93-12.15h4l-8.21,15.71v10.16h-3.49V380.47l-8-15.71Z" transform="translate(-103.24 -221.01)"/><path class="cls-2" d="M421.11,390.63l-2.1-6.45H409l-2.18,6.45h-3.71l8.82-25.87h4.38L425,390.63ZM414,368.39l-4.2,12.83h8.37Z" transform="translate(-103.24 -221.01)"/><path class="cls-2" d="M440.42,364.76c3.52,0,5.92.82,7.53,2.36,2.29,2.14,2.89,5.55,2.89,10.46,0,4.2-.45,8.1-3,10.58-1.61,1.58-3.93,2.47-7.31,2.47h-8.89V364.76Zm-5.25,22.8h5.17c2.29,0,3.9-.56,5-1.73,1.35-1.42,1.84-3.78,1.84-8.06s-.53-6.9-1.84-8.33c-1.05-1.08-2.62-1.61-5-1.61h-5.17Z" transform="translate(-103.24 -221.01)"/><path class="cls-2" d="M467.71,364.76c3.53,0,5.93.82,7.54,2.36,2.29,2.14,2.89,5.55,2.89,10.46,0,4.2-.45,8.1-3,10.58-1.61,1.58-3.94,2.47-7.32,2.47h-8.88V364.76Zm-5.25,22.8h5.17c2.3,0,3.91-.56,5-1.73,1.35-1.42,1.84-3.78,1.84-8.06s-.52-6.9-1.84-8.33c-1.05-1.08-2.62-1.61-5-1.61h-5.17Z" transform="translate(-103.24 -221.01)"/><path class="cls-2" d="M489.76,364.76v25.87h-3.49V364.76Z" transform="translate(-103.24 -221.01)"/><path class="cls-2" d="M516,387.07a10.22,10.22,0,0,1-8.55,4,8.61,8.61,0,0,1-6.52-2.4c-2.4-2.48-3-6.49-3-10.77s.6-8.4,3-10.91c1.54-1.65,3.75-2.7,7.2-2.7a9.66,9.66,0,0,1,7.54,2.92l-2,2.33a7.64,7.64,0,0,0-5.63-2.22c-2.66,0-4.08.94-4.83,2-1,1.35-1.58,3.83-1.58,8.44,0,5,.72,7.32,1.8,8.63a5,5,0,0,0,4.13,1.65,8.12,8.12,0,0,0,6.38-3.08Z" transform="translate(-103.24 -221.01)"/><path class="cls-2" d="M541.16,364.76v3.11h-7.91v22.76h-3.49V367.87h-8v-3.11Z" transform="translate(-103.24 -221.01)"/><path class="cls-2" d="M551.48,364.76v25.87H548V364.76Z" transform="translate(-103.24 -221.01)"/><path class="cls-2" d="M577.78,388.2c-1.62,1.76-4,3-7.8,3s-6.11-1.13-7.69-2.85c-2.06-2.25-2.74-5.74-2.74-10.32s.68-8.28,3-10.8c1.61-1.76,4-3,7.84-3s6.11,1.13,7.68,2.85c2,2.29,2.74,5.74,2.74,10.35S580.1,385.65,577.78,388.2Zm-2.62-19.28a6.41,6.41,0,0,0-4.88-1.69,6.49,6.49,0,0,0-5.07,1.84c-1.34,1.5-1.91,4.2-1.91,8.85,0,4.2.45,7.12,1.84,8.59,1,1.05,2.51,1.65,4.84,1.65s4-.64,5.1-1.8c1.43-1.58,1.95-4,1.95-8.81C577,373.16,576.58,370.46,575.16,368.92Z" transform="translate(-103.24 -221.01)"/><path class="cls-2" d="M593.53,364.76,605.45,386l-.11-21.22h3.45v25.87h-4.65l-11.93-21.19.08,21.19h-3.42V364.76Z" transform="translate(-103.24 -221.01)"/></svg>