<?xml version="1.0" encoding="utf-8"?>
<!-- Generator: Adobe Illustrator 24.3.0, SVG Export Plug-In . SVG Version: 6.00 Build 0)  -->
<svg version="1.1" id="Layer_1" xmlns="http://www.w3.org/2000/svg" xmlns:xlink="http://www.w3.org/1999/xlink" x="0px" y="0px"
	 viewBox="0 0 420 176.6" style="enable-background:new 0 0 420 176.6;" xml:space="preserve">
<style type="text/css">
	.st0{fill:#B38A3B;}
	.st1{fill:#87232F;}
</style>
<g>
	<path class="st0" d="M43.8,113.3L57,69.6h13.3l-20.2,58.1H37.6L17.5,69.6h13.3L43.8,113.3z"/>
	<path class="st0" d="M88.5,127.7h-12V69.6h12V127.7z"/>
	<path class="st0" d="M146.9,127.7h-12l-23.3-38.2v38.2h-12V69.6h12l23.3,38.3V69.6h11.9V127.7z"/>
	<path class="st0" d="M205,100c0,5.7-1,10.7-3,15c-2,4.3-4.9,7.6-8.7,10c-3.8,2.3-8.1,3.5-12.9,3.5c-4.8,0-9.1-1.2-12.9-3.5
		c-3.8-2.3-6.7-5.6-8.8-9.9s-3.1-9.2-3.2-14.8v-2.9c0-5.7,1-10.8,3.1-15.1c2.1-4.3,5-7.7,8.7-10c3.8-2.3,8.1-3.5,12.9-3.5
		c4.8,0,9.1,1.2,12.9,3.5c3.8,2.3,6.7,5.7,8.7,10c2.1,4.3,3.1,9.4,3.1,15.1V100z M192.9,97.4c0-6.1-1.1-10.7-3.3-13.9
		c-2.2-3.2-5.3-4.7-9.3-4.7c-4,0-7.1,1.6-9.3,4.7c-2.2,3.1-3.3,7.7-3.3,13.7v2.8c0,5.9,1.1,10.5,3.3,13.8c2.2,3.3,5.3,4.9,9.4,4.9
		c4,0,7.1-1.6,9.3-4.7c2.2-3.2,3.2-7.7,3.3-13.8V97.4z"/>
	<path class="st1" d="M254.1,79.3h-17.8v48.4h-12V79.3h-17.6v-9.7h47.3V79.3z"/>
	<path class="st1" d="M295.8,102.5h-23v15.6h27v9.6h-38.9V69.6h38.9v9.7h-26.9v13.8h23V102.5z"/>
	<path class="st1" d="M352.5,108.4c-0.5,6.3-2.8,11.2-6.9,14.8c-4.2,3.6-9.6,5.4-16.5,5.4c-7.4,0-13.3-2.5-17.6-7.5
		c-4.3-5-6.4-11.9-6.4-20.6v-3.6c0-5.6,1-10.5,3-14.8s4.8-7.5,8.4-9.8c3.7-2.3,7.9-3.4,12.7-3.4c6.7,0,12.1,1.8,16.2,5.4
		c4.1,3.6,6.5,8.6,7.1,15.1h-12c-0.3-3.8-1.3-6.5-3.1-8.2c-1.8-1.7-4.5-2.5-8.2-2.5c-4,0-7,1.4-9,4.3c-2,2.9-3,7.3-3.1,13.3v4.4
		c0,6.3,1,10.9,2.9,13.8c1.9,2.9,4.9,4.3,9,4.3c3.7,0,6.5-0.8,8.3-2.5c1.8-1.7,2.9-4.3,3.1-7.8H352.5z"/>
	<path class="st1" d="M393.1,115.7h-21l-4,12h-12.7L377,69.6h11.1l21.7,58.1h-12.7L393.1,115.7z M375.4,106.1h14.5l-7.3-21.7
		L375.4,106.1z"/>
</g>
<g>
	<path d="M36.9,143.5h-7.8v21.8h-3.2v-21.8H18v-2.6h18.9V143.5z"/>
	<path d="M43.1,149.4c1.4-1.7,3.2-2.5,5.4-2.5c3.8,0,5.8,2.2,5.8,6.5v12h-3.1v-12c0-1.3-0.3-2.3-0.9-2.9s-1.5-0.9-2.7-0.9
		c-1,0-1.9,0.3-2.6,0.8c-0.8,0.5-1.4,1.2-1.8,2.1v12.9H40v-25.7h3.1V149.4z"/>
	<path d="M66.5,165.6c-2.5,0-4.5-0.8-6-2.4c-1.5-1.6-2.3-3.8-2.3-6.5v-0.6c0-1.8,0.3-3.4,1-4.8c0.7-1.4,1.6-2.5,2.9-3.3
		s2.6-1.2,4-1.2c2.4,0,4.2,0.8,5.5,2.3s2,3.8,2,6.7v1.3H61.2c0,1.8,0.6,3.2,1.6,4.3c1,1.1,2.3,1.7,3.8,1.7c1.1,0,2-0.2,2.8-0.7
		c0.8-0.4,1.4-1,2-1.8l1.9,1.5C71.8,164.5,69.5,165.6,66.5,165.6z M66.1,149.4c-1.3,0-2.3,0.5-3.2,1.4c-0.8,0.9-1.4,2.2-1.6,3.8h9.1
		v-0.2c-0.1-1.6-0.5-2.8-1.3-3.7C68.4,149.8,67.4,149.4,66.1,149.4z"/>
	<path d="M86.1,165.3v-24.4h8c2.6,0,4.6,0.5,6,1.6s2,2.7,2,4.9c0,1.1-0.3,2.1-1,3s-1.5,1.6-2.6,2c1.3,0.4,2.4,1.1,3.1,2.1
		s1.1,2.3,1.1,3.7c0,2.2-0.7,3.9-2.1,5.2s-3.4,1.9-6,1.9H86.1z M89.3,151.3h4.9c1.4,0,2.5-0.4,3.4-1.1c0.8-0.7,1.3-1.7,1.3-2.9
		c0-1.3-0.4-2.3-1.2-2.9c-0.8-0.6-2-0.9-3.6-0.9h-4.8V151.3z M89.3,153.9v8.8h5.3c1.5,0,2.7-0.4,3.5-1.2c0.9-0.8,1.3-1.8,1.3-3.2
		c0-2.9-1.6-4.4-4.8-4.4H89.3z"/>
	<path d="M114.5,165.6c-2.5,0-4.5-0.8-6-2.4c-1.5-1.6-2.3-3.8-2.3-6.5v-0.6c0-1.8,0.3-3.4,1-4.8c0.7-1.4,1.6-2.5,2.9-3.3
		s2.6-1.2,4-1.2c2.4,0,4.2,0.8,5.5,2.3s2,3.8,2,6.7v1.3h-12.3c0,1.8,0.6,3.2,1.6,4.3c1,1.1,2.3,1.7,3.8,1.7c1.1,0,2-0.2,2.8-0.7
		c0.8-0.4,1.4-1,2-1.8l1.9,1.5C119.8,164.5,117.5,165.6,114.5,165.6z M114.1,149.4c-1.3,0-2.3,0.5-3.2,1.4c-0.8,0.9-1.4,2.2-1.6,3.8
		h9.1v-0.2c-0.1-1.6-0.5-2.8-1.3-3.7C116.4,149.8,115.4,149.4,114.1,149.4z"/>
	<path d="M135.7,160.5c0-0.8-0.3-1.5-0.9-2s-1.7-0.9-3.3-1.2c-1.6-0.3-2.8-0.7-3.7-1.2c-0.9-0.5-1.6-1-2-1.7
		c-0.4-0.6-0.7-1.4-0.7-2.3c0-1.5,0.6-2.7,1.9-3.8c1.3-1,2.9-1.5,4.8-1.5c2.1,0,3.7,0.5,5,1.6c1.3,1.1,1.9,2.4,1.9,4.1h-3.1
		c0-0.8-0.4-1.6-1.1-2.2s-1.6-0.9-2.7-0.9c-1.1,0-2,0.2-2.6,0.7c-0.6,0.5-1,1.1-1,1.9c0,0.7,0.3,1.3,0.9,1.7s1.7,0.7,3.2,1.1
		c1.5,0.3,2.8,0.8,3.8,1.2s1.7,1.1,2.1,1.7s0.7,1.5,0.7,2.5c0,1.6-0.6,2.9-1.9,3.9s-3,1.5-5,1.5c-1.5,0-2.7-0.3-3.9-0.8
		c-1.1-0.5-2-1.2-2.6-2.2c-0.6-0.9-0.9-1.9-0.9-3h3.1c0.1,1,0.5,1.9,1.2,2.5c0.8,0.6,1.8,0.9,3.1,0.9c1.2,0,2.1-0.2,2.8-0.7
		S135.7,161.3,135.7,160.5z"/>
	<path d="M147.1,142.8v4.4h3.4v2.4h-3.4v11.3c0,0.7,0.2,1.3,0.5,1.6c0.3,0.4,0.8,0.5,1.5,0.5c0.4,0,0.8-0.1,1.5-0.2v2.5
		c-0.8,0.2-1.6,0.3-2.4,0.3c-1.4,0-2.4-0.4-3.1-1.3s-1.1-2-1.1-3.6v-11.2h-3.3v-2.4h3.3v-4.4H147.1z"/>
	<path d="M181,157.6c-0.3,2.6-1.3,4.6-2.9,6c-1.6,1.4-3.7,2.1-6.4,2.1c-2.9,0-5.2-1-6.9-3.1c-1.7-2.1-2.6-4.8-2.6-8.3v-2.3
		c0-2.3,0.4-4.3,1.2-6s2-3,3.4-4c1.5-0.9,3.2-1.4,5.2-1.4c2.6,0,4.7,0.7,6.2,2.2c1.6,1.4,2.5,3.4,2.7,6h-3.2
		c-0.3-1.9-0.9-3.4-1.8-4.2s-2.2-1.3-3.9-1.3c-2.1,0-3.7,0.8-4.8,2.3s-1.8,3.7-1.8,6.5v2.4c0,2.7,0.6,4.8,1.7,6.3
		c1.1,1.6,2.7,2.3,4.6,2.3c1.8,0,3.2-0.4,4.1-1.2c1-0.8,1.6-2.2,1.9-4.2H181z"/>
	<path d="M196.1,165.3c-0.2-0.4-0.3-1-0.4-1.9c-1.4,1.5-3.2,2.2-5.2,2.2c-1.8,0-3.3-0.5-4.4-1.5c-1.1-1-1.7-2.3-1.7-3.8
		c0-1.9,0.7-3.4,2.2-4.4c1.4-1,3.5-1.6,6.1-1.6h3v-1.4c0-1.1-0.3-1.9-1-2.6c-0.6-0.6-1.6-1-2.9-1c-1.1,0-2,0.3-2.8,0.8
		c-0.7,0.6-1.1,1.2-1.1,2h-3.1c0-0.9,0.3-1.8,1-2.6c0.6-0.8,1.5-1.5,2.6-2s2.3-0.7,3.6-0.7c2.1,0,3.7,0.5,4.9,1.6
		c1.2,1,1.8,2.5,1.8,4.3v8.3c0,1.7,0.2,3,0.6,4v0.3H196.1z M190.9,162.9c1,0,1.9-0.3,2.8-0.8s1.5-1.2,1.9-2v-3.7h-2.4
		c-3.8,0-5.7,1.1-5.7,3.3c0,1,0.3,1.7,1,2.3C189.1,162.7,189.9,162.9,190.9,162.9z"/>
	<path d="M206.9,165.3h-3.1v-25.7h3.1V165.3z"/>
	<path d="M211.9,142.4c0-0.5,0.2-0.9,0.5-1.3c0.3-0.3,0.8-0.5,1.4-0.5c0.6,0,1.1,0.2,1.4,0.5c0.3,0.3,0.5,0.8,0.5,1.3
		s-0.2,0.9-0.5,1.3c-0.3,0.3-0.8,0.5-1.4,0.5c-0.6,0-1.1-0.2-1.4-0.5C212.1,143.3,211.9,142.9,211.9,142.4z M215.3,165.3h-3.1v-18.1
		h3.1V165.3z"/>
	<path d="M221.8,165.3v-15.7h-2.9v-2.4h2.9v-1.9c0-1.9,0.5-3.4,1.6-4.5c1-1.1,2.5-1.6,4.4-1.6c0.7,0,1.4,0.1,2.1,0.3l-0.2,2.5
		c-0.5-0.1-1.1-0.2-1.7-0.2c-1,0-1.8,0.3-2.3,0.9c-0.5,0.6-0.8,1.4-0.8,2.5v1.9h3.9v2.4h-3.9v15.7H221.8z"/>
	<path d="M231.3,156.1c0-1.8,0.3-3.4,1-4.8s1.7-2.5,2.9-3.3c1.2-0.8,2.7-1.2,4.3-1.2c2.5,0,4.5,0.9,6,2.6c1.5,1.7,2.3,4,2.3,6.8v0.2
		c0,1.8-0.3,3.3-1,4.8c-0.7,1.4-1.6,2.5-2.9,3.3s-2.7,1.2-4.3,1.2c-2.5,0-4.4-0.9-6-2.6c-1.5-1.7-2.3-4-2.3-6.8V156.1z M234.4,156.4
		c0,2,0.5,3.6,1.4,4.8s2.2,1.8,3.7,1.8c1.6,0,2.8-0.6,3.8-1.9c0.9-1.2,1.4-3,1.4-5.2c0-2-0.5-3.6-1.4-4.8c-0.9-1.2-2.2-1.9-3.8-1.9
		c-1.5,0-2.8,0.6-3.7,1.8C234.9,152.4,234.4,154.2,234.4,156.4z"/>
	<path d="M260.5,150c-0.5-0.1-1-0.1-1.5-0.1c-2,0-3.4,0.9-4.1,2.6v12.9h-3.1v-18.1h3l0.1,2.1c1-1.6,2.5-2.4,4.3-2.4
		c0.6,0,1.1,0.1,1.4,0.2V150z"/>
	<path d="M266.3,147.2l0.1,2.3c1.4-1.7,3.2-2.6,5.4-2.6c3.8,0,5.8,2.2,5.8,6.5v12h-3.1v-12c0-1.3-0.3-2.3-0.9-2.9
		c-0.6-0.6-1.5-0.9-2.7-0.9c-1,0-1.9,0.3-2.6,0.8c-0.8,0.5-1.4,1.2-1.8,2.1v12.9h-3.1v-18.1H266.3z"/>
	<path d="M282.3,142.4c0-0.5,0.2-0.9,0.5-1.3c0.3-0.3,0.8-0.5,1.4-0.5s1.1,0.2,1.4,0.5s0.5,0.8,0.5,1.3s-0.2,0.9-0.5,1.3
		s-0.8,0.5-1.4,0.5s-1.1-0.2-1.4-0.5C282.4,143.3,282.3,142.9,282.3,142.4z M285.6,165.3h-3.1v-18.1h3.1V165.3z"/>
	<path d="M301.8,165.3c-0.2-0.4-0.3-1-0.4-1.9c-1.4,1.5-3.2,2.2-5.2,2.2c-1.8,0-3.3-0.5-4.4-1.5c-1.1-1-1.7-2.3-1.7-3.8
		c0-1.9,0.7-3.4,2.2-4.4c1.4-1,3.5-1.6,6.1-1.6h3v-1.4c0-1.1-0.3-1.9-1-2.6c-0.6-0.6-1.6-1-2.9-1c-1.1,0-2,0.3-2.8,0.8
		c-0.7,0.6-1.1,1.2-1.1,2h-3.1c0-0.9,0.3-1.8,1-2.6c0.6-0.8,1.5-1.5,2.6-2c1.1-0.5,2.3-0.7,3.6-0.7c2.1,0,3.7,0.5,4.9,1.6
		c1.2,1,1.8,2.5,1.8,4.3v8.3c0,1.7,0.2,3,0.6,4v0.3H301.8z M296.6,162.9c1,0,1.9-0.3,2.8-0.8c0.9-0.5,1.5-1.2,1.9-2v-3.7h-2.4
		c-3.8,0-5.7,1.1-5.7,3.3c0,1,0.3,1.7,1,2.3C294.8,162.7,295.6,162.9,296.6,162.9z"/>
	<path d="M323.5,157.6l0.5,3.2l0.7-2.9l4.8-17h2.7l4.7,17l0.7,2.9l0.5-3.3l3.8-16.7h3.2l-5.9,24.4h-2.9l-5-17.8l-0.4-1.9l-0.4,1.9
		l-5.2,17.8h-2.9l-5.9-24.4h3.2L323.5,157.6z"/>
	<path d="M348.2,142.4c0-0.5,0.2-0.9,0.5-1.3c0.3-0.3,0.8-0.5,1.4-0.5s1.1,0.2,1.4,0.5s0.5,0.8,0.5,1.3s-0.2,0.9-0.5,1.3
		s-0.8,0.5-1.4,0.5s-1.1-0.2-1.4-0.5C348.4,143.3,348.2,142.9,348.2,142.4z M351.6,165.3h-3.1v-18.1h3.1V165.3z"/>
	<path d="M359.5,147.2l0.1,2.3c1.4-1.7,3.2-2.6,5.4-2.6c3.8,0,5.8,2.2,5.8,6.5v12h-3.1v-12c0-1.3-0.3-2.3-0.9-2.9
		c-0.6-0.6-1.5-0.9-2.7-0.9c-1,0-1.9,0.3-2.6,0.8c-0.8,0.5-1.4,1.2-1.8,2.1v12.9h-3.1v-18.1H359.5z"/>
	<path d="M383,165.6c-2.5,0-4.5-0.8-6-2.4s-2.3-3.8-2.3-6.5v-0.6c0-1.8,0.3-3.4,1-4.8c0.7-1.4,1.6-2.5,2.9-3.3s2.6-1.2,4-1.2
		c2.4,0,4.2,0.8,5.5,2.3s2,3.8,2,6.7v1.3h-12.3c0,1.8,0.6,3.2,1.6,4.3s2.3,1.7,3.8,1.7c1.1,0,2-0.2,2.8-0.7c0.8-0.4,1.4-1,2-1.8
		l1.9,1.5C388.3,164.5,386,165.6,383,165.6z M382.6,149.4c-1.3,0-2.3,0.5-3.2,1.4c-0.8,0.9-1.4,2.2-1.6,3.8h9.1v-0.2
		c-0.1-1.6-0.5-2.8-1.3-3.7C384.9,149.8,383.9,149.4,382.6,149.4z"/>
	<path d="M404.2,160.5c0-0.8-0.3-1.5-0.9-2c-0.6-0.5-1.7-0.9-3.3-1.2s-2.8-0.7-3.7-1.2c-0.9-0.5-1.6-1-2-1.7
		c-0.4-0.6-0.7-1.4-0.7-2.3c0-1.5,0.6-2.7,1.9-3.8c1.3-1,2.9-1.5,4.8-1.5c2.1,0,3.7,0.5,5,1.6s1.9,2.4,1.9,4.1H404
		c0-0.8-0.4-1.6-1.1-2.2c-0.7-0.6-1.6-0.9-2.7-0.9c-1.1,0-2,0.2-2.6,0.7c-0.6,0.5-1,1.1-1,1.9c0,0.7,0.3,1.3,0.9,1.7
		s1.7,0.7,3.2,1.1c1.5,0.3,2.8,0.8,3.8,1.2c1,0.5,1.7,1.1,2.1,1.7c0.5,0.7,0.7,1.5,0.7,2.5c0,1.6-0.6,2.9-1.9,3.9s-3,1.5-5,1.5
		c-1.5,0-2.7-0.3-3.9-0.8s-2-1.2-2.6-2.2c-0.6-0.9-0.9-1.9-0.9-3h3.1c0.1,1,0.5,1.9,1.2,2.5c0.8,0.6,1.8,0.9,3.1,0.9
		c1.2,0,2.1-0.2,2.8-0.7C403.9,161.9,404.2,161.3,404.2,160.5z"/>
</g>
<g>
	<path class="st0" d="M41,64.7c14.1,0,25.6-11.4,25.6-25.5c0-0.3-0.2-0.6-0.5-0.8c-0.3-0.2-0.7-0.1-0.9,0L59.7,42
		c1.4-2.7,2.2-5.8,2.2-8.9c0-0.3-0.1-0.6-0.4-0.7c-0.2-0.1-0.4-0.2-0.6-0.2c-0.1,0-0.2,0-0.3,0l-8.7,2.5c1.4-3.1,2.2-7,2.2-10.8
		c0-0.3-0.1-0.6-0.4-0.7c-0.2-0.1-0.4-0.2-0.6-0.2c-0.1,0-0.2,0-0.3,0c-1.8,0.5-3.4,1.2-5.1,2.3c-0.7-7.9-6-14.1-6.3-14.3
		c-0.2-0.2-0.4-0.3-0.7-0.3c-0.3,0-0.5,0.1-0.7,0.3c-0.2,0.3-5.6,6.4-6.3,14.3c-1.6-1-3.2-1.8-5-2.3c-0.1,0-0.2,0-0.3,0
		c-0.2,0-0.4,0.1-0.6,0.2c-0.2,0.2-0.4,0.4-0.4,0.7c0,3.8,0.8,7.8,2.2,10.8l-8.7-2.5c-0.1,0-0.2,0-0.3,0c-0.2,0-0.4,0.1-0.6,0.2
		c-0.2,0.2-0.4,0.4-0.4,0.7c0,3.1,0.8,6.2,2.2,9l-5.4-3.6c-0.2-0.1-0.3-0.2-0.5-0.2c-0.1,0-0.3,0-0.4,0.1c-0.3,0.2-0.5,0.5-0.5,0.8
		C15.5,53.2,26.9,64.6,41,64.7z M25.2,46C25.2,46,25.3,46,25.2,46c0.1,0.1,0.2,0.1,0.2,0.1c0.1,0,0.1,0,0.2,0c0.1,0,0.1,0,0.2,0
		c0.1,0,0.1,0,0.2,0c0.1,0,0.1,0,0.2-0.1c0.1,0,0.1-0.1,0.2-0.1c0,0,0,0,0.1,0c0,0,0-0.1,0.1-0.1c0,0,0.1,0,0.1-0.1c0,0,0,0,0-0.1
		c0-0.1,0.1-0.1,0.1-0.2c0-0.1,0-0.1,0-0.2c0-0.1,0-0.1,0-0.2c0-0.1,0-0.1,0-0.2c0-0.1,0-0.1-0.1-0.2c0-0.1-0.1-0.1-0.1-0.2
		c0,0,0,0,0-0.1c-2.6-2.9-4.1-6.6-4.4-10.5l9.5,2.8c0,0,0,0,0,0c0.1,0,0.1,0,0.2,0c0.1,0,0.1,0,0.2,0c0,0,0,0,0,0
		c0.1,0,0.2-0.1,0.3-0.1c0,0,0,0,0,0c0,0,0,0,0.1-0.1c0.1-0.1,0.1-0.1,0.2-0.2c0-0.1,0.1-0.1,0.1-0.2c0,0,0-0.1,0.1-0.1c0,0,0,0,0,0
		c0-0.1,0-0.1,0-0.2c0,0,0-0.1,0-0.1c0-0.1,0-0.1,0-0.1c0-0.1,0-0.1-0.1-0.2c0,0,0,0,0,0C31,33,29.9,28.9,29.7,25
		c1.6,0.6,3.1,1.4,4.7,2.6c0,0,0.1,0,0.1,0c0.1,0,0.1,0.1,0.2,0.1c0.1,0,0.1,0,0.2,0c0,0,0.1,0,0.1,0c0,0,0,0,0.1,0
		c0.1,0,0.1,0,0.2,0c0.1,0,0.1,0,0.2-0.1c0.1,0,0.1-0.1,0.1-0.1c0,0,0.1-0.1,0.1-0.1c0,0,0,0,0.1,0c0,0,0-0.1,0-0.1
		c0-0.1,0.1-0.1,0.1-0.2c0-0.1,0-0.1,0-0.2c0,0,0-0.1,0-0.1c0-6.4,3.7-11.9,5.3-13.9c1.6,2.1,5.2,7.6,5.2,13.9c0,0,0,0.1,0,0.1
		c0,0.1,0,0.1,0,0.2c0,0.1,0,0.1,0.1,0.2c0,0,0,0.1,0,0.1c0,0,0,0,0.1,0c0,0,0.1,0.1,0.1,0.1c0,0,0.1,0.1,0.1,0.1
		c0.1,0,0.1,0,0.2,0.1c0.1,0,0.1,0,0.2,0c0,0,0,0,0.1,0c0,0,0.1,0,0.1,0c0.1,0,0.1,0,0.2,0c0.1,0,0.1,0,0.2-0.1c0,0,0.1,0,0.1,0
		c1.6-1.2,3-1.9,4.7-2.5c-0.2,3.9-1.3,7.9-2.9,10.5c0,0,0,0,0,0c0,0.1,0,0.1-0.1,0.2c0,0.1,0,0.1,0,0.1c0,0,0,0.1,0,0.1
		c0,0.1,0,0.1,0,0.2c0,0,0,0,0,0c0,0,0,0.1,0.1,0.1c0,0.1,0.1,0.1,0.1,0.2c0,0.1,0.1,0.1,0.2,0.2c0,0,0,0.1,0.1,0.1c0,0,0,0,0,0
		c0.1,0,0.2,0.1,0.3,0.1c0,0,0.1,0,0.1,0c0.1,0,0.1,0,0.2,0c0.1,0,0.1,0,0.2,0c0,0,0,0,0,0l9.6-2.7c-0.3,3.9-1.8,7.5-4.5,10.5
		c0,0,0,0,0,0.1c0,0.1-0.1,0.1-0.1,0.2c0,0.1-0.1,0.1-0.1,0.2c0,0.1,0,0.1,0,0.2c0,0.1,0,0.1,0,0.2c0,0.1,0,0.1,0,0.2
		c0,0.1,0,0.1,0.1,0.2c0,0,0,0,0,0.1c0,0,0.1,0.1,0.1,0.1c0,0,0,0.1,0.1,0.1c0,0,0,0,0.1,0c0.1,0,0.1,0.1,0.2,0.1
		c0.1,0,0.1,0,0.2,0.1c0.1,0,0.1,0,0.2,0c0.1,0,0.1,0,0.2,0c0.1,0,0.1,0,0.2,0c0.1,0,0.1,0,0.2-0.1c0,0,0,0,0.1,0l7.8-5.2
		C63.7,53.2,53.5,62.9,41,62.8c-12.5,0-22.7-9.8-23.6-22L25.2,46z"/>
	<path class="st0" d="M28.1,54.1c3.5,2.7,7.6,4.2,11.9,4.4l0,5.3c0,5.6,4.5,10.2,10.1,10.2c0.5,0,0.9-0.4,0.9-0.9
		c0-0.5-0.4-0.9-0.9-0.9c-4.6,0-8.3-3.7-8.3-8.3l0-5.3c4.4-0.2,8.5-1.7,12-4.4c0.4-0.3,0.5-0.9,0.2-1.3c-0.3-0.4-0.9-0.5-1.3-0.2
		c-3.1,2.4-6.9,3.8-10.8,4l0-10.5c3.2-0.2,6.3-1.3,8.9-3.2c0.4-0.3,0.5-0.9,0.2-1.3c-0.3-0.4-0.9-0.5-1.3-0.2
		c-2.3,1.7-4.9,2.7-7.8,2.8l0-10.5c2-0.1,4-0.7,5.7-1.7c0.4-0.3,0.6-0.8,0.3-1.3c-0.2-0.3-0.5-0.5-0.8-0.5c-0.2,0-0.3,0-0.5,0.1
		c-1.5,0.8-3.1,1.3-4.8,1.4l0-8.2c0-0.5-0.4-0.9-0.9-0.9c-0.5,0-0.9,0.4-0.9,0.9l0,8.2c-1.7-0.1-3.3-0.6-4.8-1.4
		c-0.4-0.3-1-0.1-1.3,0.3c-0.3,0.4-0.1,1,0.3,1.3c1.7,1,3.7,1.6,5.7,1.7l0,10.5c-2.8-0.2-5.5-1.2-7.8-2.9c-0.2-0.1-0.4-0.2-0.6-0.2
		c-0.3,0-0.6,0.1-0.7,0.4c-0.3,0.4-0.2,1,0.2,1.3c2.6,2,5.6,3.1,8.9,3.2l0,10.5c-4-0.2-7.7-1.6-10.8-4c-0.2-0.1-0.4-0.2-0.6-0.2
		c-0.3,0-0.5,0.1-0.7,0.4C27.7,53.2,27.7,53.7,28.1,54.1z"/>
</g>
</svg>
