<?xml version="1.0" encoding="utf-8"?>
<!-- Generator: Adobe Illustrator 24.3.0, SVG Export Plug-In . SVG Version: 6.00 Build 0)  -->
<svg version="1.1" id="Layer_1" xmlns="http://www.w3.org/2000/svg" xmlns:xlink="http://www.w3.org/1999/xlink" x="0px" y="0px"
	 viewBox="0 0 305 306" style="enable-background:new 0 0 305 306;" xml:space="preserve">
<style type="text/css">
	.st0{fill:#ED1C24;}
	.st1{clip-path:url(#SVGID_2_);fill:#FFFFFF;}
</style>
<rect x="7.8" y="9.6" class="st0" width="286.3" height="285.8"/>
<g>
	<defs>
		<rect id="SVGID_1_" x="7.8" y="9.6" width="286.3" height="285.8"/>
	</defs>
	<clipPath id="SVGID_2_">
		<use xlink:href="#SVGID_1_"  style="overflow:visible;"/>
	</clipPath>
	<path class="st1" d="M88.3,108.6c-8.4-22.8-35.2-10.3-40.4-7.6c-0.5,0.3-0.8,0.9-0.7,1.5l19.3,79.3c0.4,1.6,2,2.6,3.6,2.3
		c1.7-0.3,2.9-2,2.5-3.7l-7.1-34.9c-0.1-0.5,0.1-1.1,0.6-1.4C71,141.4,95,126.6,88.3,108.6 M63.9,135.6L59.6,104
		c-0.1-0.7,0.4-1.3,1-1.4c4.2-0.9,18.3-2.8,19.9,9.5c2,15.8-10.3,22.7-14.7,24.6C64.9,137,64,136.5,63.9,135.6"/>
	<path class="st1" d="M95.3,143.5c-2.8-3.3-10.3-7.4-20.7,2.1c-8.8,8-3.4,16.5-2.4,17.7c2.2,2.8,9.4,8.9,18.9,1
		C101,156.1,98.4,147.2,95.3,143.5 M88.5,159.1c-4.4,3.9-8.5,1.1-10-0.3c-0.3-0.3-0.7-0.7-0.9-1.1c-0.8-1.3-2.4-4.9,1.9-8.8
		c5.6-5.1,9.7-2.8,11.2-1.1C92.1,149.3,93.8,154.5,88.5,159.1"/>
	<path class="st1" d="M112.1,126.9c-0.4,2.2-1.3,0.3-3-0.5c-1.6-0.7-2.9-0.6-4,0.5c-3.2,3.1-1.4,6.4-1.4,6.4s3.6,4.9,8.3,2.1
		c5.8-3.4,4.2-10.9,1.8-14.2c-3.3-4.7-12.9-5-17.6-1c-4.5,3.8-7.3,11.2-2.5,18c7,10,11.6,10.5,16.7,20c6.1,11.4-1.2,17.5-6,17.7
		c-4.8,0.2-9.6-3.4-8.2-5.6c1-1.7,1.5-0.1,4.3,0.8c2.1,0.7,3.6,0.7,5.4-1.6c3.3-4.3-2.1-7.6-2.1-7.6s-5.4-2.8-10.5,5.1
		c-3.8,5.8,2.8,12.8,2.8,12.8s9.1,10.3,18.4,0.4c12.3-13.2,1.6-27.9,1.6-27.9s-3.6-4.7-12.1-11.9c-13.3-11.2-1.9-17.2,2-17.2
		C109,122.9,112.6,124.1,112.1,126.9"/>
	<path class="st1" d="M118,133.4l4-1c0.9-0.2,1.9,0.5,1.9,1.4V153c0,0.8-0.5,1.5-1.3,1.7l-1.2,0.4c-1.1,0.3-2.2-0.4-2.4-1.5
		l-2.1-18.6C116.8,134.3,117.3,133.6,118,133.4"/>
	<path class="st1" d="M141.3,132.3l3-0.2c1.3-0.1,2.3,1.1,2.1,2.4l-3.4,18.1c-0.2,0.9-0.9,1.5-1.7,1.6l-0.9,0.1
		c-1.2,0.1-2.3-0.9-2.2-2.1l1.4-18C139.6,133.2,140.4,132.4,141.3,132.3"/>
	<path class="st1" d="M171.9,137.6l2.8-0.2c1.4-0.1,2.4,1.1,2.2,2.5l-3.4,18c-0.2,0.9-0.9,1.6-1.8,1.7l-0.8,0.1
		c-1.3,0.2-2.4-0.9-2.3-2.2l1.4-17.9C170.1,138.5,170.9,137.6,171.9,137.6"/>
	<path class="st1" d="M114.4,115c0-2.4,1.9-4.3,4.3-4.3s4.3,1.9,4.3,4.3c0,2.4-1.9,4.3-4.3,4.3S114.4,117.3,114.4,115"/>
	<path class="st1" d="M141.8,112c0-2.4,1.9-4.3,4.3-4.3c2.4,0,4.3,1.9,4.3,4.3c0,2.4-1.9,4.3-4.3,4.3
		C143.7,116.3,141.8,114.4,141.8,112"/>
	<path class="st1" d="M169.7,124.4c0-2.4,1.9-4.3,4.3-4.3c2.4,0,4.3,1.9,4.3,4.3c0,2.4-1.9,4.3-4.3,4.3
		C171.6,128.7,169.7,126.8,169.7,124.4"/>
	<path class="st1" d="M127.7,120.4l1.4-17.9c0.1-1.3,1.1-2.5,2.4-2.7l5.3-1.1c1.4-0.3,2.7,0.9,2.5,2.4l-3.3,17.8
		c-0.1,0.4,0.3,0.8,0.7,0.7l7.4-1.4c1.4-0.3,2.6,1,2.2,2.3l-0.7,2.5c-0.3,1.3-1.4,2.3-2.7,2.5l-6.7,1.2c-0.3,0-0.5,0.2-0.5,0.5
		c-0.4,2-1.8,10.8-1.5,16.9c0.3,7-2.4,20.6,5.1,23.1c0.5,0.2,1,0.3,1.4,0.3c1.6,0.2,1.9-2.2,0.3-2.5c-1.8-0.3-3.9-1.2-3.6-4
		c0.5-4.7,5.3-3.9,5.3-3.9s4.4,0.5,4.2,4.9c-0.2,4.4-2.6,10.2-10,10c-10.5-0.3-9.8-16.3-9.8-16.3l0.7-26.6c0-0.4-0.3-0.7-0.7-0.6
		l-2.1,0.3c-1.4,0.2-2.8-0.7-3.1-2.1l-0.4-2c-0.3-1.5,0.7-3,2.2-3.2l3.8-0.6C127.4,120.9,127.6,120.7,127.7,120.4"/>
	<path class="st1" d="M185,126.6l3.3-22.3c0.1-0.7,0.6-1.2,1.3-1.3l7.5-1.3c1.2-0.2,2.1,0.9,1.8,2l-6.7,21.6c-0.2,0.5,0.3,1,0.8,0.9
		l5.6-1.5c1.3-0.3,2.5,0.7,2.4,2l-0.2,2c-0.1,1.1-0.9,2-2,2.2l-7.2,1.6c-0.7,0.2-1.3,0.7-1.5,1.5c-0.7,2.7-2.3,9.2-2.4,14.1
		c-0.2,6.3-3.8,18.2,3,21c2.6,1.1,3.5,0,3.8-0.9c0.1-0.3-0.1-0.7-0.5-0.7c-1.6-0.1-5.3-0.7-4.6-4c0.8-4.2,5.2-3,5.2-3
		s4.1,0.8,3.6,4.7c-0.5,3.9-2.4,8.2-10.1,8.1c-10.7-0.1-9-15.7-9-15.7l3.6-22.7c0.1-0.5-0.4-0.9-0.8-0.7l-2.4,0.6
		c-1.2,0.3-2.4-0.6-2.5-1.8l0-0.6c-0.1-1.1,0.6-2.2,1.7-2.5l5-1.5C184.3,128,184.9,127.4,185,126.6"/>
	<path class="st1" d="M114.6,82.6l-1.9-2.5c-0.2-0.2-0.5-0.3-0.7-0.2l-21.3,6.7c0,0-6.1,2.3-4,6.3c1.4,2.8,3.4,2.7,4.9,2.2
		c1.5-0.6,1-2.2,1-2.2s-0.4-1.8-2.1-1.3c-1.3,0.4-0.9,1.9-0.6,2.5c0.1,0.1,0,0.3-0.2,0.3c-0.4,0-0.9-0.1-1-1.2
		c-0.3-3,4.6-4.4,7.1-5.1c0.6-0.2,1.8-0.5,3.3-0.8l-0.4,20.4c0,0,0.3,6.5,4.7,5.8c3.2-0.5,3.7-2.3,3.6-3.9c-0.1-1.4-1.3-1.4-1.3-1.4
		s-1.2,0.1-1.2,1.3c0,0.8,0.4,0.9,1.1,0.8c0.2,0,0.1,0.7,0.1,0.8c-0.1,0.4-0.4,0.9-1.5,0.6c-3-0.7-2.7-5.8-2.6-8.4
		c0.1-2.4,1.2-12.7,1.6-17c5.2-1.2,11-2.5,11-2.5C114.7,83.6,114.9,83,114.6,82.6"/>
	<path class="st1" d="M150.8,130l2-0.4c1.4-0.3,2.6,0.8,2.7,2.2l0.8,16.5l7.2-16.4c0.6-1.4,2.3-1.8,3.5-0.9l1.5,1.2
		c0.8,0.6,1.1,1.8,0.7,2.8l-12.1,27.1c-0.3,0.7-0.9,1.2-1.7,1.3l-1.1,0.2c-1.3,0.2-2.6-0.7-2.7-2l-2.7-28.9
		C148.8,131.2,149.6,130.2,150.8,130"/>
	<path class="st1" d="M193.6,134.7L193.6,134.7c1.2-0.2,2.2,0.7,2.2,1.8c0,3.1,0.8,8.4,6.4,7c6.4-1.5,5.2-14.7,4.5-19.7
		c-0.1-1,0.6-2,1.6-2.1l2.7-0.3c1.1-0.1,2,0.7,2.1,1.8c0.2,8.1,0.9,38-1.9,48.2c-5.4,19.5-15.4,27.1-28.1,29.5
		c-11.8,2.1-27.1-0.9-30-17.6c-3.4-19.8,13.1-19,13.1-19s6,0,7.4,6.4c1.4,7-3.7,8.7-3.7,8.7s-6,2.1-7.4-3.4
		c-1.3-5.5,6.3-5.3,6.3-5.3s0.1-3.2-4.7-1.6c-4.7,1.5-6.9,6.3-6.1,12.4c0.6,4.4,4.4,11.6,16.8,11c15-0.8,21.6-8.2,21.6-8.2
		s9-6.3,10.1-24.4c0.7-12.8,0.1-13.2-0.3-12.6c-2.8,3.7-8.5,6.1-11.5,1.8c-3.1-4.3-2.9-10.1-2.6-12.8
		C192.1,135.5,192.8,134.8,193.6,134.7"/>
	<path class="st1" d="M106.6,88.9c-1,3.4-1.1,13.6-1.1,16.3c0,0.4,0.3,1,0.9,1.1l0.5-0.1c0.4,0,0.7-0.6,0.7-1.2
		c0.1-1.7-0.2-5.5,1.7-6.6c2-1.2,1.7,3.7,1.9,4.8c0.2,0.9,0.6,0.9,1,0.9l0.4-0.2c0.3-0.2,0.3-0.4,0.3-0.7c0.1-0.9,0.2-5.3-1-6.6
		c-1.9-2-3.6,0.7-3.8,0.5c-0.2-0.2,0-1.7,0.7-4.7c1-4.1,1-4.5,0.1-5.1C107.9,86.7,107,87.8,106.6,88.9
		C106.6,88.9,106.6,88.9,106.6,88.9"/>
	<path class="st1" d="M217.4,123.5l-3,67.3c0,0.9,0.7,1.7,1.7,1.7l1.9-0.1c0.8,0,1.4-0.6,1.5-1.4l5.4-41.6c0,0,11.3-0.3,12.1-15.3
		c0.6-11.6-11.3-13.1-16.8-13.2C218.7,120.9,217.4,122,217.4,123.5 M232,134.9c-0.4,6.1-4.5,8.2-6.7,8.9c-0.7,0.2-1.4-0.3-1.4-1.1
		l0.7-15.6c0-0.9,1-1.5,1.8-1.2C228.6,126.8,232.3,129.1,232,134.9"/>
	<path class="st1" d="M254.3,151c-0.9-0.8-2.4-0.8-3.2,0c-0.5,0.5-1.3,0.9-2.5,1.1c-3.7,0.5-5.3-4.2-5.6-8c-0.1-0.7,0.4-1.4,1.1-1.4
		c4.8,0,14.4-4.6,13.5-13.3c-1.5-14.6-20-4-20.1,12.8c-0.1,11.3,7.3,14.7,7.4,14.7c0,0,0,0,0,0c0,0,8,2.9,9.8-4.7
		C254.8,151.7,254.6,151.3,254.3,151 M252.5,128.5c2,2.9-4.2,9.2-7.7,9.9c-1.3,0.3-1.5-0.4-1.8-0.9
		C242,135.9,248.8,123.4,252.5,128.5"/>
	<path class="st1" d="M120.4,100.1c-0.3-0.3-0.9-0.3-1.2,0c-0.2,0.2-0.8,0.2-1.2,0.1c-0.9-0.2-1.9-1.1-1.8-2.5
		c0-0.5,0.2-0.5,0.4-0.5c1.8,0,5.6-2,5-4.9c-1.1-5-7.7-1.7-7.7,4.6c0,4.1,3,5.4,3,5.4c0,0,2.9,1,3.5-1.7
		C120.6,100.4,120.5,100.2,120.4,100.1 M119.6,92c0.8,1-1.5,3.5-2.7,3.6c-0.4,0-0.6-0.1-0.7-0.3C115.9,94.1,118.4,90.4,119.6,92"/>
</g>
</svg>
