<?xml version="1.0" encoding="utf-8"?>
<!-- Generator: Adobe Illustrator 24.3.0, SVG Export Plug-In . SVG Version: 6.00 Build 0)  -->
<svg version="1.1" id="Layer_1" xmlns="http://www.w3.org/2000/svg" xmlns:xlink="http://www.w3.org/1999/xlink" x="0px" y="0px"
	 viewBox="0 0 796.6 192" style="enable-background:new 0 0 796.6 192;" xml:space="preserve">
<style type="text/css">
	.st0{fill:#E5E5E4;}
	.st1{clip-path:url(#SVGID_2_);fill:#C82128;}
	.st2{clip-path:url(#SVGID_4_);fill:#C82128;}
	.st3{clip-path:url(#SVGID_6_);fill:#C82128;}
	.st4{clip-path:url(#SVGID_8_);fill:#C82128;}
	.st5{clip-path:url(#SVGID_10_);fill:#C82128;}
	.st6{clip-path:url(#SVGID_12_);fill:#C82128;}
	.st7{clip-path:url(#SVGID_14_);fill:#C82128;}
	.st8{clip-path:url(#SVGID_16_);fill:#C82128;}
	.st9{clip-path:url(#SVGID_18_);fill:#C82128;}
	.st10{clip-path:url(#SVGID_20_);fill:#C82128;}
	.st11{clip-path:url(#SVGID_22_);fill:#C82128;}
	.st12{clip-path:url(#SVGID_24_);fill:#C82128;}
	.st13{clip-path:url(#SVGID_26_);fill:#C82128;}
	.st14{clip-path:url(#SVGID_28_);fill:#C82128;}
	.st15{clip-path:url(#SVGID_30_);fill:#C82128;}
	.st16{fill:#FFFFFF;}
	.st17{clip-path:url(#SVGID_32_);fill:#C82128;}
	.st18{clip-path:url(#SVGID_34_);fill:#FFFFFF;}
	.st19{clip-path:url(#SVGID_36_);fill:#FFFFFF;}
	.st20{clip-path:url(#SVGID_38_);fill:#FFFFFF;}
	.st21{clip-path:url(#SVGID_40_);fill:#FFFFFF;}
	.st22{clip-path:url(#SVGID_42_);fill:#FFFFFF;}
	.st23{clip-path:url(#SVGID_44_);fill:#FFFFFF;}
	.st24{clip-path:url(#SVGID_46_);fill:#FFFFFF;}
	.st25{clip-path:url(#SVGID_48_);fill:#FFFFFF;}
	.st26{clip-path:url(#SVGID_50_);fill:#FFFFFF;}
	.st27{clip-path:url(#SVGID_52_);fill:#FFFFFF;}
	.st28{clip-path:url(#SVGID_54_);fill:#FFFFFF;}
	.st29{clip-path:url(#SVGID_56_);fill:#FFFFFF;}
	.st30{clip-path:url(#SVGID_58_);fill:#FFFFFF;}
	.st31{clip-path:url(#SVGID_60_);fill:#FFFFFF;}
	.st32{clip-path:url(#SVGID_62_);fill:#FFFFFF;}
	.st33{fill:#C72127;}
	.st34{clip-path:url(#SVGID_64_);fill:#FFFFFF;}
	.st35{clip-path:url(#SVGID_66_);fill:#FFFFFF;}
	.st36{clip-path:url(#SVGID_68_);fill:#FFFFFF;}
	.st37{clip-path:url(#SVGID_70_);fill:#FFFFFF;}
	.st38{clip-path:url(#SVGID_72_);fill:#FFFFFF;}
	.st39{clip-path:url(#SVGID_74_);fill:#FFFFFF;}
	.st40{clip-path:url(#SVGID_76_);fill:#FFFFFF;}
	.st41{clip-path:url(#SVGID_78_);fill:#FFFFFF;}
	.st42{clip-path:url(#SVGID_80_);fill:#FFFFFF;}
	.st43{clip-path:url(#SVGID_82_);fill:#FFFFFF;}
	.st44{clip-path:url(#SVGID_84_);fill:#FFFFFF;}
	.st45{clip-path:url(#SVGID_86_);fill:#FFFFFF;}
	.st46{clip-path:url(#SVGID_88_);fill:#FFFFFF;}
	.st47{clip-path:url(#SVGID_90_);fill:#FFFFFF;}
	.st48{clip-path:url(#SVGID_92_);fill:#FFFFFF;}
</style>
<g>
	<path class="st0" d="M155.3,101.7c-0.1,1.2-0.3,2.4-0.4,3.6c-0.1,2.1-0.4,4.2-0.6,6.3c-0.1,0.7-0.1,1.3-0.3,2.1c0,0.3,0,0.7-0.1,1
		c0,0.3,0,0.6,0,0.9c-0.4,2.8-0.7,5.5-1.2,8.4c-0.1,1-0.1,2.1-0.3,3.1c0,0.1-0.1,0.3-0.1,0.4c-0.4,0-0.9,0-1.3,0
		c-3.3,0.1-3.3,0.1-3-3.1c0.3-2.5,0.4-5.1,0.6-7.6c0.1-2.2,0.3-4.5,0.4-6.7c0-0.9,0-1.8,0-2.5c0.1-3,0.3-5.8,0.4-8.8
		c0-3.4,0-6.9,0-10.3c0.1-2.2,0.4-4.5,0.6-6.7c0-1.8,0-3.4,0-5.2c1.2-0.3,2.1,0,1.9,1.5c0,1.3-0.3,2.5-0.1,3.9
		c0,1.6,0.3,3.1,0.6,4.6c1.5-1.5,2.7-2.7,3.9-3.7c0,2.5,0,5.1,0,8.4c1.6-1.2,2.5-1.9,3.4-2.7c1-0.7,2.1-1.6,3.1-2.4
		c0.7,0.6,1.5,1.3,2.2,1.9c0,0.1,0,0.4,0,0.6c-2.1,3.3-4.6,6-8.8,6.6c-0.1,0.6-0.3,1-0.4,1.6C155.6,98.3,155.4,99.9,155.3,101.7z"/>
	<path class="st0" d="M165.2,88.4c0-0.1,0-0.4,0-0.6c0.1-1.6,0.3-3.4,0.4-5.1c1.5-1.8,3.1-3.6,4.6-5.2c0.3-0.1,0.6-0.4,0.7-0.6
		c0.9,0,1.9,0,3.6,0c-2.5,2.5-4.9,4.5-4.5,7.8c0,0.3,0,0.7,0,1c0.6,0.6,1.2,1.3,1.9,2.1c-0.9,0.7-1.6,1.3-2.4,2.1
		c0.1,1,0.3,1.9,0.4,3c1.3,4.5,3,5.2,6.9,2.8c0.4-0.3,1.3,0.4,1.9,0.6c-0.3,0.9-0.7,1.8-1,2.7c-0.4,0.4-1,1-1.5,1.5
		c-1.2,0.1-2.4,0.4-3.6,0.6c-0.1,0-0.4,0-0.6,0c-1.6-1.5-3.4-2.8-5.1-4.3C166.5,94.1,165.9,91.2,165.2,88.4z"/>
	<path class="st0" d="M47.9,57.2c3.9,3.9,5.2,8.5,3.9,13.9c-0.6-2.8-1-5.7-1.6-8.7c-0.7-0.6-1.8-1.3-2.5-1.8
		c-0.6,0.9-1.3,1.8-2.1,2.7c-2.1-3.7-6-5.2-9.3-7.3c0.6-0.1,1-0.3,1.6-0.6c2.2,0,4.5,0,6.7,0C45.6,56.2,46.7,56.6,47.9,57.2z"/>
	<path class="st0" d="M21.5,62c-1.3-3.1-1.2-3.7,1.9-4.9c2.2-0.7,4.5-1.3,6.9-2.1c0,0.1,0,0.1,0,0.3c-0.1,0.6-0.3,1.2-0.4,1.9
		c-0.3,0.3-0.7,0.7-1,1c-2.4,1.3-2.7,2.7-1.5,6.7c-0.7,0.6-1.3,1-2.1,1.6c0.6-2.2,0.4-4.3-1.6-5.8C22,59.5,22,61,21.5,62z"/>
	<path class="st0" d="M21.5,62c0.4-0.9,0.4-2.5,2.1-1.2c0,1.8,0.1,3.6,0.3,5.5c0,0.1,0.9,0.1,1.3,0.3c0.7-0.6,1.3-1,2.1-1.6
		c0.1,0.4,0.3,0.9,0.7,1.9c0.4-0.9,0.6-1.3,0.9-1.9c0.1,0,0.3,0,0.4,0c-0.3,1.3-0.7,2.7-1,4c-1,0.1-2.1,0.3-3.1,0.4
		c0.3,1.6,0.4,3.3,0.6,4.8c-0.1,0.4-0.4,0.7-0.6,1.2c-1.2-3.9-2.4-7.8-3.4-11.7C21.7,63.2,21.7,62.6,21.5,62z"/>
	<path class="st0" d="M44.4,55.6c-2.2,0-4.5,0-6.7,0c-1.3-0.1-2.7-0.4-4-0.6c-1,0-2.1,0.1-3.1,0.3c0-0.1,0-0.1,0-0.3
		c4-0.1,7.9-0.4,12-0.4C43.1,54.4,43.8,55.1,44.4,55.6z"/>
	<path class="st0" d="M34.1,90.9c0.1,0.3,0.3,0.6,0.4,0.9c0.1,1.6,0.4,3.4,0.6,5.1c-0.4,0.7-1.2,1.8-1,2.4c1,3.7,2.4,7.3,3.6,11.1
		c-0.4,1.3-1,2.7-1.5,4.2c-2.4-1-1.2-3.6-2.1-5.2c-0.1-1.2,0-2.5-0.3-3.7c-0.6-2.7-0.7-5.7-3.3-7.6c-0.1-1.5-0.4-3-0.6-4.6
		c1-2.4,1.2-4.6-0.4-6.9c1.9-0.4,3.7-0.7,5.7-1.2c0.3-0.1,0.7-0.3,1-0.4c0.1,0.3,0.3,0.7,0.4,1C35.7,87.8,35,89.4,34.1,90.9z"/>
	<path class="st0" d="M29.4,86.7c1.6,2.2,1.5,4.5,0.4,6.9c-0.6-1.8-1-3.4-1.6-5.2c0.3-3.7-0.4-7.2-2.7-10.3
		c-0.1-0.9-0.3-1.6-0.4-2.5c0.1-0.4,0.4-0.7,0.6-1.2l0,0c0.3,0.7,0.6,1.6,0.9,2.4c0.1,0,0.4,0,0.6,0c0.3-1.6,0.4-3.1,0.7-4.9
		c0.3-0.1,0.7-0.6,1.3-0.9c0.3,1.3,0.4,2.5,0.7,3.9c0.3,1.5,0.9,3,1.3,4.5c0,1.9,0,4,0,6c-0.1,0-0.3,0-0.4,0.1
		c-0.6-1.8-1.2-3.6-1.8-5.2c-0.3,0.1-0.6,0.1-0.9,0.3c0.1,1.2,0.3,2.4,0.4,3.6C29,84.6,29.1,85.7,29.4,86.7z"/>
	<path class="st0" d="M30.5,98.1c2.5,1.9,2.7,4.9,3.3,7.6c0.3,1.2,0.1,2.5,0.3,3.7c-0.1,0.1-0.4,0.4-0.6,0.6
		C32.4,106.2,31.4,102.2,30.5,98.1z"/>
	<path class="st0" d="M33.5,110.1c0.1-0.1,0.4-0.4,0.6-0.6c0.9,1.6-0.3,4.2,2.1,5.2c2.4,2.2,0.3,4.3,0,6.6v0.1
		C35.3,117.8,34.4,114,33.5,110.1z"/>
	<path class="st0" d="M25.5,77.9c2.2,3.1,3,6.6,2.7,10.3C27.3,84.8,26.4,81.4,25.5,77.9z"/>
	<path class="st0" d="M151.7,73.1c2.5,0.4,5.1,0.7,7.6,1.2c0.6,0.3,1,0.6,1.6,1c0.6,0.4,1,1,1.6,1.5c1,1.6,1.9,3.4,3,5.1
		c0,0.1,0,0.3,0.1,0.4v0.1c-0.1,1.6-0.3,3.4-0.4,5.1c-0.7-0.6-1.5-1.2-2.2-1.9c-1,0.7-2.1,1.5-3.1,2.4c0.3-0.6,0.4-1.3,0.7-1.9
		c0.9-3.3,0.3-6.1-2.5-8.4c-0.4,0.4-1,0.7-1,1.2c-0.3,1.2-0.3,2.4-0.4,3.6c-1.2,1.2-2.4,2.2-3.9,3.7c-0.1-1.5-0.4-3.1-0.6-4.6
		c0-1.2,0.1-2.5,0.1-3.9c0-1.3-0.7-1.8-1.9-1.5c0-0.6-0.1-1-0.1-1.6C149.2,72.7,150.9,73.4,151.7,73.1z"/>
	<path class="st0" d="M180.2,76.4c0.1,0.7,0.3,1.3,0.4,2.1c0,0.6,0,1.2,0,1.9c-0.1,0.9-0.3,1.8-0.4,2.5c-0.6,1-1.3,2.1-1.9,3.1
		c-0.4,0.4-1,1-1.5,1.5c-2.2,0.7-4.5,1.5-6.7,2.2c0.7-0.7,1.6-1.3,2.4-2.1c-0.7-0.9-1.3-1.5-1.9-2.1c3,0,4.5-2.1,6-4.2
		c0.4-0.6,0-1.8,0-2.8c-0.9,0.1-2.4,0-2.8,0.4c-1.3,1.6-2.2,3.6-3.3,5.4c-0.6-3.3,1.8-5.2,4.5-7.8c-1.6,0-2.7,0-3.6,0
		c0.4-0.4,0.9-0.9,1.3-1.5c0.7-0.3,1.3-0.7,2.1-1c1.6,0.3,3.3,0.6,4.9,1C179.9,75.7,180,76,180.2,76.4z"/>
	<path class="st0" d="M45.9,108.5h-0.1l-0.1-0.1c0.1-0.9,0.3-1.8,0.4-2.5c-1.3-1.5-2.7-3.1-4-4.6c0.9-2.1,1-0.1,1.3,0.3
		c1.8,2.4,4,3.3,6.7,2.5c2.4-0.7,4.2-1.9,4.2-4.9c0.4-6.1-1.9-7.9-7.6-5.7c-0.1,0-0.3,0.1-0.4,0.1c-1,0.4-2.1,1-3.3,1.5
		c0.3-1.8,0.4-3.3,0.6-4.8c0.9-0.6,1.8-1.3,2.7-1.9c3.1-0.4,6.3-1.3,9.3,0.4c4.8,4.5,4.9,9.9,0.3,15c-2.1,1.2-4.3,2.4-6.4,3.6
		C48,107.9,47,108.2,45.9,108.5z"/>
	<path class="st0" d="M34.1,90.9c0.9-1.6,1.6-3.1,2.5-4.8c3.4-0.6,7.9-4.9,8.7-8.4c0.4-1.9,1-3.7,1.6-5.7c0,0.1,0.1,0.3,0.1,0.4
		l0.1,0.1c0.3-0.7,0.6-1.3,1-2.5c-0.1,2.1-0.3,3.6-0.3,5.2c0.3,0,0.6,0.1,0.9,0.1c0.4-1.3,0.9-2.5,1-3.9c0.1-0.7-0.6-1.5-0.9-2.2
		c-0.7,0.3-1.5,0.7-2.2,1c-0.1,0-0.3,0-0.4,0c-0.1-1-0.4-2.1-0.6-3c-0.1-0.7-0.4-1.6-0.6-2.4c0-0.6,0-1,0.1-1.6
		c0.7-0.9,1.5-1.8,2.1-2.7c0.7,0.6,1.6,1.2,2.5,1.8c0.6,3,1,5.8,1.6,8.7c-0.1,3.6-1.8,6.6-4,9.3c-2.2,1.9-4.5,3.9-6.9,5.7
		c-1.6,1.3-3.4,2.7-5.2,4C35.1,90.5,34.5,90.8,34.1,90.9z"/>
	<path class="st0" d="M54.2,99c0,2.8-1.8,4.2-4.2,4.9c-2.7,0.9-5.1-0.1-6.7-2.5c-0.3-0.4-0.6-2.4-1.3-0.3c-0.7,2.2,1,4.2,4,4.6
		c-0.1,0.9-0.3,1.8-0.4,2.5c-1.8-0.9-3.4-1.8-5.2-2.5c-0.7-2.4-1.5-4.9-2.2-7.3c0.3-0.4,0.4-0.9,0.7-1.3c0.4,0.6,1,1.2,1.8,2.1
		c0.4-3,0.7-5.4,1.2-7.9c0.3-0.3,0.7-0.6,1-0.9c0.1,0,0.3,0,0.6,0c-0.1,1.5-0.3,3-0.6,4.8c1.2-0.6,2.2-1,3.3-1.5
		c-0.4,0.4-0.9,1-1.3,1.5c-1.8,2.2-1.6,4.8,0.3,6.7c1.8,1.8,4.6,1.9,6.7,0.1C52.8,101.1,53.4,100.1,54.2,99z"/>
	<path class="st0" d="M57.9,73.7c-0.1,0-0.3,0-0.4,0c0.9-0.6,1.6-1.3,2.5-1.9c1.3-0.3,2.7-0.4,4-0.6c2.5-0.3,4.9,0.1,6.7,2.1
		c0.1,0.3,0.4,0.6,0.6,0.9c-1.3-0.4-2.7-0.7-4-1.2C64.2,72.1,61.1,72.7,57.9,73.7z"/>
	<path class="st0" d="M35.6,90.3c1.8-1.3,3.4-2.7,5.2-4c2.2-1.9,4.6-3.7,6.9-5.7C44.9,85.2,40.7,88.4,35.6,90.3z"/>
	<path class="st0" d="M35.1,97.1c0.3,0.6,0.7,1,1,1.6c1.2,6.1,2.2,12.3,3.6,18.4c0.4,2.4,0.3,4-2.5,4.3c2.1-1.3,2.4-3,1.8-5.2
		c-0.6-1.8-0.7-3.7-1.2-5.5c-1.2-3.7-2.5-7.3-3.6-11.1C33.8,98.9,34.7,97.8,35.1,97.1z"/>
	<path class="st0" d="M37.7,110.6c0.4,1.8,0.7,3.7,1.2,5.5c0.6,2.2,0.3,4-1.8,5.2c-0.3,0-0.7,0-1-0.1c0.3-2.2,2.4-4.3,0-6.6
		C36.6,113.3,37.2,111.9,37.7,110.6z"/>
	<path class="st0" d="M51.6,107.9c-1.2,0.3-2.4,0.7-3.6,1c-0.7-0.1-1.5-0.3-2.1-0.4c1-0.3,2.1-0.6,3.1-1c2.2-1.2,4.3-2.4,6.4-3.6
		c-0.9,1.2-1.9,2.4-2.8,3.6C52.4,107.6,51.9,107.7,51.6,107.9z"/>
	<path class="st0" d="M37.7,99.2c0.1-0.1,0.3-0.4,0.4-0.6c0.7,2.4,1.5,4.9,2.2,7.3C38.3,104.1,37.7,101.7,37.7,99.2z"/>
	<path class="st0" d="M55.8,107c1.5-2.1,3.3-3.6,6.1-3c0.4,0.1,0.9,0.3,1.3,0.4c0.6,0.4,1,1,1.6,1.5c1,3.3,0.7,4.2-1.9,5.2
		c-0.9,0.1-1.8,0.3-2.8,0.6c0,0.6-0.1,1.2-0.1,1.9c0.3,0.9,0.6,1.9,1,3c-1.6,0.7-1.3,2.1-0.6,3.6c-0.4-0.3-1-0.6-1.5-0.9
		c-0.7-0.7-1.3-1.3-2.1-2.1C54.2,114,54.6,110.6,55.8,107z"/>
	<path class="st0" d="M102,105.9c-0.4,0-1-0.1-1.5-0.1c-0.3-4.6-0.7-9.3-1-13.9c-0.3-3.4-0.7-6.9-1-10.3c0.7-0.6,1.3-1.2,2.1-1.8
		c1.2,0,2.4-0.1,3.7-0.1c0.1,1.8,0.1,3.3,0.3,4.8c0,1.6,0,3.4,0,5.1c0.3,0,0.6,0.1,1,0.1c0.4-1,1-2.1,1.5-3.3
		c0.7-1.6,1.6-3.3,2.4-4.9c0.7-1.8,1.3-2.8,3.1-0.7c0.4,0.6,1.5,0.7,2.2,1.2c-0.3,1-0.6,1.9-0.9,3c-1.8,3.6-3.4,7.2-5.2,10.9
		c-0.7,1.8-1.3,3.4-2.1,5.2C105.1,102.5,105.6,106.1,102,105.9z"/>
	<path class="st0" d="M101.1,118.8c0.1-1.6,0.3-3.3,0.4-4.9c2.4-3.1,5.1-6.1,9.3-6.9c2.7,0,5.1,0.7,6.6,3.1c0.1,1,0.4,1.9,0.6,3
		c-2.2,4.3-3.3,4.9-7.2,4.6c-2.2-1.3-2.1-3.4-1.5-6c-0.9,0.4-1.3,0.6-1.8,0.7c-1.6,1.9-2.4,4.2-1.5,6.7c0.7,3.9,3.3,6.3,6.7,7.8
		c0.6,0.1,1.3,0.1,1.9,0.4c3.7,1.9,7.3,1.2,10.9-0.4c4.9-1.3,9-3.9,11.8-8.2c0.7-1.2,1.3-2.4,2.1-3.6c0.3-1,0.6-2.1,1-3.1
		c0.1-0.9,0.4-1.8,0.6-2.5c0.1-1.3,0.3-2.7,0.6-4.2c0-2.4,0-4.9,0-7.3c-0.1-1.2-0.1-2.4-0.3-3.1c-2.5,0.3-4.5,0.4-6.6,0.6
		c-1.2-1-2.4-2.2-3.4-3.3c-0.7-1.9-1.5-3.7-2.1-5.7c0.1-0.6,0.3-1.3,0.6-1.9c1.3-0.1,2.7-0.3,4-0.4c0.1,0.9,0.1,1.6,0.3,2.5
		c0.9,3.6,1.5,4,5.1,3.6c1.9-1.6,3.9-3.3,5.8-5.1c0.3,0.3,0.7,0.7,0.7,1.2c0.4,5.1,1,10.2,1.3,15.3c0.1,2.2-0.4,4.6-0.6,6.9
		c-0.1,1-0.3,1.9-0.6,3c-1.3,3-2.7,6-4,8.8c-3.7,5.4-8.1,10.2-14.5,12.4c-1.9,0.4-3.7,1-5.7,1.5c-2.4-0.1-4.8-0.3-7.3-0.4
		c-1.3-0.4-2.7-1-4.2-1.5c-1.3-1.2-2.7-2.4-4.2-3.7c-1.2-1.9-2.4-3.7-3.6-5.7c-0.1-0.3-0.3-0.6-0.6-1
		C101.7,120.9,101.4,119.9,101.1,118.8z"/>
	<path class="st0" d="M87.4,111.3c-3.9-2.1-4.6-5.8-5.1-9.6s-0.4-7.6-0.6-11.4c0.1-3.3,0.3-6.4,0.6-9.7c0.1-1.9-0.9-1.9-2.2-1.2
		c-3,0.4-2.7-1.8-2.8-3.6c0.7-0.4,1.5-1.3,2.4-1.5c2.7-0.4,3.4-2.1,3.3-4.6c0-0.9,0-1.8,0-2.8c0.1-0.3,0.3-0.7,0.4-1
		c0.4,0.6,1,1,1.5,1.6c0.3-0.3,0.6-0.7,1.2-1.6c-0.1,1.6-0.4,2.8-0.4,3.9c0,0.7,0,1.6,0,2.4c0.4,0,1.2,0,1.2,0
		c0.1-0.7,0.1-1.6,0.1-2.4c0-0.1,0.1-0.4,0.1-0.4c0.9,0.9,1.6,1.8,2.5,2.8c2.5-0.6,4.9-1.2,7.8-1.8c-0.1,1.6-0.3,2.5-0.4,3.4
		c0,0.4,0,1-0.1,1.5c-0.1,0.4-0.3,1-0.4,1.5c-1.6,0.1-3.1,0.4-4.8,0.6c-1.3,0.3-3,0.1-3.1,2.2c-0.3,2.7-0.6,5.4-0.9,7.9
		c0,1.8-0.1,3.4-0.1,5.2c-0.1-1.6-0.4-3.4-0.4-5.1c0.1-2.4-0.9-4-3.3-5.4c-0.1,1.2-0.3,1.9-0.3,2.8c-0.1,2.5-0.1,4.9-0.3,7.5
		C82.8,99.3,82.8,105.9,87.4,111.3z M94.3,74.3c0-0.3,0-0.6,0-0.7c-2.2,0.3-4.5,0.4-6.6,0.7c0,0.3,0.1,0.7,0.1,1
		C90,74.9,92.1,74.6,94.3,74.3z"/>
	<path class="st0" d="M89.5,67.4c0,1.6,0,3.1,0,4.8c-0.9-0.9-1.6-1.8-2.5-2.8c0,0-0.1,0.3-0.1,0.4c0,0.7,0,1.6-0.1,2.4
		c0,0-0.7,0-1.2,0c0-0.7,0-1.6,0-2.4c0.1-1,0.3-2.1,0.4-3.9c-0.7,0.9-0.9,1.3-1.2,1.6c-0.6-0.6-1-1.2-1.5-1.6c0-1.2,0-2.4,0.1-3.6
		c0.4-5.5,1.9-6.7,8.1-6.3C90.9,59.9,90.1,63.7,89.5,67.4z"/>
	<path class="st0" d="M133.7,67c0,0.9,0,1.6-0.1,2.5c-0.3,0.9-0.6,1.8-0.9,2.7c-0.1,0.9-0.6,1.9-0.6,2.8c0,0.6,0.6,1.2,0.9,1.8
		c-2.1,0.9-2.1-0.9-2.4-1.9c-0.7-2.4-1.9-2.5-3.7-0.7c0.3-1.9,0.6-3.7,0.9-5.7c0.3-1.5,0.7-3.1,1-4.6c0.4-0.7,0.7-1.3,1.5-2.5
		c0,1.5-0.1,2.4-0.1,3.9c1.6-0.4,2.8-0.9,4-1.3C134,65,133.9,65.9,133.7,67z"/>
	<path class="st0" d="M134.2,64c-1.2,0.4-2.5,0.7-4,1.3c0-1.5,0.1-2.4,0.1-3.9c-0.6,1.2-1,1.8-1.5,2.5c0.6-1.5,1-3.1,1.6-4.6
		c2.2-0.3,4.3-0.6,7.2-1C136.4,60.4,135.4,62.2,134.2,64z"/>
	<path class="st0" d="M118,73.3c0.7-1.2,1.5-2.4,2.2-3.6c0.3,0,0.6,0,0.9-0.1c1.6,0.1,3.1,0.4,3.3,2.5c0,0.1,0,0.3,0,0.6
		c-0.6,2.5-1.8,4.3-4.8,4.2c-0.4-0.9-1-1.8-1.5-2.7C118,73.9,118,73.6,118,73.3z"/>
	<path class="st0" d="M80.2,68c-0.3,3.1-1.5,4-3.7,3.1c-0.4-0.6-1-1.2-1.2-1.9c-0.6-1.6-0.3-3.3,1.6-3.9
		C79.2,64.6,79.8,66.4,80.2,68z"/>
	<path class="st0" d="M102.4,68.6c-0.4,0.3-0.7,0.7-1.2,1c-1-0.6-2.8-0.9-3-1.6c-0.1-0.9,0.9-2.1,1.3-3.3c-0.4-0.1-1.2-0.1-1.9-0.3
		c1-1.5,2.4-1.5,3.7-0.6C103.5,64.9,103,66.7,102.4,68.6z"/>
	<path class="st0" d="M97.8,64.3c0.7,0.1,1.5,0.3,1.9,0.3c-0.6,1-1.6,2.4-1.3,3.3c0.1,0.7,1.9,1.2,3,1.6c-2.2,1.5-3.3,0-4.5-1.6
		C97.2,66.7,97.5,65.5,97.8,64.3z"/>
	<path class="st0" d="M45.5,63.4c0,0.6,0,1-0.1,1.6c-0.6-0.7-1.2-1.5-1.8-2.2c-2.2-3.1-5.2-4.8-9.3-4c-1,0.1-2.2,0.3-3.3,0.4
		c-0.7-0.3-1.3-0.6-2.1-1c0.3-0.3,0.7-0.7,1-1c2.1-0.3,4.2-0.7,6.1-1C39.5,58.3,43.4,59.8,45.5,63.4z"/>
	<path class="st0" d="M36.2,56.2c-2.1,0.3-4.2,0.7-6.1,1c0.1-0.6,0.3-1.2,0.4-1.9c1-0.1,2.1-0.3,3.1-0.3c1.3,0.1,2.7,0.3,4,0.6
		C37.2,55.7,36.6,56,36.2,56.2z"/>
	<path class="st0" d="M28.8,58.1c0.7,0.3,1.3,0.6,2.1,1c-0.3,0.1-0.6,0.4-0.9,0.6c-0.4,0.6-1.2,1.2-1.2,1.8c-0.1,1,0,2.2,0.1,3.3
		c-0.3,0.4-0.4,0.9-0.9,1.9c-0.3-0.9-0.4-1.3-0.7-1.9C26.1,60.8,26.4,59.6,28.8,58.1z"/>
	<path class="st0" d="M25.2,66.5c-0.4-0.1-1.3-0.1-1.3-0.3c-0.1-1.8-0.1-3.6-0.3-5.5C25.7,62.2,25.8,64.3,25.2,66.5z"/>
	<path class="st0" d="M31.4,79c-0.4-1.5-0.9-3-1.3-4.5c-0.3-1.2-0.4-2.5-0.7-3.9c-0.3-0.3-0.7-0.6-1-1c0-0.1,0-0.4,0-0.6
		c0.3-1.3,0.7-2.7,1-4c0.4-0.4,0.7-0.7,1.2-1.2c0.1,0.9,0.3,1.8,0.3,2.8c0,2.2,0,4.5,0.1,6.7C31.1,75.2,31.2,77,31.4,79z"/>
	<path class="st0" d="M30.5,63.8c-0.4,0.4-0.7,0.7-1.2,1.2c-0.1,0-0.3,0-0.4,0c0-1-0.3-2.2-0.1-3.3c0.1-0.6,0.7-1.2,1.2-1.8
		C30.2,61.1,30.3,62.5,30.5,63.8z"/>
	<path class="st0" d="M28.2,69.1c0,0.1,0,0.4,0,0.6c-0.9,1.5-1.6,3.1-2.5,4.6l0,0c-0.1-1.6-0.4-3.1-0.6-4.8
		C26.3,69.2,27.3,69.2,28.2,69.1z"/>
	<path class="st0" d="M32,73.7c0.4,3.3,0.9,6.7,1.5,10c0.1,0.6,1,1.2,1.5,1.8c-1.9,0.4-3.7,0.7-5.7,1.2c-0.1-1-0.4-2.1-0.6-3.1
		c-0.1-1.2-0.3-2.4-0.4-3.6c0.3-0.1,0.6-0.1,0.9-0.3c0.6,1.8,1.2,3.6,1.8,5.2c0.1,0,0.3,0,0.4-0.1c0-1.9,0-4,0-6
		c-0.1-1.9-0.3-3.7-0.4-5.7C31.2,73.4,31.7,73.6,32,73.7z"/>
	<path class="st0" d="M36.2,85.1c2.4-2.4,4.9-4.8,7.3-7.2c1-2.4,2.1-4.9,3.1-7.3c0.1,0,0.3,0,0.4,0c0,0.4,0,1,0,1.5
		c-0.6,1.9-1.2,3.7-1.6,5.7c-0.9,3.4-5.2,7.8-8.7,8.4C36.5,85.8,36.3,85.5,36.2,85.1z"/>
	<path class="st0" d="M25.8,74.3c0.9-1.5,1.6-3.1,2.5-4.6c0.3,0.3,0.7,0.6,1,1c-0.6,0.3-1,0.7-1.3,0.9c-0.3,1.8-0.6,3.4-0.7,4.9
		c-0.1,0-0.4,0-0.6,0C26.3,75.8,26,75.1,25.8,74.3z"/>
	<path class="st0" d="M165.6,81.9c0,0.1,0,0.3,0.1,0.4C165.8,82.4,165.6,82.1,165.6,81.9z"/>
	<path class="st0" d="M144.8,73.7c1.5,0.3,1.9,1.2,1.9,2.7c0.3,4.3,0.7,8.5,1.2,12.9c0,3.6,0,7.2,0.1,10.8c-0.1,1.9-0.4,3.7-0.6,5.7
		c-0.3,0.9-0.6,1.8-1,2.7c0.3-2.2,0.7-4.6,0.6-6.9c-0.3-5.1-0.9-10.2-1.3-15.3c0-0.4-0.4-0.7-0.7-1.2c-2.1,1.8-3.9,3.4-5.8,5.1
		c0.3-0.4,0.7-1,1-1.5c0.4-1.2,1-2.4,1.5-3.6c0.1-2.1,0.3-4.2,0.6-6.3c0.3-0.6,0.9-1.2,0.9-1.9c0-1-0.1-2.2-0.3-3.3
		C143.6,73.7,144.2,73.7,144.8,73.7z"/>
	<path class="st0" d="M45.9,105.9c-3.1-0.4-4.8-2.4-4-4.6C43.2,102.8,44.6,104.3,45.9,105.9z"/>
	<path class="st0" d="M47,72.2c0-0.4,0-1,0-1.5c0.7-0.3,1.5-0.7,2.2-1c0.3,0.7,0.9,1.5,0.9,2.2c-0.1,1.3-0.7,2.5-1,3.9
		c-0.3,0-0.6-0.1-0.9-0.1c0.1-1.5,0.1-3.1,0.3-5.2c-0.4,1.2-0.7,1.9-1,2.5c0,0-0.1,0-0.1-0.1C47.1,72.5,47,72.4,47,72.2z"/>
	<path class="st0" d="M46.5,70.6c-1,2.4-2.1,4.9-3.1,7.3c0.9-3.4,1.6-6.9,2.5-10.3C46.2,68.6,46.4,69.7,46.5,70.6z"/>
	<path class="st0" d="M71.5,74.2c0.4,0.7,0.9,1.5,1.3,2.1c0,0.9,0,1.6,0,2.5c-1.5,3.4-3.7,5.7-7.6,5.7c-0.3-0.1-0.7-0.3-1-0.4
		c-1.8-1-1.8-2.8-1.2-4.3c0.7-2.2,2.7-3.1,5.2-2.5c-1.5-2.4-3.7-2.2-5.7-1.8c-1,0.3-1.9,1.9-2.4,3.3c-1,2.7,0.4,4.9,2.1,7
		c0.9,1,1.6,2.1,2.5,3.1c0.7,0.6,1.3,1.2,2.1,1.8c1.3,1.3,2.8,2.7,4.2,4c0.7,1.2,1.5,2.4,2.2,3.6l-0.4-0.1c-2.4-1.8-4.2-4.8-7.3-4.9
		c0.7,2.1,1.5,4,2.2,6c-0.9-1-1.6-2.1-2.5-3.3c-0.3-0.3-0.7-0.6-1-1c-2.2-2.2-4.5-4.5-6.7-6.7c-1.9-3-2.7-6.3-2.1-9.9
		c0.9-1.5,1.8-3.1,2.7-4.6c3.1-1,6.3-1.6,9.6-0.7C68.8,73.4,70.2,73.9,71.5,74.2z"/>
	<path class="st0" d="M55.4,78.5c-0.7,3.6,0.1,6.9,2.1,9.9C54.2,85.2,53.6,82.2,55.4,78.5z"/>
	<path class="st0" d="M38.9,97.1c0.1-2.4,0.9-4.5,3-5.8c-0.3,2.5-0.7,5.1-1.2,7.9C39.8,98.3,39.3,97.7,38.9,97.1z"/>
	<path class="st0" d="M67.6,99.2c-0.7-1.9-1.3-3.9-2.2-6c3.3,0.3,4.9,3.3,7.3,4.9c0.6,2.8,1.3,5.8,1.8,8.7c0.3,2.2,0,4.6-0.1,6.9
		c-0.7,1.3-1.5,2.5-2.1,3.9c-1.2,0.9-2.4,1.6-3.6,2.5c-2.1,0.3-4.2,0.4-6.1,0.7c-0.4-0.1-1-0.3-1.5-0.4c-0.1,0-0.3-0.1-0.4-0.1
		c-0.9-1.5-1-2.8,0.6-3.6c-0.3-1.2-0.6-2.1-1-3c3.1,1.5,4.5,1.3,6.9-0.9c2.2-2.1,2.5-4.5,2.2-7.3c-0.4-1.8-1-3.4-1.5-5.2
		C67.8,99.9,67.8,99.5,67.6,99.2z"/>
	<path class="st0" d="M87.4,111.3c-4.6-5.4-4.6-12-4.3-18.6c0.1-2.5,0.1-4.9,0.3-7.5c0-0.9,0.1-1.8,0.3-2.8c2.4,1.3,3.4,3,3.3,5.4
		c-0.1,1.6,0.3,3.4,0.4,5.1c0.3,3.3,0.3,6.6,0.7,9.7c0.4,3.3,1.9,4.9,3.9,5.2c-0.7-1.5-1.6-3.3-2.5-5.1c0.7-0.7,1.3-1.5,2.1-2.1
		c1.3,0.3,2.7,0.7,4.2,1c2.8,3.7,0.4,6.4-1.6,9.3c-1.8,0.3-3.7,0.6-5.5,1C88.2,111.8,87.7,111.5,87.4,111.3z"/>
	<path class="st0" d="M74.5,113.9c0-2.2,0.4-4.6,0.1-6.9c-0.3-3-1.2-5.8-1.8-8.7l0.1-0.1c0.4,0.4,1,1,1.9,2.1
		c-0.6-5.8-1-10.9-1.5-16.2c0-0.3,0-0.6,0-0.9c2.1-0.4,4-1,6.1-1.5c0.1,0.7,0.3,1.6,0.4,2.4c-0.1,3.4-0.3,7-0.4,10.5
		c0.1,2.7-0.1,5.2-3.3,6.4c-0.4,0.1-0.9,1.3-0.9,1.9c0,2.4,0.1,4.8,0.1,7.2C75.3,111.3,74.8,112.5,74.5,113.9z"/>
	<path class="st0" d="M123.8,78.5c1.9-0.1,2.4-1.5,2.4-3.1c0.1-0.3,0.4-0.7,0.6-1c1.8-1.9,3-1.6,3.7,0.7c0.4,1.2,0.4,2.8,2.4,1.9
		c1.3-0.6,2.8-1,4.2-1.6c0.4,0.1,0.9,0.4,1.3,0.6v0.3c-0.1,1.6-0.3,3.1-0.4,4.8c-0.4,0.3-1,0.7-1.5,1c-1.6,0.1-3.3,0.4-5.1,0.4
		c-1.6,0-1.8,0.7-1.6,2.1c-0.1,0.6-0.3,1.3-0.6,1.9c-0.6,1.2-1,2.4-1.6,3.7c-1.8,3.9-1.6,7.9-0.9,12.1c0.1,0.6,0.9,1.2,1.5,1.8
		c0.1-0.7,0.4-1.6,0.3-2.4c-0.7-2.8,0.3-4.6,3.1-4.8c0.7,0,1.5,0.1,2.2,0.1c1.8,1,2.2,2.7,1.8,4.6c-0.3,1-0.7,2.1-1.2,3.1
		c-1.2,1-2.4,2.1-3.6,3.3c-1.9,0-3.7,0-5.7,0c-1.2-1.3-2.4-2.8-3.6-4.2c0.1-3.7,0.3-7.5,0.4-11.4c0.6-2.5,1-5.2,1.6-7.8
		c-0.4-0.3-0.9-0.7-1.3-0.9c-0.6-0.1-1.2-0.1-1.8-0.1c-0.9-2.2-0.3-3.7,2.2-4.2C123.1,79.3,123.4,78.8,123.8,78.5z"/>
	<path class="st0" d="M94.3,74.3c-2.2,0.3-4.3,0.7-6.6,1c0-0.3-0.1-0.7-0.1-1c2.2-0.3,4.5-0.4,6.6-0.7C94.3,73.7,94.3,74,94.3,74.3z
		"/>
	<path class="st0" d="M142,78.4c-0.1-1.5-0.3-3-0.3-4.5c0.4,0,0.9,0,1.3-0.1c0.1,1,0.4,2.2,0.3,3.3c0,0.6-0.6,1.2-0.9,1.9
		C142.1,78.8,142,78.7,142,78.4z"/>
	<path class="st0" d="M32,73.7c-0.3-0.1-0.6-0.3-0.9-0.4c0-2.2,0-4.5-0.1-6.7C31.2,68.9,31.5,71.3,32,73.7z"/>
	<path class="st0" d="M90,99.2c0.1-2.8,0.3-5.5,0.4-8.4c0-1.3,0.1-2.7,0.1-4.2c0.1-1.6,0.4-3.3,0.7-5.1c2.2,0.6,4.3-1.9,6.4,0.3
		c-0.9,5.7-1.6,11.4-2.5,17.1C93.4,99,91.8,99.2,90,99.2z"/>
	<path class="st0" d="M120.5,86.1c-0.9,4.8-1.8,9.6-2.5,14.4c-0.4,3.6-1.9,4.3-5.1,2.2c0.1-1.9,0.3-3.7,0.4-5.7c0.3-3,0.7-5.8,1-8.8
		c0-1,0.1-2.1,0.1-3c0.1,0,0.3,0,0.3-0.1c0.7,0,1.3,0,2.1,0C118.1,85.4,119.3,85.7,120.5,86.1z"/>
</g>
<g>
	<g>
		<defs>
			<rect id="SVGID_1_" x="19.6" y="31.9" width="376.7" height="125"/>
		</defs>
		<clipPath id="SVGID_2_">
			<use xlink:href="#SVGID_1_"  style="overflow:visible;"/>
		</clipPath>
		<path class="st1" d="M243.5,93.2l-3.4-25c0-0.6,0.3-1,0.7-1.2c3.3-0.7,14.4-2.2,15.7,7.5c1.6,12.4-8.1,17.8-11.7,19.5
			C244.3,94.2,243.7,93.8,243.5,93.2 M262.9,71.8c-6.6-18-27.7-8.1-31.9-6c-0.4,0.1-0.6,0.7-0.4,1.2l15.3,62.5
			c0.3,1.2,1.5,2.1,2.8,1.8c1.3-0.3,2.2-1.5,1.9-2.8l-5.7-27.4c-0.1-0.4,0.1-0.9,0.4-1C249.1,97.7,268.1,86,262.9,71.8"/>
	</g>
	<g>
		<defs>
			<rect id="SVGID_3_" x="19.6" y="31.9" width="376.7" height="125"/>
		</defs>
		<clipPath id="SVGID_4_">
			<use xlink:href="#SVGID_3_"  style="overflow:visible;"/>
		</clipPath>
		<path class="st2" d="M263,111.6c-3.4,3-6.7,0.9-7.8-0.3c-0.3-0.1-0.4-0.6-0.7-0.9c-0.6-1-1.9-3.9,1.5-7c4.5-4,7.6-2.2,8.8-0.9
			C265.9,103.8,267.1,108,263,111.6 M268.3,99.3c-2.2-2.7-8.1-5.8-16.3,1.6c-6.9,6.3-2.7,13-1.9,13.9c1.8,2.2,7.5,7,14.8,0.7
			C272.8,109.2,270.7,102.2,268.3,99.3"/>
	</g>
	<g>
		<defs>
			<rect id="SVGID_5_" x="19.6" y="31.9" width="376.7" height="125"/>
		</defs>
		<clipPath id="SVGID_6_">
			<use xlink:href="#SVGID_5_"  style="overflow:visible;"/>
		</clipPath>
		<path class="st3" d="M281.6,86.1c-0.3,1.8-1,0.1-2.4-0.4c-1.2-0.6-2.2-0.4-3.1,0.4c-2.5,2.4-1,4.9-1,4.9s2.8,3.9,6.6,1.6
			c4.5-2.7,3.3-8.5,1.5-11.2c-2.7-3.7-10.2-3.9-13.9-0.7c-3.6,3-5.8,8.8-1.9,14.2c5.5,7.9,9.1,8.2,13.2,15.7
			c4.8,9-0.9,13.8-4.6,13.9c-3.7,0.1-7.5-2.7-6.4-4.5c0.7-1.3,1.2,0,3.4,0.6c1.6,0.4,2.8,0.6,4.2-1.2c2.5-3.4-1.6-6-1.6-6
			s-4.2-2.2-8.2,4c-3,4.5,2.2,10,2.2,10s7.2,8.1,14.5,0.3c9.7-10.3,1.2-22,1.2-22s-2.8-3.7-9.6-9.4C265,87.6,274,82.8,277,82.8
			C279,83.1,281.9,84,281.6,86.1"/>
	</g>
	<g>
		<defs>
			<rect id="SVGID_7_" x="19.6" y="31.9" width="376.7" height="125"/>
		</defs>
		<clipPath id="SVGID_8_">
			<use xlink:href="#SVGID_7_"  style="overflow:visible;"/>
		</clipPath>
		<path class="st4" d="M286.2,91.4l3.1-0.7c0.7-0.1,1.5,0.3,1.5,1.2V107c0,0.6-0.4,1.2-1,1.3l-0.9,0.3c-0.9,0.3-1.8-0.3-1.8-1.2
			l-1.6-14.7C285.2,92,285.6,91.5,286.2,91.4"/>
	</g>
	<g>
		<defs>
			<rect id="SVGID_9_" x="19.6" y="31.9" width="376.7" height="125"/>
		</defs>
		<clipPath id="SVGID_10_">
			<use xlink:href="#SVGID_9_"  style="overflow:visible;"/>
		</clipPath>
		<path class="st5" d="M304.5,90.5l2.4-0.1c1,0,1.8,0.9,1.6,1.8l-2.7,14.2c-0.1,0.7-0.7,1.2-1.3,1.2l-0.7,0.1
			c-1,0.1-1.8-0.7-1.8-1.6l1-14.2C303.2,91.2,303.8,90.5,304.5,90.5"/>
	</g>
	<g>
		<defs>
			<rect id="SVGID_11_" x="19.6" y="31.9" width="376.7" height="125"/>
		</defs>
		<clipPath id="SVGID_12_">
			<use xlink:href="#SVGID_11_"  style="overflow:visible;"/>
		</clipPath>
		<path class="st6" d="M328.6,94.7l2.2-0.1c1,0,1.9,0.9,1.6,1.9l-2.7,14.1c-0.1,0.7-0.7,1.2-1.3,1.3h-0.6c-1,0.1-1.9-0.7-1.8-1.8
			l1-14.1C327.3,95.3,327.9,94.7,328.6,94.7"/>
	</g>
	<g>
		<defs>
			<rect id="SVGID_13_" x="19.6" y="31.9" width="376.7" height="125"/>
		</defs>
		<clipPath id="SVGID_14_">
			<use xlink:href="#SVGID_13_"  style="overflow:visible;"/>
		</clipPath>
		<path class="st7" d="M283.4,76.9c0-1.8,1.5-3.3,3.3-3.3s3.3,1.5,3.3,3.3s-1.5,3.3-3.3,3.3S283.4,78.7,283.4,76.9"/>
	</g>
	<g>
		<defs>
			<rect id="SVGID_15_" x="19.6" y="31.9" width="376.7" height="125"/>
		</defs>
		<clipPath id="SVGID_16_">
			<use xlink:href="#SVGID_15_"  style="overflow:visible;"/>
		</clipPath>
		<path class="st8" d="M305,74.5c0-1.8,1.5-3.3,3.3-3.3c1.8,0,3.3,1.5,3.3,3.3s-1.5,3.3-3.3,3.3C306.5,77.9,305,76.4,305,74.5"/>
	</g>
	<g>
		<defs>
			<rect id="SVGID_17_" x="19.6" y="31.9" width="376.7" height="125"/>
		</defs>
		<clipPath id="SVGID_18_">
			<use xlink:href="#SVGID_17_"  style="overflow:visible;"/>
		</clipPath>
		<path class="st9" d="M327,84.3c0-1.8,1.5-3.3,3.3-3.3c1.8,0,3.3,1.5,3.3,3.3c0,1.8-1.5,3.3-3.3,3.3C328.5,87.6,327,86.1,327,84.3"
			/>
	</g>
	<g>
		<defs>
			<rect id="SVGID_19_" x="19.6" y="31.9" width="376.7" height="125"/>
		</defs>
		<clipPath id="SVGID_20_">
			<use xlink:href="#SVGID_19_"  style="overflow:visible;"/>
		</clipPath>
		<path class="st10" d="M293.7,81.1l1-14.1c0.1-1,0.9-1.9,1.9-2.1l4.2-0.9c1.2-0.3,2.1,0.7,1.9,1.9L300.3,80c0,0.3,0.3,0.6,0.6,0.6
			l5.8-1c1-0.1,1.9,0.7,1.8,1.8l-0.4,1.9c-0.3,1-1,1.8-2.1,1.9l-5.2,0.9c-0.1,0-0.3,0.1-0.4,0.4c-0.3,1.6-1.5,8.5-1.2,13.3
			c0.3,5.5-1.9,16.3,4,18.3c0.4,0.1,0.7,0.1,1,0.3c1.2,0.1,1.5-1.8,0.1-1.9c-1.3-0.1-3-0.9-2.8-3.1c0.4-3.7,4.2-3,4.2-3
			s3.4,0.4,3.3,3.9c-0.1,3.4-2.1,8.1-7.9,7.9c-8.2-0.1-7.8-12.9-7.8-12.9l0.6-21c0-0.3-0.3-0.6-0.6-0.4l-1.6,0.3
			c-1.2,0.1-2.2-0.6-2.4-1.6l-0.3-1.6c-0.3-1.2,0.4-2.4,1.6-2.5l3-0.4C293.6,81.5,293.7,81.4,293.7,81.1"/>
	</g>
	<g>
		<defs>
			<rect id="SVGID_21_" x="19.6" y="31.9" width="376.7" height="125"/>
		</defs>
		<clipPath id="SVGID_22_">
			<use xlink:href="#SVGID_21_"  style="overflow:visible;"/>
		</clipPath>
		<path class="st11" d="M339,86l2.5-17.5c0.1-0.6,0.4-0.9,1-1l6-1c0.9-0.1,1.6,0.7,1.3,1.6l-5.4,17.1c-0.1,0.4,0.3,0.7,0.6,0.7
			l4.5-1.2c1-0.3,1.9,0.6,1.8,1.6l-0.1,1.6c-0.1,0.9-0.7,1.5-1.6,1.8l-5.7,1.2c-0.6,0.1-1,0.6-1.2,1.2c-0.6,2.1-1.8,7.3-1.9,11.1
			c-0.1,4.9-3,14.4,2.4,16.5c2.1,0.9,2.7,0,3-0.6c0.1-0.3-0.1-0.6-0.4-0.6c-1.2-0.1-4.2-0.6-3.6-3.1c0.6-3.3,4-2.4,4-2.4
			s3.1,0.6,2.8,3.7c-0.4,3-1.8,6.4-7.9,6.4c-8.4-0.1-7-12.4-7-12.4l2.8-17.8c0-0.3-0.3-0.7-0.6-0.6l-1.8,0.4
			c-0.9,0.3-1.9-0.4-1.9-1.3v-0.4c0-0.9,0.4-1.6,1.3-1.9l3.9-1.2C338.5,87.2,338.8,86.6,339,86"/>
	</g>
	<g>
		<defs>
			<rect id="SVGID_23_" x="19.6" y="31.9" width="376.7" height="125"/>
		</defs>
		<clipPath id="SVGID_24_">
			<use xlink:href="#SVGID_23_"  style="overflow:visible;"/>
		</clipPath>
		<path class="st12" d="M312,88.7l1.6-0.3c1-0.1,2.1,0.6,2.1,1.6l0.6,13l5.7-13c0.4-1,1.8-1.3,2.7-0.7l1.2,0.9
			c0.6,0.4,0.9,1.3,0.6,2.2l-9.6,21.3c-0.3,0.6-0.7,0.9-1.3,1l-0.9,0.1c-1,0.1-2.1-0.6-2.1-1.6l-2.1-22.6
			C310.5,89.6,311.1,88.8,312,88.7"/>
	</g>
	<g>
		<defs>
			<rect id="SVGID_25_" x="19.6" y="31.9" width="376.7" height="125"/>
		</defs>
		<clipPath id="SVGID_26_">
			<use xlink:href="#SVGID_25_"  style="overflow:visible;"/>
		</clipPath>
		<path class="st13" d="M345.7,92.4L345.7,92.4c0.9-0.1,1.6,0.6,1.8,1.5c0,2.4,0.6,6.6,5.1,5.5c5.1-1.2,4-11.7,3.6-15.6
			c-0.1-0.7,0.4-1.5,1.3-1.6l2.1-0.3c0.9-0.1,1.6,0.6,1.6,1.3c0.1,6.3,0.7,30-1.5,38.1c-4.2,15.4-12.1,21.4-22.2,23.2
			c-9.3,1.6-21.4-0.7-23.7-13.9c-2.7-15.6,10.3-15,10.3-15s4.8,0,5.8,5.1c1.2,5.5-2.8,6.9-2.8,6.9s-4.8,1.6-5.8-2.7
			c-1-4.3,4.9-4.2,4.9-4.2s0-2.5-3.7-1.2c-3.7,1.2-5.4,4.9-4.8,9.7c0.4,3.4,3.4,9.1,13.2,8.7c11.8-0.6,16.9-6.4,16.9-6.4
			s7-4.9,7.9-19.2c0.6-10,0.1-10.3-0.3-9.9c-2.2,3-6.7,4.8-9.1,1.5c-2.4-3.4-2.2-7.9-2.1-10C344.7,93,345.1,92.4,345.7,92.4"/>
	</g>
	<g>
		<defs>
			<rect id="SVGID_27_" x="19.6" y="31.9" width="376.7" height="125"/>
		</defs>
		<clipPath id="SVGID_28_">
			<use xlink:href="#SVGID_27_"  style="overflow:visible;"/>
		</clipPath>
		<path class="st14" d="M376,92.6c-0.3,4.8-3.6,6.4-5.2,7c-0.6,0.1-1-0.3-1-0.9l0.4-12.3c0-0.7,0.7-1.2,1.5-0.9
			C373.4,86.1,376.3,87.9,376,92.6 M364.6,83.6l-2.4,53c0,0.7,0.6,1.3,1.3,1.3l1.5-0.1c0.6,0,1-0.4,1.2-1l4.2-32.8c0,0,9-0.1,9.6-12
			c0.4-9.1-9-10.3-13.2-10.5C365.5,81.5,364.6,82.4,364.6,83.6"/>
	</g>
	<g>
		<defs>
			<rect id="SVGID_29_" x="19.6" y="31.9" width="376.7" height="125"/>
		</defs>
		<clipPath id="SVGID_30_">
			<use xlink:href="#SVGID_29_"  style="overflow:visible;"/>
		</clipPath>
		<path class="st15" d="M392.2,87.5c1.6,2.2-3.3,7.2-6,7.8c-1,0.1-1.2-0.3-1.3-0.7C383.9,93.3,389.3,83.4,392.2,87.5 M393.7,105.2
			c-0.7-0.6-1.8-0.6-2.5,0c-0.4,0.4-1,0.7-1.9,0.9c-2.8,0.4-4.2-3.3-4.5-6.3c0-0.6,0.3-1.2,0.9-1c3.7,0,11.4-3.6,10.6-10.5
			c-1.2-11.5-15.7-3.1-15.9,10c0,8.8,5.8,11.5,5.8,11.7l0,0c0,0,6.3,2.2,7.8-3.7C394,105.8,394,105.5,393.7,105.2"/>
	</g>
</g>
<g>
	<g>
		<rect x="189.2" y="88.5" class="st16" width="26.4" height="2.4"/>
	</g>
	<g>
		<polygon class="st16" points="225.1,89.6 211.2,84.6 211.2,94.7 		"/>
	</g>
</g>
<g>
	<g>
		<rect x="408.2" y="88.5" class="st16" width="26.4" height="2.4"/>
	</g>
	<g>
		<polygon class="st16" points="444.2,89.6 430.2,84.6 430.2,94.7 		"/>
	</g>
</g>
<g>
	<g>
		<rect x="597.3" y="88.5" class="st16" width="26.4" height="2.4"/>
	</g>
	<g>
		<polygon class="st16" points="633.2,89.6 619.1,84.6 619.1,94.7 		"/>
	</g>
</g>
<g>
	<g>
		<defs>
			<rect id="SVGID_31_" x="456.1" y="30" width="129" height="129"/>
		</defs>
		<clipPath id="SVGID_32_">
			<use xlink:href="#SVGID_31_"  style="overflow:visible;"/>
		</clipPath>
		<path class="st17" d="M456.1,94.4c0-35.7,28.9-64.6,64.6-64.6s64.6,28.9,64.6,64.6S556.4,159,520.7,159S456.1,130,456.1,94.4"/>
	</g>
	<g>
		<defs>
			<rect id="SVGID_33_" x="456.1" y="30" width="129" height="129"/>
		</defs>
		<clipPath id="SVGID_34_">
			<use xlink:href="#SVGID_33_"  style="overflow:visible;"/>
		</clipPath>
		<path class="st18" d="M476.8,92.1l-2.1-15.7c0-0.3,0.1-0.6,0.4-0.7c2.1-0.4,9.1-1.3,9.9,4.8c1,7.9-5.1,11.4-7.3,12.3
			C477.4,92.7,477,92.6,476.8,92.1 M489.1,78.7c-4.2-11.4-17.5-5.1-20.2-3.7c-0.3,0.1-0.4,0.4-0.3,0.7l9.6,39.6
			c0.1,0.7,1,1.3,1.8,1.2c0.9-0.1,1.5-1,1.2-1.8l-3.6-17.4c0-0.3,0-0.6,0.3-0.7C480.4,95,492.4,87.6,489.1,78.7"/>
	</g>
	<g>
		<defs>
			<rect id="SVGID_35_" x="456.1" y="30" width="129" height="129"/>
		</defs>
		<clipPath id="SVGID_36_">
			<use xlink:href="#SVGID_35_"  style="overflow:visible;"/>
		</clipPath>
		<path class="st19" d="M489.1,103.8c-2.2,1.9-4.2,0.6-4.9-0.1c-0.1-0.1-0.3-0.3-0.4-0.6c-0.4-0.6-1.2-2.4,0.9-4.3
			c2.8-2.5,4.8-1.3,5.5-0.6C490.9,98.9,491.8,101.6,489.1,103.8 M492.5,96c-1.3-1.6-5.1-3.7-10.3,1c-4.3,4-1.6,8.2-1.2,8.8
			c1,1.3,4.6,4.5,9.4,0.4C495.4,102.3,494,97.8,492.5,96"/>
	</g>
	<g>
		<defs>
			<rect id="SVGID_37_" x="456.1" y="30" width="129" height="129"/>
		</defs>
		<clipPath id="SVGID_38_">
			<use xlink:href="#SVGID_37_"  style="overflow:visible;"/>
		</clipPath>
		<path class="st20" d="M500.9,87.8c-0.1,1-0.6,0.1-1.5-0.3c-0.7-0.3-1.5-0.3-1.9,0.3c-1.6,1.5-0.7,3.1-0.7,3.1s1.8,2.4,4.2,1
			c2.8-1.6,2.1-5.4,0.9-7c-1.6-2.4-6.4-2.5-8.8-0.4c-2.2,1.9-3.6,5.5-1.2,9c3.4,4.9,5.8,5.2,8.4,10c3,5.7-0.6,8.7-3,8.8
			c-2.4,0.1-4.8-1.6-4-2.8c0.4-0.9,0.7,0,2.1,0.4c1,0.3,1.8,0.3,2.7-0.7c1.6-2.1-1-3.7-1-3.7s-2.7-1.3-5.2,2.5
			c-1.9,2.8,1.3,6.4,1.3,6.4s4.5,5.1,9.1,0.1c6.1-6.6,0.7-13.9,0.7-13.9s-1.8-2.4-6-6c-6.6-5.5-0.9-8.5,1-8.5
			C499.3,85.8,501.2,86.4,500.9,87.8"/>
	</g>
	<g>
		<defs>
			<rect id="SVGID_39_" x="456.1" y="30" width="129" height="129"/>
		</defs>
		<clipPath id="SVGID_40_">
			<use xlink:href="#SVGID_39_"  style="overflow:visible;"/>
		</clipPath>
		<path class="st21" d="M503.8,90.9l1.9-0.4c0.4-0.1,0.9,0.3,0.9,0.7v9.6c0,0.4-0.3,0.7-0.6,0.9l-0.6,0.1c-0.6,0.1-1-0.1-1.2-0.7
			l-1-9.3C503.3,91.4,503.5,91.1,503.8,90.9"/>
	</g>
	<g>
		<defs>
			<rect id="SVGID_41_" x="456.1" y="30" width="129" height="129"/>
		</defs>
		<clipPath id="SVGID_42_">
			<use xlink:href="#SVGID_41_"  style="overflow:visible;"/>
		</clipPath>
		<path class="st22" d="M515.5,90.5l1.5-0.1c0.6,0,1.2,0.6,1,1.2l-1.6,9c-0.1,0.4-0.4,0.7-0.9,0.7H515c-0.6,0-1.2-0.4-1-1l0.7-9
			C514.6,90.9,515,90.5,515.5,90.5"/>
	</g>
	<g>
		<defs>
			<rect id="SVGID_43_" x="456.1" y="30" width="129" height="129"/>
		</defs>
		<clipPath id="SVGID_44_">
			<use xlink:href="#SVGID_43_"  style="overflow:visible;"/>
		</clipPath>
		<path class="st23" d="M530.8,93l1.3-0.1c0.7,0,1.2,0.6,1,1.2l-1.6,9c-0.1,0.4-0.4,0.7-0.9,0.9h-0.4c-0.6,0.1-1.2-0.4-1.2-1l0.7-9
			C529.9,93.5,530.3,93.2,530.8,93"/>
	</g>
	<g>
		<defs>
			<rect id="SVGID_45_" x="456.1" y="30" width="129" height="129"/>
		</defs>
		<clipPath id="SVGID_46_">
			<use xlink:href="#SVGID_45_"  style="overflow:visible;"/>
		</clipPath>
		<path class="st24" d="M502,81.8c0-1.2,0.9-2.1,2.1-2.1c1.2,0,2.1,0.9,2.1,2.1s-0.9,2.1-2.1,2.1C502.9,83.9,502,83,502,81.8"/>
	</g>
	<g>
		<defs>
			<rect id="SVGID_47_" x="456.1" y="30" width="129" height="129"/>
		</defs>
		<clipPath id="SVGID_48_">
			<use xlink:href="#SVGID_47_"  style="overflow:visible;"/>
		</clipPath>
		<path class="st25" d="M515.8,80.3c0-1.2,0.9-2.1,2.1-2.1c1.2,0,2.1,0.9,2.1,2.1s-0.9,2.1-2.1,2.1
			C516.7,82.4,515.8,81.5,515.8,80.3"/>
	</g>
	<g>
		<defs>
			<rect id="SVGID_49_" x="456.1" y="30" width="129" height="129"/>
		</defs>
		<clipPath id="SVGID_50_">
			<use xlink:href="#SVGID_49_"  style="overflow:visible;"/>
		</clipPath>
		<path class="st26" d="M529.7,86.6c0-1.2,0.9-2.1,2.1-2.1s2.1,0.9,2.1,2.1c0,1.2-0.9,2.1-2.1,2.1S529.7,87.6,529.7,86.6"/>
	</g>
	<g>
		<defs>
			<rect id="SVGID_51_" x="456.1" y="30" width="129" height="129"/>
		</defs>
		<clipPath id="SVGID_52_">
			<use xlink:href="#SVGID_51_"  style="overflow:visible;"/>
		</clipPath>
		<path class="st27" d="M508.7,84.5l0.7-9c0-0.6,0.6-1.2,1.2-1.3l2.7-0.6c0.7-0.1,1.3,0.4,1.2,1.2l-1.6,8.8c0,0.1,0.1,0.4,0.3,0.3
			l3.7-0.7c0.7-0.1,1.3,0.4,1,1.2l-0.3,1.2c-0.1,0.6-0.7,1.2-1.3,1.2l-3.3,0.6c-0.1,0-0.3,0.1-0.3,0.3c-0.1,1-0.9,5.4-0.7,8.4
			c0.1,3.4-1.2,10.3,2.5,11.5c0.3,0.1,0.4,0.1,0.7,0.1c0.7,0.1,0.9-1,0.1-1.2c-0.9-0.1-1.9-0.6-1.8-1.9c0.3-2.4,2.7-1.9,2.7-1.9
			s2.2,0.3,2.1,2.4c-0.1,2.2-1.3,5.1-4.9,4.9c-5.2-0.1-4.9-8.1-4.9-8.1l0.3-13.3c0-0.1-0.1-0.3-0.3-0.3l-1,0.1
			c-0.7,0.1-1.3-0.3-1.5-1l-0.1-1c-0.1-0.7,0.3-1.5,1-1.6l1.9-0.3C508.6,84.8,508.7,84.6,508.7,84.5"/>
	</g>
	<g>
		<defs>
			<rect id="SVGID_53_" x="456.1" y="30" width="129" height="129"/>
		</defs>
		<clipPath id="SVGID_54_">
			<use xlink:href="#SVGID_53_"  style="overflow:visible;"/>
		</clipPath>
		<path class="st28" d="M537.3,87.6l1.6-11.1c0-0.3,0.3-0.6,0.6-0.6l3.7-0.6c0.6-0.1,1,0.4,0.9,1l-3.3,10.8
			c-0.1,0.3,0.1,0.4,0.4,0.4l2.8-0.7c0.6-0.1,1.2,0.3,1.2,1l-0.1,1c0,0.6-0.4,1-1,1l-3.6,0.7c-0.3,0.1-0.6,0.3-0.7,0.7
			c-0.3,1.3-1.2,4.6-1.2,7c-0.1,3.1-1.9,9,1.5,10.5c1.3,0.6,1.8,0,1.9-0.4c0-0.1,0-0.3-0.3-0.3c-0.7,0-2.7-0.3-2.2-1.9
			c0.4-2.1,2.5-1.5,2.5-1.5s2.1,0.4,1.8,2.4c-0.3,1.9-1.2,4-5.1,4c-5.4,0-4.5-7.8-4.5-7.8l1.8-11.2c0-0.3-0.1-0.4-0.4-0.3l-1.2,0.3
			c-0.6,0.1-1.2-0.3-1.2-0.9v-0.3c0-0.6,0.3-1,0.9-1.2l2.5-0.7C536.9,88.4,537.2,87.9,537.3,87.6"/>
	</g>
	<g>
		<defs>
			<rect id="SVGID_55_" x="456.1" y="30" width="129" height="129"/>
		</defs>
		<clipPath id="SVGID_56_">
			<use xlink:href="#SVGID_55_"  style="overflow:visible;"/>
		</clipPath>
		<path class="st29" d="M520.3,89.3l1-0.1c0.7-0.1,1.3,0.4,1.3,1l0.4,8.2l3.6-8.2c0.3-0.7,1.2-0.9,1.8-0.4l0.7,0.6
			c0.4,0.3,0.6,0.9,0.3,1.3l-6,13.5c-0.1,0.3-0.4,0.6-0.9,0.6l-0.6,0.1c-0.6,0.1-1.3-0.3-1.3-1l-1.3-14.4
			C519.2,89.9,519.7,89.4,520.3,89.3"/>
	</g>
	<g>
		<defs>
			<rect id="SVGID_57_" x="456.1" y="30" width="129" height="129"/>
		</defs>
		<clipPath id="SVGID_58_">
			<use xlink:href="#SVGID_57_"  style="overflow:visible;"/>
		</clipPath>
		<path class="st30" d="M541.5,91.7L541.5,91.7c0.6-0.1,1,0.3,1,0.9c0,1.5,0.4,4.2,3.1,3.4c3.1-0.7,2.5-7.3,2.2-9.9
			c0-0.4,0.3-1,0.7-1l1.3-0.1c0.6,0,1,0.3,1,0.9c0.1,4,0.4,18.9-0.9,24.1c-2.7,9.7-7.6,13.5-14.1,14.7c-5.8,1-13.5-0.4-15-8.8
			c-1.6-9.9,6.6-9.4,6.6-9.4s3,0,3.7,3.1c0.7,3.4-1.8,4.3-1.8,4.3s-3,1-3.7-1.6c-0.6-2.7,3.1-2.7,3.1-2.7s0-1.6-2.4-0.7
			c-2.4,0.7-3.4,3.1-3,6.1c0.3,2.2,2.2,5.8,8.4,5.5c7.5-0.4,10.8-4,10.8-4s4.5-3.1,4.9-12.1c0.3-6.4,0-6.6-0.1-6.3
			c-1.3,1.8-4.2,3-5.7,0.9c-1.5-2.1-1.5-5.1-1.3-6.4C540.8,92,541.2,91.7,541.5,91.7"/>
	</g>
	<g>
		<defs>
			<rect id="SVGID_59_" x="456.1" y="30" width="129" height="129"/>
		</defs>
		<clipPath id="SVGID_60_">
			<use xlink:href="#SVGID_59_"  style="overflow:visible;"/>
		</clipPath>
		<path class="st31" d="M560.7,91.7c-0.1,3-2.2,4-3.3,4.5c-0.3,0.1-0.7-0.1-0.7-0.6l0.3-7.8c0-0.4,0.4-0.7,0.9-0.6
			C559.1,87.6,560.9,88.8,560.7,91.7 M553.5,86l-1.5,33.6c0,0.4,0.3,0.9,0.9,0.9h0.9c0.4,0,0.7-0.3,0.7-0.7l2.7-20.7
			c0,0,5.7-0.1,6-7.6c0.3-5.8-5.7-6.6-8.4-6.6C554.1,84.8,553.5,85.4,553.5,86"/>
	</g>
	<g>
		<defs>
			<rect id="SVGID_61_" x="456.1" y="30" width="129" height="129"/>
		</defs>
		<clipPath id="SVGID_62_">
			<use xlink:href="#SVGID_61_"  style="overflow:visible;"/>
		</clipPath>
		<path class="st32" d="M570.9,88.5c1,1.5-2.1,4.6-3.9,4.9c-0.6,0.1-0.7-0.1-0.9-0.4C565.8,92.3,569.1,86,570.9,88.5 M572,99.8
			c-0.4-0.4-1.2-0.4-1.6,0c-0.3,0.3-0.6,0.4-1.2,0.6c-1.8,0.3-2.7-2.1-2.8-4c0-0.3,0.1-0.7,0.6-0.7c2.4,0,7.2-2.2,6.7-6.6
			c-0.7-7.3-10-1.9-10,6.3c0,5.7,3.6,7.3,3.7,7.3c0,0,4,1.5,4.9-2.4C572.1,100.2,572.1,99.9,572,99.8"/>
	</g>
</g>
<rect x="652.1" y="30" class="st33" width="128.8" height="128.8"/>
<g>
	<g>
		<defs>
			<rect id="SVGID_63_" x="652.1" y="30" width="128.8" height="128.8"/>
		</defs>
		<clipPath id="SVGID_64_">
			<use xlink:href="#SVGID_63_"  style="overflow:visible;"/>
		</clipPath>
		<path class="st34" d="M673.7,93.2l-2.1-15.6c0-0.3,0.1-0.6,0.4-0.7c2.1-0.4,9-1.3,9.7,4.6c1,7.8-5.1,11.2-7.3,12.1
			C674.1,93.9,673.7,93.6,673.7,93.2 M685.7,79.9c-4.2-11.2-17.4-5.1-19.9-3.7c-0.3,0.1-0.4,0.4-0.3,0.7L675,116
			c0.1,0.7,0.9,1.3,1.8,1.2c0.9-0.1,1.3-1,1.2-1.8l-3.6-17.2c0-0.3,0-0.6,0.3-0.7C677.1,96.2,689,88.8,685.7,79.9"/>
	</g>
	<g>
		<defs>
			<rect id="SVGID_65_" x="652.1" y="30" width="128.8" height="128.8"/>
		</defs>
		<clipPath id="SVGID_66_">
			<use xlink:href="#SVGID_65_"  style="overflow:visible;"/>
		</clipPath>
		<path class="st35" d="M685.8,104.9c-2.1,1.9-4.2,0.4-4.9-0.1c-0.1-0.1-0.3-0.3-0.4-0.6c-0.4-0.6-1.2-2.4,0.9-4.3
			c2.8-2.5,4.8-1.3,5.5-0.6C687.6,99.9,688.4,102.5,685.8,104.9 M689.1,97.1c-1.3-1.6-5.1-3.6-10.2,1c-4.3,3.9-1.6,8.1-1.2,8.7
			c1,1.3,4.6,4.3,9.3,0.4C692,103.4,690.6,98.9,689.1,97.1"/>
	</g>
	<g>
		<defs>
			<rect id="SVGID_67_" x="652.1" y="30" width="128.8" height="128.8"/>
		</defs>
		<clipPath id="SVGID_68_">
			<use xlink:href="#SVGID_67_"  style="overflow:visible;"/>
		</clipPath>
		<path class="st36" d="M697.5,89c-0.1,1-0.6,0.1-1.5-0.3c-0.7-0.3-1.3-0.3-1.9,0.3c-1.6,1.5-0.6,3.1-0.6,3.1s1.8,2.4,4,1
			c2.8-1.6,2.1-5.4,0.9-7c-1.6-2.4-6.3-2.5-8.7-0.4c-2.2,1.9-3.6,5.5-1.2,8.8c3.4,4.9,5.7,5.2,8.2,9.9c3,5.7-0.6,8.7-3,8.7
			c-2.4,0.1-4.8-1.6-4-2.7c0.4-0.9,0.7,0,2.1,0.4c1,0.3,1.8,0.3,2.7-0.7c1.6-2.1-1-3.7-1-3.7s-2.7-1.3-5.2,2.5
			c-1.8,2.8,1.3,6.3,1.3,6.3s4.5,5.1,9.1,0.1c6-6.4,0.7-13.8,0.7-13.8s-1.8-2.2-6-5.8c-6.6-5.5-0.9-8.5,0.9-8.5
			C695.9,87,697.7,87.6,697.5,89"/>
	</g>
	<g>
		<defs>
			<rect id="SVGID_69_" x="652.1" y="30" width="128.8" height="128.8"/>
		</defs>
		<clipPath id="SVGID_70_">
			<use xlink:href="#SVGID_69_"  style="overflow:visible;"/>
		</clipPath>
		<path class="st37" d="M700.4,92.1l1.9-0.4c0.4-0.1,0.9,0.3,0.9,0.7v9.4c0,0.4-0.3,0.7-0.6,0.9l-0.6,0.1c-0.6,0.1-1-0.1-1.2-0.7
			l-1-9.1C699.8,92.6,699.9,92.3,700.4,92.1"/>
	</g>
	<g>
		<defs>
			<rect id="SVGID_71_" x="652.1" y="30" width="128.8" height="128.8"/>
		</defs>
		<clipPath id="SVGID_72_">
			<use xlink:href="#SVGID_71_"  style="overflow:visible;"/>
		</clipPath>
		<path class="st38" d="M711.9,91.7l1.5-0.1c0.6,0,1.2,0.6,1,1.2l-1.6,9c-0.1,0.4-0.4,0.7-0.9,0.7h-0.4c-0.6,0-1.2-0.4-1-1l0.7-8.8
			C711,92,711.3,91.7,711.9,91.7"/>
	</g>
	<g>
		<defs>
			<rect id="SVGID_73_" x="652.1" y="30" width="128.8" height="128.8"/>
		</defs>
		<clipPath id="SVGID_74_">
			<use xlink:href="#SVGID_73_"  style="overflow:visible;"/>
		</clipPath>
		<path class="st39" d="M726.9,94.2l1.3-0.1c0.6,0,1.2,0.6,1,1.2l-1.6,8.8c-0.1,0.4-0.4,0.7-0.9,0.9h-0.4c-0.6,0-1.2-0.4-1.2-1
			l0.6-8.8C726,94.7,726.4,94.2,726.9,94.2"/>
	</g>
	<g>
		<defs>
			<rect id="SVGID_75_" x="652.1" y="30" width="128.8" height="128.8"/>
		</defs>
		<clipPath id="SVGID_76_">
			<use xlink:href="#SVGID_75_"  style="overflow:visible;"/>
		</clipPath>
		<path class="st40" d="M698.6,83c0-1.2,0.9-2.1,2.1-2.1c1.2,0,2.1,0.9,2.1,2.1c0,1.2-0.9,2.1-2.1,2.1
			C699.5,85.1,698.6,84.2,698.6,83"/>
	</g>
	<g>
		<defs>
			<rect id="SVGID_77_" x="652.1" y="30" width="128.8" height="128.8"/>
		</defs>
		<clipPath id="SVGID_78_">
			<use xlink:href="#SVGID_77_"  style="overflow:visible;"/>
		</clipPath>
		<path class="st41" d="M712,81.7c0-1.2,0.9-2.1,2.1-2.1c1.2,0,2.1,0.9,2.1,2.1s-0.9,2.1-2.1,2.1C712.9,83.7,712,82.7,712,81.7"/>
	</g>
	<g>
		<defs>
			<rect id="SVGID_79_" x="652.1" y="30" width="128.8" height="128.8"/>
		</defs>
		<clipPath id="SVGID_80_">
			<use xlink:href="#SVGID_79_"  style="overflow:visible;"/>
		</clipPath>
		<path class="st42" d="M725.8,87.8c0-1.2,0.9-2.1,2.1-2.1s2.1,0.9,2.1,2.1c0,1.2-0.9,2.1-2.1,2.1S725.8,88.8,725.8,87.8"/>
	</g>
	<g>
		<defs>
			<rect id="SVGID_81_" x="652.1" y="30" width="128.8" height="128.8"/>
		</defs>
		<clipPath id="SVGID_82_">
			<use xlink:href="#SVGID_81_"  style="overflow:visible;"/>
		</clipPath>
		<path class="st43" d="M705.1,85.7l0.7-8.8c0-0.6,0.6-1.2,1.2-1.3l2.5-0.6c0.7-0.1,1.3,0.4,1.2,1.2l-1.6,8.8c0,0.1,0.1,0.4,0.3,0.3
			l3.6-0.7c0.7-0.1,1.2,0.4,1,1.2l-0.3,1.2c-0.1,0.6-0.7,1-1.3,1.2l-3.3,0.6c-0.1,0-0.3,0.1-0.3,0.3c-0.1,1-0.9,5.2-0.7,8.4
			c0.1,3.4-1.2,10.2,2.5,11.4c0.3,0.1,0.4,0.1,0.7,0.1c0.7,0.1,0.9-1,0.1-1.2c-0.9-0.1-1.9-0.6-1.8-1.9c0.3-2.4,2.5-1.9,2.5-1.9
			s2.1,0.3,2.1,2.4c-0.1,2.1-1.3,4.9-4.9,4.9c-5.2-0.1-4.8-8.1-4.8-8.1l0.3-13.2c0-0.1-0.1-0.3-0.3-0.3l-1,0.1
			c-0.7,0.1-1.3-0.3-1.5-1l-0.1-1c-0.1-0.7,0.3-1.5,1-1.6l1.8-0.3C705,86,705.1,85.8,705.1,85.7"/>
	</g>
	<g>
		<defs>
			<rect id="SVGID_83_" x="652.1" y="30" width="128.8" height="128.8"/>
		</defs>
		<clipPath id="SVGID_84_">
			<use xlink:href="#SVGID_83_"  style="overflow:visible;"/>
		</clipPath>
		<path class="st44" d="M733.3,88.8l1.6-10.9c0-0.3,0.3-0.6,0.6-0.6l3.7-0.6c0.6-0.1,1,0.4,0.9,1l-3.3,10.6
			c-0.1,0.3,0.1,0.4,0.4,0.4l2.8-0.7c0.6-0.1,1.2,0.3,1.2,1l-0.1,1c0,0.6-0.4,1-1,1l-3.6,0.7c-0.3,0.1-0.6,0.3-0.7,0.7
			c-0.3,1.3-1.2,4.5-1.2,6.9c-0.1,3.1-1.9,9,1.5,10.3c1.3,0.6,1.6,0,1.8-0.4c0-0.1,0-0.3-0.3-0.3c-0.7,0-2.5-0.3-2.2-1.9
			c0.4-2.1,2.5-1.5,2.5-1.5s1.9,0.4,1.8,2.2c-0.1,1.8-1.2,4-4.9,4c-5.2,0-4.5-7.8-4.5-7.8l1.8-11.2c0-0.3-0.1-0.4-0.4-0.3l-1.2,0.3
			c-0.6,0.1-1.2-0.3-1.2-0.9v-0.3c0-0.6,0.3-1,0.9-1.2l2.4-0.7C733,89.4,733.3,89.1,733.3,88.8"/>
	</g>
	<g>
		<defs>
			<rect id="SVGID_85_" x="652.1" y="30" width="128.8" height="128.8"/>
		</defs>
		<clipPath id="SVGID_86_">
			<use xlink:href="#SVGID_85_"  style="overflow:visible;"/>
		</clipPath>
		<path class="st45" d="M716.5,90.5l1-0.1c0.7-0.1,1.3,0.4,1.3,1l0.3,8.1l3.6-8.1c0.3-0.6,1.2-0.9,1.8-0.4l0.7,0.6
			c0.4,0.3,0.6,0.9,0.3,1.3l-6,13.3c-0.1,0.3-0.4,0.6-0.9,0.6l-0.6,0.1c-0.6,0.1-1.2-0.3-1.3-1l-1.3-14.2
			C715.5,91.1,715.9,90.5,716.5,90.5"/>
	</g>
	<g>
		<defs>
			<rect id="SVGID_87_" x="652.1" y="30" width="128.8" height="128.8"/>
		</defs>
		<clipPath id="SVGID_88_">
			<use xlink:href="#SVGID_87_"  style="overflow:visible;"/>
		</clipPath>
		<path class="st46" d="M737.7,92.7L737.7,92.7c0.6-0.1,1,0.3,1,0.9c0,1.5,0.4,4.2,3.1,3.4c3.1-0.7,2.5-7.3,2.2-9.7
			c0-0.4,0.3-1,0.7-1l1.3-0.1c0.6,0,1,0.3,1,0.9c0.1,4,0.4,18.7-0.9,23.8c-2.7,9.6-7.6,13.3-13.9,14.5c-5.8,1-13.3-0.4-14.8-8.7
			c-1.6-9.7,6.4-9.4,6.4-9.4s3,0,3.6,3.1c0.7,3.4-1.8,4.3-1.8,4.3s-3,1-3.6-1.6c-0.6-2.7,3.1-2.5,3.1-2.5s0-1.5-2.4-0.7
			c-2.2,0.7-3.4,3.1-3,6.1c0.3,2.1,2.2,5.7,8.2,5.4c7.3-0.4,10.6-4,10.6-4s4.5-3.1,4.9-12c0.3-6.3,0-6.4-0.1-6.3
			c-1.3,1.8-4.2,3-5.7,0.9c-1.5-2.1-1.3-4.9-1.3-6.3C736.9,93.2,737.2,92.9,737.7,92.7"/>
	</g>
	<g>
		<defs>
			<rect id="SVGID_89_" x="652.1" y="30" width="128.8" height="128.8"/>
		</defs>
		<clipPath id="SVGID_90_">
			<use xlink:href="#SVGID_89_"  style="overflow:visible;"/>
		</clipPath>
		<path class="st47" d="M756.5,92.9c-0.1,3-2.2,4-3.3,4.3c-0.3,0.1-0.7-0.1-0.6-0.4l0.3-7.6c0-0.4,0.4-0.7,0.9-0.6
			C754.9,88.8,756.7,90,756.5,92.9 M749.3,87.2l-1.5,33.3c0,0.4,0.3,0.9,0.7,0.7h0.9c0.4,0,0.7-0.3,0.7-0.7l2.7-20.5
			c0,0,5.5-0.1,6-7.5c0.3-5.7-5.5-6.4-8.2-6.6C749.9,86,749.3,86.6,749.3,87.2"/>
	</g>
	<g>
		<defs>
			<rect id="SVGID_91_" x="652.1" y="30" width="128.8" height="128.8"/>
		</defs>
		<clipPath id="SVGID_92_">
			<use xlink:href="#SVGID_91_"  style="overflow:visible;"/>
		</clipPath>
		<path class="st48" d="M766.7,89.7c1,1.3-2.1,4.5-3.7,4.9c-0.6,0.1-0.7-0.1-0.9-0.4C761.5,93.3,764.9,87.2,766.7,89.7 M767.6,100.8
			c-0.4-0.4-1.2-0.4-1.6,0c-0.3,0.3-0.6,0.4-1.2,0.6c-1.8,0.3-2.5-2.1-2.7-3.9c0-0.3,0.1-0.7,0.6-0.7c2.4,0,7-2.2,6.6-6.6
			c-0.7-7.2-9.9-1.9-9.9,6.3c0,5.5,3.6,7.2,3.6,7.3c0,0,3.9,1.5,4.8-2.4C767.8,101.1,767.8,101,767.6,100.8"/>
	</g>
</g>
</svg>
