<?xml version="1.0" encoding="utf-8"?>
<!-- Generator: Adobe Illustrator 24.3.0, SVG Export Plug-In . SVG Version: 6.00 Build 0)  -->
<svg version="1.1" xmlns="http://www.w3.org/2000/svg" xmlns:xlink="http://www.w3.org/1999/xlink" x="0px" y="0px"
	 viewBox="0 0 488.8 415" style="enable-background:new 0 0 488.8 415;" xml:space="preserve">
<style type="text/css">
	.st0{fill:#FFFFFF;}
	.st1{fill:none;}
	.st2{fill:#B62025;}
	.st3{fill:none;stroke:#000000;stroke-width:0.5065;stroke-miterlimit:10;}
	.st4{stroke:#000000;stroke-width:0.5065;stroke-miterlimit:10;}
	.st5{fill:none;stroke:#D6C9AD;stroke-width:1.0131;stroke-miterlimit:10;}
	.st6{fill:#D6C9AD;}
	.st7{fill:#CD3927;}
</style>
<g id="Layer_2">
	<path class="st0" d="M346.3,147.8c-0.6-1-1.3-1.9-2.1-2.7c-0.7-0.7-1.5-1.3-2.4-1.9l-1.7-1l-0.8,0.4c-1,0.1-2,0.5-2.8,1.3
		c-0.3,0.3-0.6,0.7-0.8,1.1c-1.5-4.4-3.8-8.8-6.7-12.2c-0.9-1-1.9-2-2.8-2.8c4.8-3.4,7.5-8.8,7.5-15.1c0-6-2.1-10.6-6.4-13.7
		l2.6-1.9c2.6-2.3,3.2-6.2,1.4-9.2c-6.7-11.3-15.6-21.3-26-29.5l-9.5-6.7l-1.4-0.9h-0.1c-16.9-10.2-36.3-15.6-56.2-15.6
		c-21.7,0-42.6,6.4-60.5,18.4c-2,1.3-4,2.8-5.9,4.3c-6.3,4.9-12.1,10.5-17.3,16.8c-5.4,6.6-10.1,13.7-13.8,21.3
		c-0.8,1.6-0.6,3.5,0.5,5c0.7,0.9,1.9,1.2,3,1.8c0.2,0.1-1.2,1.7-0.8,2.5c-3.9,0.7-6.7,2.9-7.6,4.3c-1.7,2.5-2.3,5.1-1.9,7.2
		c0.3,1.5,1.2,2.7,2.4,3.5c0.9,0.6,2,1,3.1,1l1.2,0.1v20.9c-0.1-0.2-0.2-0.3-0.4-0.5c-0.8-0.8-1.8-1.2-2.8-1.3l-0.8-0.4l-1.7,1
		c-0.9,0.6-1.7,1.2-2.4,1.8c-0.8,0.8-1.5,1.7-2.1,2.7c-1.2,1.9-1.8,4.1-1.8,6.4c0,0.9,0.4,3.1,0.7,4.1c0.4,1.4,1,2.8,1.6,4l0.4,0.8
		c0.4,0.7,0.8,1.4,1.3,2.1c1.6,2.4,3.6,4.4,5.8,6l0.3,0.2c-0.5,0.2-0.9,0.4-1.4,0.7c-0.5,0.4-1,0.8-1.4,1.3l-0.7,1.2
		c-0.7,1.4-0.8,3-0.3,4.5l0.1,0.2c3.9,11.9,9.8,23.1,17.5,33l1,1.3l-0.3,0l2.2,2.4l2.3,3l0.1-0.4l0.8,0.9
		c20,21.8,49.7,34.8,79.6,34.8c28.7,0,55.6-11.1,75.7-30.8l12.7-14.7l9.7-16.8c2.3-4.9,4.2-9.9,5.8-15.1c0.8-2.6-0.2-5.3-2.4-6.8
		c1.6-1.4,3.1-3,4.3-4.8c0.5-0.7,0.9-1.4,1.3-2.1l0.4-0.8v0c0.6-1.3,1.2-2.6,1.6-4c0.3-1,0.7-3.3,0.7-4.1
		C348,151.9,347.4,149.7,346.3,147.8z"/>
</g>
<g id="Layer_1">
	<path class="st1" d="M226,79.4C226,79.4,226,79.4,226,79.4L226,79.4C226,79.4,226,79.4,226,79.4C226,79.4,226,79.4,226,79.4z"/>
	<polygon class="st1" points="276,86 276,86 276,86 	"/>
	<path class="st2" d="M197.8,197.1l0.1,0.1C197.9,197.2,197.9,197.2,197.8,197.1z"/>
	<g>
		<path d="M155.3,389.6h-4v-1.4h9.7v1.4h-4v11.9h-1.7V389.6z"/>
		<path d="M161.2,398.9c0-2.1,1.9-3.2,6-3.7c0-1.3-0.4-2.5-2-2.5c-1.1,0-2.2,0.5-2.9,1.1l-0.7-1.1c0.9-0.6,2.3-1.3,3.9-1.3
			c2.4,0,3.4,1.6,3.4,4.1v6h-1.4l-0.1-1.2h-0.1c-0.9,0.8-2,1.4-3.3,1.4C162.4,401.7,161.2,400.7,161.2,398.9z M167.2,399.1v-2.7
			c-3.3,0.4-4.4,1.2-4.4,2.5c0,1.1,0.8,1.6,1.7,1.6C165.5,400.4,166.3,399.9,167.2,399.1z"/>
		<path d="M171.3,403.4c0-0.8,0.5-1.6,1.4-2.2v-0.1c-0.5-0.3-0.9-0.8-0.9-1.6c0-0.8,0.6-1.5,1.1-1.8v-0.1c-0.7-0.5-1.3-1.5-1.3-2.6
			c0-2.2,1.7-3.5,3.7-3.5c0.5,0,1,0.1,1.4,0.2h3.4v1.3h-2c0.5,0.4,0.8,1.2,0.8,2c0,2.1-1.6,3.4-3.6,3.4c-0.5,0-1-0.1-1.5-0.3
			c-0.4,0.3-0.6,0.6-0.6,1.2c0,0.6,0.4,1.1,1.7,1.1h1.9c2.3,0,3.4,0.7,3.4,2.4c0,1.8-1.9,3.4-5,3.4
			C172.9,406,171.3,405.1,171.3,403.4z M178.7,402.9c0-0.9-0.7-1.2-2-1.2H175c-0.4,0-0.8,0-1.3-0.1c-0.7,0.5-1,1.1-1,1.7
			c0,1.1,1.1,1.7,2.9,1.7C177.5,404.9,178.7,403.9,178.7,402.9z M177.4,394.9c0-1.4-0.9-2.3-2.1-2.3s-2.1,0.9-2.1,2.3
			c0,1.4,1,2.3,2.1,2.3C176.5,397.2,177.4,396.3,177.4,394.9z"/>
		<path d="M182.2,399.5v-12.5h1.7v12.6c0,0.5,0.2,0.7,0.5,0.7c0.1,0,0.2,0,0.4,0l0.2,1.3c-0.2,0.1-0.5,0.2-1,0.2
			C182.7,401.7,182.2,400.9,182.2,399.5z"/>
		<path d="M187.1,388.5c0-0.7,0.5-1.1,1.2-1.1c0.6,0,1.2,0.4,1.2,1.1c0,0.6-0.5,1.1-1.2,1.1C187.6,389.6,187.1,389.2,187.1,388.5z
			 M187.4,391.6h1.7v9.9h-1.7V391.6z"/>
		<path d="M192.4,391.6h1.4l0.1,1.4h0.1c0.9-0.9,2-1.7,3.3-1.7c2.1,0,3,1.3,3,3.9v6.2h-1.7v-6c0-1.8-0.6-2.6-1.9-2.6
			c-1,0-1.7,0.5-2.7,1.5v7.1h-1.7V391.6z"/>
		<path d="M202.7,396.6c0-3.2,2.2-5.2,4.4-5.2c2.5,0,3.9,1.8,3.9,4.6c0,0.4,0,0.7-0.1,0.9h-6.6c0.1,2.1,1.4,3.4,3.3,3.4
			c0.9,0,1.7-0.3,2.5-0.8l0.6,1.1c-0.9,0.6-1.9,1-3.3,1C204.8,401.7,202.7,399.8,202.7,396.6z M209.6,395.8c0-2-0.9-3-2.4-3
			c-1.4,0-2.6,1.1-2.8,3H209.6z"/>
	</g>
	<path d="M183.2,375.3v-93.7h-0.5v93.7c-0.6,0.1-1,0.6-1,1.2c0,0.7,0.6,1.2,1.2,1.2c0.7,0,1.2-0.6,1.2-1.2
		C184.2,376,183.7,375.5,183.2,375.3z"/>
	<path d="M311.5,376.4v-63.2H311v63.2c-0.6,0.1-1,0.6-1,1.2c0,0.7,0.6,1.2,1.2,1.2c0.7,0,1.2-0.6,1.2-1.2
		C312.5,377,312.1,376.5,311.5,376.4z"/>
	<path d="M54.2,376v-87h-0.5v87c-0.6,0.1-1,0.6-1,1.2c0,0.7,0.6,1.2,1.2,1.2c0.7,0,1.2-0.6,1.2-1.2C55.2,376.6,54.7,376.1,54.2,376z
		"/>
	<path d="M435.6,375V138.8h-0.5V375c-0.6,0.1-1,0.6-1,1.2c0,0.7,0.6,1.2,1.2,1.2c0.7,0,1.2-0.6,1.2-1.2
		C436.6,375.6,436.2,375.1,435.6,375z"/>
	<rect x="102.3" y="259.3" class="st3" width="271" height="27"/>
	<rect x="123.7" y="29.5" class="st3" width="233.1" height="229.9"/>
	<rect x="48.8" y="9.2" class="st3" width="332.1" height="280.1"/>
	<g>
		<path d="M11.8,399.8l1-1.2c1,1,2.3,1.6,3.7,1.6c1.7,0,2.8-0.9,2.8-2.2c0-1.4-1-1.8-2.2-2.3l-1.9-0.8c-1.2-0.5-2.7-1.5-2.7-3.4
			c0-2,1.8-3.5,4.2-3.5c1.6,0,3,0.7,3.9,1.6l-0.9,1.1c-0.8-0.8-1.8-1.2-3-1.2c-1.5,0-2.5,0.8-2.5,1.9c0,1.3,1.2,1.8,2.2,2.2l1.9,0.8
			c1.5,0.7,2.7,1.6,2.7,3.6c0,2.1-1.7,3.8-4.5,3.8C14.6,401.7,13,401,11.8,399.8z"/>
		<path d="M23.2,388.5c0-0.7,0.5-1.1,1.2-1.1c0.6,0,1.2,0.4,1.2,1.1c0,0.6-0.5,1.1-1.2,1.1C23.7,389.6,23.2,389.2,23.2,388.5z
			 M23.5,391.6h1.7v9.9h-1.7V391.6z"/>
		<path d="M27.7,403.4c0-0.8,0.5-1.6,1.4-2.2v-0.1c-0.5-0.3-0.9-0.8-0.9-1.6c0-0.8,0.6-1.5,1.1-1.8v-0.1c-0.7-0.5-1.3-1.5-1.3-2.6
			c0-2.2,1.7-3.5,3.7-3.5c0.5,0,1,0.1,1.4,0.2h3.4v1.3h-2c0.5,0.4,0.8,1.2,0.8,2c0,2.1-1.6,3.4-3.6,3.4c-0.5,0-1-0.1-1.5-0.3
			c-0.4,0.3-0.6,0.6-0.6,1.2c0,0.6,0.4,1.1,1.7,1.1h1.9c2.3,0,3.4,0.7,3.4,2.4c0,1.8-1.9,3.4-5,3.4C29.4,406,27.7,405.1,27.7,403.4z
			 M35.1,402.9c0-0.9-0.7-1.2-2-1.2h-1.7c-0.4,0-0.8,0-1.3-0.1c-0.7,0.5-1,1.1-1,1.7c0,1.1,1.1,1.7,2.9,1.7
			C33.9,404.9,35.1,403.9,35.1,402.9z M33.9,394.9c0-1.4-0.9-2.3-2.1-2.3s-2.1,0.9-2.1,2.3c0,1.4,1,2.3,2.1,2.3
			C32.9,397.2,33.9,396.3,33.9,394.9z"/>
		<path d="M38.7,391.6H40l0.1,1.4h0.1c0.9-0.9,2-1.7,3.3-1.7c2.1,0,3,1.3,3,3.9v6.2h-1.7v-6c0-1.8-0.6-2.6-1.9-2.6
			c-1,0-1.7,0.5-2.7,1.5v7.1h-1.7V391.6z"/>
		<path d="M49.1,398.9c0-2.1,1.9-3.2,6-3.7c0-1.3-0.4-2.5-2-2.5c-1.1,0-2.2,0.5-2.9,1.1l-0.7-1.1c0.9-0.6,2.3-1.3,3.9-1.3
			c2.4,0,3.4,1.6,3.4,4.1v6h-1.4l-0.1-1.2h-0.1c-0.9,0.8-2,1.4-3.3,1.4C50.4,401.7,49.1,400.7,49.1,398.9z M55.2,399.1v-2.7
			c-3.3,0.4-4.4,1.2-4.4,2.5c0,1.1,0.8,1.6,1.7,1.6C53.4,400.4,54.2,399.9,55.2,399.1z"/>
		<path d="M60,398.4V393h-1.5v-1.3l1.5-0.1l0.2-2.8h1.4v2.8h2.7v1.4h-2.7v5.5c0,1.2,0.4,1.9,1.5,1.9c0.3,0,0.8-0.1,1.1-0.3l0.3,1.3
			c-0.6,0.2-1.2,0.4-1.8,0.4C60.7,401.7,60,400.4,60,398.4z"/>
		<path d="M66.4,397.9v-6.2H68v6c0,1.8,0.6,2.6,1.9,2.6c1,0,1.7-0.5,2.6-1.7v-7h1.7v9.9h-1.4l-0.1-1.5h-0.1
			c-0.9,1.1-1.9,1.8-3.2,1.8C67.3,401.7,66.4,400.4,66.4,397.9z"/>
		<path d="M77.5,391.6h1.4l0.1,1.8h0.1c0.7-1.2,1.7-2,2.8-2c0.4,0,0.7,0.1,1.1,0.2l-0.3,1.5c-0.3-0.1-0.6-0.2-1-0.2
			c-0.8,0-1.8,0.6-2.5,2.3v6.3h-1.7V391.6z"/>
		<path d="M83.6,396.6c0-3.2,2.2-5.2,4.4-5.2c2.5,0,3.9,1.8,3.9,4.6c0,0.4,0,0.7-0.1,0.9h-6.6c0.1,2.1,1.4,3.4,3.3,3.4
			c0.9,0,1.7-0.3,2.5-0.8l0.6,1.1c-0.9,0.6-1.9,1-3.3,1C85.7,401.7,83.6,399.8,83.6,396.6z M90.5,395.8c0-2-0.9-3-2.4-3
			c-1.4,0-2.6,1.1-2.8,3H90.5z"/>
	</g>
	<g>
		<path d="M269.8,388.2h1.7v11.9h5.8v1.4h-7.5V388.2z"/>
		<path d="M278.5,396.6c0-3.3,2.1-5.2,4.6-5.2s4.6,1.9,4.6,5.2c0,3.3-2.1,5.2-4.6,5.2S278.5,399.8,278.5,396.6z M285.9,396.6
			c0-2.3-1.1-3.8-2.8-3.8c-1.7,0-2.8,1.5-2.8,3.8c0,2.3,1.1,3.8,2.8,3.8C284.8,400.3,285.9,398.8,285.9,396.6z"/>
		<path d="M289.5,403.4c0-0.8,0.5-1.6,1.4-2.2v-0.1c-0.5-0.3-0.9-0.8-0.9-1.6c0-0.8,0.6-1.5,1.1-1.8v-0.1c-0.7-0.5-1.3-1.5-1.3-2.6
			c0-2.2,1.7-3.5,3.7-3.5c0.5,0,1,0.1,1.4,0.2h3.4v1.3h-2c0.5,0.4,0.8,1.2,0.8,2c0,2.1-1.6,3.4-3.6,3.4c-0.5,0-1-0.1-1.5-0.3
			c-0.4,0.3-0.6,0.6-0.6,1.2c0,0.6,0.4,1.1,1.7,1.1h1.9c2.3,0,3.4,0.7,3.4,2.4c0,1.8-1.9,3.4-5,3.4
			C291.1,406,289.5,405.1,289.5,403.4z M296.9,402.9c0-0.9-0.7-1.2-2-1.2h-1.7c-0.4,0-0.8,0-1.3-0.1c-0.7,0.5-1,1.1-1,1.7
			c0,1.1,1.1,1.7,2.9,1.7C295.7,404.9,296.9,403.9,296.9,402.9z M295.6,394.9c0-1.4-0.9-2.3-2.1-2.3s-2.1,0.9-2.1,2.3
			c0,1.4,1,2.3,2.1,2.3C294.7,397.2,295.6,396.3,295.6,394.9z"/>
		<path d="M299.4,396.6c0-3.3,2.1-5.2,4.6-5.2s4.6,1.9,4.6,5.2c0,3.3-2.1,5.2-4.6,5.2S299.4,399.8,299.4,396.6z M306.8,396.6
			c0-2.3-1.1-3.8-2.8-3.8c-1.7,0-2.8,1.5-2.8,3.8c0,2.3,1.1,3.8,2.8,3.8C305.7,400.3,306.8,398.8,306.8,396.6z"/>
		<path d="M311.1,398.4V393h-1.5v-1.3l1.5-0.1l0.2-2.8h1.4v2.8h2.7v1.4h-2.7v5.5c0,1.2,0.4,1.9,1.5,1.9c0.3,0,0.8-0.1,1.1-0.3
			l0.3,1.3c-0.6,0.2-1.2,0.4-1.8,0.4C311.8,401.7,311.1,400.4,311.1,398.4z"/>
		<path d="M316.6,405.5l0.3-1.3c0.2,0.1,0.5,0.1,0.8,0.1c1.1,0,1.8-0.9,2.2-2.1l0.2-0.7l-4-9.9h1.7l2,5.5c0.3,0.9,0.6,1.9,1,2.8h0.1
			c0.3-0.9,0.6-1.9,0.8-2.8l1.8-5.5h1.6l-3.7,10.7c-0.7,2-1.7,3.4-3.7,3.4C317.3,405.7,317,405.7,316.6,405.5z"/>
		<path d="M327.1,391.6h1.4l0.1,1.1h0.1c0.9-0.7,2-1.4,3.1-1.4c2.5,0,3.9,2,3.9,5c0,3.4-2,5.3-4.3,5.3c-0.9,0-1.8-0.4-2.7-1.1l0,1.7
			v3.3h-1.7V391.6z M334,396.4c0-2.2-0.7-3.6-2.6-3.6c-0.8,0-1.7,0.5-2.6,1.3v5.2c0.9,0.7,1.7,1,2.4,1
			C332.8,400.3,334,398.9,334,396.4z"/>
		<path d="M337.6,396.6c0-3.2,2.2-5.2,4.4-5.2c2.5,0,3.9,1.8,3.9,4.6c0,0.4,0,0.7-0.1,0.9h-6.6c0.1,2.1,1.4,3.4,3.3,3.4
			c0.9,0,1.7-0.3,2.5-0.8l0.6,1.1c-0.9,0.6-1.9,1-3.3,1C339.7,401.7,337.6,399.8,337.6,396.6z M344.5,395.8c0-2-0.9-3-2.4-3
			c-1.4,0-2.6,1.1-2.8,3H344.5z"/>
	</g>
	<g>
		<path d="M389.1,388.2h3.9c2.7,0,4.6,0.9,4.6,3.3c0,1.3-0.7,2.5-1.9,2.9v0.1c1.6,0.3,2.7,1.4,2.7,3.2c0,2.6-2.1,3.9-5,3.9h-4.3
			V388.2z M392.7,393.8c2.3,0,3.2-0.8,3.2-2.2c0-1.6-1.1-2.1-3.1-2.1h-2v4.3H392.7z M393.1,400.1c2.3,0,3.6-0.8,3.6-2.6
			c0-1.6-1.3-2.4-3.6-2.4h-2.3v5H393.1z"/>
		<path d="M400.8,391.6h1.4l0.1,1.8h0.1c0.7-1.2,1.7-2,2.8-2c0.4,0,0.7,0.1,1.1,0.2l-0.3,1.5c-0.3-0.1-0.6-0.2-1-0.2
			c-0.8,0-1.8,0.6-2.5,2.3v6.3h-1.7V391.6z"/>
		<path d="M406.8,398.9c0-2.1,1.9-3.2,6-3.7c0-1.3-0.4-2.5-2-2.5c-1.1,0-2.2,0.5-2.9,1.1l-0.7-1.1c0.9-0.6,2.3-1.3,3.9-1.3
			c2.4,0,3.4,1.6,3.4,4.1v6h-1.4l-0.1-1.2h-0.1c-0.9,0.8-2,1.4-3.3,1.4C408,401.7,406.8,400.7,406.8,398.9z M412.8,399.1v-2.7
			c-3.3,0.4-4.4,1.2-4.4,2.5c0,1.1,0.8,1.6,1.7,1.6C411.1,400.4,411.9,399.9,412.8,399.1z"/>
		<path d="M417.6,391.6h1.4l0.1,1.4h0.1c0.9-0.9,2-1.7,3.3-1.7c2.1,0,3,1.3,3,3.9v6.2h-1.7v-6c0-1.8-0.6-2.6-1.9-2.6
			c-1,0-1.7,0.5-2.7,1.5v7.1h-1.7V391.6z"/>
		<path d="M428,396.6c0-3.2,2-5.2,4.3-5.2c1.1,0,1.9,0.4,2.8,1.1l-0.1-1.7v-3.8h1.7v14.4h-1.4l-0.1-1.2H435c-0.8,0.8-1.8,1.4-3,1.4
			C429.6,401.7,428,399.9,428,396.6z M434.9,399v-5.2c-0.8-0.7-1.6-1-2.4-1c-1.6,0-2.8,1.5-2.8,3.8c0,2.4,1,3.8,2.7,3.8
			C433.3,400.3,434.1,399.9,434.9,399z"/>
		<path d="M439.9,391.6h1.4l0.1,1.4h0.1c0.9-0.9,1.9-1.7,3.1-1.7c1.5,0,2.3,0.7,2.7,1.9c1-1.1,2.1-1.9,3.2-1.9c2,0,3,1.3,3,3.9v6.2
			h-1.7v-6c0-1.8-0.6-2.6-1.8-2.6c-0.8,0-1.6,0.5-2.5,1.5v7.1h-1.7v-6c0-1.8-0.6-2.6-1.8-2.6c-0.7,0-1.6,0.5-2.5,1.5v7.1h-1.7V391.6
			z"/>
		<path d="M456.1,398.9c0-2.1,1.9-3.2,6-3.7c0-1.3-0.4-2.5-2-2.5c-1.1,0-2.2,0.5-2.9,1.1l-0.7-1.1c0.9-0.6,2.3-1.3,3.9-1.3
			c2.4,0,3.4,1.6,3.4,4.1v6h-1.4l-0.1-1.2h-0.1c-0.9,0.8-2,1.4-3.3,1.4C457.4,401.7,456.1,400.7,456.1,398.9z M462.2,399.1v-2.7
			c-3.3,0.4-4.4,1.2-4.4,2.5c0,1.1,0.8,1.6,1.7,1.6C460.4,400.4,461.2,399.9,462.2,399.1z"/>
		<path d="M466.9,391.6h1.4l0.1,1.8h0.1c0.7-1.2,1.7-2,2.8-2c0.4,0,0.7,0.1,1.1,0.2l-0.3,1.5c-0.3-0.1-0.6-0.2-1-0.2
			c-0.8,0-1.8,0.6-2.5,2.3v6.3h-1.7V391.6z"/>
		<path d="M474,387.1h1.6v9.8h0.1l4.2-5.2h1.8l-3.3,4l3.7,5.9h-1.8l-2.9-4.7l-1.8,2.1v2.6H474V387.1z"/>
	</g>
	<line class="st4" x1="356.4" y1="138.8" x2="435.6" y2="138.8"/>
	<polyline class="st3" points="311,313.2 395.6,313.2 395.6,195.5 323.6,195.5 	"/>
	<polyline class="st3" points="395.6,195.5 395.6,120.5 327.7,120.5 	"/>
	<g>
		<path d="M132.1,267.6h3l3.5,11h-2.6l-1.4-5.6c-0.3-1.1-0.6-2.4-0.9-3.5h-0.1c-0.3,1.2-0.6,2.4-0.9,3.5l-1.4,5.6h-2.5L132.1,267.6z
			 M130.9,274.1h5.3v1.9h-5.3V274.1z"/>
		<path d="M139.1,273.5v-5.9h2.5v6.2c0,2.2,0.7,2.9,1.9,2.9c1.2,0,1.9-0.7,1.9-2.9v-6.2h2.4v5.9c0,3.7-1.5,5.3-4.3,5.3
			S139.1,277.2,139.1,273.5z"/>
		<path d="M152.4,269.7h-3v-2.1h8.5v2.1h-3v8.9h-2.5V269.7z"/>
		<path d="M159.4,267.6h2.5v4.2h3.8v-4.2h2.5v11h-2.5V274h-3.8v4.6h-2.5V267.6z"/>
		<path d="M170.5,267.6h6.9v2.1H173v2.2h3.8v2.1H173v2.5h4.6v2.1h-7.1V267.6z"/>
		<path d="M179.5,267.6h2.5l2.9,5.5l1.1,2.4h0.1c-0.1-1.2-0.3-2.7-0.3-4v-3.9h2.4v11h-2.5l-2.9-5.5l-1.1-2.4h-0.1
			c0.1,1.2,0.3,2.7,0.3,4v3.9h-2.4V267.6z"/>
		<path d="M192.6,269.7h-3v-2.1h8.5v2.1h-3v8.9h-2.5V269.7z"/>
		<path d="M199.7,267.6h2.5v11h-2.5V267.6z"/>
		<path d="M204.1,273.2c0-3.6,2.4-5.8,5.2-5.8c1.4,0,2.6,0.7,3.3,1.4l-1.3,1.6c-0.6-0.5-1.1-0.9-1.9-0.9c-1.5,0-2.7,1.3-2.7,3.5
			c0,2.3,1.1,3.6,2.7,3.6c0.9,0,1.6-0.4,2.2-1l1.3,1.6c-0.9,1.1-2.1,1.6-3.6,1.6C206.4,278.8,204.1,276.9,204.1,273.2z"/>
		<path d="M217.8,267.6h2.7l1.8,4.9c0.2,0.6,0.4,1.4,0.6,2h0.1c0.2-0.7,0.4-1.4,0.6-2l1.7-4.9h2.7v11h-2.3v-4c0-1.1,0.2-2.7,0.3-3.7
			H226l-0.9,2.6l-1.6,4.2h-1.4l-1.6-4.2l-0.9-2.6h-0.1c0.1,1.1,0.3,2.7,0.3,3.7v4h-2.2V267.6z"/>
		<path d="M230.4,267.6h6.9v2.1h-4.4v2.2h3.8v2.1h-3.8v2.5h4.6v2.1h-7.1V267.6z"/>
		<path d="M241.9,273l-2.9-5.3h2.8l1,2.1c0.2,0.5,0.5,1.1,0.8,1.8h0.1c0.3-0.7,0.5-1.3,0.7-1.8l0.9-2.1h2.7l-2.9,5.5l3,5.5h-2.8
			l-1.1-2.2c-0.3-0.6-0.5-1.1-0.8-1.8h-0.1c-0.3,0.7-0.5,1.2-0.8,1.8l-1,2.2h-2.7L241.9,273z"/>
		<path d="M249.5,267.6h2.5v11h-2.5V267.6z"/>
		<path d="M253.8,273.2c0-3.6,2.4-5.8,5.2-5.8c1.4,0,2.6,0.7,3.3,1.4l-1.3,1.6c-0.6-0.5-1.1-0.9-1.9-0.9c-1.5,0-2.7,1.3-2.7,3.5
			c0,2.3,1.1,3.6,2.7,3.6c0.9,0,1.6-0.4,2.2-1l1.3,1.6c-0.9,1.1-2.1,1.6-3.6,1.6C256.2,278.8,253.8,276.9,253.8,273.2z"/>
		<path d="M266.5,267.6h3l3.5,11h-2.6l-1.4-5.6c-0.3-1.1-0.6-2.4-0.9-3.5h-0.1c-0.3,1.2-0.6,2.4-0.9,3.5l-1.4,5.6h-2.5L266.5,267.6z
			 M265.4,274.1h5.3v1.9h-5.3V274.1z"/>
		<path d="M274.1,267.6h2.5l2.9,5.5l1.1,2.4h0.1c-0.1-1.2-0.3-2.7-0.3-4v-3.9h2.4v11h-2.5l-2.9-5.5l-1.1-2.4h-0.1
			c0.1,1.2,0.3,2.7,0.3,4v3.9h-2.4V267.6z"/>
		<path d="M290.9,269.7h-3v-2.1h8.5v2.1h-3v8.9h-2.5V269.7z"/>
		<path d="M297.9,267.6h4c2.3,0,4.2,0.8,4.2,3.4c0,2.5-1.9,3.6-4.2,3.6h-1.5v4h-2.5V267.6z M301.7,272.7c1.3,0,2-0.6,2-1.6
			c0-1.1-0.7-1.5-2-1.5h-1.3v3.1H301.7z M301.4,274l1.7-1.6l3.5,6.2h-2.8L301.4,274z"/>
		<path d="M308.2,267.6h6.9v2.1h-4.4v2.2h3.8v2.1h-3.8v2.5h4.6v2.1h-7.1V267.6z"/>
		<path d="M319.9,267.6h3l3.5,11h-2.6l-1.4-5.6c-0.3-1.1-0.6-2.4-0.9-3.5h-0.1c-0.3,1.2-0.6,2.4-0.9,3.5l-1.4,5.6h-2.5L319.9,267.6z
			 M318.7,274.1h5.3v1.9h-5.3V274.1z"/>
		<path d="M328.4,269.7h-3v-2.1h8.5v2.1h-3v8.9h-2.5V269.7z"/>
		<path d="M334.5,277.2l1.4-1.7c0.8,0.7,1.8,1.1,2.7,1.1c1,0,1.5-0.4,1.5-1.1c0-0.7-0.6-0.9-1.6-1.3l-1.4-0.6
			c-1.1-0.5-2.2-1.4-2.2-3c0-1.8,1.6-3.3,3.9-3.3c1.3,0,2.6,0.5,3.5,1.4l-1.3,1.6c-0.7-0.6-1.4-0.9-2.3-0.9c-0.9,0-1.4,0.4-1.4,1
			c0,0.7,0.7,0.9,1.7,1.3l1.4,0.6c1.3,0.5,2.2,1.4,2.2,3c0,1.8-1.5,3.4-4.1,3.4C337.2,278.8,335.7,278.3,334.5,277.2z"/>
	</g>
	<path class="st5" d="M346.3,147.8c-0.6-1-1.3-1.9-2.1-2.7c-0.7-0.7-1.5-1.3-2.4-1.9l-1.7-1l-0.8,0.4c-1,0.1-2,0.5-2.8,1.3
		c-0.3,0.3-0.6,0.7-0.8,1.1c-1.5-4.4-3.8-8.8-6.7-12.2c-0.9-1-1.9-2-2.8-2.8c4.8-3.4,7.5-8.8,7.5-15.1c0-6-2.1-10.6-6.4-13.7
		l2.6-1.9c2.6-2.3,3.2-6.2,1.4-9.2c-6.7-11.3-15.6-21.3-26-29.5l-9.5-6.7l-1.4-0.9h-0.1c-16.9-10.2-36.3-15.6-56.2-15.6
		c-21.7,0-42.6,6.4-60.5,18.4c-2,1.3-4,2.8-5.9,4.3c-6.3,4.9-12.1,10.5-17.3,16.8c-5.4,6.6-10.1,13.7-13.8,21.3
		c-0.8,1.6-0.6,3.5,0.5,5c0.7,0.9,1.9,1.2,3,1.8c0.2,0.1-1.2,1.7-0.8,2.5c-3.9,0.7-6.7,2.9-7.6,4.3c-1.7,2.5-2.3,5.1-1.9,7.2
		c0.3,1.5,1.2,2.7,2.4,3.5c0.9,0.6,2,1,3.1,1l1.2,0.1v20.9c-0.1-0.2-0.2-0.3-0.4-0.5c-0.8-0.8-1.8-1.2-2.8-1.3l-0.8-0.4l-1.7,1
		c-0.9,0.6-1.7,1.2-2.4,1.8c-0.8,0.8-1.5,1.7-2.1,2.7c-1.2,1.9-1.8,4.1-1.8,6.4c0,0.9,0.4,3.1,0.7,4.1c0.4,1.4,1,2.8,1.6,4l0.4,0.8
		c0.4,0.7,0.8,1.4,1.3,2.1c1.6,2.4,3.6,4.4,5.8,6l0.3,0.2c-0.5,0.2-0.9,0.4-1.4,0.7c-0.5,0.4-1,0.8-1.4,1.3l-0.7,1.2
		c-0.7,1.4-0.8,3-0.3,4.5l0.1,0.2c3.9,11.9,9.8,23.1,17.5,33l1,1.3l-0.3,0l2.2,2.4l2.3,3l0.1-0.4l0.8,0.9
		c20,21.8,49.7,34.8,79.6,34.8c28.7,0,55.6-11.1,75.7-30.8l12.7-14.7l9.7-16.8c2.3-4.9,4.2-9.9,5.8-15.1c0.8-2.6-0.2-5.3-2.4-6.8
		c1.6-1.4,3.1-3,4.3-4.8c0.5-0.7,0.9-1.4,1.3-2.1l0.4-0.8v0c0.6-1.3,1.2-2.6,1.6-4c0.3-1,0.7-3.3,0.7-4.1
		C348,151.9,347.4,149.7,346.3,147.8z"/>
	<path class="st1" d="M224.6,81.3C224.6,81.3,224.7,81.3,224.6,81.3L224.6,81.3C224.6,81.3,224.6,81.3,224.6,81.3
		C224.6,81.3,224.6,81.3,224.6,81.3z"/>
	<polygon class="st1" points="273.8,87.8 273.8,87.8 273.8,87.8 	"/>
	<path class="st6" d="M169.3,88.6c3.1,0,6.4,0.6,9.3,2.4c3.1-4.7,7.4-8.2,13.7-7.9c1.9,0.1,4.6,0.5,7.3,2c2.3-4.8,7.4-7.8,13.9-7.8
		c4.6,0,8.4,1.5,11.1,4.1c0,0,0,0,0,0l0.5-0.5c0.1-0.1,6.7-6.6,16.6-6.3c4.4,0.1,8.4,1.4,11.8,3.6c1.1,0.8,2.1,1.6,2.9,2.6
		c0.3,0,0.7-0.1,1.1-0.1h6.8c3.8,0,6.1,1.7,7.3,3.1c0.8,0.9,1.6,2.2,2.1,4.1c0,0,0,0,0,0c2.9-1.9,6.2-2.9,10-2.9
		c5.5,0,10.5,2.2,14.1,6.1c0.7,0.7,1.2,1.5,1.8,2.3c2.5-0.5,5.1-0.7,7.9-0.7c8.6,0,15.1,1.4,20,4.2c0,0,0,0,0,0
		c1.3-1.2,1.6-3.1,0.7-4.6c-8.4-14.1-20-26-34.3-35h0l-0.6-0.4l0,0h0C276.7,46.4,257.6,41,238.1,41c-20.9,0-41.2,6.2-58.5,17.8
		c-2,1.3-3.9,2.7-5.7,4.1c-6.2,4.8-11.8,10.2-16.7,16.2c-5.2,6.3-9.7,13.2-13.3,20.6c-0.3,0.6,0.1,1.4,0.8,1.6
		c1.8,0.4,3.5,0.8,5.1,1.3c0.6,0.2,1.2,0.4,1.9,0.6C156.3,90.8,164.3,88.6,169.3,88.6z"/>
	<path class="st7" d="M213.5,97.9c5.2,0,7.7-2.5,7.7-6.6c0-4.5-3.3-6.6-7.7-6.6c-4.5,0-7.7,2.1-7.7,6.6
		C205.7,95.4,208.3,97.9,213.5,97.9z"/>
	<path class="st7" d="M221.5,124.5l-0.1-16c-0.1-6.4-2.5-8.5-8.2-8.6c-9.6-0.1-6,2.6-6.1,6.9v14c0,0.2,0,0.5,0,0.7
		c-0.2,5.4-0.9,11.4-3,11.5c-1.9,0.1-3.2-1.9-3.2-4.7c0-10.3,0.4-7.2,0.4-17.5c0-10.6-1.1-20.1-9.3-20.4
		c-7.2-0.3-10.9,11.3-12.8,21.7v-1.3c0-10.6-3-14.8-9.9-14.8c-6.9,0-11.4,7.7-13.2,20l-0.6-0.5c-0.1-0.1-0.2-0.2-0.3-0.3
		c-2.5-3-5.9-4.7-9.9-4.5c-4,0.3-6.3,2.4-6.6,2.9c-1.5,2.3-2,4.7-0.4,5.7c0.3,0.2,0.7,0.4,1.2,0.4c0,0,0,0,0.1,0c0,0,0.1,0,0.1,0
		l0,0c1-0.1,1.8-0.9,1.8-2c0-0.2,0-0.3-0.1-0.5c0-0.1,0-0.2,0-0.3c-0.1-0.2-0.2-0.4-0.2-0.7c0-0.7,0.6-1.4,1.4-1.4
		c0.7,0,1.2,0.5,1.3,1.1c0.2,0.6,0.3,1.6,0.3,2.9v40c0,1,0.8,2.3,1.7,2.7c4.4,1.9,9,0,10.6-0.5c0.4-0.1,0.7-0.5,0.7-0.9v-25.5h0.1
		c0-13.3,2.1-28.8,6.7-29c2.5-0.1,2.4,3,2.4,4v45c0,1.8,1.9,3,3.5,2.3c2.5-1.1,5.8-2.7,8.4-4.6c0.6-0.5,1-1.2,1-2l0-15.6
		c0-13.3,1.8-28.8,6.6-28.8c2.1,0,2.3,2.5,2.3,4.4c0,8.9-0.1,3.6-0.1,12.5c0,10.4,3.4,16.1,11.3,16.1c5.5,0,8.9-3,9.7-9.4
		c1.9,3.2,5.3,4.4,10.2,4.4C223.9,134,221.3,134,221.5,124.5z"/>
	<path class="st7" d="M239.2,99.9c-9.7-20.7,7.4-17,2.4-12.6c-0.7,0.6-0.9,1.5-0.9,2.5c0,1.4,0.5,2.6,1.6,3.5
		c1.1,0.9,2.5,1.3,4.2,1.3c1.8,0,3.1-0.5,4.1-1.4c1-0.9,1.5-2.1,1.5-3.7c0-2.2-0.9-4-2.8-5.3c-1.9-1.3-4.5-2.2-7.9-2.4
		c-6.2-0.2-10.8,3.9-11,4.1c0,0,0,0,0,0c-2.2,2.2-7.6,7.2-6.6,14.1c1,6.3,8.5,16.2,11.3,21.6c0,0.1,0.1,0.1,0.1,0.2
		c0.6,1.4,1.4,2.6,1.6,4.2c0.4,2.8-1.6,5.2-3.4,6c-1.2,0.6-2.3-1.1-1.3-1.9c0.1-0.1,0.3-0.2,0.4-0.2c0.5-0.2,1-0.5,1.4-1
		c0.6-0.7,0.9-1.6,0.9-2.7c0-1.5-0.6-2.8-1.7-3.7c-1.1-1-2.5-1.4-4.3-1.4c-1.8,0-3.1,0.5-4.2,1.4c-1,1-1.5,2.3-1.5,3.9
		c0,2.3,1.2,4.2,3.5,5.6c2.3,1.4,5.4,2.1,9.3,2.1c4.3,0,7.6-0.9,9.8-2.6c2.3-1.7,3.4-4.2,3.4-7.5c0-3-2.3-6.9-2.5-7.3
		C244.6,112.1,241.1,104,239.2,99.9z"/>
	<path class="st7" d="M296.4,128.7C296.4,128.7,296.4,128.7,296.4,128.7c-0.5-0.1-1,0.2-1.1,0.7c-1.1,4.6-4.7,7-8.4,7
		c-4,0-5.8-3.4-6.6-9.5c-0.1-0.4,0.3-0.8,0.7-0.9c8.5-1.7,14.8-8.9,14.8-19.4c0-9.2-5.4-14.1-12-14.1c-8.8,0-14.4,10-14.4,25.5
		c0,1.5,0,2.9,0.1,4.2c0,2,0.2,7.1-1.5,7c-3.7-0.2-1.4-27.2-1.4-27.2c0-0.7,0.6-1.3,1.3-1.3h2.5c0.5,0,1-0.3,1.2-0.8l0-0.1
		c0.3-0.9-0.3-1.8-1.2-1.8h-2.5c-0.7,0-1.3-0.6-1.3-1.3v-6.3c0-0.8-0.2-1.4-0.5-1.7c-0.3-0.4-0.9-0.5-1.7-0.5h-6.8
		c-0.7,0-1.2,0.2-1.6,0.5c-0.4,0.3-0.6,0.9-0.8,1.8c-0.5,2.2-1,3.8-1.5,4.8c-0.5,1-1.2,1.8-2.2,2.2c-0.9,0.4-2.4,0.6-4.3,0.6l-1.6,0
		c-2.2,0-2.4,2.6,0,2.7l3.7,0c0.7,0,1.3,0.6,1.3,1.3v20.4c0,3.9,1,6.9,2.9,9.1c1.9,2.2,4.7,3.3,8.2,3.3c3.4,0,6-1,7.8-3
		c0.4-0.5,0.8-1,1.1-1.5c2.1,8.3,6.8,13.5,14,13.5c6.8,0,10.7-5,12.3-14C297.1,129.3,296.8,128.9,296.4,128.7z M283.5,94.4
		c4.9-0.4,1.7,26.7-1.7,26.8l-0.5,0.2c-0.6,0.2-1.2-1.8-1.2-2.4C280.2,119,279.5,94.8,283.5,94.4z"/>
	<path class="st7" d="M316.8,130.1c8.5-1.6,13.3-7.5,13.3-15.1c0-10.7-8.1-14.9-22.6-14.9c-3.6,0-7,0.5-9.8,1.5
		c-0.8,0.3-1.2,1-1.2,1.8l0,0.1c0.1,1.5,1.8,2.2,3,1.3c2.2-1.7,5-2.5,7.9-2.5c6.5,0,10.2,3.7,10.2,14.3c0,9-1.9,13-5.6,12.9h-1
		v-16.9c0-4.8,0.5-5.6,0.7-6l-0.2-0.4c-0.5-0.2-1.6-0.4-2.5-0.4c-6.2,0-10.5,4.1-10.5,14.9c0,0,0.2,27.1-0.7,29.1
		c0,0.1-0.1,0.5-0.2,1c-0.2,1.1,0.6,2,1.7,2.1c0.2,0,0.4,0,0.6,0c7.6,0,11.1-4.5,11.1-12.3v-8.3h1c2.2,0,5.2,1,7.7,10.1
		c1.7,6.2,1.8,12.8,1.5,18.3c0,0.8,0.5,1.4,1.2,1.6c4.1,1.1,7,1,9.8-0.8c1-0.6,1.9-2.1,2.1-3.2C335.1,149.6,328,130.2,316.8,130.1z"
		/>
	<g>
		<path class="st6" d="M155.4,209.3c0.1-1.9,0.1-7.3,0-11.6c0-1.3,0.1-2.6,0.4-3.9c-0.8-1-1.3-2.3-1.4-3.6c-0.1-1.6,0.3-3.2,1.2-4.4
			c-3.6-3.1-7.2-6.1-10.6-8.5c0,0,0,0,0,0c0,0-0.1,0-0.1-0.1c-0.8-0.6-1.5-1.1-2.3-1.7c-2-1.6-5,0.4-4.2,2.9c0,0,0,0.1,0,0.1
			c3.8,11.7,9.6,22.4,16.9,31.9L155.4,209.3z"/>
		<path class="st6" d="M334.3,173.2c-0.5,0.4-0.9,0.7-1.4,1.1c-0.1,0.1-0.3,0.2-0.4,0.2c-3.9,3-7.8,6.5-11.8,10.2
			c3.9,2.6,6.1,7,6.1,12.8c0,2.1-0.4,4.2-1.2,6.1c5.6-8.5,10-17.7,12.9-27.7C339.3,173.4,336.3,171.5,334.3,173.2z"/>
		<path class="st6" d="M311.4,211.9c-2.3,16.9-22.2,14.7-24,13.1c-2.3,11.4-25.8,13.1-30.3,7.1c-2.8,5.1-20.7,8.1-28.3,3.5
			c-0.5,0.1-9.1,4.3-13.7-2c-4.3,2-13.9,0.5-15.7-4.8c-4.8,2.5-14.2-2.5-13.7-6.1c-1.3,1-14.5,1.9-18.5-8.3
			c-1.7,2.7-3.7,2.7-6.1,2.7c18.8,20.5,47.2,33.6,76.9,33.6c34,0,64.2-16.2,83.4-41.3C318.9,211.7,313.4,212.4,311.4,211.9z"/>
	</g>
	<path class="st7" d="M281.3,223.2h-0.6c-0.1,0-0.2,0-0.3,0.1c0,0.1-0.1,0.3-0.1,0.7c-0.1,0.5-0.2,0.9-0.3,1
		c-0.1,0.2-0.3,0.3-0.5,0.3c-0.2,0-0.3-0.1-0.4-0.2c-0.1-0.1-0.1-0.4-0.1-0.8l-1.6-35.3c0-2.7-0.8-4.8-2.4-6.2
		c-1.6-1.4-3.9-2.1-7-2.1c-2.6,0-4.7,0.5-6.2,1.4c-1.6,0.9-2.3,2.1-2.3,3.6c0,1.1,0.4,2,1.3,2.7c0.9,0.7,2,1,3.5,1
		c1.4,0,2.6-0.3,3.6-1c0.9-0.7,1.4-1.5,1.4-2.6c0-0.9-0.3-1.6-1-2.2c-0.7-0.6-1.5-0.8-2.5-0.8c-0.1-0.1-0.1-0.2-0.1-0.3
		c0-0.3,0.3-0.5,0.8-0.5c1,0,1.8,0.3,2.6,1c0.9,0.8,1.3,1.9,1.3,3.1c0,2.7-0.1,8.1-0.1,17.8c0,0.3-4.5-0.6-7.5,2.8
		c-4.7,5.3-3.4,17.8-1.3,20.7c1.4,1.8,2.6,2.4,4.3,2.4c1.2,0,2.2-0.2,3-0.7c0.7-0.4,1.3-1,1.8-1.7c0.1-0.2,0.4-0.2,0.5,0
		c1.1,1.6,2.7,2.4,5,2.4c1.9,0,3.3-0.5,4.3-1.5c1-1,1.5-2.4,1.5-4.2c0-0.4,0-0.6-0.1-0.8C281.6,223.3,281.5,223.2,281.3,223.2z
		 M270.4,225.2c-0.1,0.2-0.6,0.7-0.9,0.7c-0.4,0-0.9-0.6-0.9-1c0,0-0.4-16,0.2-18.1c0-0.2,0.7-0.3,0.8-0.3c0.2,0,0.7,0,0.8,0.2
		C271,209.5,270.4,225.2,270.4,225.2z"/>
	<path class="st7" d="M186.3,212.8l-0.4,0c-0.1,0-0.2,0-0.2,0.1c0,0.1-0.1,0.2-0.1,0.4c-0.1,0.3-0.1,0.6-0.2,0.7
		c-0.1,0.1-0.2,0.2-0.3,0.2c-0.1,0-0.2,0-0.2-0.1c0-0.1-0.1-0.3-0.1-0.5l-0.7-22.7c0-1.7-0.5-3.1-1.5-4c-1-0.9-2.5-1.4-4.5-1.4
		c-4,0-3.7,4-2.4,4.6c0.8,0.4,1.3,0.5,2.2,0.2c0.7-0.2,0.9-0.9,0.9-1.5c0-0.6-0.2-1-0.6-1.4c-0.4-0.4-0.9-0.6-1.6-0.6
		c0-0.1-0.1-0.1-0.1-0.2c0-0.2,0.2-0.3,0.5-0.3c0.6,0,1.2,0.2,1.7,0.7c0.6,0.5,0.8,1.3,0.8,2c0,1.7-0.1,5.2-0.2,11.4
		c0,0.2-2.9-0.4-4.9,1.7c-3.1,3.4-2.4,11.4-1,13.3c0.9,1.2,1.7,1.5,2.7,1.6c0.8,0,1.4-0.1,1.9-0.4c0.4-0.2,0.8-0.6,1.2-1.1
		c0.1-0.1,0.3-0.1,0.3,0c0.7,1,1.7,1.6,3.2,1.6c1.2,0,2.1-0.3,2.8-0.9c0.7-0.6,1-1.5,1-2.7c0-0.2,0-0.4-0.1-0.5
		C186.5,212.9,186.4,212.8,186.3,212.8z M179.3,214c-0.1,0.1-0.4,0.4-0.6,0.4c-0.3,0-0.6-0.4-0.6-0.7c0,0-0.1-10.3,0.3-11.6
		c0-0.1,0.5-0.2,0.5-0.2c0.1,0,0.5,0,0.5,0.1C179.7,203.9,179.3,214,179.3,214z"/>
	<path class="st7" d="M314.5,188c-7.3,0-11.2,3.9-11.2,9.4c0,6.1,4.6,9.6,11.2,9.6c7.3,0,9.7-5.6,9.7-9.6
		C324.3,192,321.7,188,314.5,188z M316.9,204.4c-3,0.1-4.9-1.5-4.9-7c0-5.4,2.5-6.4,5.3-6.4c3,0,3.3,3.4,3.3,6.4
		C320.6,199,320.6,204.3,316.9,204.4z"/>
	<path class="st2" d="M197,197L197,197C197.1,197,197,197,197,197z"/>
	<path class="st7" d="M174.6,194.6c-0.1-5-4.2-6.8-11.5-6.7c-1.8,0-3.5,0.3-4.9,0.8c-0.4,0.1-0.6,0.5-0.6,0.9l0,0.1
		c0.1,0.7,0.9,1,1.5,0.6c1.1-0.8,2.5-1.2,4-1.3c3.3-0.1,5.2,1.6,5.2,6.6c0.1,4.2-0.9,6.1-2.7,6l-0.5,0l-0.1-7.9
		c0-2.2,0.2-2.6,0.3-2.8l-0.1-0.2c-0.2-0.1-0.8-0.2-1.3-0.2c-3.1,0.1-5.3,2-5.2,7c0,0,0.3,12.6-0.2,13.5c0,0,0,0.2-0.1,0.5
		c-0.1,0.5,0.3,0.9,0.9,1c0.1,0,0.2,0,0.3,0c3.8-0.1,5.6-2.2,5.5-5.8l-0.1-3.9C165.1,202.8,174.8,203.3,174.6,194.6z"/>
	<path class="st7" d="M225.1,193.4c0-8.2-0.6-15.4-5.7-15.7c-4.4-0.2-6.7,8.7-7.9,16.7v-1c0-8.2-1.9-11.4-6.1-11.4
		c-4.2,0-7,5.9-8.1,15.4l-0.3-0.3c0.1,0.2-0.2,0.4-0.2,0.3c-0.2-8.7-2.2-12.1-6.3-12.3c-2.4-0.1-3.9,1.9-4.1,2.2
		c-0.9,1.8-1.2,3.6-0.3,4.4c0.2,0.2,0.5,0.3,0.7,0.3c0,0,0,0,0,0c0,0,0,0,0.1,0l0,0c0.6-0.1,1.1-0.7,1.1-1.5c0-0.1,0-0.3,0-0.4
		c0-0.1,0-0.1,0-0.2c-0.1-0.2-0.1-0.3-0.1-0.5c0-0.6,0.4-1,0.8-1c0.4,0,0.7,0.4,0.8,0.8c0.1,0.5,0.2,1.2,0.2,2.3l0.2,27.8
		c0,0.8,0.5,1.7,1,2c2.7,1.5,5.3,2,6.3,1.6c0.2-0.1,0.6-2.4,0.6-2.7v-8.4h0c0-10.2,1.3-22.2,4.1-22.3c1.5-0.1,1.5,2.3,1.5,3V225
		c0,1.4,1.1,1.9,2.2,2.4c2,0.8,5.4,1.7,5.4,0.6c0.2-7.2,0.3-16.2,0.3-16.2c0-10.2,1.1-22.2,4.1-22.2c1.3,0,1.4,1.9,1.4,3.4
		c0,6.8-0.1,2.8-0.1,9.6c0,5,0.2,16.2,0.2,25.3c0,2.8,3.4,3.5,6.8,3.4c0.4,0,0.8-0.2,1.2-0.6C225.1,225.6,225.1,201.3,225.1,193.4z"
		/>
	<path class="st7" d="M248.8,198.4c-0.1,0-1.4-0.4-1.6-0.4c8.6-1.4,10.8-6.7,10.8-13.6c0-9.8-5.6-13.8-20.4-13.8
		c-3.7,0-7.1,0.5-10,1.4c-0.8,0.3-1.3,0.9-1.2,1.7l0,0.1c0.1,1.4,1.9,2,3.1,1.2c2.2-1.6,5.1-2.3,8-2.3c6.6,0,10.4,3.4,10.4,13.1
		c0,7.2-1.5,10.9-4.4,11.6c-0.7,0.2-4.2-0.1-4.2-0.1l0.1-15.9c0-1.8,0.4-2.9,0.9-3.6c0.6-0.9,0-2.1-1.1-2.1c0,0-0.1,0-0.1,0
		c-6.3,0.2-10.7,3.8-10.7,13.7c0,0,0,9.8,0,19.9c0.1,15.1-0.7,20.2-0.8,20.7c-0.2,1.1,0.7,2,1.9,2.1c0.2,0,0.4,0,0.6,0
		c2.9,0,5.1-0.4,6.9-1.3c1.2,0,2.4,0,3.8-0.1c0.1,0,6.6-0.2,9.1-0.7c8-1.7,8.2-9.5,8.2-17C258.1,205,256.9,200.4,248.8,198.4z
		 M247.9,214.3c-0.2,15.6-8.5,12.9-8.5,12.9l-0.2-17.5l0.2-9.3C239.4,200.3,248.1,200,247.9,214.3z"/>
	<path class="st7" d="M302.2,202.8c-1.3-0.9-2.5-0.9-3.6-0.3c-0.8,0.5-1.3,1.1-1.5,1.9c-0.2,0.8-0.1,1.7,0.3,2.6
		c0.4,0.9,1,1.6,1.8,1.9c0.7,0.3,1.5,0.3,2.3-0.2c0.5-0.3,0.9-0.7,1.1-1.2c0.1-0.3,0.2-0.7,0.1-1c0-0.1,0-0.2,0-0.3
		c0.1-0.5,0.4-0.5,0.7-0.3c0.1,0.3,2.1,5.2-1.9,7.8c-1,0.6-4,1.2-6.9,0.1c-1.2-0.5-2.2-1.2-1.7-2.3l8.2-19.9
		c0.3-0.7,0.5-1.4,0.5-2.1c0.1-1.1-0.4-1.6-1.2-1.6c0,0-11.8-3.8-14.9-3.1c-5.8,1.3-5.1,6.4-4.9,7.7c0.3,2,1,3.5,1.8,4.5
		c0.8,1,1.8,1.5,3.1,1.3c0.9-0.1,1.5-0.5,1.9-1.2c0.4-0.7,0.6-1.5,0.5-2.6c-0.1-1-0.4-1.9-1-2.4c-0.6-0.6-1.2-0.8-2-0.7
		c-0.6,0.1-1,0.3-1.3,0.7c-1.3,1.9-1-5.2,2.3-5.1c2.7,0.1,4.7,0.6,5.7,1.3c0,0,0,0,0.1,0.1c0.2,0.2,0.4,0.3,0.5,0.5
		c0,0,0.1,0.2,0.1,0.4c0.2,1.3,0.1,2.6-0.5,3.8l-10,22.5c-0.3,0.6-0.4,1.2-0.5,1.8c0,0.6,0.1,1.1,0.3,1.4c0.2,0.3,0.5,0.4,1,0.5
		l5.7,0.8c0,0,0.1,0,0.1,0c3.1,0.5,11.3,1.6,14.7-2.1C310.7,209.6,303.1,203.4,302.2,202.8z"/>
	<path d="M229.3,138.1c-1.3-0.7-2.7-1.2-4.2-1.4c-1-0.2-2.2-0.2-3.2-0.1c-6,0.6-8.2,1.6-10.3,2.3c-12.5,3.5-34.2,16.9-34.2,16.9
		c-0.3,0.1-3.1,1.7-3.3,1.8c-2.2,1.2-4.4,2.3-6.6,3.2c-5.1,2.1-10.4,3.3-16,3.8c-0.6,0-1.1,0.1-1.7,0.1c-5.8,0-10.8-3.9-12.4-9.2
		c-0.4-1.2-0.6-2.5-0.6-3.9c0-1.5,0.3-2.9,0.8-4.2c0,0,0,0,0,0c0.1-0.2,0-0.5-0.2-0.7c-0.2-0.2-0.6-0.3-0.9-0.1c0,0,0,0,0,0
		c-0.6,0.4-1.2,0.8-1.8,1.3c-0.6,0.6-1.1,1.2-1.5,1.9c-0.8,1.3-1.3,2.9-1.3,4.5c0,0.5,0.4,2.6,0.5,3.1c0.5,1.5,1,2.9,1.8,4.2v0
		c0.3,0.6,0.7,1.2,1.1,1.8c1.4,2,3.1,3.8,5.1,5.2c0.1,0.1,0.2,0.2,0.4,0.3v0c3,2.4,6.2,4.5,9.6,6.4c1.7,1,3.5,1.8,5.4,2.6
		c4.1,1.7,8.3,3.1,12.6,4c4.3,0.9,8.8,1.3,13.3,1.3c20.1,0,38.8-9,51.4-24.8c0.1-0.1,1.4-1.7,2.3-4.3c0.4-1.2,0.7-2.6,0.7-4.2
		C236.4,144.7,233.5,140.3,229.3,138.1z"/>
	<path d="M247.2,138.1c1.3-0.7,2.7-1.2,4.2-1.4c1-0.2,2.2-0.2,3.2-0.1c6,0.6,8.2,1.6,10.3,2.3c12.5,3.5,34.2,16.9,34.2,16.9
		c0.3,0.1,3.1,1.7,3.3,1.8c2.2,1.2,4.4,2.3,6.6,3.2c5.1,2.1,10.4,3.3,16,3.8c0.6,0,1.1,0.1,1.7,0.1c5.8,0,10.8-3.9,12.4-9.2
		c0.4-1.2,0.6-2.5,0.6-3.9c0-1.5-0.3-2.9-0.8-4.2c0,0,0,0,0,0c-0.1-0.2,0-0.5,0.2-0.7c0.2-0.2,0.6-0.3,0.9-0.1c0,0,0,0,0,0
		c0.6,0.4,1.2,0.8,1.8,1.3c0.6,0.6,1.1,1.2,1.5,1.9c0.8,1.3,1.3,2.9,1.3,4.5c0,0.5-0.4,2.6-0.5,3.1c-0.5,1.5-1,2.9-1.8,4.2v0
		c-0.3,0.6-0.7,1.2-1.1,1.8c-1.4,2-3.1,3.8-5.1,5.2c-0.1,0.1-0.2,0.2-0.4,0.3v0c-3,2.4-6.2,4.5-9.6,6.4c-1.7,1-3.5,1.8-5.4,2.6
		c-4.1,1.7-8.3,3.1-12.6,4c-4.3,0.9-8.8,1.3-13.3,1.3c-20.1,0-38.8-9-51.4-24.8c-0.1-0.1-1.4-1.7-2.3-4.3c-0.4-1.2-0.7-2.6-0.7-4.2
		C240.1,144.7,243,140.3,247.2,138.1z"/>
</g>
</svg>
