<?xml version="1.0" encoding="utf-8"?>
<!-- Generator: Adobe Illustrator 24.3.0, SVG Export Plug-In . SVG Version: 6.00 Build 0)  -->
<svg version="1.1" id="Layer_1" xmlns="http://www.w3.org/2000/svg" xmlns:xlink="http://www.w3.org/1999/xlink" x="0px" y="0px"
	 viewBox="0 0 124.07 187.6" style="enable-background:new 0 0 124.07 187.6;" xml:space="preserve">
<style type="text/css">
	.st0{fill:#FFFFFF;}
</style>
<g>
	<path class="st0" d="M61.76,176.77c-27.25,0-49.41-22.17-49.41-49.41V58.79c0-27.25,22.17-49.41,49.41-49.41
		c27.25,0,49.41,22.17,49.41,49.41v68.56C111.18,154.61,89.01,176.77,61.76,176.77z M61.76,14.38c-24.49,0-44.41,19.92-44.41,44.41
		v68.56c0,24.49,19.92,44.41,44.41,44.41h0c24.49,0,44.41-19.92,44.41-44.41V58.79C106.18,34.31,86.25,14.38,61.76,14.38z"/>
</g>
<g>
	<path class="st0" d="M61.76,72.52c-3.65,0-6.63-2.97-6.63-6.63V40.26c0-3.65,2.97-6.63,6.63-6.63c3.65,0,6.63,2.97,6.63,6.63v25.63
		C68.39,69.55,65.42,72.52,61.76,72.52z M61.76,38.64c-0.88,0-1.63,0.74-1.63,1.63v25.63c0,0.88,0.75,1.63,1.63,1.63
		s1.63-0.74,1.63-1.63V40.26C63.39,39.38,62.64,38.64,61.76,38.64z"/>
</g>
</svg>
