<?xml version="1.0" encoding="utf-8"?>
<!-- Generator: Adobe Illustrator 24.3.0, SVG Export Plug-In . SVG Version: 6.00 Build 0)  -->
<svg version="1.1" id="Layer_1" xmlns="http://www.w3.org/2000/svg" xmlns:xlink="http://www.w3.org/1999/xlink" x="0px" y="0px"
	 viewBox="0 0 659.4 298.3" style="enable-background:new 0 0 659.4 298.3;" xml:space="preserve">
<style type="text/css">
	.st0{fill:#D6C277;}
	.st1{fill:#9B2735;}
	.st2{fill:#FFFEF1;}
	.st3{fill:#48496A;}
</style>
<g>
	<rect x="231.2" y="7.9" class="st0" width="201" height="201"/>
</g>
<g>
	<rect x="450.6" y="7.9" class="st1" width="201" height="201"/>
</g>
<g>
	<path d="M249,236.5c0-0.8-0.3-1.4-0.8-1.9s-1.6-0.9-3-1.3c-1.5-0.4-2.5-0.9-3.2-1.4c-1-0.7-1.4-1.6-1.4-2.7c0-1.1,0.4-2,1.3-2.7
		c0.9-0.7,2-1,3.4-1c0.9,0,1.8,0.2,2.5,0.5c0.7,0.4,1.3,0.9,1.7,1.5c0.4,0.7,0.6,1.4,0.6,2.2H249c0-1-0.3-1.8-1-2.3
		s-1.6-0.9-2.7-0.9c-1.1,0-2,0.2-2.6,0.7c-0.6,0.5-1,1.1-1,1.9c0,0.7,0.3,1.3,0.9,1.8c0.6,0.5,1.5,0.9,2.8,1.2
		c1.3,0.3,2.2,0.7,2.9,1.1c0.7,0.4,1.2,0.8,1.5,1.3c0.3,0.5,0.5,1.1,0.5,1.8c0,1.1-0.4,2-1.3,2.7c-0.9,0.7-2.1,1-3.5,1
		c-1,0-1.9-0.2-2.8-0.5c-0.8-0.4-1.5-0.9-1.9-1.5s-0.6-1.4-0.6-2.2h1.2c0,1,0.4,1.8,1.1,2.4c0.7,0.6,1.7,0.9,3,0.9
		c1.1,0,2-0.2,2.7-0.7S249,237.3,249,236.5z"/>
	<path d="M259.4,238.7c-0.7,1-1.8,1.5-3.4,1.5c-1.1,0-2-0.3-2.6-1s-0.9-1.6-0.9-2.9v-6.9h1.2v6.7c0,2,0.8,3,2.4,3
		c1.7,0,2.8-0.7,3.2-2.1v-7.6h1.2V240h-1.1L259.4,238.7z"/>
	<path d="M264.4,240v-9.6h-1.7v-1h1.7v-1.3c0-1.1,0.3-1.9,0.8-2.5c0.5-0.6,1.3-0.9,2.3-0.9c0.4,0,0.9,0.1,1.2,0.2l-0.1,1
		c-0.3-0.1-0.7-0.1-1.1-0.1c-0.6,0-1.1,0.2-1.5,0.6s-0.5,1-0.5,1.7v1.3h2.5v1h-2.5v9.6H264.4z"/>
	<path d="M271,240v-9.6h-1.7v-1h1.7v-1.3c0-1.1,0.3-1.9,0.8-2.5c0.5-0.6,1.3-0.9,2.3-0.9c0.4,0,0.9,0.1,1.2,0.2l-0.1,1
		c-0.3-0.1-0.7-0.1-1.1-0.1c-0.6,0-1.1,0.2-1.5,0.6s-0.5,1-0.5,1.7v1.3h2.5v1h-2.5v9.6H271z"/>
	<path d="M276.7,226.4c0-0.2,0.1-0.4,0.2-0.6c0.1-0.2,0.3-0.2,0.6-0.2s0.4,0.1,0.6,0.2c0.1,0.2,0.2,0.3,0.2,0.6
		c0,0.2-0.1,0.4-0.2,0.6c-0.1,0.1-0.3,0.2-0.6,0.2s-0.4-0.1-0.6-0.2C276.8,226.8,276.7,226.6,276.7,226.4z M278.1,240h-1.2v-10.6
		h1.2V240z"/>
	<path d="M284.6,233.7l2.9-4.3h1.4l-3.6,5.2l3.7,5.4h-1.4l-3-4.5l-3,4.5h-1.4l3.7-5.4l-3.6-5.2h1.4L284.6,233.7z"/>
	<path d="M295.8,226.4c0-0.2,0.1-0.4,0.2-0.6c0.1-0.2,0.3-0.2,0.6-0.2s0.4,0.1,0.6,0.2c0.1,0.2,0.2,0.3,0.2,0.6
		c0,0.2-0.1,0.4-0.2,0.6c-0.1,0.1-0.3,0.2-0.6,0.2s-0.4-0.1-0.6-0.2C295.9,226.8,295.8,226.6,295.8,226.4z M297.2,240H296v-10.6h1.2
		V240z"/>
	<path d="M301.5,229.4l0,1.8c0.4-0.7,0.9-1.1,1.5-1.5s1.2-0.5,2-0.5c1.1,0,2,0.3,2.5,1c0.6,0.6,0.8,1.6,0.8,2.9v6.9h-1.2v-6.9
		c0-0.9-0.2-1.6-0.6-2.1c-0.4-0.5-1-0.7-1.9-0.7c-0.7,0-1.4,0.2-1.9,0.7c-0.6,0.5-1,1.1-1.2,1.8v7.2h-1.2v-10.6H301.5z"/>
	<path d="M324.5,236.5c0-0.8-0.3-1.4-0.8-1.9s-1.6-0.9-3-1.3c-1.5-0.4-2.5-0.9-3.2-1.4c-1-0.7-1.4-1.6-1.4-2.7c0-1.1,0.4-2,1.3-2.7
		c0.9-0.7,2-1,3.4-1c0.9,0,1.8,0.2,2.5,0.5c0.7,0.4,1.3,0.9,1.7,1.5c0.4,0.7,0.6,1.4,0.6,2.2h-1.2c0-1-0.3-1.8-1-2.3
		s-1.6-0.9-2.7-0.9c-1.1,0-2,0.2-2.6,0.7c-0.6,0.5-1,1.1-1,1.9c0,0.7,0.3,1.3,0.9,1.8c0.6,0.5,1.5,0.9,2.8,1.2
		c1.3,0.3,2.2,0.7,2.9,1.1c0.7,0.4,1.2,0.8,1.5,1.3c0.3,0.5,0.5,1.1,0.5,1.8c0,1.1-0.4,2-1.3,2.7c-0.9,0.7-2.1,1-3.5,1
		c-1,0-1.9-0.2-2.8-0.5c-0.8-0.4-1.5-0.9-1.9-1.5s-0.6-1.4-0.6-2.2h1.2c0,1,0.4,1.8,1.1,2.4c0.7,0.6,1.7,0.9,3,0.9
		c1.1,0,2-0.2,2.7-0.7S324.5,237.3,324.5,236.5z"/>
	<path d="M336.5,234.8c0,1.6-0.4,3-1.1,3.9s-1.7,1.5-2.9,1.5c-1.4,0-2.6-0.5-3.3-1.5v5.4H328v-14.6h1.1l0.1,1.5
		c0.8-1.1,1.9-1.7,3.3-1.7c1.3,0,2.3,0.5,3,1.4s1.1,2.3,1.1,4V234.8z M335.4,234.6c0-1.3-0.3-2.4-0.8-3.2s-1.3-1.2-2.3-1.2
		c-0.7,0-1.3,0.2-1.8,0.5c-0.5,0.3-0.9,0.8-1.2,1.5v5.1c0.3,0.6,0.7,1.1,1.2,1.4c0.5,0.3,1.1,0.5,1.8,0.5c1,0,1.8-0.4,2.3-1.2
		C335.1,237.3,335.4,236.1,335.4,234.6z"/>
	<path d="M345.8,240c-0.1-0.3-0.2-0.8-0.2-1.5c-0.4,0.5-0.9,0.9-1.6,1.2c-0.6,0.3-1.3,0.4-2,0.4c-1,0-1.8-0.3-2.5-0.8
		s-0.9-1.3-0.9-2.1c0-1,0.4-1.8,1.3-2.4c0.9-0.6,2-0.9,3.6-0.9h2.1v-1.2c0-0.8-0.2-1.3-0.7-1.8c-0.5-0.4-1.1-0.6-2-0.6
		c-0.8,0-1.5,0.2-2,0.6c-0.5,0.4-0.8,0.9-0.8,1.5l-1.2,0c0-0.8,0.4-1.6,1.2-2.2s1.7-0.9,2.9-0.9c1.2,0,2.1,0.3,2.8,0.9
		c0.7,0.6,1,1.4,1,2.5v5c0,1,0.1,1.8,0.3,2.3v0.1H345.8z M342.1,239.2c0.8,0,1.5-0.2,2.1-0.6c0.6-0.4,1.1-0.9,1.3-1.5v-2.3h-2.1
		c-1.2,0-2.1,0.2-2.7,0.6c-0.7,0.4-1,1-1,1.7c0,0.6,0.2,1.1,0.7,1.5S341.4,239.2,342.1,239.2z"/>
	<path d="M351,229.4l0,1.8c0.4-0.7,0.9-1.1,1.5-1.5s1.2-0.5,2-0.5c1.1,0,2,0.3,2.5,1c0.6,0.6,0.8,1.6,0.8,2.9v6.9h-1.2v-6.9
		c0-0.9-0.2-1.6-0.6-2.1c-0.4-0.5-1-0.7-1.9-0.7c-0.7,0-1.4,0.2-1.9,0.7c-0.6,0.5-1,1.1-1.2,1.8v7.2h-1.2v-10.6H351z"/>
	<path d="M360.8,226.4c0-0.2,0.1-0.4,0.2-0.6c0.1-0.2,0.3-0.2,0.6-0.2s0.4,0.1,0.6,0.2c0.1,0.2,0.2,0.3,0.2,0.6
		c0,0.2-0.1,0.4-0.2,0.6c-0.1,0.1-0.3,0.2-0.6,0.2s-0.4-0.1-0.6-0.2C360.8,226.8,360.8,226.6,360.8,226.4z M362.1,240H361v-10.6h1.2
		V240z"/>
	<path d="M371.6,237.3c0-0.6-0.2-1-0.7-1.4s-1.2-0.6-2.1-0.8c-0.9-0.2-1.7-0.4-2.2-0.7c-0.5-0.3-0.9-0.6-1.2-0.9s-0.4-0.8-0.4-1.3
		c0-0.8,0.3-1.5,1-2.1c0.7-0.5,1.6-0.8,2.7-0.8c1.2,0,2.1,0.3,2.8,0.9c0.7,0.6,1.1,1.3,1.1,2.3h-1.2c0-0.6-0.3-1.1-0.8-1.5
		s-1.2-0.6-2-0.6c-0.8,0-1.4,0.2-1.9,0.5s-0.7,0.8-0.7,1.3c0,0.5,0.2,0.9,0.6,1.2c0.4,0.3,1.1,0.6,2.1,0.8c1,0.2,1.8,0.5,2.3,0.8
		s0.9,0.6,1.1,1c0.2,0.4,0.4,0.8,0.4,1.4c0,0.9-0.4,1.6-1.1,2.1c-0.7,0.5-1.7,0.8-2.8,0.8c-1.2,0-2.2-0.3-3-0.9s-1.1-1.3-1.1-2.3
		h1.2c0,0.7,0.3,1.2,0.9,1.6s1.2,0.6,2.1,0.6c0.8,0,1.5-0.2,2-0.5C371.4,238.3,371.6,237.9,371.6,237.3z"/>
	<path d="M376.6,231.2c0.4-0.6,0.9-1.1,1.5-1.5c0.6-0.3,1.3-0.5,2-0.5c1.1,0,2,0.3,2.5,1c0.6,0.6,0.8,1.6,0.8,2.9v6.9h-1.2v-6.9
		c0-0.9-0.2-1.6-0.6-2.1c-0.4-0.5-1-0.7-1.9-0.7c-0.7,0-1.4,0.2-1.9,0.7c-0.6,0.5-1,1.1-1.2,1.8v7.2h-1.2v-15h1.2V231.2z"/>
	<path d="M393.1,226.7v2.7h2.2v1h-2.2v7c0,0.6,0.1,1,0.3,1.3s0.6,0.4,1.1,0.4c0.2,0,0.5,0,0.9-0.1l0,0.9c-0.3,0.1-0.7,0.2-1.2,0.2
		c-0.8,0-1.4-0.2-1.7-0.7c-0.4-0.5-0.5-1.2-0.5-2.1v-7.1H390v-1h1.9v-2.7H393.1z"/>
	<path d="M398.9,231.2c0.4-0.6,0.9-1.1,1.5-1.5c0.6-0.3,1.3-0.5,2-0.5c1.1,0,2,0.3,2.5,1c0.6,0.6,0.8,1.6,0.8,2.9v6.9h-1.2v-6.9
		c0-0.9-0.2-1.6-0.6-2.1c-0.4-0.5-1-0.7-1.9-0.7c-0.7,0-1.4,0.2-1.9,0.7c-0.6,0.5-1,1.1-1.2,1.8v7.2h-1.2v-15h1.2V231.2z"/>
	<path d="M415.3,240c-0.1-0.3-0.2-0.8-0.2-1.5c-0.4,0.5-0.9,0.9-1.6,1.2c-0.6,0.3-1.3,0.4-2,0.4c-1,0-1.8-0.3-2.5-0.8
		s-0.9-1.3-0.9-2.1c0-1,0.4-1.8,1.3-2.4c0.9-0.6,2-0.9,3.6-0.9h2.1v-1.2c0-0.8-0.2-1.3-0.7-1.8c-0.5-0.4-1.1-0.6-2-0.6
		c-0.8,0-1.5,0.2-2,0.6c-0.5,0.4-0.8,0.9-0.8,1.5l-1.2,0c0-0.8,0.4-1.6,1.2-2.2s1.7-0.9,2.9-0.9c1.2,0,2.1,0.3,2.8,0.9
		c0.7,0.6,1,1.4,1,2.5v5c0,1,0.1,1.8,0.3,2.3v0.1H415.3z M411.7,239.2c0.8,0,1.5-0.2,2.1-0.6c0.6-0.4,1.1-0.9,1.3-1.5v-2.3H413
		c-1.2,0-2.1,0.2-2.7,0.6c-0.7,0.4-1,1-1,1.7c0,0.6,0.2,1.1,0.7,1.5S411,239.2,411.7,239.2z"/>
	<path d="M421.2,226.7v2.7h2.2v1h-2.2v7c0,0.6,0.1,1,0.3,1.3s0.6,0.4,1.1,0.4c0.2,0,0.5,0,0.9-0.1l0,0.9c-0.3,0.1-0.7,0.2-1.2,0.2
		c-0.8,0-1.4-0.2-1.7-0.7c-0.4-0.5-0.5-1.2-0.5-2.1v-7.1h-1.9v-1h1.9v-2.7H421.2z"/>
	<path d="M249.3,253.4l0,1.7c0.4-0.6,0.9-1.1,1.5-1.4c0.6-0.3,1.2-0.5,2-0.5c1.7,0,2.7,0.7,3.2,2.1c0.4-0.7,0.9-1.2,1.5-1.5
		c0.6-0.4,1.3-0.5,2.1-0.5c2.3,0,3.4,1.2,3.5,3.7v7.1h-1.2v-7c0-0.9-0.2-1.6-0.6-2.1c-0.4-0.5-1.1-0.7-2-0.7c-0.8,0-1.5,0.3-2.1,0.8
		c-0.6,0.5-0.9,1.2-1,1.9v7H255V257c0-0.9-0.2-1.6-0.6-2c-0.4-0.4-1.1-0.7-1.9-0.7c-0.7,0-1.4,0.2-1.9,0.6s-0.9,1-1.2,1.9v7.2h-1.2
		v-10.6H249.3z"/>
	<path d="M270.1,264.2c-0.9,0-1.7-0.2-2.4-0.7c-0.7-0.4-1.3-1.1-1.7-1.9s-0.6-1.7-0.6-2.7v-0.4c0-1,0.2-1.9,0.6-2.7
		c0.4-0.8,0.9-1.5,1.6-1.9c0.7-0.5,1.5-0.7,2.3-0.7c1.3,0,2.3,0.4,3.1,1.3c0.8,0.9,1.1,2.1,1.1,3.6v0.7h-7.5v0.2c0,1.2,0.3,2.2,1,3
		c0.7,0.8,1.6,1.2,2.6,1.2c0.6,0,1.2-0.1,1.7-0.3c0.5-0.2,0.9-0.6,1.3-1.1l0.7,0.6C273,263.6,271.7,264.2,270.1,264.2z M269.9,254.2
		c-0.9,0-1.6,0.3-2.2,1s-1,1.5-1.1,2.6h6.3v-0.1c0-1-0.3-1.8-0.9-2.5C271.5,254.6,270.8,254.2,269.9,254.2z"/>
	<path d="M283,264c-0.1-0.3-0.2-0.8-0.2-1.5c-0.4,0.5-0.9,0.9-1.6,1.2c-0.6,0.3-1.3,0.4-2,0.4c-1,0-1.8-0.3-2.5-0.8
		s-0.9-1.3-0.9-2.1c0-1,0.4-1.8,1.3-2.4c0.9-0.6,2-0.9,3.6-0.9h2.1v-1.2c0-0.8-0.2-1.3-0.7-1.8c-0.5-0.4-1.1-0.6-2-0.6
		c-0.8,0-1.5,0.2-2,0.6c-0.5,0.4-0.8,0.9-0.8,1.5l-1.2,0c0-0.8,0.4-1.6,1.2-2.2s1.7-0.9,2.9-0.9c1.2,0,2.1,0.3,2.8,0.9
		c0.7,0.6,1,1.4,1,2.5v5c0,1,0.1,1.8,0.3,2.3v0.1H283z M279.3,263.2c0.8,0,1.5-0.2,2.1-0.6c0.6-0.4,1.1-0.9,1.3-1.5v-2.3h-2.1
		c-1.2,0-2.1,0.2-2.7,0.6c-0.7,0.4-1,1-1,1.7c0,0.6,0.2,1.1,0.7,1.5S278.6,263.2,279.3,263.2z"/>
	<path d="M288.2,253.4l0,1.8c0.4-0.7,0.9-1.1,1.5-1.5s1.2-0.5,2-0.5c1.1,0,2,0.3,2.5,1c0.6,0.6,0.8,1.6,0.8,2.9v6.9h-1.2v-6.9
		c0-0.9-0.2-1.6-0.6-2.1c-0.4-0.5-1-0.7-1.9-0.7c-0.7,0-1.4,0.2-1.9,0.7c-0.6,0.5-1,1.1-1.2,1.8v7.2h-1.2v-10.6H288.2z"/>
	<path d="M304.4,261.3c0-0.6-0.2-1-0.7-1.4s-1.2-0.6-2.1-0.8c-0.9-0.2-1.7-0.4-2.2-0.7c-0.5-0.3-0.9-0.6-1.2-0.9s-0.4-0.8-0.4-1.3
		c0-0.8,0.3-1.5,1-2.1c0.7-0.5,1.6-0.8,2.7-0.8c1.2,0,2.1,0.3,2.8,0.9c0.7,0.6,1.1,1.3,1.1,2.3h-1.2c0-0.6-0.3-1.1-0.8-1.5
		s-1.2-0.6-2-0.6c-0.8,0-1.4,0.2-1.9,0.5s-0.7,0.8-0.7,1.3c0,0.5,0.2,0.9,0.6,1.2c0.4,0.3,1.1,0.6,2.1,0.8c1,0.2,1.8,0.5,2.3,0.8
		s0.9,0.6,1.1,1c0.2,0.4,0.4,0.8,0.4,1.4c0,0.9-0.4,1.6-1.1,2.1c-0.7,0.5-1.7,0.8-2.8,0.8c-1.2,0-2.2-0.3-3-0.9s-1.1-1.3-1.1-2.3
		h1.2c0,0.7,0.3,1.2,0.9,1.6s1.2,0.6,2.1,0.6c0.8,0,1.5-0.2,2-0.5C304.1,262.3,304.4,261.9,304.4,261.3z"/>
	<path d="M321.5,258.8c0,1.6-0.4,3-1.1,3.9s-1.7,1.5-2.9,1.5c-1.4,0-2.6-0.5-3.3-1.5v5.4H313v-14.6h1.1l0.1,1.5
		c0.8-1.1,1.9-1.7,3.3-1.7c1.3,0,2.3,0.5,3,1.4s1.1,2.3,1.1,4V258.8z M320.4,258.6c0-1.3-0.3-2.4-0.8-3.2s-1.3-1.2-2.3-1.2
		c-0.7,0-1.3,0.2-1.8,0.5c-0.5,0.3-0.9,0.8-1.2,1.5v5.1c0.3,0.6,0.7,1.1,1.2,1.4c0.5,0.3,1.1,0.5,1.8,0.5c1,0,1.8-0.4,2.3-1.2
		C320.1,261.3,320.4,260.1,320.4,258.6z"/>
	<path d="M325.4,264h-1.2v-15h1.2V264z"/>
	<path d="M335.3,264c-0.1-0.3-0.2-0.8-0.2-1.5c-0.4,0.5-0.9,0.9-1.6,1.2c-0.6,0.3-1.3,0.4-2,0.4c-1,0-1.8-0.3-2.5-0.8
		s-0.9-1.3-0.9-2.1c0-1,0.4-1.8,1.3-2.4c0.9-0.6,2-0.9,3.6-0.9h2.1v-1.2c0-0.8-0.2-1.3-0.7-1.8c-0.5-0.4-1.1-0.6-2-0.6
		c-0.8,0-1.5,0.2-2,0.6c-0.5,0.4-0.8,0.9-0.8,1.5l-1.2,0c0-0.8,0.4-1.6,1.2-2.2s1.7-0.9,2.9-0.9c1.2,0,2.1,0.3,2.8,0.9
		c0.7,0.6,1,1.4,1,2.5v5c0,1,0.1,1.8,0.3,2.3v0.1H335.3z M331.6,263.2c0.8,0,1.5-0.2,2.1-0.6c0.6-0.4,1.1-0.9,1.3-1.5v-2.3h-2.1
		c-1.2,0-2.1,0.2-2.7,0.6c-0.7,0.4-1,1-1,1.7c0,0.6,0.2,1.1,0.7,1.5S330.9,263.2,331.6,263.2z"/>
	<path d="M343.2,263.2c0.8,0,1.5-0.2,2-0.7s0.8-1.1,0.9-1.8h1.1c0,0.6-0.2,1.2-0.6,1.8c-0.4,0.5-0.9,0.9-1.5,1.2
		c-0.6,0.3-1.3,0.4-2,0.4c-1.4,0-2.5-0.5-3.3-1.4c-0.8-1-1.2-2.3-1.2-3.9v-0.4c0-1,0.2-2,0.5-2.8s0.9-1.4,1.6-1.9
		c0.7-0.4,1.5-0.7,2.4-0.7c1.2,0,2.1,0.3,2.9,1c0.8,0.7,1.2,1.6,1.2,2.7h-1.1c-0.1-0.8-0.3-1.5-0.9-2s-1.2-0.8-2.1-0.8
		c-1.1,0-1.9,0.4-2.5,1.1s-0.9,1.8-0.9,3.2v0.3c0,1.3,0.3,2.4,0.9,3.2C341.3,262.8,342.2,263.2,343.2,263.2z"/>
	<path d="M353.7,264.2c-0.9,0-1.7-0.2-2.4-0.7c-0.7-0.4-1.3-1.1-1.7-1.9S349,260,349,259v-0.4c0-1,0.2-1.9,0.6-2.7
		c0.4-0.8,0.9-1.5,1.6-1.9c0.7-0.5,1.5-0.7,2.3-0.7c1.3,0,2.3,0.4,3.1,1.3c0.8,0.9,1.1,2.1,1.1,3.6v0.7h-7.5v0.2c0,1.2,0.3,2.2,1,3
		c0.7,0.8,1.6,1.2,2.6,1.2c0.6,0,1.2-0.1,1.7-0.3c0.5-0.2,0.9-0.6,1.3-1.1l0.7,0.6C356.6,263.6,355.3,264.2,353.7,264.2z
		 M353.5,254.2c-0.9,0-1.6,0.3-2.2,1s-1,1.5-1.1,2.6h6.3v-0.1c0-1-0.3-1.8-0.9-2.5C355.1,254.6,354.4,254.2,353.5,254.2z"/>
	<path d="M367.3,261.6l0.2,0.9l0.2-1l2.5-8.1h1l2.5,8l0.3,1.1l0.2-1l2.2-8.1h1.2l-3.1,10.6h-1l-2.7-8.4l-0.1-0.6l-0.1,0.6L368,264
		h-1l-3.1-10.6h1.2L367.3,261.6z"/>
	<path d="M381,255.2c0.4-0.6,0.9-1.1,1.5-1.5c0.6-0.3,1.3-0.5,2-0.5c1.1,0,2,0.3,2.5,1c0.6,0.6,0.8,1.6,0.8,2.9v6.9h-1.2v-6.9
		c0-0.9-0.2-1.6-0.6-2.1c-0.4-0.5-1-0.7-1.9-0.7c-0.7,0-1.4,0.2-1.9,0.7c-0.6,0.5-1,1.1-1.2,1.8v7.2h-1.2v-15h1.2V255.2z"/>
	<path d="M395,264.2c-0.9,0-1.7-0.2-2.4-0.7c-0.7-0.4-1.3-1.1-1.7-1.9s-0.6-1.7-0.6-2.7v-0.4c0-1,0.2-1.9,0.6-2.7
		c0.4-0.8,0.9-1.5,1.6-1.9c0.7-0.5,1.5-0.7,2.3-0.7c1.3,0,2.3,0.4,3.1,1.3c0.8,0.9,1.1,2.1,1.1,3.6v0.7h-7.5v0.2c0,1.2,0.3,2.2,1,3
		c0.7,0.8,1.6,1.2,2.6,1.2c0.6,0,1.2-0.1,1.7-0.3c0.5-0.2,0.9-0.6,1.3-1.1l0.7,0.6C397.8,263.6,396.6,264.2,395,264.2z M394.7,254.2
		c-0.9,0-1.6,0.3-2.2,1s-1,1.5-1.1,2.6h6.3v-0.1c0-1-0.3-1.8-0.9-2.5C396.3,254.6,395.6,254.2,394.7,254.2z"/>
	<path d="M406.1,254.4c-0.2,0-0.5-0.1-0.8-0.1c-0.7,0-1.3,0.2-1.9,0.6c-0.5,0.4-0.9,1-1.1,1.8v7.3h-1.2v-10.6h1.1l0,1.7
		c0.6-1.2,1.6-1.9,3-1.9c0.3,0,0.6,0,0.8,0.1L406.1,254.4z"/>
	<path d="M412,264.2c-0.9,0-1.7-0.2-2.4-0.7c-0.7-0.4-1.3-1.1-1.7-1.9s-0.6-1.7-0.6-2.7v-0.4c0-1,0.2-1.9,0.6-2.7
		c0.4-0.8,0.9-1.5,1.6-1.9c0.7-0.5,1.5-0.7,2.3-0.7c1.3,0,2.3,0.4,3.1,1.3c0.8,0.9,1.1,2.1,1.1,3.6v0.7h-7.5v0.2c0,1.2,0.3,2.2,1,3
		c0.7,0.8,1.6,1.2,2.6,1.2c0.6,0,1.2-0.1,1.7-0.3c0.5-0.2,0.9-0.6,1.3-1.1l0.7,0.6C414.9,263.6,413.6,264.2,412,264.2z M411.8,254.2
		c-0.9,0-1.6,0.3-2.2,1s-1,1.5-1.1,2.6h6.3v-0.1c0-1-0.3-1.8-0.9-2.5C413.4,254.6,412.7,254.2,411.8,254.2z"/>
	<path d="M250.5,285.3c0-0.6-0.2-1-0.7-1.4s-1.2-0.6-2.1-0.8c-0.9-0.2-1.7-0.4-2.2-0.7c-0.5-0.3-0.9-0.6-1.2-0.9s-0.4-0.8-0.4-1.3
		c0-0.8,0.3-1.5,1-2.1c0.7-0.5,1.6-0.8,2.7-0.8c1.2,0,2.1,0.3,2.8,0.9c0.7,0.6,1.1,1.3,1.1,2.3h-1.2c0-0.6-0.3-1.1-0.8-1.5
		s-1.2-0.6-2-0.6c-0.8,0-1.4,0.2-1.9,0.5s-0.7,0.8-0.7,1.3c0,0.5,0.2,0.9,0.6,1.2c0.4,0.3,1.1,0.6,2.1,0.8c1,0.2,1.8,0.5,2.3,0.8
		s0.9,0.6,1.1,1c0.2,0.4,0.4,0.8,0.4,1.4c0,0.9-0.4,1.6-1.1,2.1c-0.7,0.5-1.7,0.8-2.8,0.8c-1.2,0-2.2-0.3-3-0.9s-1.1-1.3-1.1-2.3
		h1.2c0,0.7,0.3,1.2,0.9,1.6s1.2,0.6,2.1,0.6c0.8,0,1.5-0.2,2-0.5C250.2,286.3,250.5,285.9,250.5,285.3z"/>
	<path d="M253.7,282.6c0-1,0.2-1.9,0.6-2.7c0.4-0.8,1-1.4,1.7-1.9c0.7-0.5,1.5-0.7,2.4-0.7c1.4,0,2.5,0.5,3.4,1.5s1.3,2.3,1.3,3.9
		v0.2c0,1-0.2,1.9-0.6,2.8c-0.4,0.8-0.9,1.4-1.7,1.9c-0.7,0.4-1.5,0.7-2.5,0.7c-1.4,0-2.5-0.5-3.4-1.5s-1.3-2.3-1.3-3.9V282.6z
		 M254.8,282.9c0,1.3,0.3,2.3,1,3.1c0.7,0.8,1.5,1.2,2.6,1.2c1.1,0,1.9-0.4,2.6-1.2s1-1.9,1-3.2v-0.2c0-0.8-0.1-1.5-0.4-2.2
		c-0.3-0.7-0.7-1.2-1.3-1.6c-0.5-0.4-1.2-0.6-1.9-0.6c-1,0-1.9,0.4-2.5,1.2c-0.7,0.8-1,1.9-1,3.2V282.9z"/>
	<path d="M266.6,277.4l0,1.7c0.4-0.6,0.9-1.1,1.5-1.4c0.6-0.3,1.2-0.5,2-0.5c1.7,0,2.7,0.7,3.2,2.1c0.4-0.7,0.9-1.2,1.5-1.5
		c0.6-0.4,1.3-0.5,2.1-0.5c2.3,0,3.4,1.2,3.5,3.7v7.1h-1.2v-7c0-0.9-0.2-1.6-0.6-2.1c-0.4-0.5-1.1-0.7-2-0.7c-0.8,0-1.5,0.3-2.1,0.8
		c-0.6,0.5-0.9,1.2-1,1.9v7h-1.2V281c0-0.9-0.2-1.6-0.6-2c-0.4-0.4-1.1-0.7-1.9-0.7c-0.7,0-1.4,0.2-1.9,0.6s-0.9,1-1.2,1.9v7.2h-1.2
		v-10.6H266.6z"/>
	<path d="M287.3,288.2c-0.9,0-1.7-0.2-2.4-0.7c-0.7-0.4-1.3-1.1-1.7-1.9s-0.6-1.7-0.6-2.7v-0.4c0-1,0.2-1.9,0.6-2.7
		c0.4-0.8,0.9-1.5,1.6-1.9c0.7-0.5,1.5-0.7,2.3-0.7c1.3,0,2.3,0.4,3.1,1.3c0.8,0.9,1.1,2.1,1.1,3.6v0.7h-7.5v0.2c0,1.2,0.3,2.2,1,3
		c0.7,0.8,1.6,1.2,2.6,1.2c0.6,0,1.2-0.1,1.7-0.3c0.5-0.2,0.9-0.6,1.3-1.1l0.7,0.6C290.2,287.6,289,288.2,287.3,288.2z M287.1,278.2
		c-0.9,0-1.6,0.3-2.2,1s-1,1.5-1.1,2.6h6.3v-0.1c0-1-0.3-1.8-0.9-2.5C288.7,278.6,288,278.2,287.1,278.2z"/>
	<path d="M295.4,274.7v2.7h2.2v1h-2.2v7c0,0.6,0.1,1,0.3,1.3s0.6,0.4,1.1,0.4c0.2,0,0.5,0,0.9-0.1l0,0.9c-0.3,0.1-0.7,0.2-1.2,0.2
		c-0.8,0-1.4-0.2-1.7-0.7c-0.4-0.5-0.5-1.2-0.5-2.1v-7.1h-1.9v-1h1.9v-2.7H295.4z"/>
	<path d="M301.1,279.2c0.4-0.6,0.9-1.1,1.5-1.5c0.6-0.3,1.3-0.5,2-0.5c1.1,0,2,0.3,2.5,1c0.6,0.6,0.8,1.6,0.8,2.9v6.9h-1.2v-6.9
		c0-0.9-0.2-1.6-0.6-2.1c-0.4-0.5-1-0.7-1.9-0.7c-0.7,0-1.4,0.2-1.9,0.7c-0.6,0.5-1,1.1-1.2,1.8v7.2H300v-15h1.2V279.2z"/>
	<path d="M310.9,274.4c0-0.2,0.1-0.4,0.2-0.6c0.1-0.2,0.3-0.2,0.6-0.2s0.4,0.1,0.6,0.2c0.1,0.2,0.2,0.3,0.2,0.6
		c0,0.2-0.1,0.4-0.2,0.6c-0.1,0.1-0.3,0.2-0.6,0.2s-0.4-0.1-0.6-0.2C311,274.8,310.9,274.6,310.9,274.4z M312.3,288h-1.2v-10.6h1.2
		V288z"/>
	<path d="M316.6,277.4l0,1.8c0.4-0.7,0.9-1.1,1.5-1.5s1.2-0.5,2-0.5c1.1,0,2,0.3,2.5,1c0.6,0.6,0.8,1.6,0.8,2.9v6.9h-1.2v-6.9
		c0-0.9-0.2-1.6-0.6-2.1c-0.4-0.5-1-0.7-1.9-0.7c-0.7,0-1.4,0.2-1.9,0.7c-0.6,0.5-1,1.1-1.2,1.8v7.2h-1.2v-10.6H316.6z"/>
	<path d="M326,282.6c0-1.7,0.4-3,1.1-3.9s1.7-1.5,3-1.5c1.4,0,2.5,0.6,3.3,1.7l0.1-1.5h1.1v10.4c0,1.4-0.4,2.4-1.1,3.2
		c-0.8,0.8-1.8,1.2-3.1,1.2c-0.7,0-1.4-0.2-2.1-0.5c-0.7-0.3-1.2-0.8-1.6-1.3l0.7-0.7c0.8,1,1.8,1.5,2.9,1.5c1,0,1.7-0.3,2.3-0.9
		s0.8-1.4,0.8-2.4v-1.3c-0.7,1-1.8,1.6-3.3,1.6c-1.2,0-2.2-0.5-2.9-1.5s-1.1-2.3-1.1-4V282.6z M327.1,282.8c0,1.3,0.3,2.4,0.8,3.2
		c0.5,0.8,1.3,1.2,2.3,1.2c1.4,0,2.5-0.6,3.1-1.9v-4.9c-0.3-0.7-0.7-1.2-1.2-1.5c-0.5-0.4-1.1-0.5-1.9-0.5c-1,0-1.7,0.4-2.3,1.2
		S327.1,281.3,327.1,282.8z"/>
	<path d="M342.3,274.4c0-0.2,0.1-0.4,0.2-0.6c0.1-0.2,0.3-0.2,0.6-0.2s0.4,0.1,0.6,0.2c0.1,0.2,0.2,0.3,0.2,0.6
		c0,0.2-0.1,0.4-0.2,0.6c-0.1,0.1-0.3,0.2-0.6,0.2s-0.4-0.1-0.6-0.2C342.4,274.8,342.3,274.6,342.3,274.4z M343.7,288h-1.2v-10.6
		h1.2V288z"/>
	<path d="M353.2,285.3c0-0.6-0.2-1-0.7-1.4s-1.2-0.6-2.1-0.8c-0.9-0.2-1.7-0.4-2.2-0.7c-0.5-0.3-0.9-0.6-1.2-0.9s-0.4-0.8-0.4-1.3
		c0-0.8,0.3-1.5,1-2.1c0.7-0.5,1.6-0.8,2.7-0.8c1.2,0,2.1,0.3,2.8,0.9c0.7,0.6,1.1,1.3,1.1,2.3h-1.2c0-0.6-0.3-1.1-0.8-1.5
		s-1.2-0.6-2-0.6c-0.8,0-1.4,0.2-1.9,0.5s-0.7,0.8-0.7,1.3c0,0.5,0.2,0.9,0.6,1.2c0.4,0.3,1.1,0.6,2.1,0.8c1,0.2,1.8,0.5,2.3,0.8
		s0.9,0.6,1.1,1c0.2,0.4,0.4,0.8,0.4,1.4c0,0.9-0.4,1.6-1.1,2.1c-0.7,0.5-1.7,0.8-2.8,0.8c-1.2,0-2.2-0.3-3-0.9s-1.1-1.3-1.1-2.3
		h1.2c0,0.7,0.3,1.2,0.9,1.6s1.2,0.6,2.1,0.6c0.8,0,1.5-0.2,2-0.5C352.9,286.3,353.2,285.9,353.2,285.3z"/>
	<path d="M368.2,285.3c0-0.6-0.2-1-0.7-1.4s-1.2-0.6-2.1-0.8c-0.9-0.2-1.7-0.4-2.2-0.7c-0.5-0.3-0.9-0.6-1.2-0.9s-0.4-0.8-0.4-1.3
		c0-0.8,0.3-1.5,1-2.1c0.7-0.5,1.6-0.8,2.7-0.8c1.2,0,2.1,0.3,2.8,0.9c0.7,0.6,1.1,1.3,1.1,2.3h-1.2c0-0.6-0.3-1.1-0.8-1.5
		s-1.2-0.6-2-0.6c-0.8,0-1.4,0.2-1.9,0.5s-0.7,0.8-0.7,1.3c0,0.5,0.2,0.9,0.6,1.2c0.4,0.3,1.1,0.6,2.1,0.8c1,0.2,1.8,0.5,2.3,0.8
		s0.9,0.6,1.1,1c0.2,0.4,0.4,0.8,0.4,1.4c0,0.9-0.4,1.6-1.1,2.1c-0.7,0.5-1.7,0.8-2.8,0.8c-1.2,0-2.2-0.3-3-0.9s-1.1-1.3-1.1-2.3
		h1.2c0,0.7,0.3,1.2,0.9,1.6s1.2,0.6,2.1,0.6c0.8,0,1.5-0.2,2-0.5C367.9,286.3,368.2,285.9,368.2,285.3z"/>
	<path d="M373.8,274.7v2.7h2.2v1h-2.2v7c0,0.6,0.1,1,0.3,1.3s0.6,0.4,1.1,0.4c0.2,0,0.5,0,0.9-0.1l0,0.9c-0.3,0.1-0.7,0.2-1.2,0.2
		c-0.8,0-1.4-0.2-1.7-0.7c-0.4-0.5-0.5-1.2-0.5-2.1v-7.1h-1.9v-1h1.9v-2.7H373.8z"/>
	<path d="M377.6,282.6c0-1,0.2-1.9,0.6-2.7c0.4-0.8,1-1.4,1.7-1.9c0.7-0.5,1.5-0.7,2.4-0.7c1.4,0,2.5,0.5,3.4,1.5s1.3,2.3,1.3,3.9
		v0.2c0,1-0.2,1.9-0.6,2.8c-0.4,0.8-0.9,1.4-1.7,1.9c-0.7,0.4-1.5,0.7-2.5,0.7c-1.4,0-2.5-0.5-3.4-1.5s-1.3-2.3-1.3-3.9V282.6z
		 M378.7,282.9c0,1.3,0.3,2.3,1,3.1s1.5,1.2,2.6,1.2c1.1,0,1.9-0.4,2.6-1.2s1-1.9,1-3.2v-0.2c0-0.8-0.1-1.5-0.4-2.2
		c-0.3-0.7-0.7-1.2-1.3-1.6c-0.5-0.4-1.2-0.6-1.9-0.6c-1,0-1.9,0.4-2.5,1.2c-0.7,0.8-1,1.9-1,3.2V282.9z"/>
	<path d="M394.3,278.4c-0.2,0-0.5-0.1-0.8-0.1c-0.7,0-1.3,0.2-1.9,0.6c-0.5,0.4-0.9,1-1.1,1.8v7.3h-1.2v-10.6h1.1l0,1.7
		c0.6-1.2,1.6-1.9,3-1.9c0.3,0,0.6,0,0.8,0.1L394.3,278.4z"/>
	<path d="M400.2,288.2c-0.9,0-1.7-0.2-2.4-0.7c-0.7-0.4-1.3-1.1-1.7-1.9s-0.6-1.7-0.6-2.7v-0.4c0-1,0.2-1.9,0.6-2.7
		c0.4-0.8,0.9-1.5,1.6-1.9c0.7-0.5,1.5-0.7,2.3-0.7c1.3,0,2.3,0.4,3.1,1.3c0.8,0.9,1.1,2.1,1.1,3.6v0.7h-7.5v0.2c0,1.2,0.3,2.2,1,3
		c0.7,0.8,1.6,1.2,2.6,1.2c0.6,0,1.2-0.1,1.7-0.3c0.5-0.2,0.9-0.6,1.3-1.1l0.7,0.6C403.1,287.6,401.9,288.2,400.2,288.2z M400,278.2
		c-0.9,0-1.6,0.3-2.2,1s-1,1.5-1.1,2.6h6.3v-0.1c0-1-0.3-1.8-0.9-2.5C401.6,278.6,400.9,278.2,400,278.2z"/>
	<path d="M406,282.6c0-1.6,0.4-2.9,1.1-3.9c0.7-1,1.7-1.5,3-1.5c1.4,0,2.5,0.6,3.3,1.7V273h1.2v15h-1.1l0-1.4
		c-0.7,1.1-1.8,1.6-3.3,1.6c-1.2,0-2.2-0.5-2.9-1.5c-0.7-1-1.1-2.3-1.1-4V282.6z M407.2,282.8c0,1.3,0.3,2.4,0.8,3.2
		c0.5,0.8,1.3,1.2,2.3,1.2c1.4,0,2.5-0.6,3.1-1.9v-5c-0.6-1.4-1.6-2.1-3-2.1c-1,0-1.7,0.4-2.3,1.2S407.2,281.3,407.2,282.8z"/>
	<path d="M417.5,287.3c0-0.2,0.1-0.4,0.2-0.6c0.1-0.2,0.3-0.2,0.6-0.2s0.5,0.1,0.6,0.2c0.1,0.2,0.2,0.4,0.2,0.6
		c0,0.2-0.1,0.4-0.2,0.6s-0.4,0.2-0.6,0.2s-0.5-0.1-0.6-0.2S417.5,287.5,417.5,287.3z"/>
</g>
<g>
	<path d="M37.7,236.2l0.4,2.2l0.5-2.1l3.1-10.5h1.1l3,10.5l0.5,2.1l0.5-2.2l2.6-10.4h1.2L47,240h-1.2l-3.2-11.1l-0.4-1.4l-0.4,1.4
		L38.6,240h-1.2l-3.6-14.2h1.2L37.7,236.2z"/>
	<path d="M54.4,240h-1.2v-14.2h1.2V240z"/>
	<path d="M68.9,240h-1.2l-8.2-12.2V240h-1.2v-14.2h1.2l8.2,12.2v-12.2h1.2V240z"/>
	<path d="M80.4,233.2h-6.7v5.8h7.6v1h-8.8v-14.2h8.8v1h-7.6v5.4h6.7V233.2z"/>
	<path d="M88.4,226.4c0-0.2,0.1-0.4,0.2-0.6c0.1-0.2,0.3-0.2,0.6-0.2s0.4,0.1,0.6,0.2c0.1,0.2,0.2,0.3,0.2,0.6
		c0,0.2-0.1,0.4-0.2,0.6c-0.1,0.1-0.3,0.2-0.6,0.2s-0.4-0.1-0.6-0.2C88.5,226.8,88.4,226.6,88.4,226.4z M89.8,240h-1.2v-10.6h1.2
		V240z"/>
	<path d="M94.1,229.4l0,1.8c0.4-0.7,0.9-1.1,1.5-1.5s1.2-0.5,2-0.5c1.1,0,2,0.3,2.5,1c0.6,0.6,0.8,1.6,0.8,2.9v6.9h-1.2v-6.9
		c0-0.9-0.2-1.6-0.6-2.1c-0.4-0.5-1-0.7-1.9-0.7c-0.7,0-1.4,0.2-1.9,0.7c-0.6,0.5-1,1.1-1.2,1.8v7.2H93v-10.6H94.1z"/>
	<path d="M117.1,236.5c0-0.8-0.3-1.4-0.8-1.9s-1.6-0.9-3-1.3c-1.5-0.4-2.5-0.9-3.2-1.4c-1-0.7-1.4-1.6-1.4-2.7c0-1.1,0.4-2,1.3-2.7
		c0.9-0.7,2-1,3.4-1c0.9,0,1.8,0.2,2.5,0.5c0.7,0.4,1.3,0.9,1.7,1.5c0.4,0.7,0.6,1.4,0.6,2.2H117c0-1-0.3-1.8-1-2.3
		c-0.7-0.6-1.6-0.9-2.7-0.9c-1.1,0-2,0.2-2.6,0.7c-0.6,0.5-1,1.1-1,1.9c0,0.7,0.3,1.3,0.9,1.8s1.5,0.9,2.8,1.2s2.2,0.7,2.9,1.1
		c0.7,0.4,1.2,0.8,1.5,1.3c0.3,0.5,0.5,1.1,0.5,1.8c0,1.1-0.4,2-1.3,2.7c-0.9,0.7-2.1,1-3.5,1c-1,0-1.9-0.2-2.8-0.5
		c-0.8-0.4-1.5-0.9-1.9-1.5s-0.6-1.4-0.6-2.2h1.2c0,1,0.4,1.8,1.1,2.4c0.7,0.6,1.7,0.9,3,0.9c1.1,0,2-0.2,2.7-0.7
		S117.1,237.3,117.1,236.5z"/>
	<path d="M129.1,234.8c0,1.6-0.4,3-1.1,3.9s-1.7,1.5-2.9,1.5c-1.4,0-2.6-0.5-3.3-1.5v5.4h-1.2v-14.6h1.1l0.1,1.5
		c0.8-1.1,1.9-1.7,3.3-1.7c1.3,0,2.3,0.5,3,1.4s1.1,2.3,1.1,4V234.8z M128,234.6c0-1.3-0.3-2.4-0.8-3.2s-1.3-1.2-2.3-1.2
		c-0.7,0-1.3,0.2-1.8,0.5c-0.5,0.3-0.9,0.8-1.2,1.5v5.1c0.3,0.6,0.7,1.1,1.2,1.4c0.5,0.3,1.1,0.5,1.8,0.5c1,0,1.8-0.4,2.3-1.2
		C127.7,237.3,128,236.1,128,234.6z"/>
	<path d="M138.4,240c-0.1-0.3-0.2-0.8-0.2-1.5c-0.4,0.5-0.9,0.9-1.6,1.2c-0.6,0.3-1.3,0.4-2,0.4c-1,0-1.8-0.3-2.5-0.8
		s-0.9-1.3-0.9-2.1c0-1,0.4-1.8,1.3-2.4c0.9-0.6,2-0.9,3.6-0.9h2.1v-1.2c0-0.8-0.2-1.3-0.7-1.8c-0.5-0.4-1.1-0.6-2-0.6
		c-0.8,0-1.5,0.2-2,0.6c-0.5,0.4-0.8,0.9-0.8,1.5l-1.2,0c0-0.8,0.4-1.6,1.2-2.2s1.7-0.9,2.9-0.9c1.2,0,2.1,0.3,2.8,0.9
		c0.7,0.6,1,1.4,1,2.5v5c0,1,0.1,1.8,0.3,2.3v0.1H138.4z M134.7,239.2c0.8,0,1.5-0.2,2.1-0.6c0.6-0.4,1.1-0.9,1.3-1.5v-2.3h-2.1
		c-1.2,0-2.1,0.2-2.7,0.6c-0.7,0.4-1,1-1,1.7c0,0.6,0.2,1.1,0.7,1.5S134,239.2,134.7,239.2z"/>
	<path d="M143.6,229.4l0,1.8c0.4-0.7,0.9-1.1,1.5-1.5s1.2-0.5,2-0.5c1.1,0,2,0.3,2.5,1c0.6,0.6,0.8,1.6,0.8,2.9v6.9h-1.2v-6.9
		c0-0.9-0.2-1.6-0.6-2.1c-0.4-0.5-1-0.7-1.9-0.7c-0.7,0-1.4,0.2-1.9,0.7c-0.6,0.5-1,1.1-1.2,1.8v7.2h-1.2v-10.6H143.6z"/>
	<path d="M153.4,226.4c0-0.2,0.1-0.4,0.2-0.6c0.1-0.2,0.3-0.2,0.6-0.2s0.4,0.1,0.6,0.2c0.1,0.2,0.2,0.3,0.2,0.6
		c0,0.2-0.1,0.4-0.2,0.6c-0.1,0.1-0.3,0.2-0.6,0.2s-0.4-0.1-0.6-0.2C153.4,226.8,153.4,226.6,153.4,226.4z M154.7,240h-1.2v-10.6
		h1.2V240z"/>
	<path d="M164.2,237.3c0-0.6-0.2-1-0.7-1.4s-1.2-0.6-2.1-0.8c-0.9-0.2-1.7-0.4-2.2-0.7c-0.5-0.3-0.9-0.6-1.2-0.9s-0.4-0.8-0.4-1.3
		c0-0.8,0.3-1.5,1-2.1c0.7-0.5,1.6-0.8,2.7-0.8c1.2,0,2.1,0.3,2.8,0.9c0.7,0.6,1.1,1.3,1.1,2.3h-1.2c0-0.6-0.3-1.1-0.8-1.5
		s-1.2-0.6-2-0.6c-0.8,0-1.4,0.2-1.9,0.5s-0.7,0.8-0.7,1.3c0,0.5,0.2,0.9,0.6,1.2c0.4,0.3,1.1,0.6,2.1,0.8c1,0.2,1.8,0.5,2.3,0.8
		s0.9,0.6,1.1,1c0.2,0.4,0.4,0.8,0.4,1.4c0,0.9-0.4,1.6-1.1,2.1c-0.7,0.5-1.7,0.8-2.8,0.8c-1.2,0-2.2-0.3-3-0.9s-1.1-1.3-1.1-2.3
		h1.2c0,0.7,0.3,1.2,0.9,1.6s1.2,0.6,2.1,0.6c0.8,0,1.5-0.2,2-0.5C164,238.3,164.2,237.9,164.2,237.3z"/>
	<path d="M169.2,231.2c0.4-0.6,0.9-1.1,1.5-1.5c0.6-0.3,1.3-0.5,2-0.5c1.1,0,2,0.3,2.5,1c0.6,0.6,0.8,1.6,0.8,2.9v6.9h-1.2v-6.9
		c0-0.9-0.2-1.6-0.6-2.1c-0.4-0.5-1-0.7-1.9-0.7c-0.7,0-1.4,0.2-1.9,0.7c-0.6,0.5-1,1.1-1.2,1.8v7.2H168v-15h1.2V231.2z"/>
</g>
<g>
	<path d="M521.2,235.6c-0.2,1.5-0.7,2.6-1.6,3.4c-0.9,0.8-2.1,1.2-3.6,1.2c-1.1,0-2-0.3-2.8-0.8s-1.4-1.3-1.9-2.2
		c-0.4-1-0.7-2.1-0.7-3.3V232c0-1.3,0.2-2.4,0.7-3.4c0.4-1,1.1-1.7,1.9-2.3c0.8-0.5,1.8-0.8,2.9-0.8c1.5,0,2.7,0.4,3.6,1.2
		c0.9,0.8,1.4,2,1.5,3.4H520c-0.3-2.4-1.6-3.6-3.9-3.6c-1.3,0-2.3,0.5-3.1,1.4c-0.8,1-1.1,2.3-1.1,4v1.7c0,1.6,0.4,3,1.1,3.9
		c0.7,1,1.8,1.5,3,1.5c1.3,0,2.2-0.3,2.8-0.9c0.6-0.6,1-1.5,1.2-2.7H521.2z"/>
	<path d="M530.5,240c-0.1-0.3-0.2-0.8-0.2-1.5c-0.4,0.5-0.9,0.9-1.6,1.2c-0.6,0.3-1.3,0.4-2,0.4c-1,0-1.8-0.3-2.5-0.8
		c-0.6-0.6-0.9-1.3-0.9-2.1c0-1,0.4-1.8,1.3-2.4c0.9-0.6,2-0.9,3.6-0.9h2.1v-1.2c0-0.8-0.2-1.3-0.7-1.8c-0.5-0.4-1.1-0.6-2-0.6
		c-0.8,0-1.5,0.2-2,0.6c-0.5,0.4-0.8,0.9-0.8,1.5l-1.2,0c0-0.8,0.4-1.6,1.2-2.2s1.7-0.9,2.9-0.9c1.2,0,2.1,0.3,2.8,0.9
		c0.7,0.6,1,1.4,1.1,2.5v5c0,1,0.1,1.8,0.3,2.3v0.1H530.5z M526.9,239.2c0.8,0,1.5-0.2,2.1-0.6c0.6-0.4,1.1-0.9,1.3-1.5v-2.3h-2.1
		c-1.2,0-2.1,0.2-2.7,0.6c-0.7,0.4-1,1-1,1.7c0,0.6,0.2,1.1,0.7,1.5S526.2,239.2,526.9,239.2z"/>
	<path d="M535.9,240h-1.2v-15h1.2V240z"/>
	<path d="M539,226.4c0-0.2,0.1-0.4,0.2-0.6c0.1-0.2,0.3-0.2,0.6-0.2c0.2,0,0.4,0.1,0.6,0.2c0.1,0.2,0.2,0.3,0.2,0.6
		c0,0.2-0.1,0.4-0.2,0.6c-0.1,0.1-0.3,0.2-0.6,0.2c-0.2,0-0.4-0.1-0.6-0.2C539.1,226.8,539,226.6,539,226.4z M540.4,240h-1.2v-10.6
		h1.2V240z"/>
	<path d="M544.4,240v-9.6h-1.7v-1h1.7v-1.3c0-1.1,0.3-1.9,0.8-2.5c0.6-0.6,1.3-0.9,2.3-0.9c0.4,0,0.9,0.1,1.2,0.2l-0.1,1
		c-0.3-0.1-0.7-0.1-1.1-0.1c-0.6,0-1.1,0.2-1.5,0.6c-0.4,0.4-0.5,1-0.5,1.7v1.3h2.5v1h-2.5v9.6H544.4z"/>
	<path d="M549.5,234.6c0-1,0.2-1.9,0.6-2.7c0.4-0.8,1-1.4,1.7-1.9c0.7-0.5,1.5-0.7,2.4-0.7c1.4,0,2.5,0.5,3.4,1.5
		c0.9,1,1.3,2.3,1.3,3.9v0.2c0,1-0.2,1.9-0.6,2.8c-0.4,0.8-0.9,1.4-1.7,1.9c-0.7,0.4-1.5,0.7-2.5,0.7c-1.4,0-2.5-0.5-3.4-1.5
		c-0.9-1-1.3-2.3-1.3-3.9V234.6z M550.7,234.9c0,1.3,0.3,2.3,1,3.1s1.5,1.2,2.6,1.2c1.1,0,1.9-0.4,2.6-1.2s1-1.9,1-3.2v-0.2
		c0-0.8-0.2-1.5-0.4-2.2c-0.3-0.7-0.7-1.2-1.3-1.6c-0.5-0.4-1.2-0.6-1.9-0.6c-1,0-1.9,0.4-2.5,1.2c-0.7,0.8-1,1.9-1,3.2V234.9z"/>
	<path d="M566.3,230.4c-0.2,0-0.5-0.1-0.8-0.1c-0.7,0-1.3,0.2-1.9,0.6c-0.5,0.4-0.9,1-1.1,1.8v7.3h-1.2v-10.6h1.1l0,1.7
		c0.6-1.2,1.6-1.9,3-1.9c0.3,0,0.6,0,0.8,0.1L566.3,230.4z"/>
	<path d="M569.2,229.4l0,1.8c0.4-0.7,0.9-1.1,1.5-1.5c0.6-0.3,1.2-0.5,2-0.5c1.1,0,2,0.3,2.5,1c0.6,0.6,0.8,1.6,0.8,2.9v6.9h-1.2
		v-6.9c0-0.9-0.2-1.6-0.6-2.1c-0.4-0.5-1-0.7-1.9-0.7c-0.7,0-1.4,0.2-1.9,0.7c-0.6,0.5-1,1.1-1.2,1.8v7.2h-1.2v-10.6H569.2z"/>
	<path d="M579,226.4c0-0.2,0.1-0.4,0.2-0.6c0.1-0.2,0.3-0.2,0.6-0.2c0.2,0,0.4,0.1,0.6,0.2c0.1,0.2,0.2,0.3,0.2,0.6
		c0,0.2-0.1,0.4-0.2,0.6c-0.1,0.1-0.3,0.2-0.6,0.2c-0.2,0-0.4-0.1-0.6-0.2C579.1,226.8,579,226.6,579,226.4z M580.4,240h-1.2v-10.6
		h1.2V240z"/>
	<path d="M590.2,240c-0.1-0.3-0.2-0.8-0.2-1.5c-0.4,0.5-0.9,0.9-1.6,1.2c-0.6,0.3-1.3,0.4-2,0.4c-1,0-1.8-0.3-2.5-0.8
		c-0.6-0.6-0.9-1.3-0.9-2.1c0-1,0.4-1.8,1.3-2.4c0.9-0.6,2-0.9,3.6-0.9h2.1v-1.2c0-0.8-0.2-1.3-0.7-1.8c-0.5-0.4-1.1-0.6-2-0.6
		c-0.8,0-1.5,0.2-2,0.6c-0.5,0.4-0.8,0.9-0.8,1.5l-1.2,0c0-0.8,0.4-1.6,1.2-2.2s1.7-0.9,2.9-0.9c1.2,0,2.1,0.3,2.8,0.9
		c0.7,0.6,1,1.4,1.1,2.5v5c0,1,0.1,1.8,0.3,2.3v0.1H590.2z M586.6,239.2c0.8,0,1.5-0.2,2.1-0.6c0.6-0.4,1.1-0.9,1.3-1.5v-2.3h-2.1
		c-1.2,0-2.1,0.2-2.7,0.6c-0.7,0.4-1,1-1,1.7c0,0.6,0.2,1.1,0.7,1.5S585.9,239.2,586.6,239.2z"/>
</g>
<g>
	<path class="st2" d="M544.1,116.4c-0.4,5.7-2.5,10.1-6.3,13.4c-3.8,3.3-8.7,4.9-14.9,4.9c-6.7,0-12-2.3-15.9-6.8
		c-3.9-4.5-5.8-10.8-5.8-18.7v-3.2c0-5.1,0.9-9.5,2.7-13.4c1.8-3.9,4.3-6.8,7.6-8.9c3.3-2.1,7.2-3.1,11.5-3.1c6.1,0,11,1.6,14.7,4.9
		s5.9,7.8,6.4,13.7h-10.8c-0.3-3.4-1.2-5.9-2.8-7.4c-1.6-1.5-4.1-2.3-7.4-2.3c-3.6,0-6.3,1.3-8.1,3.9c-1.8,2.6-2.7,6.6-2.8,12.1v4
		c0,5.7,0.9,9.8,2.6,12.5c1.7,2.6,4.4,3.9,8.1,3.9c3.3,0,5.8-0.8,7.5-2.3c1.6-1.5,2.6-3.9,2.8-7.1H544.1z"/>
	<path class="st2" d="M580.9,123.1h-19l-3.6,10.8h-11.5l19.6-52.6h10l19.7,52.6h-11.5L580.9,123.1z M564.9,114.3H578l-6.6-19.7
		L564.9,114.3z"/>
</g>
<g>
	<path class="st2" d="M281.5,92.7h-16.1v43.8h-10.8V92.7h-15.9v-8.8h42.9V92.7z"/>
	<path class="st2" d="M319.3,113.7h-20.8v14.1h24.4v8.7h-35.3V83.9h35.2v8.8h-24.4v12.5h20.8V113.7z"/>
	<path class="st2" d="M370.6,119c-0.4,5.7-2.5,10.1-6.3,13.4s-8.7,4.9-14.9,4.9c-6.7,0-12.1-2.3-15.9-6.8
		c-3.9-4.5-5.8-10.8-5.8-18.7v-3.2c0-5.1,0.9-9.5,2.7-13.4c1.8-3.9,4.3-6.8,7.6-8.9s7.2-3.1,11.5-3.1c6.1,0,11,1.6,14.7,4.9
		c3.7,3.3,5.9,7.8,6.4,13.7h-10.8c-0.3-3.4-1.2-5.9-2.8-7.4c-1.6-1.5-4.1-2.3-7.4-2.3c-3.6,0-6.3,1.3-8.1,3.9
		c-1.8,2.6-2.7,6.6-2.8,12.1v4c0,5.7,0.9,9.8,2.6,12.5c1.7,2.6,4.4,3.9,8.1,3.9c3.3,0,5.8-0.8,7.5-2.3c1.7-1.5,2.6-3.9,2.8-7.1
		H370.6z"/>
	<path class="st2" d="M407.4,125.7h-19l-3.6,10.8h-11.5l19.6-52.6h10l19.7,52.6h-11.5L407.4,125.7z M391.3,116.9h13.2l-6.6-19.7
		L391.3,116.9z"/>
</g>
<g>
	<rect x="11.9" y="7.9" class="st3" width="201" height="201"/>
</g>
<g>
	<path class="st2" d="M51.4,123.9l11.9-39.6h12.1L57,136.9H45.7L27.5,84.3h12L51.4,123.9z"/>
	<path class="st2" d="M91.8,136.9H81V84.3h10.8V136.9z"/>
	<path class="st2" d="M144.7,136.9h-10.8l-21.1-34.6v34.6h-10.8V84.3h10.8l21.1,34.7V84.3h10.8V136.9z"/>
	<path class="st2" d="M197.3,111.8c0,5.2-0.9,9.7-2.7,13.6c-1.8,3.9-4.5,6.9-7.9,9c-3.4,2.1-7.3,3.2-11.7,3.2c-4.4,0-8.3-1-11.7-3.1
		c-3.4-2.1-6.1-5.1-7.9-9c-1.9-3.9-2.8-8.4-2.9-13.4v-2.6c0-5.2,0.9-9.7,2.8-13.7c1.9-3.9,4.5-7,7.9-9.1c3.4-2.1,7.3-3.2,11.7-3.2
		c4.4,0,8.3,1.1,11.7,3.2c3.4,2.1,6,5.1,7.9,9.1c1.9,3.9,2.8,8.5,2.8,13.6V111.8z M186.4,109.4c0-5.5-1-9.7-3-12.6
		c-2-2.9-4.8-4.3-8.5-4.3c-3.6,0-6.4,1.4-8.4,4.2c-2,2.8-3,7-3,12.4v2.6c0,5.4,1,9.5,3,12.5c2,3,4.8,4.4,8.5,4.4
		c3.6,0,6.4-1.4,8.4-4.3s2.9-7,3-12.5V109.4z"/>
</g>
</svg>
