<?xml version="1.0" encoding="utf-8"?>
<!-- Generator: Adobe Illustrator 22.1.0, SVG Export Plug-In . SVG Version: 6.00 Build 0)  -->
<svg version="1.1" id="Layer_1" xmlns="http://www.w3.org/2000/svg" xmlns:xlink="http://www.w3.org/1999/xlink" x="0px" y="0px"
	 viewBox="0 0 146.5 146" style="enable-background:new 0 0 146.5 146;" xml:space="preserve">
<style type="text/css">
	.st0{fill:#383838;}
	.st1{fill:#252525;}
	.st2{fill:#EAEAEA;}
	.st3{fill:#72BF44;}
	.st4{fill:#BE4097;}
	.st5{fill:#F05264;}
	.st6{fill:#FFFEF9;}
</style>
<path class="st4" d="M73.5,4.1c-0.2,0-0.4,0-0.6,0V31c0.2,0,0.4,0,0.6,0c22.9,0,41.4,18.5,41.4,41.4c0,22.9-18.5,41.4-41.4,41.4
	S32.1,95.2,32.1,72.4c0-22.7,18.2-41,40.8-41.3V4.1C35.5,4.4,5.3,34.9,5.3,72.4c0,37.7,30.6,68.2,68.2,68.2s68.2-30.6,68.2-68.2
	C141.8,34.7,111.2,4.1,73.5,4.1z"/>
</svg>
