<svg id="Layer_1" data-name="Layer 1" xmlns="http://www.w3.org/2000/svg" viewBox="0 0 403.77 259.71"><defs><style>.cls-1{fill:none;stroke:#385125;stroke-miterlimit:10;}.cls-2{fill:#385125;}</style></defs><rect class="cls-1" x="0.5" y="0.94" width="197.53" height="125.7"/><rect class="cls-1" x="205.74" y="0.5" width="197.53" height="125.7"/><rect class="cls-1" x="0.5" y="133.47" width="197.53" height="125.7"/><rect class="cls-1" x="205.74" y="133.47" width="197.53" height="125.7"/><path class="cls-2" d="M85.22,73.62c1.12,5,1.79,10.66.09,15.65a7.3,7.3,0,0,1-3.79,4.58c-1.86.75-3.41-.21-4.31-1.87-.38-.7-1.44-.08-1.07.62A4.6,4.6,0,0,0,81,95.29a7.27,7.27,0,0,0,4.81-4,18.75,18.75,0,0,0,1.75-8.48,42.42,42.42,0,0,0-1.12-9.52c-.18-.77-1.37-.44-1.2.33Z" transform="translate(-27.12 -22.65)"/><path class="cls-2" d="M89.59,84.91c1.11,1.1,1.14,2.8,1.46,4.25a4.68,4.68,0,0,0,2.36,3.32,2.29,2.29,0,0,0,3.14-1.17c.62-1.39.29-3.12.2-4.58l-.43-7c0-.63-1-.64-1,0l.42,6.73c.06,1,.17,2,.15,3a2.42,2.42,0,0,1-.78,2.1c-.75.47-1.59-.06-2.11-.62A4.46,4.46,0,0,1,92,88.63c-.31-1.57-.47-3.23-1.66-4.42-.46-.45-1.16.25-.7.7Z" transform="translate(-27.12 -22.65)"/><path class="cls-2" d="M99.78,82.06A31.31,31.31,0,0,1,103.22,94c0,.63,1,.63,1,0a32.72,32.72,0,0,0-3.57-12.42c-.3-.57-1.15-.07-.86.5Z" transform="translate(-27.12 -22.65)"/><path class="cls-2" d="M102.71,75a.49.49,0,0,0,0-1,.49.49,0,0,0,0,1Z" transform="translate(-27.12 -22.65)"/><path class="cls-2" d="M110.26,79.69c-2.65.09-3.79,3-4.15,5.26-.43,2.68-.32,6.14,2.63,7.33a3.28,3.28,0,0,0,3.65-.63.52.52,0,0,0,.08-.6l-.76-1.53c-.28-.58-1.13-.08-.85.49l.75,1.54.08-.6a2.51,2.51,0,0,1-3.26,0,4.5,4.5,0,0,1-1.54-3.94,11,11,0,0,1,.81-4.17,3.16,3.16,0,0,1,2.56-2.21.5.5,0,0,0,0-1Z" transform="translate(-27.12 -22.65)"/><path class="cls-2" d="M111.08,83.1,118,89a.51.51,0,0,0,.78-.1l4-9.26-.92-.25a80.34,80.34,0,0,0,1.32,27.78.5.5,0,0,0,.95,0l.78-3.05a.49.49,0,0,0-1-.26l-.78,3h.95a79.58,79.58,0,0,1-1.28-27.52.5.5,0,0,0-.92-.25l-4,9.26.78-.1-7-5.88c-.48-.4-1.18.29-.7.7Z" transform="translate(-27.12 -22.65)"/><path class="cls-2" d="M122.11,71.6a75.63,75.63,0,0,1,6.65,20.61c.09.51.81.42,1,0l2.72-8.14-.73.29a11.72,11.72,0,0,1,5.06,6.6c.19.6,1.14.35,1-.26a12.81,12.81,0,0,0-5.52-7.19.49.49,0,0,0-.72.29l-2.72,8.14h1A76.55,76.55,0,0,0,123,71.1c-.28-.57-1.14-.07-.86.5Z" transform="translate(-27.12 -22.65)"/><path class="cls-2" d="M138.55,84.12c-1.72,2.86.88,6.9,4.17,6.66a5.3,5.3,0,0,0,4.22-3,5.24,5.24,0,0,0-.22-5.09,6.64,6.64,0,0,0-5-3.11c-.64-.06-.63.93,0,1,2.88.3,5.53,3.21,4.55,6.18a4.53,4.53,0,0,1-3,2.88,3.3,3.3,0,0,1-3.47-1.19,3.39,3.39,0,0,1-.47-3.87.5.5,0,0,0-.86-.5Z" transform="translate(-27.12 -22.65)"/><path class="cls-2" d="M148,67.32l4.12,30.3c.06.4.59.43.83.22l2.66-2.3c.48-.42-.22-1.11-.7-.7l-2.66,2.3.83.22-4.13-30.3c-.08-.63-1-.36-.95.26Z" transform="translate(-27.12 -22.65)"/><path class="cls-2" d="M156.74,82.41l.84,13.69c0,.63,1,.64,1,0l-.84-13.69c0-.63-1-.64-1,0Z" transform="translate(-27.12 -22.65)"/><path class="cls-2" d="M169.38,83.44c.05-1.63-1.5-2.59-3-2.64-1.9-.08-3.19,1.4-3.74,3.08a13.18,13.18,0,0,0-.24,6.15,6.12,6.12,0,0,0,3.13,4.72,4.07,4.07,0,0,0,5.11-1c.37-.51-.49-1-.86-.49a3.07,3.07,0,0,1-3.6.71,4.83,4.83,0,0,1-2.68-3.5,13.25,13.25,0,0,1-.21-5c.19-1.35.75-3.14,2.2-3.59,1.11-.35,2.91.13,2.87,1.54,0,.63,1,.63,1,0Z" transform="translate(-27.12 -22.65)"/><path class="cls-2" d="M157.88,74a.5.5,0,0,0,0-1,.5.5,0,0,0,0,1Z" transform="translate(-27.12 -22.65)"/><path class="cls-2" d="M59.62,35.12l13.75-.43a.63.63,0,0,0,0-1.25l-13.75.43a.63.63,0,0,0,0,1.25Z" transform="translate(-27.12 -22.65)"/><path class="cls-2" d="M126.13,34.6l9.31-.44c.8,0,.8-1.29,0-1.25l-9.31.44c-.8,0-.81,1.29,0,1.25Z" transform="translate(-27.12 -22.65)"/><path class="cls-2" d="M186,33.27h12.86a.63.63,0,0,0,0-1.25H186a.63.63,0,0,0,0,1.25Z" transform="translate(-27.12 -22.65)"/><path class="cls-2" d="M55.09,50.86c-5-3.25-11.18-.08-13.2,5-2.44,6.11.47,12.77,4.48,17.48a11.87,11.87,0,0,0,7.77,4.5,12.53,12.53,0,0,0,8.74-2.52A13.61,13.61,0,0,0,67.42,59.7c-1.29-3.39-3.85-5.61-6.62-7.8-3-2.35-6.67-5.52-5.95-9.77l-.92.38a16.54,16.54,0,0,1,5.58,6.63.63.63,0,0,0,1.08,0,7.9,7.9,0,0,1,7.79-3.8v-1.2a25.93,25.93,0,0,0-8.75,5.52.63.63,0,0,0,.44,1.07l7.18-.63-.32-1.16a14.16,14.16,0,0,1-7.57,1.72c-.73,0-.82,1-.17,1.22a14,14,0,0,1,5.08,2.89l.44-1.07a16.71,16.71,0,0,1-7.21-2c-.42-.23-1.14.17-.91.71l1.85,4.4,1-.61L50.07,45.6l-.44,1.07A14.26,14.26,0,0,1,57.81,50c.61.52,1.5-.36.88-.88a15.61,15.61,0,0,0-9.06-3.68c-.58,0-.77.69-.44,1.07l9.41,10.6c.39.45,1.29,0,1-.6l-1.85-4.4-.92.7A18.26,18.26,0,0,0,64.71,55a.63.63,0,0,0,.44-1.07,15.55,15.55,0,0,0-5.63-3.2l-.16,1.23A15.43,15.43,0,0,0,67.56,50c.52-.29.31-1.22-.31-1.17l-7.18.63.44,1.06a24.66,24.66,0,0,1,8.2-5.2c.5-.19.68-1.11,0-1.2a9.19,9.19,0,0,0-9.2,4.37h1.08a17.83,17.83,0,0,0-6-7.08.62.62,0,0,0-.91.37c-1,5.73,4.22,9.22,8,12.4a14,14,0,0,1,4.9,6.95,12.17,12.17,0,0,1-.65,8.52c-2.51,5.25-9.15,8.85-14.73,6.07-2.73-1.36-4.75-4-6.29-6.56a16.74,16.74,0,0,1-2.67-8.32,10.49,10.49,0,0,1,3.48-8.29,7.52,7.52,0,0,1,8.74-.63c.67.45,1.3-.64.63-1.08Z" transform="translate(-27.12 -22.65)"/><path class="cls-2" d="M51.25,89.34a4.72,4.72,0,0,0-5.58,2.16,4.53,4.53,0,0,0,1.39,5.88,4.88,4.88,0,0,0,6.25-.17,5.6,5.6,0,0,0,1.57-6.08A6.18,6.18,0,0,0,48.5,87.4a.65.65,0,0,0-.62.63c0,.3.29.67.62.62a5,5,0,0,1,4.8,2.13,4.23,4.23,0,0,1-.21,4.83,3.62,3.62,0,0,1-4.56,1.21,3.36,3.36,0,1,1,2.39-6.28c.75.3,1.07-.91.33-1.2Z" transform="translate(-27.12 -22.65)"/><path class="cls-2" d="M61.12,102.62A3.35,3.35,0,0,0,57,104.55a3.27,3.27,0,0,0,1.68,4.13,3.64,3.64,0,0,0,4.48-.84,4.34,4.34,0,0,0,.54-4.75,5,5,0,0,0-5.09-2.4A.63.63,0,1,0,59,101.9a3.77,3.77,0,0,1,3.37,1.35,3,3,0,0,1,.25,3.27,2.37,2.37,0,0,1-2.74,1.26A2.27,2.27,0,0,1,58,105.55a2.14,2.14,0,0,1,2.78-1.73.62.62,0,1,0,.33-1.2Z" transform="translate(-27.12 -22.65)"/><path class="cls-2" d="M40.3,105.36a4.28,4.28,0,0,0-2.17,4.76,4.05,4.05,0,0,0,7.94-.94,5.82,5.82,0,0,0-2.92-5c-2.56-1.5-5.78-1-8.51-.33-.78.19-.45,1.39.33,1.2a12.4,12.4,0,0,1,6.22-.33,4.86,4.86,0,0,1,3.45,3.2,2.81,2.81,0,0,1-1.41,3.58,2.9,2.9,0,0,1-3.68-1.13,3,3,0,0,1,1.38-4c.73-.34.1-1.42-.63-1.08Z" transform="translate(-27.12 -22.65)"/><path class="cls-2" d="M47,122.05c2.57,1.13,3,5.44.35,6.73a4.1,4.1,0,0,1-4-.45,3.22,3.22,0,0,1-1.26-3.85,4,4,0,0,1,4.37-2.59c.79.18,1.12-1,.34-1.21a5.21,5.21,0,0,0-5.48,2.54,4.51,4.51,0,0,0,.63,5.57,5.53,5.53,0,0,0,5.17,1.39,4.51,4.51,0,0,0,3.24-4.11,5.11,5.11,0,0,0-2.76-5.1.65.65,0,0,0-.86.22.64.64,0,0,0,.23.86Z" transform="translate(-27.12 -22.65)"/><path class="cls-2" d="M97,113.8c-5.29-1.63-11,1.71-12.9,6.78-2.11,5.78.67,12.35,5.5,15.81a13.52,13.52,0,0,0,16.67-.5c4.49-3.91,5-10.63,2.64-15.83-2.89-6.33-9.79-9.67-16.4-10.42-.8-.09-.79,1.16,0,1.25,5.26.6,10.61,2.92,13.84,7.27,3,4.12,3.79,10.17,1,14.6-3,4.78-9.42,6.18-14.46,4a13.38,13.38,0,0,1-8.18-13.12c.49-5.74,6.22-10.44,12-8.66.77.24,1.1-1,.33-1.21Z" transform="translate(-27.12 -22.65)"/><path class="cls-2" d="M98.07,124.23a6.31,6.31,0,0,1,1.79-5.64l-1.06-.44a11.38,11.38,0,0,1-1.64,7.26c-.43.68.66,1.31,1.08.63a12.44,12.44,0,0,0,1.81-7.89A.64.64,0,0,0,99,117.7a7.62,7.62,0,0,0-2.12,6.86c.16.79,1.36.45,1.21-.33Z" transform="translate(-27.12 -22.65)"/><path class="cls-2" d="M100.8,126a4.21,4.21,0,0,1,5.6-3.13l-.29-.71a5.7,5.7,0,0,1-5.25,3.41.63.63,0,0,0,0,1.25,7,7,0,0,0,6.46-4.33.62.62,0,0,0-.29-.7,5.45,5.45,0,0,0-7.43,3.88.64.64,0,0,0,.44.77.62.62,0,0,0,.76-.44Z" transform="translate(-27.12 -22.65)"/><path class="cls-2" d="M99.35,128.14a27.88,27.88,0,0,1,4.61,2.29,13.56,13.56,0,0,1,1.93,1.34c.38.34.89.89.68,1.46-.31.84-1.65.93-2.33.55-1.21-.7-1.72-2.21-2.28-3.41a5.44,5.44,0,0,0-3.2-3.25.62.62,0,0,0-.34,1.2c1.54.42,2.2,2.13,2.81,3.44s1.5,3,3.07,3.38a3,3,0,0,0,3.35-1.27c.85-1.73-.89-3.08-2.14-3.92a29.19,29.19,0,0,0-5.82-3c-.75-.29-1.08.91-.34,1.2Z" transform="translate(-27.12 -22.65)"/><path class="cls-2" d="M95.11,131.25a2.17,2.17,0,0,1,1.24.48,3.12,3.12,0,0,1,.48.5,4,4,0,0,1,.22.34l.09.18a.64.64,0,0,1,.06.15,2.12,2.12,0,0,1-.57,2.49c-.15.13.09-.06-.07.05l-.15.11-.32.18s-.19.08-.08,0l-.17.06a2.17,2.17,0,0,1-.42.11,2.88,2.88,0,0,1-1.27,0,1.76,1.76,0,0,1-.58-.26l-.15-.1-.07-.06a3.06,3.06,0,0,1-.3-.32l0-.07-.09-.16-.09-.17c-.09-.17,0,.11,0-.07s-.07-.2-.1-.3a1.16,1.16,0,0,1,0-.18s-.05-.26,0-.14a2.2,2.2,0,0,1,0-.44v-.19s0-.26,0-.15a3.29,3.29,0,0,1,.09-.43l.06-.18s.09-.23,0-.14c.06-.13.13-.26.2-.39a2.71,2.71,0,0,1,.2-.27,2.91,2.91,0,0,1,.31-.3c.15-.12-.09.06.08-.05l.21-.13a.63.63,0,0,0-.63-1.08c-2.4,1.36-2.52,5.43.13,6.6a4,4,0,0,0,3.82-.36,3.36,3.36,0,0,0,1.38-3.64A3.81,3.81,0,0,0,95.11,130a.62.62,0,0,0-.62.62.64.64,0,0,0,.62.63Z" transform="translate(-27.12 -22.65)"/><path class="cls-2" d="M92,125.3a7.3,7.3,0,0,1-1.61,1.85,2.36,2.36,0,0,1-1,.44,1.74,1.74,0,0,1-.38,0l-.27,0h0l-.16,0a1.06,1.06,0,0,1-.86-1.17c0-.11,0,.07,0,0l0-.1a1.73,1.73,0,0,1,.08-.27l.09-.18a2.13,2.13,0,0,1,.16-.25,2.26,2.26,0,0,1,.75-.61,6.2,6.2,0,0,1,3-.31.63.63,0,0,0,.63-.62.65.65,0,0,0-.63-.63,7.6,7.6,0,0,0-3.51.41,3.22,3.22,0,0,0-1.86,2.26,2.29,2.29,0,0,0,1.19,2.5,3.24,3.24,0,0,0,2.85,0A7.14,7.14,0,0,0,93,125.93.63.63,0,0,0,92,125.3Z" transform="translate(-27.12 -22.65)"/><path class="cls-2" d="M93.59,121.12a6,6,0,0,1-2.54-1.78,1.76,1.76,0,0,1,0-2.08A1,1,0,0,1,92,117a2.36,2.36,0,0,1,1,.49,4.85,4.85,0,0,1,1.41,2.41A7.42,7.42,0,0,0,96,123c.59.54,1.47-.34.89-.89a7.09,7.09,0,0,1-1.51-3,5.37,5.37,0,0,0-2.06-2.92,2.54,2.54,0,0,0-3.18.11,2.88,2.88,0,0,0-.43,3.23A6.1,6.1,0,0,0,93,122.2a.64.64,0,0,0,.85-.23.63.63,0,0,0-.22-.85Z" transform="translate(-27.12 -22.65)"/><path class="cls-2" d="M127.27,128.82c-.89,2-1.8,4.14-1.35,6.35a4.37,4.37,0,0,0,3,3.24,3,3,0,0,0,3.76-1.74c.65-1.74-.19-3.75-1.11-5.23a11.88,11.88,0,0,0-4.59-4.28c-.71-.37-1.34.71-.63,1.08a10.86,10.86,0,0,1,3.48,2.87,7.56,7.56,0,0,1,1.81,4.1c.05,1.22-.69,2.29-2,2.09a3.14,3.14,0,0,1-2.43-2c-.65-2,.31-4.1,1.1-5.86.33-.73-.75-1.37-1.08-.63Z" transform="translate(-27.12 -22.65)"/><path class="cls-2" d="M127.34,126.63l.9,7.1a.64.64,0,0,0,.62.62.63.63,0,0,0,.63-.62l-.9-7.1A.65.65,0,0,0,128,126a.63.63,0,0,0-.62.62Z" transform="translate(-27.12 -22.65)"/><path class="cls-2" d="M216.37,73.59a1.83,1.83,0,0,0-1.57.44,2.35,2.35,0,0,0-.72,1.22,2,2,0,0,0,1.31,2.57,2.52,2.52,0,0,0,2.83-1.65,2.12,2.12,0,0,0-.1-1.74,2.33,2.33,0,0,0-1.26-1.05,2.71,2.71,0,0,0-3.23,1,.62.62,0,0,0,.22.85.64.64,0,0,0,.86-.22l.07-.12c0-.07-.09.09,0,0l0,0c.05-.07.17-.14.21-.21s-.12.08,0,0l0,0,.12-.07.13-.07h0c-.1.05,0,0,0,0l.25-.07.14,0c.07,0-.14,0-.06,0h.5c.08,0-.13,0-.05,0l.09,0,.26.07s.15.07.06,0l.08,0c.06,0,.17.13.24.14s-.1-.08-.06,0l.06.05a.94.94,0,0,1,.1.1l0,0c.05,0,0,0,0,0A.5.5,0,0,0,217,75a.75.75,0,0,1,.07.12c.06.12,0-.11,0,0l0,.13s0,.08,0,.08,0-.13,0-.07,0,.1,0,.14,0,.22,0,.12,0,0,0,.07a.65.65,0,0,1,0,.13.24.24,0,0,0,0,.08c0,.06,0-.06,0-.06s-.08.15-.08.16l-.08.12,0,0s-.08.06,0,0h0l-.05.06-.12.12-.12.11s.1-.08,0,0l-.06,0-.27.15,0,0-.07,0-.11,0a.75.75,0,0,0-.16,0s.14,0,.07,0h-.23c-.15,0,.1,0,0,0l-.15,0-.06,0c-.07,0,.11.06,0,0l-.12-.06c-.12-.07.07.07,0,0l-.09-.08,0-.05c-.05,0,.08.13,0,0a.64.64,0,0,0-.11-.2s.05.15,0,.06l0,0s0-.09,0-.14,0-.17,0,0,0,0,0-.05a2.26,2.26,0,0,1,0-.26c0-.13,0,.15,0,0l0-.13s0-.09,0-.13l0-.09,0-.07.08-.13s.08-.08.08-.11-.11.12,0,0l0,0,.09-.1a.1.1,0,0,0,.05,0c.08-.07-.1.06,0,0l.11-.07.06,0c.09,0,0,0-.05,0a2.17,2.17,0,0,1,.24-.07s-.15,0-.06,0H216c.06,0,.22,0,0,0a.65.65,0,0,0,.77-.44.63.63,0,0,0-.44-.77Z" transform="translate(-27.12 -22.65)"/><path class="cls-2" d="M216.11,84.24a2,2,0,0,0-2,2.39,1.6,1.6,0,0,0,.55.9,2.09,2.09,0,0,0,2,.41,1.81,1.81,0,0,0,.92-.71,1.88,1.88,0,0,0,.29-1,2.19,2.19,0,0,0-.31-1.11,1.83,1.83,0,0,0-1-.79.63.63,0,0,0-.77.43.64.64,0,0,0,.44.77c.13,0-.09,0,0,0l.08,0c.06,0,.17.14,0,0a.63.63,0,0,1,.12.11l.06.07s-.1-.15,0,0a.57.57,0,0,1,.08.13.3.3,0,0,1,0,.08c.06.11-.05-.14,0,0a1.68,1.68,0,0,1,.09.32l0-.17a1.63,1.63,0,0,1,0,.38l0-.16,0,.17,0,.1c0,.11,0,0,0-.06s-.06.12-.08.16.08-.1,0,0l-.06.07-.07.06c-.08.07.14-.1,0,0l-.16.09,0,0-.09,0-.18,0,.16,0a2.41,2.41,0,0,1-.38,0l.17,0a2.24,2.24,0,0,1-.37-.1c.2.07.08,0,0,0l-.09,0-.06,0c-.12-.08.1.09,0,0l-.12-.12c-.1-.11.07.11,0,0l-.06-.09,0-.06c-.05-.09.06.17,0,0a1.42,1.42,0,0,1,0-.22l0,.17a1.6,1.6,0,0,1,0-.31l0,.17a1.74,1.74,0,0,1,0-.22l0-.08c0-.1-.08.16,0,0l.1-.17c.09-.13-.08.09,0,0l.07-.07a1.07,1.07,0,0,1,.16-.14c-.17.14,0,0,.06,0s.08-.06.1,0-.17.06,0,0l.22,0-.17,0h.23a.63.63,0,0,0,0-1.25Z" transform="translate(-27.12 -22.65)"/><path class="cls-2" d="M215.84,92.85a3.84,3.84,0,0,0-1.65,2.5A2.69,2.69,0,0,0,215.27,98a2.46,2.46,0,0,0,2.58.25,2,2,0,0,0,.94-2.16,1.91,1.91,0,0,0-1.85-1.68.65.65,0,0,0-.62.63.62.62,0,0,0,.62.62h.11s.11,0,0,0l.12,0s-.12-.07,0,0l.07,0,0,0c-.08-.06,0,0,0,0s.16.2.06,0l.09.14a.8.8,0,0,1,.08.16c-.07-.16,0,.06,0,.11a1.29,1.29,0,0,1,0,.19c0-.14,0,0,0,0s0,.13,0,.2,0-.12,0,0a.53.53,0,0,0,0,.12c0,.06-.09.21,0,.07l-.08.15-.05.07c.09-.13,0,0,0,0l-.07.07c-.08.07.06,0,0,0a2,2,0,0,0-.2.11c.13-.06,0,0-.08,0l-.12,0c-.08,0,.1,0,0,0a2.43,2.43,0,0,0-.27,0s-.12,0,0,0l-.1,0a.9.9,0,0,1-.22-.06l-.09,0c-.1,0,.12.07,0,0L216,97s-.18-.13-.08-.05a1.29,1.29,0,0,1-.17-.16s-.17-.2-.09-.09a1.64,1.64,0,0,1-.14-.22s-.08-.2,0-.08a1.83,1.83,0,0,1-.08-.25.77.77,0,0,1,0-.15h0c0-.1,0-.2,0-.3a.49.49,0,0,1,0-.12c0,.12,0-.06,0-.07s0-.2.08-.3a.36.36,0,0,1,0-.11c0-.14,0,0,0-.08s.09-.19.14-.28l.18-.25c-.06.07,0,0,0,0l.13-.14a2.28,2.28,0,0,1,.22-.22l.1-.08s0,0,0,0l.1-.07a.63.63,0,1,0-.63-1.08Z" transform="translate(-27.12 -22.65)"/><path class="cls-2" d="M187.57,49.68c-3.65,4.74-8.12,11.55-4,17.41,3.28,4.63,10.31,5.93,15.61,5.65,5.71-.31,11.53-3.84,11.6-10.12.07-5.8-4.3-10.37-9.66-11.9a23.08,23.08,0,0,0-10.49-.13c-3.23.56-9.27,1-9.8-3.61l-.94.54a21,21,0,0,1,5.85,4.92c.37.44,1.06.06,1.07-.44a6.5,6.5,0,0,1,3-5.42l-.92-.7L186.48,52a.64.64,0,0,0,.92.71,36.57,36.57,0,0,1,12.74-5.89l-.33-1.21a53.15,53.15,0,0,0-12.27,5.9.64.64,0,0,0,.15,1.15l3.82.87-.37-.92a3.24,3.24,0,0,1-6-1.93.63.63,0,0,0-.79-.6,14.24,14.24,0,0,0-7.86,6.06c-.32.51.34,1.23.85.86l7.45-5.49c.64-.47,0-1.55-.63-1.07l-7.45,5.48.86.85a12.88,12.88,0,0,1,7.11-5.48l-.79-.61a4.61,4.61,0,0,0,3.29,4.74,4.66,4.66,0,0,0,5.08-2.18.64.64,0,0,0-.38-.92L188,51.44l.15,1.14a51.82,51.82,0,0,1,12-5.77.63.63,0,0,0-.33-1.21,37.55,37.55,0,0,0-13,6l.92.7,2.44-6.11c.2-.51-.49-1-.92-.7A7.78,7.78,0,0,0,185.6,52l1.07-.44a22,22,0,0,0-6.11-5.12c-.38-.21-1,.05-.94.54a5.81,5.81,0,0,0,3.78,4.66c2.75,1.15,5.74.47,8.55,0,5.6-.94,12.34-.06,15.77,5a10.16,10.16,0,0,1,1.7,7.52,9,9,0,0,1-5.72,6.38,18.39,18.39,0,0,1-9.76.6,17.38,17.38,0,0,1-7.06-2.59,8.41,8.41,0,0,1-3.44-8.87c.73-3.59,3-6.55,5.21-9.38.49-.64-.59-1.26-1.08-.63Z" transform="translate(-27.12 -22.65)"/><path class="cls-2" d="M196.88,111.78a5.4,5.4,0,0,0-6.75-.37,4.9,4.9,0,0,0-1.08,6.71,4.81,4.81,0,0,0,6.89,1.5,5.18,5.18,0,0,0,1.57-7.11c-1.68-2.54-5-3.47-7.78-4.07-.79-.17-1.12,1-.34,1.2,2.11.46,4.45,1,6.12,2.47a4.55,4.55,0,0,1,1.53,2.44,3.8,3.8,0,0,1-.8,3.09,3.62,3.62,0,0,1-5.43.66c-1.43-1.35-2-3.81-.54-5.37a4.15,4.15,0,0,1,5.72-.26c.58.56,1.46-.32.89-.89Z" transform="translate(-27.12 -22.65)"/><path class="cls-2" d="M198.79,124a3.19,3.19,0,0,0-.59,3.85,3.15,3.15,0,0,0,3.76,1.59,4,4,0,0,0,2.88-3.48,4.86,4.86,0,0,0-2.23-4.26,6.33,6.33,0,0,0-6.13-.11c-.73.35-.09,1.43.63,1.08a5.26,5.26,0,0,1,4.22-.24,3.75,3.75,0,0,1,2.23,2.77,2.67,2.67,0,0,1-1.37,2.8,2.05,2.05,0,0,1-2.65-.35,2,2,0,0,1,.14-2.77.63.63,0,0,0,0-.88.64.64,0,0,0-.89,0Z" transform="translate(-27.12 -22.65)"/><path class="cls-2" d="M205.1,114.25s0-.1,0,0,0,0,0-.07,0-.12,0-.18a1.52,1.52,0,0,1,.06-.2s0-.1,0,0,0,0,0-.06a2.27,2.27,0,0,1,.19-.34l.07-.1s0,.06,0,0l.14-.16a2.31,2.31,0,0,1,.6-.48,3.9,3.9,0,0,1,.35-.19c.07,0,0,0,0,0l.08,0,.24-.08a1.89,1.89,0,0,1,.71-.12,2.64,2.64,0,0,1,.4,0c.07,0,0,0,0,0l.12,0,.21,0a2,2,0,0,1,1.07.79,3.72,3.72,0,0,1,.19.34c0,.06,0,0,0,0l0,.08a2,2,0,0,1,.08.22c0,.13.06.26.09.38s0,0,0,.08a1.94,1.94,0,0,1,0,.24c0,.13,0,.26,0,.39s0,.22,0,.1a1.55,1.55,0,0,1,0,.21c0,.13-.06.25-.1.38l-.06.15s-.05.1-.07.14a2,2,0,0,1-2.4,1.1,2.43,2.43,0,0,1-.84-.37,1.77,1.77,0,0,1-.32-.24,2.89,2.89,0,0,1-.35-.35,2.19,2.19,0,0,1-.54-1.59.63.63,0,0,0-1.25,0,3.82,3.82,0,0,0,2.5,3.6,3.36,3.36,0,0,0,4-1.09,4.11,4.11,0,0,0,.34-4.05,3.33,3.33,0,0,0-3.64-1.77,3.81,3.81,0,0,0-3.21,3.28.63.63,0,0,0,.62.63.65.65,0,0,0,.63-.63Z" transform="translate(-27.12 -22.65)"/><path class="cls-2" d="M188.37,123.38a3.75,3.75,0,0,0-3.89,1.66,3.4,3.4,0,0,0,.41,4.21,3.57,3.57,0,0,0,4.3.76,3.75,3.75,0,0,0,1.91-3.93,3.85,3.85,0,0,0-3.76-3,.63.63,0,0,0,0,1.25,2.63,2.63,0,0,1,2.42,1.6,2.44,2.44,0,0,1-.86,2.8,2.27,2.27,0,0,1-2.8-.05,2.21,2.21,0,0,1-.78-2.57,2.5,2.5,0,0,1,2.72-1.51c.78.18,1.11-1,.33-1.21Z" transform="translate(-27.12 -22.65)"/><path class="cls-2" d="M197.44,132.34a3.59,3.59,0,0,0-3.86,2.23,3.53,3.53,0,0,0-.22,2.37,3,3,0,0,0,1.4,1.78,4,4,0,0,0,4.1-.23,3.22,3.22,0,0,0,1.3-1.73,3.18,3.18,0,0,0-.31-2.45A3.79,3.79,0,0,0,195,132.6a.62.62,0,1,0,.63,1.07l.12-.06s-.06,0,0,0l.22-.07a1.41,1.41,0,0,1,.37-.06l.41,0,.42.1a3.16,3.16,0,0,1,.78.39,3.55,3.55,0,0,1,.63.61s.06.09.07.11l.13.2c0,.07.07.13.1.2l.06.15a1.8,1.8,0,0,1,.11.83c0,.12,0,.06,0,0a.44.44,0,0,1,0,.1,1.6,1.6,0,0,1,0,.21c0,.06,0,.12-.07.19s0-.09,0,0l-.06.13-.09.14-.08.11-.09.11-.16.16-.09.07a.71.71,0,0,1-.14.1,2.46,2.46,0,0,1-.39.22l-.06,0-.21.08-.42.11H197l-.17,0a3.49,3.49,0,0,1-.46,0l-.19,0c-.08,0,0,0,0,0l-.11,0a2.92,2.92,0,0,1-.4-.1l-.08,0-.18-.09-.16-.1s-.19-.13-.1-.06a1.79,1.79,0,0,1-.28-.27l-.06-.06c-.06-.08,0,.07,0,0l-.14-.21s-.09-.2-.06-.11c0-.07,0-.14-.07-.2a1.6,1.6,0,0,1,0-.21s0-.06,0-.09,0,.06,0-.05a2,2,0,0,1,.07-.79,2.55,2.55,0,0,1,.37-.83l.07-.11,0-.05a1.46,1.46,0,0,1,.16-.19,3.06,3.06,0,0,1,.37-.35l.12-.09.22-.13.22-.11c-.08,0,.1,0,.14,0a1.1,1.1,0,0,1,.26-.06l.09,0h.48a.63.63,0,0,0,.77-.43.63.63,0,0,0-.44-.77Z" transform="translate(-27.12 -22.65)"/><path class="cls-2" d="M160.91,116.65l-14.73-5.76-.33,1.2,9.45,2.26a.63.63,0,0,0,.7-.92,16.48,16.48,0,0,1-2.53-7.79l-.94.54,9.18,4.43a.63.63,0,0,0,.94-.54l-.37-6.3-1.17.31,2.69,4.56a.64.64,0,0,0,1.08,0l3.69-6.28h-1.08c.86,1.71-.92,3.74-.7,5.59a2.42,2.42,0,0,0,1.86,2.34c1.51.23,2.49-1.18,3.26-2.25,1.43-2,2.84-4,4.26-6l-1.08-.64c-3.05,6.66-6.77,14.4-14.16,17a.63.63,0,0,0-.27,1,26.87,26.87,0,0,1,8.75,13.27l1.2-.34A24.72,24.72,0,0,1,173,112.23l-1.17-.32a9,9,0,0,0,1.74,5.91c.21.29.71.48,1,.13l7.35-9.39-1-.75-4.66,10.08a.63.63,0,0,0,.85.85l5.67-2.64-.76-1-2.57,2.9c-.68.77-1.5,2.18-2.51,2.44a10.09,10.09,0,0,0-4.87,2.46,8.92,8.92,0,0,0-1.35,10.73l.85-.86a53.92,53.92,0,0,0-24.74-10.29c-.78-.11-1.14,1-.33,1.21a12.29,12.29,0,0,1,6.44,3.56l.44-1.06-10.59,1.14c-.78.09-.81,1.31,0,1.25a18.26,18.26,0,0,1,9.68,2l-.13-1-4.73,5.16a.63.63,0,0,0,.89.88,19.77,19.77,0,0,1,6.59-4.46c2.81-1,5.15-.08,7.36,1.7,1.58,1.26,3.09,2.63,5.09,3.13a4.74,4.74,0,0,0,4.83-1.17l-1.07-.44A17.56,17.56,0,0,0,181.2,149c.72.34,1.36-.74.63-1.08a16.32,16.32,0,0,1-9.29-13.45.64.64,0,0,0-1.07-.44c-1.63,1.81-4.36.88-6.07-.32-1.88-1.32-3.47-3.1-5.71-3.82-4.59-1.47-8.93,2.06-12.09,4.94l.89.88,4.73-5.16a.63.63,0,0,0-.13-1,19.53,19.53,0,0,0-10.31-2.21v1.25l10.59-1.14a.64.64,0,0,0,.44-1.07,13.36,13.36,0,0,0-7-3.89l-.33,1.21a53,53,0,0,1,24.44,10.16c.53.4,1.14-.35.86-.85a7.61,7.61,0,0,1,2.44-10.23,7.87,7.87,0,0,1,2.33-1c.86-.2,1.25-.07,1.84-.72,1.53-1.66,3-3.39,4.5-5.08a.63.63,0,0,0-.76-1l-5.67,2.65.86.85L182,108.44c.27-.59-.51-1.36-1-.76l-7.35,9.39,1,.12a7.93,7.93,0,0,1-1.57-5.28.63.63,0,0,0-1.16-.31,25.94,25.94,0,0,0-2.5,21.16.62.62,0,0,0,1.2-.34,27.83,27.83,0,0,0-9.07-13.81l-.27,1c7.75-2.76,11.69-10.59,14.9-17.59a.63.63,0,0,0-1.08-.64l-3,4.19c-.54.75-2.67,4.55-3.81,3.08-.76-1,0-2.52.29-3.51a4.29,4.29,0,0,0,0-3.46.63.63,0,0,0-1.08,0L163.8,108h1.08l-2.69-4.55a.63.63,0,0,0-1.16.32l.37,6.3.94-.53-9.18-4.44a.64.64,0,0,0-.94.54,17.82,17.82,0,0,0,2.7,8.42l.71-.91-9.45-2.26a.62.62,0,0,0-.33,1.2l14.73,5.76c.75.3,1.07-.91.33-1.2Z" transform="translate(-27.12 -22.65)"/><path class="cls-2" d="M172.5,134.56a14.49,14.49,0,0,1,14.72,3.7c3.06,3.18,4.85,11.34,10.83,9.62a.62.62,0,0,0-.33-1.2c-3.48,1-5.52-2.81-6.87-5.32a16.33,16.33,0,0,0-4.71-5.69,15.74,15.74,0,0,0-14-2.32c-.76.25-.44,1.46.33,1.21Z" transform="translate(-27.12 -22.65)"/><path class="cls-2" d="M100.44,38.17c-1.89,7-1.42,15.22,4.19,20.49,4.57,4.29,12.13,5,16.69.26a.63.63,0,0,0-.44-1.07,18.08,18.08,0,0,1-16.24-14.33,11,11,0,0,1,.56-6.9c1.08-2.13,3.46-3.44,5.77-2.39,2,.94,3.51,3,4.72,4.85a29.83,29.83,0,0,1,3,6,30.54,30.54,0,0,1,1.63,14.67c-.11.8,1.15.79,1.25,0a31.39,31.39,0,0,0-1.82-15.38,30.53,30.53,0,0,0-3.48-6.62c-1.34-1.92-3-4-5.21-4.83a5.39,5.39,0,0,0-5.68,1.29,8.83,8.83,0,0,0-2.3,6.56,18.38,18.38,0,0,0,4.76,11.86,18.89,18.89,0,0,0,13,6.45L120.43,58c-4.3,4.47-11.39,3.45-15.44-.78-4.82-5-5.06-12.38-3.35-18.75a.62.62,0,0,0-1.2-.33Z" transform="translate(-27.12 -22.65)"/><path class="cls-2" d="M112.1,40.71a6,6,0,0,1-1.1-4.33l-1,.27A6.05,6.05,0,0,1,112,42.2a.65.65,0,0,0,.44.77.63.63,0,0,0,.77-.44,7.31,7.31,0,0,0-2.41-6.76c-.32-.27-1-.23-1,.28A7.26,7.26,0,0,0,111,41.34a.63.63,0,0,0,1.08-.63Z" transform="translate(-27.12 -22.65)"/><path class="cls-2" d="M111.21,42.8c-.09.05.15,0,0,0l-.09,0c-.12,0,.12,0,0,0h-.06l-.09,0s-.14-.06,0,0,0,0,0,0l-.18-.11,0,0c-.08,0,0,0,0,0s-.08-.07-.09-.08-.25-.23-.36-.34a5.11,5.11,0,0,0-1.75-1.42,1.63,1.63,0,0,0-1.21,0,1.56,1.56,0,0,0-.89,1,2.3,2.3,0,0,0,.68,2.39c1.15.91,2.71.53,4,.11a.63.63,0,0,0-.34-1.21l-.74.23a2.34,2.34,0,0,1-.38.09l-.19,0s-.26,0-.15,0a2.69,2.69,0,0,1-.75,0h-.08l-.17-.05-.18-.06c.1,0-.09-.05-.11-.06l-.1-.07s.11.09,0,0a.6.6,0,0,1-.08-.08c-.1-.11,0,0,0,0s-.12-.18-.13-.2,0-.1,0-.11,0,.1,0,0l0-.08a1.55,1.55,0,0,1-.05-.23c0-.13,0,.15,0,0a.41.41,0,0,0,0-.11.49.49,0,0,1,0-.12c0-.07,0-.12,0,0a.71.71,0,0,1,.06-.25c0-.12-.08.12,0,0a.41.41,0,0,0,0-.09c.07-.13,0,0,0,0l.08-.07c.06-.09-.13.06,0,0l.09-.05c.1-.07-.14,0,0,0l.08,0H108c.12,0-.15,0,0,0l.09,0,.1,0c.11,0-.14-.08,0,0l.21.12.07,0a1.22,1.22,0,0,1,.17.15c.13.11.24.22.36.34s.43.47.67.69a2.71,2.71,0,0,0,1,.65,1.5,1.5,0,0,0,1.21-.1.62.62,0,0,0,.23-.85.64.64,0,0,0-.86-.23Z" transform="translate(-27.12 -22.65)"/><path class="cls-2" d="M112.8,47.51a2.52,2.52,0,0,0-4.61.08,2.77,2.77,0,0,0,1,3,2.69,2.69,0,0,0,3.23.14,3.42,3.42,0,0,0,1.42-3.43.62.62,0,0,0-.77-.43.64.64,0,0,0-.43.77s0,.2,0,.06c0,0,0,.08,0,.12s0,.21,0,.32,0,.16,0,0a.77.77,0,0,1,0,.15c0,.11-.06.22-.1.33a.58.58,0,0,1,0,.14c0-.1,0,0,0,0s-.1.19-.16.28l-.06.1c-.1.15.07-.08,0,0s-.14.16-.21.24l-.11.09c-.13.13.09-.05-.06,0l-.24.15-.1.05c-.15.08.11,0-.06,0l-.33.09h-.29s-.2,0-.06,0l-.28-.07-.1,0c.12,0-.09,0-.11-.06a1.58,1.58,0,0,1-.24-.15c.08.06,0,0,0,0a.69.69,0,0,1-.13-.11l-.2-.21c-.11-.14,0,.06,0,0l-.11-.17-.07-.13s-.06-.14,0,0a1.14,1.14,0,0,1-.09-.26l0-.14c0-.1,0,.15,0,0s0-.22,0-.33c0,.13,0,0,0,0l0-.13s.08-.19,0-.06a.3.3,0,0,1,0-.08s.16-.22,0-.1l.19-.2c.11-.1-.11.07,0,0l.07-.05.2-.11c.14-.06-.12,0,0,0l.09,0,.27-.07c.15,0-.14,0,0,0h.42c.14,0-.1,0,0,0l.15,0a.35.35,0,0,1,.11,0s.2.07,0,0l.24.13.07,0c-.14-.09,0,0,0,0s0,0,.06.06,0,.05,0,0l0,.07,0,.08,0,.08c0-.08,0-.09,0,0a.65.65,0,0,0,.77.44.64.64,0,0,0,.43-.77Z" transform="translate(-27.12 -22.65)"/><path class="cls-2" d="M114,51.31l3.37,5a.63.63,0,0,0,1.14-.15,4.72,4.72,0,0,0-2.84-6.06.63.63,0,0,0-.77.44.65.65,0,0,0,.44.77,3.18,3.18,0,0,1,1.11.67,3.67,3.67,0,0,1,.82,1.18,3.35,3.35,0,0,1,0,2.67l1.14-.15-3.37-5a.64.64,0,0,0-.86-.22.62.62,0,0,0-.22.85Z" transform="translate(-27.12 -22.65)"/><path class="cls-2" d="M116.11,45.5l0-2.54-.46.6h.43c.1,0-.09,0,0,0l.11,0,.17,0,.09,0a2.37,2.37,0,0,1,.35.19s.14.1.07,0l.15.13.13.13,0,.06.06.07a.7.7,0,0,1,.07.11,1,1,0,0,1,.1.17s.08.16,0,.06a1.42,1.42,0,0,1,.07.22.94.94,0,0,1,0,.16c0,.12,0-.05,0,.07s0,.13,0,.2,0,.21,0,.08a3.18,3.18,0,0,1-.08.33l0,.08c0-.12,0,0,0,0l-.09.16-.1.15c.06-.08,0,0,0,0l-.27.26c-.08.08.06,0,0,0l-.16.1-.13.08-.1,0,0,0-.12,0-.21.06-.12,0h-.44c.06,0,.08,0,0,0l-.2,0s-.22-.09-.1,0a.64.64,0,0,0-.85.22.63.63,0,0,0,.22.86,3,3,0,0,0,3.65-1,2.74,2.74,0,0,0-.65-3.75,2.89,2.89,0,0,0-2.4-.6.63.63,0,0,0-.45.6l0,2.54a.64.64,0,0,0,.63.63.63.63,0,0,0,.62-.63Z" transform="translate(-27.12 -22.65)"/><path class="cls-2" d="M289.08,78c-.49,5-.83,10.54,2.71,14.55a8.61,8.61,0,0,0,5.81,2.88,72.23,72.23,0,0,0,9.18-.2l37.45-1.35,21.48-.78a.64.64,0,0,0,.6-.79l-4.54-20.91a.61.61,0,0,0-.6-.45l-57.83,3.56-16.45,1c-.79,0-.8,1.3,0,1.25l57.83-3.57,16.45-1-.6-.46,4.54,20.9.6-.79-35.46,1.28-17.73.65-8.74.31c-2.79.1-6.12.66-8.73-.58-5.73-2.72-5.23-10.27-4.72-15.51.08-.8-1.17-.79-1.25,0Z" transform="translate(-27.12 -22.65)"/><path class="cls-2" d="M298.63,82.67c1,4.32,6.9,5.35,9,1.31.63-1.22.94-3.34,2.82-2.25,1.18.68,1.74,2.07,2.78,2.92a4.65,4.65,0,0,0,4.47.61c1.81-.57,3.4-1.67,5.17-2.31a5.24,5.24,0,0,1,2.68-.37,7.28,7.28,0,0,1,2.92,1.71c1.65,1.24,3.36,1.69,5.21.54.87-.54,1.58-1.29,2.42-1.87a5.62,5.62,0,0,1,4.43-.77c3.81.7,10.33,4.15,12.86-.83.36-.72-.71-1.35-1.08-.64-2.23,4.39-8.77.62-12.07.16a6.78,6.78,0,0,0-5.44,1.51,8.93,8.93,0,0,1-2.61,1.79c-1.24.39-2.29-.36-3.23-1.08-1.31-1-2.6-1.91-4.33-1.81a12.33,12.33,0,0,0-4.71,1.64c-1.41.7-3.15,1.73-4.79,1.32-2.07-.53-2.67-3.15-4.68-3.89a2.48,2.48,0,0,0-2.4.25c-1,.72-1,1.92-1.58,2.89a3.61,3.61,0,0,1-6.65-1.16c-.17-.78-1.38-.45-1.2.33Z" transform="translate(-27.12 -22.65)"/><path class="cls-2" d="M305,58.11a53.68,53.68,0,0,1,5.25,12.71.63.63,0,0,0,1.21-.33,55.21,55.21,0,0,0-5.38-13,.63.63,0,0,0-1.08.63Z" transform="translate(-27.12 -22.65)"/><path class="cls-2" d="M305.8,58a113.59,113.59,0,0,0,40.61-.84c2.38-.49,5.4-1.49,5.73-4.33.28-2.45-2-4-4.17-4.28a23.22,23.22,0,0,0-4.64.09c-1.76.11-3.52.25-5.28.41-3.25.31-6.5.69-9.73,1.16A195.71,195.71,0,0,0,305.23,55a.63.63,0,0,0,.33,1.21A195.36,195.36,0,0,1,341.41,50c1.42-.11,2.84-.21,4.27-.27s3.23-.09,4.42,1,.79,3-.58,4a11.19,11.19,0,0,1-4.39,1.39,112.1,112.1,0,0,1-18.27,2,113.34,113.34,0,0,1-20.73-1.35c-.78-.12-1.12,1.08-.33,1.21Z" transform="translate(-27.12 -22.65)"/><path class="cls-2" d="M349.68,53.63l-3.19,15.94c-.16.79,1,1.13,1.2.34L350.88,54c.16-.78-1.05-1.12-1.2-.33Z" transform="translate(-27.12 -22.65)"/><path class="cls-2" d="M316.48,97.25l5,12.76c.65,1.63,1.16,3.7,2.59,4.85,1.26,1,2.89,1,4.42.92,4.42-.16,9,0,13.35-.53a5.08,5.08,0,0,0,3.85-1.87c.95-1.41.95-3.3,1.13-4.93l1.71-15.67c.08-.8-1.17-.8-1.25,0L345.66,108c-.24,2.22-.09,5.07-2.68,5.84-2.18.64-4.81.37-7.07.46-2.54.09-5.08.2-7.62.28a6.07,6.07,0,0,1-3-.36c-1.17-.6-1.61-2-2.06-3.14q-2.81-7-5.58-14.12c-.3-.74-1.51-.42-1.21.33Z" transform="translate(-27.12 -22.65)"/><path class="cls-2" d="M316.08,63.43A19.4,19.4,0,0,1,318.66,72c0,.8,1.29.81,1.25,0a21,21,0,0,0-2.75-9.18.63.63,0,0,0-1.08.63Z" transform="translate(-27.12 -22.65)"/><path class="cls-2" d="M325.39,63.87a13.3,13.3,0,0,1,2.6,6.06.63.63,0,0,0,.77.44.64.64,0,0,0,.43-.77,14.07,14.07,0,0,0-2.72-6.36.64.64,0,0,0-.85-.22.62.62,0,0,0-.23.85Z" transform="translate(-27.12 -22.65)"/><path class="cls-2" d="M328.05,66a1.83,1.83,0,0,1,1.2-1.74,2.39,2.39,0,0,1,2.35.39c1.75,1.26,1.92,3.64,2,5.6,0,.81,1.29.81,1.25,0-.1-2.1-.32-4.33-1.8-6a3.73,3.73,0,0,0-5-.76,2.9,2.9,0,0,0-1.21,2.8.63.63,0,0,0,.77.44.65.65,0,0,0,.43-.77Z" transform="translate(-27.12 -22.65)"/><path class="cls-2" d="M339.41,67.55A8.45,8.45,0,0,1,342,62l-1.05-.27a15.64,15.64,0,0,1,.79,7.18.62.62,0,0,0,.62.62.65.65,0,0,0,.63-.62,16.51,16.51,0,0,0-.83-7.51.64.64,0,0,0-1.05-.28,9.81,9.81,0,0,0-2.9,6.46c0,.8,1.21.8,1.25,0Z" transform="translate(-27.12 -22.65)"/><path class="cls-2" d="M324.32,97.72a33.16,33.16,0,0,0,5,12.1.63.63,0,0,0,1.16-.32,52.2,52.2,0,0,1,2-13.55l-1.15.15a68.62,68.62,0,0,1,4.38,14,.63.63,0,0,0,1.21,0l3.19-14c.18-.78-1-1.11-1.2-.33l-3.2,14.05h1.21a70.65,70.65,0,0,0-4.51-14.29c-.22-.52-1-.33-1.14.14a54,54,0,0,0-2,13.89l1.17-.31a32.38,32.38,0,0,1-4.88-11.8c-.15-.79-1.36-.46-1.2.33Z" transform="translate(-27.12 -22.65)"/><path class="cls-2" d="M314.73,101.76a7.55,7.55,0,0,0-11.43,9.86,8.48,8.48,0,0,0,9.88,2.91,11.52,11.52,0,0,0,7.14-8.7,9.59,9.59,0,0,0-1.35-7,6.83,6.83,0,0,0-5.9-3c-.8,0-.81,1.3,0,1.25,4.21-.25,6.4,4,6.13,7.69a10.28,10.28,0,0,1-5.16,8,7.36,7.36,0,0,1-8.69-.72,6.67,6.67,0,0,1-1.56-8.41,6.39,6.39,0,0,1,10-1c.56.58,1.44-.31.89-.89Z" transform="translate(-27.12 -22.65)"/><path class="cls-2" d="M301.55,105.82,293.62,101,293,102l7.83,4.65.14-1.15-8.79,2.22a.62.62,0,0,0,.16,1.22l9.61.34a.63.63,0,0,0,.44-1.07,18.81,18.81,0,0,1-3.85-10l-.8.61a2.85,2.85,0,0,1,2.26,1.89.63.63,0,0,0,1.2,0A10.7,10.7,0,0,1,303.73,96l-1-.13a14.37,14.37,0,0,1,2.49,6.29c.1.78,1.35.79,1.25,0a15.5,15.5,0,0,0-2.66-6.92.63.63,0,0,0-1-.13,11.86,11.86,0,0,0-2.86,5.29h1.2a4.08,4.08,0,0,0-3.12-2.77.63.63,0,0,0-.79.6,20.33,20.33,0,0,0,4.22,10.92l.44-1.07-9.61-.34.17,1.23,8.8-2.21a.63.63,0,0,0,.15-1.14L293.62,101A.63.63,0,0,0,293,102l7.92,4.86c.69.42,1.32-.66.64-1.08Z" transform="translate(-27.12 -22.65)"/><path class="cls-2" d="M352.75,96.19c-3.84,1.64-4.77,6.5-3.15,10,1.88,4.11,6.51,7,10.92,7.47a9.23,9.23,0,0,0,9.88-6.33,10,10,0,0,0-3.56-10.95c-4.1-3.22-9.93-2.9-14.08,0-.65.46,0,1.54.63,1.08a10.84,10.84,0,0,1,11.12-1.15,9.16,9.16,0,0,1,5.09,8.82,8,8,0,0,1-7.24,7.27,12.84,12.84,0,0,1-10.45-4.88,7.7,7.7,0,0,1-1.81-5.82,5.63,5.63,0,0,1,3.28-4.5c.74-.32.1-1.39-.63-1.08Z" transform="translate(-27.12 -22.65)"/><path class="cls-2" d="M375.26,104.07l1.41-8.74c.11-.63-.84-1.19-1.14-.48l-2.95,6.91,1.17.32a19.77,19.77,0,0,0-2.92-10.62.63.63,0,0,0-1.08,0,14.65,14.65,0,0,0-2.69,6.07.63.63,0,0,0,.92.7,2.51,2.51,0,0,1,3.65,1.36.63.63,0,0,0,1.21-.33,3.79,3.79,0,0,0-5.49-2.11l.92.71a13.8,13.8,0,0,1,2.56-5.77h-1.08a18.51,18.51,0,0,1,2.75,10c0,.58.91.9,1.16.31l2.95-6.91L375.47,95l-1.41,8.73c-.13.79,1.07,1.13,1.2.34Z" transform="translate(-27.12 -22.65)"/><path class="cls-2" d="M293.74,99.76c-1-4.5-2.33-9.72-6.8-12-3.29-1.69-8.19-.65-9.25,3.31-.56,2.07.64,5.31-1.5,6.67s-4.93-.08-7-.8-4.12-1-5.86.32c-1.23.95-2.11,2.69-1.31,4.18,1.18,2.19,4.73,2,6.81,2.2L279,104.78l-.63-.62c-.06,2-3,2.29-4.38,3.11a3.08,3.08,0,0,0-1.75,3.22,2.73,2.73,0,0,0,2.46,1.88,3.8,3.8,0,0,0,3.5-1.58c1.51-1.94,3.06-9.74,6.85-6.23,2.09,2,3,5.19,6.35,5.4,4.4.29,6.68-4,8-7.51.29-.75-.92-1.07-1.21-.33-1.15,3-3.5,7.63-7.51,6.46-2.57-.75-3.32-4-5.41-5.42-2.28-1.56-4.7,0-5.88,2.08-.8,1.44-1.08,3.11-2,4.49-.7,1.06-2.72,2.23-3.77.85-1.36-1.78,2.45-2.84,3.48-3.32a3.66,3.66,0,0,0,2.47-3.1.65.65,0,0,0-.62-.63l-7.27-.82a45.21,45.21,0,0,1-7.08-.87c-3-.82-1.32-4,1-4.24,2.19-.25,4.23,1.1,6.28,1.63,3,.78,6.38-.16,6.75-3.68.2-2-.39-4.09,1.05-5.71a5.38,5.38,0,0,1,5.39-1.47c5,1.44,6.43,7.29,7.41,11.73.17.78,1.38.45,1.2-.34Z" transform="translate(-27.12 -22.65)"/><path class="cls-2" d="M292.4,98.75l6.21-.89a.62.62,0,0,0,.43-.77.64.64,0,0,0-.76-.44l-6.21.89a.63.63,0,0,0-.44.77.65.65,0,0,0,.77.44Z" transform="translate(-27.12 -22.65)"/><path class="cls-2" d="M284.55,108.48A42.14,42.14,0,0,0,313,120.29a30.92,30.92,0,0,0,10.4-1.27c3.43-1.17,6.64-4.07,6.18-8-.09-.79-1.34-.8-1.25,0,.61,5.2-5.16,7.1-9.23,7.67a39.42,39.42,0,0,1-12.17-.23,40.91,40.91,0,0,1-21.44-10.86c-.58-.56-1.46.32-.89.88Z" transform="translate(-27.12 -22.65)"/><path class="cls-2" d="M365,87.09a68.24,68.24,0,0,1,15.75-23.43l-1.07-.44A30.84,30.84,0,0,1,375,79a.63.63,0,0,0,.86.85c4.31-2.7,9-5.53,14.25-5.12l-.44-1.07a36.94,36.94,0,0,1-13.19,8.23.62.62,0,0,0,.17,1.22l7.86.5,3.92.25,2,.12a8.11,8.11,0,0,1,1,.09c.57.11.76.08.74.75,0,.83-.74,1-1.46,1.22s-1.21.34-1.81.48a31.93,31.93,0,0,1-4,.66,33.11,33.11,0,0,1-8-.21l-.17,1.23a21.25,21.25,0,0,1,12.74,6.35l.61-1a73.72,73.72,0,0,1-13.55-4.25c-2.16-.92-4.05-1.94-4.77-4.33a26.52,26.52,0,0,1-.71-6.59q-.15-3.64.05-7.28a40.3,40.3,0,0,1,.74-7.28,2.15,2.15,0,0,1,.52-1.21c.57-.41.92.06,1.1.56a4.83,4.83,0,0,1-.15,2.66,53.15,53.15,0,0,1-2,6.51,133,133,0,0,1-6.71,14.31.63.63,0,0,0,1.08.63,78.2,78.2,0,0,1,5.91-8.2q1.56-1.91,3.24-3.7a16.7,16.7,0,0,1,3.54-3.23,3.65,3.65,0,0,1,2-.64c1.25.12,1.62,1.3,1.33,2.35-.43,1.59-1.79,2.8-2.9,3.93l-7.47,7.61a.63.63,0,0,0,.13,1L389.64,95l.31-1.16a67.25,67.25,0,0,1-21.13-5c-.71-.29-1,.76-.48,1.14a13.77,13.77,0,0,1,5.47,9.47c.09.79,1.34.79,1.25,0A15.17,15.17,0,0,0,369,88.91l-.48,1.15a68.12,68.12,0,0,0,21.46,5,.63.63,0,0,0,.32-1.17L372,85.25l.13,1,4.92-5a56.42,56.42,0,0,0,4.41-4.61c.87-1.12,1.77-2.64,1.48-4.12a2.86,2.86,0,0,0-2.66-2.28A6.2,6.2,0,0,0,376.25,72,41.89,41.89,0,0,0,372,76.44a80.56,80.56,0,0,0-7.55,10.16l1.08.63c1.41-2.73,13.56-25.41,7.3-26.09-1.87-.21-2.33,2-2.52,3.39a80.69,80.69,0,0,0-.71,9.19,71.06,71.06,0,0,0,.31,8.63c.22,2.25.69,4.58,2.48,6.12,2.1,1.8,5.27,2.7,7.83,3.6a74.65,74.65,0,0,0,9.38,2.64.63.63,0,0,0,.61-1A22.61,22.61,0,0,0,376.62,87c-.69-.09-.86,1.12-.17,1.22a34.26,34.26,0,0,0,10.16,0,24.22,24.22,0,0,0,4.9-1.14,3.07,3.07,0,0,0,2.12-2c.54-2.81-4.17-2.43-5.72-2.53l-11.29-.72.17,1.23a38.44,38.44,0,0,0,13.74-8.54.64.64,0,0,0-.45-1.07c-5.5-.43-10.39,2.48-14.88,5.3l.85.85a32.13,32.13,0,0,0,4.89-16.41.63.63,0,0,0-1.07-.44,69.68,69.68,0,0,0-16.07,24c-.3.75.91,1.07,1.21.33Z" transform="translate(-27.12 -22.65)"/><path class="cls-2" d="M293,103.12a41.65,41.65,0,0,0-8.21-6.82A31.12,31.12,0,0,0,275.43,92a3.06,3.06,0,0,0-3.18.72c-.86,1.1-.31,2.42.61,3.28,1.36,1.28,3.32,1.87,5,2.62l6,2.69.49-1.14-10.09-2.54c-1.1-.28-2.47-.82-3.59-.35a2,2,0,0,0-1.17,2.34c.53,2.49,4.4,3.23,6.46,3.68a25.07,25.07,0,0,0,8.89.28c.8-.12.46-1.32-.33-1.21a23,23,0,0,1-7.08-.06,22.67,22.67,0,0,1-3.23-.78,7.21,7.21,0,0,1-3.1-1.45c-.56-.61-.49-1.67.47-1.73a5.23,5.23,0,0,1,1.51.28c1.19.29,2.38.6,3.57.9l7.35,1.85c.66.16,1.15-.85.49-1.15-3.07-1.37-6.2-2.67-9.22-4.13a5.41,5.41,0,0,1-1.77-1.21c-.73-.83-.36-1.73.73-1.78A9.83,9.83,0,0,1,278,94.19,40.29,40.29,0,0,1,292.13,104c.55.59,1.43-.29.88-.88Z" transform="translate(-27.12 -22.65)"/><path class="cls-2" d="M32.2,281.57c-2.26-16.05,4.5-32,15.23-43.71,11.73-12.82,27.94-20,44.82-23.1,17.73-3.25,36.38-2.53,54.11.38,17.5,2.88,35,8.69,49.18,19.56,12.7,9.7,22.84,23.43,26.4,39.17a56,56,0,0,1,1,6c.09.79,1.34.8,1.25,0-1.86-16.29-10.69-31-22.73-41.87-13.47-12.17-30.7-19.21-48.3-22.88a181.08,181.08,0,0,0-27.76-3.44,152.19,152.19,0,0,0-27.82,1C80.22,215,63,221.22,50.05,233.41c-11.63,11-19.85,26.44-19.54,42.7a49.12,49.12,0,0,0,.48,5.8c.11.79,1.32.45,1.21-.34Z" transform="translate(-27.12 -22.65)"/><path class="cls-2" d="M45.21,281.1c-.76-14.38,5.66-28.32,15.62-38.46,10.45-10.65,24.6-17,39-20.09a106.58,106.58,0,0,1,45.67-.07A83.75,83.75,0,0,1,184,242.12a71.81,71.81,0,0,1,21.08,34.09c.42,1.59.77,3.19,1.07,4.8.14.79,1.35.46,1.2-.33a71.18,71.18,0,0,0-19.06-36.11,83,83,0,0,0-37.25-22,106.46,106.46,0,0,0-46.6-2.21c-14.87,2.51-29.54,8.14-41,18.1C52.66,247.81,45,261.23,44,275.57a46.38,46.38,0,0,0,0,5.53c0,.8,1.3.8,1.25,0Z" transform="translate(-27.12 -22.65)"/><path class="cls-2" d="M80.06,254.12l46.52-3.82c7.44-.61,14.89-1.4,22.35-1.59a76.21,76.21,0,0,1,11.2.46c3.46.43,7.15,1.06,10.24,2.77,2.8,1.56,5.16,4.36,5.1,7.72-.05,2.92-2.16,5-4.75,6a22.81,22.81,0,0,1-8,1.19c-3.75,0-7.5,0-11.25,0l-46.18,0H92.34c-3.55,0-7.23,0-10.62-1.14-3-1.05-5.4-3.07-6.19-6.24-.66-2.63-.08-5.64,2.5-6.95.72-.37.09-1.45-.63-1.08-4.42,2.25-4.05,8.46-1.37,11.92,4,5.2,12,4.74,17.8,4.74l50.4,0h12.66a75.92,75.92,0,0,0,10.23-.3,13.48,13.48,0,0,0,7.13-2.79,7.41,7.41,0,0,0,2.28-7.16c-1.49-7-9.52-9-15.61-9.82-8-1.09-16.16-.46-24.2.2l-50.47,4.14-6.19.51c-.79.06-.8,1.31,0,1.25Z" transform="translate(-27.12 -22.65)"/><path class="cls-2" d="M91,260.7q6.56.27,13.12.5c4.2.16,8.45.49,12.66.29a24.12,24.12,0,0,0,5.54-.85c2-.59,3.85-1.54,5.85-2.11,4.23-1.23,8.68-.56,13,.09l14.59,2.26c.79.12,1.13-1.09.34-1.21l-13.14-2c-4.09-.63-8.26-1.4-12.4-.87s-7.52,2.77-11.55,3.29c-4.24.54-8.61.12-12.86,0q-7.56-.27-15.1-.58c-.81,0-.81,1.22,0,1.25Z" transform="translate(-27.12 -22.65)"/><path class="cls-2" d="M100.31,233.59l5.58,11.52c.32.67,1.28.18,1.14-.48a30.23,30.23,0,0,1,1.41-17.12l-1,.27,5.8,6.54c1.52,1.71,3.06,4.1,5.2,5.1a4.8,4.8,0,0,0,5.1-.93c1.71-1.45,2.43-3.66,3.08-5.73h-1.21c.62,1.74,1.33,3.66,3,4.71a3.79,3.79,0,0,0,4.34,0c.78-.63,1-1.66,1.69-2.35a3.18,3.18,0,0,1,3-.57c2.37.64,3.53,3.17,4.5,5.19.35.73,1.43.1,1.08-.63-1.45-3-3.87-6.88-7.85-5.8a3.78,3.78,0,0,0-1.86,1.17c-.69.82-.91,2-2.06,2.35-2.64.71-3.94-2.56-4.61-4.44a.63.63,0,0,0-1.21,0c-.58,1.84-1.19,3.91-2.75,5.18-1.9,1.54-3.85,1-5.42-.68-3.09-3.22-6-6.69-8.91-10a.64.64,0,0,0-1,.27,31.5,31.5,0,0,0-1.4,17.79l1.14-.48L101.39,233c-.35-.72-1.42-.09-1.08.63Z" transform="translate(-27.12 -22.65)"/><path class="cls-2" d="M77.14,240.85l1.5-4.49-.92.37a79.2,79.2,0,0,1,11.47,7.12c.64.49,1.26-.6.63-1.07a78.4,78.4,0,0,0-11.47-7.13.64.64,0,0,0-.92.38l-1.5,4.49c-.25.76.95,1.09,1.21.33Z" transform="translate(-27.12 -22.65)"/><path class="cls-2" d="M112.51,227.89c2.79-1.53,6.57-2.21,9,.28a3.92,3.92,0,0,1,1.16,3.68,3.37,3.37,0,0,1-2.62,2.66l.33,1.21a16.57,16.57,0,0,1,7.69-1.15c.8.07.8-1.19,0-1.25a17.45,17.45,0,0,0-8,1.19.63.63,0,0,0,.33,1.21,4.58,4.58,0,0,0,3.38-3.13,5.06,5.06,0,0,0-.91-4.79c-2.75-3.45-7.55-2.89-11-1-.7.38-.07,1.46.64,1.08Z" transform="translate(-27.12 -22.65)"/><path class="cls-2" d="M152.67,235.46c1.35-1.77,4.13-1.71,5.84-.57a3.35,3.35,0,0,1,1.54,2.83,4.33,4.33,0,0,1-1.72,3.18,3.9,3.9,0,0,1-4,.68l-.17,1.22a8.74,8.74,0,0,1,4.16.21,2.64,2.64,0,0,1,1.72,2.53c-.13,1.16-1.44,1.52-2.42,1.31-1.34-.28-2.32-1.42-3.2-2.38-.54-.6-1.42.28-.88.88,1.17,1.29,2.49,2.64,4.32,2.79a3.05,3.05,0,0,0,3.37-2.14,3.74,3.74,0,0,0-1.64-3.72c-1.56-1.09-3.64-.91-5.43-.73a.63.63,0,0,0-.17,1.23c3.09,1.29,6.76-1.31,7.22-4.46s-2.47-5.48-5.44-5.49a5.16,5.16,0,0,0-4.22,2c-.49.64.6,1.26,1.08.63Z" transform="translate(-27.12 -22.65)"/><path class="cls-2" d="M108.21,204a32.19,32.19,0,0,1-3.91,14.8l1.08.63,5.22-11.88h-1.08a17.7,17.7,0,0,1,2,8.26h1.25l-.21-9.18-.79.6a52.58,52.58,0,0,1,20.76,10.83l.76-1L120.6,208c-2.08-1.49-4.17-3-6.23-4.49-1.56-1.15-4.05-3.35-2.84-5.49l-1.08-.63a3.45,3.45,0,0,0,2,4.8.63.63,0,0,0,.77-.43,65.48,65.48,0,0,0-2.45-29.49.63.63,0,0,0-1.23.16l-3.24,29.24h1.25l1.29-19.89-1.06.44a27.56,27.56,0,0,1,6.35,17.74.63.63,0,0,0,1.25,0,82.3,82.3,0,0,0-.72-18,.62.62,0,0,0-1.2,0l-1.09,5.68,1.14-.15c-1.67-2.28-.37-5.43,1.78-6.92,2.68-1.86,6.3-1.62,9.4-1.45l-.17-1.23a22.84,22.84,0,0,0-9.19,5.43.63.63,0,0,0,0,.88,5.49,5.49,0,0,0,7.61-1.25c2.21-2.92,1-7-1.1-9.54l-.44,1.06,1.23.06-.63-.63a13.85,13.85,0,0,0,1.51,7.23l.85-.86a4.54,4.54,0,0,1-2.25-4.77l-.43.44,4-.92c.67-.15.54-1.29-.17-1.22a18.5,18.5,0,0,1-10.41-2v1.08a15.15,15.15,0,0,1,8.33-2.19.63.63,0,0,0,0-1.25,16.49,16.49,0,0,0-9,2.36.63.63,0,0,0,0,1.08,19.75,19.75,0,0,0,11,2.16l-.16-1.23-4,.92a.59.59,0,0,0-.43.43,5.8,5.8,0,0,0,2.82,6.18.63.63,0,0,0,.86-.85,12.68,12.68,0,0,1-1.34-6.6.62.62,0,0,0-.62-.62l-1.23-.06a.63.63,0,0,0-.44,1.07c1.67,2,2.68,5.16,1.2,7.58-1.16,1.91-4.07,2.91-5.94,1.45v.88a21.34,21.34,0,0,1,8.63-5.1.63.63,0,0,0-.16-1.23c-3.66-.2-8-.37-10.91,2.32-2.12,2-3.18,5.43-1.35,7.94.29.38,1,.43,1.15-.15l1.08-5.69h-1.2a81.17,81.17,0,0,1,.67,17.62h1.25a28.9,28.9,0,0,0-6.72-18.63c-.38-.44-1,0-1.07.45l-1.29,19.89c0,.82,1.16.78,1.25,0l3.24-29.24-1.22.17A64,64,0,0,1,112,201.39l.77-.43a2.19,2.19,0,0,1-1.25-3c.34-.72-.68-1.34-1.08-.63-2.44,4.33,4.39,8,7.11,9.95l15.06,10.86c.57.41,1.29-.52.75-1A53.93,53.93,0,0,0,112.07,206a.64.64,0,0,0-.8.6l.21,9.18a.63.63,0,0,0,1.25,0,19.14,19.14,0,0,0-2.13-8.9.63.63,0,0,0-1.08,0l-5.22,11.89c-.31.72.69,1.35,1.08.63A33.6,33.6,0,0,0,109.46,204a.63.63,0,0,0-1.25,0Z" transform="translate(-27.12 -22.65)"/><path class="cls-2" d="M105.08,184.27a3.78,3.78,0,0,0-1.22-4.55,3.82,3.82,0,0,0-4.91.14,4.88,4.88,0,0,0-1.62,5,6.17,6.17,0,0,0,3.73,4,8.71,8.71,0,0,0,7.26-.77c.71-.39.08-1.47-.63-1.08-2.83,1.53-6.9,1.66-8.72-1.46a3.67,3.67,0,0,1,.07-4,2.89,2.89,0,0,1,3.41-1.3,2.67,2.67,0,0,1,1.55,3.34c-.35.72.73,1.35,1.08.63Z" transform="translate(-27.12 -22.65)"/><path class="cls-2" d="M108,175.76l-3.39-5.38-.37.92a17.33,17.33,0,0,1,7.94-.3.64.64,0,0,0,.77-.77,9.48,9.48,0,0,0-4.59-6.76l-.63,1.07a2.32,2.32,0,0,1,.55,3.62c-1.31,1.34-3.71.15-4.21-1.41-.62-1.89.93-3.91,2.73-4.37a5.3,5.3,0,0,1,5.17,1.89,8.22,8.22,0,0,1,1.75,5.44c-.06,1.33-.9,3.86-2.7,3.29-1.32-.42-1.9-2.29-2.69-3.3a6,6,0,0,0-3.52-2.13c-3.49-.75-6.7.82-10,1.51a12.77,12.77,0,0,1-6.31-.56,8,8,0,0,0-4.77-.25c-2.17.76-4.2,3.45-2.21,5.51,1.74,1.81,4.76,1,6.51-.33,1.53-1.15,2.88-2.85,4.82-3.31,2.31-.54,4.63.52,6.94.57a5,5,0,0,0,4.33-1.8,3.33,3.33,0,0,0,.23-3.85.64.64,0,0,0-.71-.29l-12.92,4.72c-.75.28-.43,1.48.33,1.21L104,166l-.71-.28a2.15,2.15,0,0,1-.28,2.65,4.07,4.07,0,0,1-3.41,1.11c-2.14-.09-4.22-.94-6.39-.64-3.57.5-5.37,4.81-9,4.74-2.26,0-2.86-2.32-1-3.61s4.22-.41,6.26.14a12.07,12.07,0,0,0,5.94.16c2-.44,4-1.26,6-1.53,1.88-.24,4.07-.11,5.53,1.25,1.13,1.06,1.54,2.7,2.76,3.68,2.57,2.07,4.92-.83,5.26-3.3.45-3.21-1.14-7-4.06-8.56s-6.46-.75-7.78,2.33,1.49,6.81,4.88,5.69c2.7-.89,3-5.12.41-6.33-.72-.34-1.34.66-.63,1.07a8.34,8.34,0,0,1,4,6l.77-.77a18.94,18.94,0,0,0-8.6.31.63.63,0,0,0-.38.91l3.4,5.38c.42.68,1.51.06,1.07-.63Z" transform="translate(-27.12 -22.65)"/><path class="cls-2" d="M149.35,202.34c3.87,6.86,8,14,14.75,18.45,5.87,3.82,13.58,5.1,19.65,1a12.73,12.73,0,0,0,5.66-8.56c.12-.79-1.08-1.13-1.2-.33a12,12,0,0,1-6.94,8.87,15.47,15.47,0,0,1-12.32.14c-9-3.44-14-12.23-18.52-20.19a.63.63,0,0,0-1.08.64Z" transform="translate(-27.12 -22.65)"/><path class="cls-2" d="M148.33,203.74a78.29,78.29,0,0,0,32.47,15.47c2.6.56,5.67,1.19,7.94-.63a3.88,3.88,0,0,0,.76-5.53c-1.66-2.15-4.7-3.09-7.1-4.11q-4.35-1.86-8.83-3.45a155.42,155.42,0,0,0-22-6c-.79-.15-1.12,1.05-.33,1.21a152.2,152.2,0,0,1,33.53,10.65c2,.89,5.65,2.75,4,5.46s-5.85,1.61-8.41,1a76.52,76.52,0,0,1-15.43-5.25,77.29,77.29,0,0,1-15.65-9.71c-.63-.5-1.52.38-.89.88Z" transform="translate(-27.12 -22.65)"/><path class="cls-2" d="M187.84,214.91a12.81,12.81,0,0,0-4.4,13.29c1.32,5.24,5.82,9.18,10.79,10.92s11.26,1.38,13.9-3.7c2.42-4.64.76-10.47-1.46-14.85-2.82-5.55-8.78-11.09-15.47-8.39l.79.6a19,19,0,0,1,15.08-18.66l-.48-1.15a33.57,33.57,0,0,0-14.83,16.85c-.25.62.62,1,1,.6a30.42,30.42,0,0,1,17.29-7.7v-1.25A40.51,40.51,0,0,0,191,208.75l.86.23c-2-3.55-4-7.11-6-10.65-1.13-2-3.22-4.63-5.83-3.2-3.16,1.74.41,5.71,1.64,7.43l7.07,9.95c.46.65,1.55,0,1.08-.63l-5.38-7.56-2.69-3.78c-.7-1-2.76-3.33-1.09-4.33,2.54-1.52,4.58,3.58,5.44,5.1l4.67,8.3a.62.62,0,0,0,.85.22,39.15,39.15,0,0,1,18.45-7.11c.79-.08.81-1.33,0-1.25a31.71,31.71,0,0,0-18.17,8.07l1,.61a32.28,32.28,0,0,1,14.26-16.1c.65-.36.18-1.27-.48-1.14a20.25,20.25,0,0,0-16,19.87.63.63,0,0,0,.8.6c5.33-2.15,10.38,1.64,13.06,6,2.33,3.83,4.21,8.83,3.17,13.37-1.22,5.31-6.64,6.79-11.44,5.65a16.18,16.18,0,0,1-10.9-8.4c-2.21-4.67-1.19-10.86,3-14,.63-.48,0-1.57-.63-1.08Z" transform="translate(-27.12 -22.65)"/><path class="cls-2" d="M168.21,208.73a37.23,37.23,0,0,1,16.64,1.46l-.15-1.14a17.94,17.94,0,0,1-17.45.14l-.14,1.14a19.57,19.57,0,0,1,16.94,3.48l.13-1a16.81,16.81,0,0,1-16,.16,15.7,15.7,0,0,1-3.33-2.33c-1-1-1.85-2.11-2.81-3.14a22.77,22.77,0,0,0-7.6-5.34c-.43-.19-1.13.14-.91.71a10.58,10.58,0,0,0,4.88,5.65c.71.39,1.34-.69.63-1.08a9.28,9.28,0,0,1-4.31-4.9l-.92.7a21.89,21.89,0,0,1,8.27,6.2,17.48,17.48,0,0,0,6.7,5.19,18,18,0,0,0,16-.74.63.63,0,0,0,.13-1,21,21,0,0,0-18.17-3.81.64.64,0,0,0-.15,1.15,19.17,19.17,0,0,0,18.71-.15.63.63,0,0,0-.15-1.14,38.56,38.56,0,0,0-17.3-1.45c-.79.11-.46,1.31.33,1.2Z" transform="translate(-27.12 -22.65)"/><path class="cls-2" d="M211.15,226.83c-3.67,5.73-6.22,13.31-5,20.17.47,2.65,1.68,5.39,4,6.86a7.25,7.25,0,0,0,7.89-.4c5.68-3.82,6.62-11.72,4.22-17.71a21.25,21.25,0,0,0-6.27-8.08c-2.75-2.36-5.92-4.53-7.87-7.66a12.29,12.29,0,0,1-1.93-5.42,7.91,7.91,0,0,1,.2-2.7c.15-.53.72-2.31,1.37-2.51.8-.26.91,1.19,1,1.68l.46,1.89.86,3.54,1.78,7.33a.63.63,0,0,0,1.14.15l4.81-11.05-1.14-.15A13.08,13.08,0,0,1,212,224.64c-.62.51.26,1.39.88.89a14.33,14.33,0,0,0,5.07-13.09.63.63,0,0,0-1.15-.15L212,223.34l1.14.15-3-12.53c-.25-1.05-.39-3.15-1.88-3.13-1.25,0-2.15,1.64-2.59,2.64-2.7,6.13,2.39,12.1,6.74,15.76,2.71,2.27,5.64,4.46,7.53,7.51a16,16,0,0,1,2.22,10.88,11.2,11.2,0,0,1-5.41,8.21,5.89,5.89,0,0,1-8.11-2.49c-1.79-3.19-1.66-7.14-1.09-10.63a32.68,32.68,0,0,1,4.75-12.25c.43-.68-.65-1.3-1.08-.63Z" transform="translate(-27.12 -22.65)"/><path class="cls-2" d="M79.05,204.16c-7.67-1.28-16.68,1.2-19.37,9.32s4.38,14.53,11.74,16a35.46,35.46,0,0,0,13-.13c3.91-.72,7.87-2.27,10.68-5.17a13.09,13.09,0,0,0,3.87-9.64A10.86,10.86,0,0,0,93.38,206c-4.32-2.61-9.51-2.63-14.4-2.37a1.85,1.85,0,0,1-1.85-.61l-1.56-1.6-3.12-3.19-6.24-6.37-.76,1A46.06,46.06,0,0,1,78.3,205.45a.63.63,0,0,0,1.14-.48,16.57,16.57,0,0,1,1.82-12.48l-1.17-.32L79.71,200a.63.63,0,0,0,.79.6l11.33-3.14-.49-1.14a38,38,0,0,0-11.88,8.26c-.56.58.32,1.46.88.88A37.19,37.19,0,0,1,92,197.4c.66-.29.19-1.33-.48-1.14l-11.32,3.13L81,200l.38-7.83a.63.63,0,0,0-1.16-.31,17.91,17.91,0,0,0-1.94,13.44l1.14-.48a47.67,47.67,0,0,0-13.3-13.1c-.6-.39-1.25.49-.76,1l9.36,9.57c.74.75,1.45,1.61,2.26,2.3.65.56,1.45.3,2.28.26a43.39,43.39,0,0,1,6.45,0c3.73.36,7.57,1.7,10,4.68a9.43,9.43,0,0,1,1,10c-3.24,7.22-11.76,9.05-18.92,9.17-4,.07-8.22-.43-11.71-2.55-3-1.82-5.45-4.88-5.71-8.48a11.61,11.61,0,0,1,5.46-10.15c3.79-2.45,8.53-2.86,12.89-2.13.79.13,1.13-1.08.33-1.21Z" transform="translate(-27.12 -22.65)"/><path class="cls-2" d="M49.64,225.58a8.38,8.38,0,0,1,6.64-9c4.17-.8,8.17,2.46,9.21,6.39,1.15,4.3-1.83,8-4,11.43a20.28,20.28,0,0,0-3.33,12.25c.27,5.28,2,10.36,3.86,15.28l1.14-.49c-2.14-4-4.59-8.18-8.42-10.77a11.37,11.37,0,0,0-6-2c-2.87-.12-5.89.81-8.57-.65-2.17-1.19-3.57-3.4-4.66-5.54a48.57,48.57,0,0,1-3.27-8.14c-1.52-5.09-1.56-11.21,2.67-15.06a6.9,6.9,0,0,1,7.33-1.52c2.46,1,4.55,3.4,4,6.18h1.21c-1.49-10.57-2.9-23.65,6.27-31.34l-1-.28A19.43,19.43,0,0,1,50,206.71c-.4.61.47,1.23,1,.76l7.38-6.86-.88-.88a16.83,16.83,0,0,0-4.92,8.59.63.63,0,0,0,.77.77L64.94,206l-.48-1.14a56.82,56.82,0,0,0-15.25,15l1.14.15-4.21-13.86c-.71-2.33-1.38-4.68-2.12-7a12,12,0,0,0-2-4,4.21,4.21,0,0,0-6.87.12c-2.41,3.2-.61,7.1,1,10.18l.54-.94L32.6,204c-.64-.07-.83.88-.32,1.16a26.9,26.9,0,0,1,12.55,15.7.63.63,0,0,0,1.21-.33A28.17,28.17,0,0,0,32.91,204.1l-.31,1.16,4.17.48a.63.63,0,0,0,.54-.94c-1.49-2.76-3.48-6.8-.59-9.4s5.13,1.24,5.93,3.58c2.42,7,4.34,14.24,6.49,21.33a.64.64,0,0,0,1.15.15A55.22,55.22,0,0,1,65.09,206a.63.63,0,0,0-.48-1.14L53,207.88l.77.77a15.62,15.62,0,0,1,4.59-8c.59-.55-.29-1.43-.88-.88l-7.38,6.85,1,.76A20.71,20.71,0,0,0,54,192a.63.63,0,0,0-1-.27c-9.54,8-8.14,21.56-6.6,32.55.09.6,1.1.58,1.21,0,.83-4.64-3.77-8.53-8.21-8.26-5.13.31-8.48,5.44-9.14,10.1a20.94,20.94,0,0,0,1.16,9.44,50,50,0,0,0,3.45,8.2,12.47,12.47,0,0,0,5.08,5.5c2.93,1.44,6,.48,9.12.68,6.53.42,10.34,7,13.1,12.15.33.61,1.39.19,1.15-.49-1.9-5.12-3.81-10.48-3.85-16a17.74,17.74,0,0,1,1.82-8.22c1.06-2.07,2.48-3.92,3.66-5.92,2.21-3.73,3-8,.48-11.77-2.21-3.31-6.3-5.31-10.24-4.09a9.66,9.66,0,0,0-6.68,10.32c.12.8,1.32.46,1.21-.33Z" transform="translate(-27.12 -22.65)"/><path class="cls-2" d="M281.55,224.47c-1,5.63,2.36,10.86,7,13.85,5.59,3.63,12.71,3.62,19.12,3.28,15.56-.81,31.11-1.88,46.66-2.82l11.94-.73c1.74-.1,3.5-.15,5.23-.33a4.33,4.33,0,0,0,3.11-1.41c1.64-2,1-5.36.69-7.69a20.88,20.88,0,0,0-2.2-7.79c-3.25-5.75-9.74-5.5-15.49-4.79L334.3,219l-53,6.6c-.79.1-.8,1.35,0,1.25l43.6-5.43,21.31-2.66,10.9-1.36c3.08-.38,6.35-.9,9.41-.12,6.09,1.56,7.29,8.14,7.73,13.54a10.73,10.73,0,0,1-.08,3.62c-.55,2-2.39,2.08-4.18,2.19l-10.69.65-43.5,2.63c-7.37.45-15.35,1.64-22.51-.69-5.94-1.92-11.71-7.64-10.52-14.37.14-.78-1.06-1.12-1.2-.33Z" transform="translate(-27.12 -22.65)"/><path class="cls-2" d="M302.66,233c2.75,3.22,7.51,2.17,10.8.44,2.21-1.16,4.14-2.79,6.37-3.93a10.24,10.24,0,0,1,3.74-1.19,12.21,12.21,0,0,1,4.26.82c5.36,1.46,8-4.15,12.52-5.58a4,4,0,0,1,3.65.4c.92.65,1.63,1.58,2.6,2.18,1.77,1.08,3,.11,4.15-1.25,2.24-2.65,3.76,3,5.73,3.62,1.58.53,3.64-1,2.71-2.71a.63.63,0,0,0-1.08.63c.47.83-1.08,1-1.47.78a3.78,3.78,0,0,1-1.19-1.38,7.86,7.86,0,0,0-1.77-2.31c-1.5-1.15-2.91-.63-4,.72-.69.85-1.34,1.47-2.44.82A24.49,24.49,0,0,1,345,223.1a5.28,5.28,0,0,0-5.13-.72c-4,1.39-7,6.79-11.67,5.53-2.19-.59-4-1.18-6.26-.58a20,20,0,0,0-5.85,3c-3.33,2.19-9.1,5.77-12.51,1.77-.52-.61-1.4.28-.88.89Z" transform="translate(-27.12 -22.65)"/><path class="cls-2" d="M298.3,221.88l-18.18-17.77-.61,1a20.6,20.6,0,0,1,10.8,8.57l.86-.85a7.59,7.59,0,0,1-3.88-6.46l-.94.53a16.78,16.78,0,0,1,9.36,10.95l1.14-.49-7.72-18c-.62-1.42-1.76-3.32-1.29-4.93.37-1.28,2.51-2.16,2.5-.33a1.72,1.72,0,0,1-1.87,1.84c-1.58-.2-2.48-1.86-2.75-3.27l-.77.77a14.59,14.59,0,0,0,7.76.85.63.63,0,0,0,.38-.92c-1.07-1.86-2.49-4.36-1.23-6.5a2.25,2.25,0,0,1,2.6-1.06c1.31.45,1.15,2.74-.34,2.47l.38.92a3.79,3.79,0,0,1,3.4-1.8l-.44-1.06L290.75,195l1,.61c.73-2.07,3.6-1.63,4.86-.41,1.56,1.52,2,3.91,2.57,5.94,1.31,4.86,2.41,9.78,3.34,14.73l1-.61a46.26,46.26,0,0,1-7.48-12l-1.08.63,7.58,15.48c.36.72,1.44.09,1.08-.63l-7.58-15.48c-.36-.74-1.39-.09-1.08.63a47.41,47.41,0,0,0,7.68,12.27c.44.51,1.15-.05,1-.61-.61-3.3-1.31-6.59-2.09-9.85a57.3,57.3,0,0,0-2.42-8.66c-.82-2-2.24-3.8-4.48-4.07a3.74,3.74,0,0,0-4.18,2.32c-.2.56.65,1.1,1,.61l6.71-8.56a.64.64,0,0,0-.44-1.07,5.07,5.07,0,0,0-4.48,2.42.63.63,0,0,0,.37.92,2.49,2.49,0,0,0,2.87-2.33,2.68,2.68,0,0,0-2.94-2.7,3.75,3.75,0,0,0-3.44,3.1c-.52,2.33.61,4.48,1.73,6.45l.37-.92a13.37,13.37,0,0,1-7.1-.86c-.48-.19-.85.36-.77.77.44,2.24,2.65,5.08,5.25,4a3.16,3.16,0,0,0,1.4-4.43c-1.53-2.17-4.37,0-4.62,2-.21,1.66.58,3.23,1.22,4.71l2.41,5.61,5.6,13c.28.66,1.32.18,1.14-.49A17.9,17.9,0,0,0,287,205.87a.63.63,0,0,0-.94.54,8.9,8.9,0,0,0,4.49,7.54.63.63,0,0,0,.86-.86A21.89,21.89,0,0,0,279.84,204a.63.63,0,0,0-.61,1l18.19,17.78c.57.56,1.46-.33.88-.89Z" transform="translate(-27.12 -22.65)"/><path class="cls-2" d="M318.38,212.52l7.9-22c.28-.76-.93-1.09-1.2-.34l-7.91,22c-.27.76.94,1.08,1.21.33Z" transform="translate(-27.12 -22.65)"/><path class="cls-2" d="M309.22,204l-6.06-11.26c-.39-.71-1.47-.08-1.08.63l6.06,11.26c.38.71,1.46.08,1.08-.63Z" transform="translate(-27.12 -22.65)"/><path class="cls-2" d="M310.6,200l5.27-3.58-.94-.54A79.49,79.49,0,0,0,316.05,222l1-.61A38.33,38.33,0,0,1,306,202.33c-.19-.78-1.4-.45-1.21.34a39.65,39.65,0,0,0,11.47,19.61.63.63,0,0,0,1-.61,78.85,78.85,0,0,1-1.07-25.82.63.63,0,0,0-.94-.54L310,198.89c-.66.45,0,1.54.63,1.08Z" transform="translate(-27.12 -22.65)"/><path class="cls-2" d="M310,196.25c6-1,8.48-9.91,3.27-13.48a8.39,8.39,0,0,0-8.2-.49,6.78,6.78,0,0,0-3.67,7.18c.45,3.22,2.88,6.29,6.2,6.81.79.12,1.13-1.09.33-1.21-4.95-.76-7.53-8.19-3-11.22a7.12,7.12,0,0,1,6.88-.5,5.57,5.57,0,0,1,3.11,5.9,6.68,6.68,0,0,1-5.2,5.81c-.8.13-.46,1.34.33,1.2Z" transform="translate(-27.12 -22.65)"/><path class="cls-2" d="M333.18,185.21c-4.39,4-1.43,12.65,4.86,12.08a7.6,7.6,0,0,0,6.51-5c1-3.27-.9-6.61-3.47-8.54-3.77-2.84-8.76-2.69-13.25-2.51-.8,0-.8,1.28,0,1.25,3.5-.14,7.25-.34,10.54,1.11,2.63,1.15,5.11,3.64,5.21,6.66a5.9,5.9,0,0,1-4.32,5.56,5.07,5.07,0,0,1-6.15-2.39,6.09,6.09,0,0,1,1-7.3c.59-.54-.29-1.42-.89-.88Z" transform="translate(-27.12 -22.65)"/><path class="cls-2" d="M331.12,197.81a29.14,29.14,0,0,1,6.06,18.54.63.63,0,0,0,1.25,0A30.45,30.45,0,0,0,332,196.93c-.49-.64-1.37.25-.88.88Z" transform="translate(-27.12 -22.65)"/><path class="cls-2" d="M343,194.4l-.66,23.28c0,.8,1.22.8,1.25,0l.66-23.28a.63.63,0,0,0-1.25,0Z" transform="translate(-27.12 -22.65)"/><path class="cls-2" d="M342.94,208a45.71,45.71,0,0,1,10.55-15.17c.58-.55-.3-1.44-.89-.88a46.65,46.65,0,0,0-10.74,15.42c-.31.73.77,1.37,1.08.63Z" transform="translate(-27.12 -22.65)"/><path class="cls-2" d="M345.65,209.39a76.29,76.29,0,0,0,9.94-18.83c.27-.76-.94-1.08-1.21-.33a74.82,74.82,0,0,1-9.81,18.53c-.47.65.62,1.27,1.08.63Z" transform="translate(-27.12 -22.65)"/><path class="cls-2" d="M332.84,208.11a68,68,0,0,0-10.49-16.77c-.43-.51-1.18,0-1.05.6a41.52,41.52,0,0,0,12.06,20.81c.59.55,1.48-.33.89-.88a40.32,40.32,0,0,1-11.74-20.26l-1.05.61a66.53,66.53,0,0,1,10.3,16.52c.32.74,1.4.1,1.08-.63Z" transform="translate(-27.12 -22.65)"/><path class="cls-2" d="M352.86,192.58a4.13,4.13,0,0,1,.68-6.35l-.92-.37,1.31,4a.63.63,0,0,0,.76.44l4.95-2.06-.7-.92a20.13,20.13,0,0,1-10.09,7c-.77.23-.44,1.44.33,1.2A21.44,21.44,0,0,0,360,188a.63.63,0,0,0-.71-.92l-4.95,2.06.77.44-1.31-4a.62.62,0,0,0-.91-.37,5.4,5.4,0,0,0-.94,8.32c.59.55,1.48-.34.89-.89Z" transform="translate(-27.12 -22.65)"/><path class="cls-2" d="M320.47,190.83c-1.34-1.45-3.13-3.45-2.15-5.57a1.55,1.55,0,0,1,1.88-1c.64.25,1.26,1,.83,1.67s.52,1.31,1,.76c1.09-1.3,3.05.15,3.41,1.42a3.94,3.94,0,0,1-.61,2.88,14.74,14.74,0,0,1-2.24,2.74c-.56.57.32,1.46.88.88,1.77-1.82,4.22-4.59,3-7.33-.84-1.87-3.72-3.36-5.31-1.48l1,.76a2.35,2.35,0,0,0-.91-3.18,2.59,2.59,0,0,0-3.42.47,4.22,4.22,0,0,0-.85,3.76,9.86,9.86,0,0,0,2.65,4.11c.55.6,1.43-.29.89-.88Z" transform="translate(-27.12 -22.65)"/><path class="cls-2" d="M302,192.55c-1.81-.71-3.71-.24-5.56,0a5.25,5.25,0,0,1-3.87-.77,1.76,1.76,0,0,1-.05-2.85,3.21,3.21,0,0,1,3.5-.3c1.61.86,2.58,2.53,3.47,4l.54-.94a2.17,2.17,0,0,1-2-.87l-.54.94a2.93,2.93,0,0,1,3.14,2.13.63.63,0,0,0,1.21-.33,4.2,4.2,0,0,0-4.35-3c-.42,0-.84.52-.54.94A3.43,3.43,0,0,0,300,193a.63.63,0,0,0,.54-.94,11.69,11.69,0,0,0-3.65-4.33,4.52,4.52,0,0,0-4.63-.13,3.09,3.09,0,0,0-1.53,3.82c.61,1.52,2.3,2.23,3.83,2.42,2.36.29,4.77-.94,7.07,0,.75.3,1.08-.91.34-1.2Z" transform="translate(-27.12 -22.65)"/><path class="cls-2" d="M365.51,183.65a10,10,0,0,0-3.59,9.74,9,9,0,0,0,7.43,6.87,8.09,8.09,0,0,0,8.64-4.59,7.92,7.92,0,0,0-2-9.62c-4.07-3.45-9.6-3-14.48-1.92-.78.17-.45,1.38.34,1.21,3.91-.87,8.3-1.43,11.93.67,2.83,1.64,4.5,4.65,3.59,7.9a7,7,0,0,1-6.74,5.22,7.89,7.89,0,0,1-7.16-5,8.68,8.68,0,0,1,3-9.59c.63-.5-.26-1.37-.89-.89Z" transform="translate(-27.12 -22.65)"/><path class="cls-2" d="M361.84,199.73l-.67,14.63c0,.81,1.21.8,1.25,0l.67-14.63c0-.8-1.21-.8-1.25,0Z" transform="translate(-27.12 -22.65)"/><path class="cls-2" d="M372.18,199.48l-6.42,18c-.27.76.94,1.09,1.21.34l6.42-18c.27-.76-.94-1.09-1.21-.34Z" transform="translate(-27.12 -22.65)"/><path class="cls-2" d="M369.73,209l17.81-15.36c.61-.53-.28-1.41-.89-.89l-17.81,15.36c-.61.53.28,1.41.89.89Z" transform="translate(-27.12 -22.65)"/><path class="cls-2" d="M369.83,211.59a25.16,25.16,0,0,0,18.38-13.52c.35-.72-.72-1.36-1.08-.64a24,24,0,0,1-17.63,13c-.79.12-.46,1.33.33,1.2Z" transform="translate(-27.12 -22.65)"/><path class="cls-2" d="M359.92,209.73a25.2,25.2,0,0,0-4.44-16.9c-.46-.65-1.55,0-1.08.63a24.15,24.15,0,0,1,4.27,16.27c-.08.8,1.17.79,1.25,0Z" transform="translate(-27.12 -22.65)"/><path class="cls-2" d="M358.41,215.48l-6-16.61c-.27-.75-1.48-.43-1.2.33l6,16.61c.27.75,1.48.43,1.2-.33Z" transform="translate(-27.12 -22.65)"/><path class="cls-2" d="M385.4,197.31l4.6-6.81-1.14-.48a9.06,9.06,0,0,1-2.88,5.44.63.63,0,0,0,.27,1l3.51.63-.27-1-2.28,2a.63.63,0,0,0,.12,1l5.15,2.7v-1.08a12,12,0,0,1-7.34,1.09c-.79-.13-1.12,1.08-.33,1.21a13.52,13.52,0,0,0,8.3-1.22.63.63,0,0,0,0-1.08L388,198l.13,1,2.28-2a.62.62,0,0,0-.27-1l-3.51-.64.27,1a10.18,10.18,0,0,0,3.21-6,.63.63,0,0,0-1.15-.48l-4.6,6.81c-.45.66.63,1.29,1.08.63Z" transform="translate(-27.12 -22.65)"/><path class="cls-2" d="M354.31,192.91l-2-6.93a.63.63,0,0,0-1.2,0,11.05,11.05,0,0,1-3.76,5,.65.65,0,0,0-.29.71l1.09,3c.27.75,1.48.42,1.2-.33l-1.08-3-.29.7a12.39,12.39,0,0,0,4.33-5.76h-1.2l2,6.93a.62.62,0,0,0,1.2-.33Z" transform="translate(-27.12 -22.65)"/><path class="cls-2" d="M267.84,190.88a16.3,16.3,0,0,0,.8,9.93,8.69,8.69,0,0,0,6.49,5.09,7.1,7.1,0,0,0,7.05-2.56c1.85-2.64,1-6.21-.8-8.62-2.47-3.26-6.65-4.46-10.42-5.5a.63.63,0,0,0-.34,1.21c3,.83,6.33,1.71,8.71,3.89,2,1.8,3.35,4.84,2.28,7.46-.91,2.26-3.39,3.13-5.66,3a7.31,7.31,0,0,1-5.87-3.85c-1.62-2.91-1.66-6.49-1-9.68.16-.78-1.05-1.12-1.2-.33Z" transform="translate(-27.12 -22.65)"/><path class="cls-2" d="M281.21,213.86l-14.87-.51.17,1.23a16.33,16.33,0,0,1,10.56,1v-1.08l-9.4,4.55a.63.63,0,0,0,.32,1.17l11.16-.9,2.85-.23a3.63,3.63,0,0,0,1.94-.6l4.91-2.91a.63.63,0,0,0-.63-1.08l-4.53,2.69c-1.55.91-3.43.79-5.19.93L268,219l.31,1.16,9.4-4.55a.63.63,0,0,0,0-1.08,17.84,17.84,0,0,0-11.52-1.12.63.63,0,0,0,.16,1.23l14.87.51c.81,0,.81-1.22,0-1.25Z" transform="translate(-27.12 -22.65)"/><path class="cls-2" d="M281.38,209.64l6.65-1.33a.64.64,0,0,0,.44-.77.65.65,0,0,0-.77-.44l-6.65,1.33a.63.63,0,1,0,.33,1.21Z" transform="translate(-27.12 -22.65)"/></svg>