<?xml version="1.0" encoding="utf-8"?>
<!-- Generator: Adobe Illustrator 24.3.0, SVG Export Plug-In . SVG Version: 6.00 Build 0)  -->
<svg version="1.1" id="Layer_1" xmlns="http://www.w3.org/2000/svg" xmlns:xlink="http://www.w3.org/1999/xlink" x="0px" y="0px"
	 viewBox="0 0 48.7 44.6" style="enable-background:new 0 0 48.7 44.6;" xml:space="preserve">
<style type="text/css">
	.st0{enable-background:new    ;}
	.st1{fill:#CD3927;}
</style>
<g class="st0">
	<path class="st1" d="M6.4,6.9h7.1L20.2,29H14l-2.5-10.7c-0.5-2.1-1.1-4.8-1.6-7H9.8c-0.5,2.2-1,4.9-1.6,7L5.7,29h-6L6.4,6.9z
		 M4.5,19.8h10.8v4.5H4.5V19.8z"/>
	<path class="st1" d="M21.5,24.2c0-3.5,2.7-5.5,9.2-6.2c-0.1-1.2-0.9-1.8-2.4-1.8c-1.2,0-2.5,0.5-4.3,1.4l-2-3.8
		c2.4-1.4,4.8-2.2,7.5-2.2c4.4,0,7.1,2.4,7.1,8V29h-4.8l-0.4-1.6h-0.1c-1.4,1.2-2.9,2-4.7,2C23.4,29.4,21.5,27,21.5,24.2z
		 M30.8,23.8v-2.3c-2.8,0.4-3.7,1.3-3.7,2.2c0,0.8,0.5,1.2,1.6,1.2C29.6,25,30.2,24.5,30.8,23.8z"/>
</g>
</svg>
