<?xml version="1.0" encoding="utf-8"?>
<!-- Generator: Adobe Illustrator 24.3.0, SVG Export Plug-In . SVG Version: 6.00 Build 0)  -->
<svg version="1.1" id="Layer_1" xmlns="http://www.w3.org/2000/svg" xmlns:xlink="http://www.w3.org/1999/xlink" x="0px" y="0px"
	 viewBox="0 0 48.7 44.6" style="enable-background:new 0 0 48.7 44.6;" xml:space="preserve">
<style type="text/css">
	.st0{enable-background:new    ;}
	.st1{fill:#CD3927;}
</style>
<g class="st0">
	<path class="st1" d="M7.7,6.7h3.2L18.4,29h-3l-3.9-12.5c-0.8-2.5-1.5-4.9-2.2-7.5H9.2c-0.7,2.6-1.4,5-2.2,7.5L3,29H0.1L7.7,6.7z
		 M4.1,20h10.3v2.3H4.1V20z"/>
	<path class="st1" d="M21.1,24.8c0-3.6,3.1-5.4,10.1-6.2c0-2.1-0.7-4.2-3.4-4.2c-1.9,0-3.6,0.9-4.9,1.8l-1.1-1.9
		c1.5-1,3.8-2.2,6.5-2.2c4,0,5.7,2.7,5.7,6.8V29h-2.3l-0.2-2h-0.1c-1.6,1.3-3.4,2.4-5.5,2.4C23.1,29.4,21.1,27.7,21.1,24.8z
		 M31.2,25v-4.6c-5.5,0.7-7.4,2-7.4,4.1c0,1.9,1.3,2.6,2.9,2.6C28.3,27.2,29.6,26.4,31.2,25z"/>
</g>
</svg>
