<?xml version="1.0" encoding="utf-8"?>
<!-- Generator: Adobe Illustrator 24.3.0, SVG Export Plug-In . SVG Version: 6.00 Build 0)  -->
<svg version="1.1" id="Layer_1" xmlns="http://www.w3.org/2000/svg" xmlns:xlink="http://www.w3.org/1999/xlink" x="0px" y="0px"
	 viewBox="0 0 197.9 59.9" style="enable-background:new 0 0 197.9 59.9;" xml:space="preserve">
<style type="text/css">
	.st0{fill:#2FB08F;}
</style>
<g>
	<path class="st0" d="M17.3,14.7H5.4v-3.8h28.3v3.8H21.8v29.8h-4.5V14.7z"/>
	<path class="st0" d="M44.4,10.9h2.9l14.4,33.6h-4.6l-4-9.4H38.4l-4,9.4H30L44.4,10.9z M51.6,31.5l-5.9-13.8l-5.9,13.8H51.6z"/>
	<path class="st0" d="M61.7,27.7c0-10.9,8.2-17.5,17.9-17.5c4.3,0,8.8,1.4,11.6,3.5v4.6c-2.7-2.5-6.4-4.4-11.6-4.4
		c-7.7,0-13.2,5.4-13.2,13.8c0,8.3,5.5,14,13.2,14c3.3,0,6.3-0.7,8.6-2v-7.6h-6.9v-3.8h11.4V42c-1.8,0.8-6.8,3.5-13,3.5
		C69.9,45.5,61.7,38.6,61.7,27.7z"/>
	<path class="st0" d="M99.7,10.9h4.5v29.8H120v3.8H99.7V10.9z"/>
	<path class="st0" d="M124,10.9h4.5v33.6H124V10.9z"/>
	<path class="st0" d="M135.5,10.9h2.6l20,25v-25h4.1v33.6h-2.6l-20-25v25h-4.1V10.9z"/>
	<path class="st0" d="M169.2,10.9h20.3v3.8h-15.8v10.2h13v3.8h-13v12.1h15.8v3.8h-20.3V10.9z"/>
</g>
</svg>
