<?xml version="1.0" encoding="utf-8"?>
<!-- Generator: Adobe Illustrator 24.3.0, SVG Export Plug-In . SVG Version: 6.00 Build 0)  -->
<svg version="1.1" id="Layer_1" xmlns="http://www.w3.org/2000/svg" xmlns:xlink="http://www.w3.org/1999/xlink" x="0px" y="0px"
	 viewBox="0 0 1407.6 611.6" style="enable-background:new 0 0 1407.6 611.6;" xml:space="preserve">
<style type="text/css">
	.st0{fill:#D6C277;}
	.st1{fill:#9B2735;}
	.st2{fill:#87232F;}
	.st3{fill:#48496A;}
	.st4{fill:none;}
	.st5{fill:#FFFEF1;}
	.st6{font-family:'Roboto-Regular';}
	.st7{font-size:30px;}
	.st8{font-family:'Roboto-Light';}
	.st9{font-size:17px;}
	.st10{font-size:16px;}
</style>
<rect class="st0" width="709.3" height="303"/>
<rect x="709.3" y="303" class="st1" width="698.3" height="308.2"/>
<rect x="709.3" class="st2" width="698.3" height="303"/>
<rect y="303" class="st3" width="709.3" height="308.2"/>
<rect x="377.2" y="74.3" class="st4" width="261.9" height="25.8"/>
<text transform="matrix(1 0 0 1 400.849 96.7812)" class="st5 st6 st7">Wine Enthusiast</text>
<rect x="813.3" y="74.3" class="st4" width="201.9" height="27.6"/>
<text transform="matrix(1 0 0 1 829.9135 96.7812)" class="st5 st6 st7">Wine Drinker</text>
<rect x="407.2" y="373" class="st4" width="201.9" height="27.6"/>
<text transform="matrix(1 0 0 1 436.1375 395.4567)" class="st5 st6 st7">Sommelier</text>
<rect x="725.5" y="365" class="st4" width="365.9" height="61.8"/>
<text transform="matrix(1 0 0 1 832.8632 387.4567)"><tspan x="0" y="0" class="st5 st6 st7">Savvy Wine </tspan><tspan x="6.8" y="36" class="st5 st6 st7">Consumer </tspan></text>
<rect x="414.2" y="135.2" class="st4" width="193.5" height="108.6"/>
<text transform="matrix(1 0 0 1 429.9588 147.9607)"><tspan x="0" y="0" class="st5 st8 st9">A person who is really </tspan><tspan x="-8.2" y="20.4" class="st5 st8 st9">into wine and who really </tspan><tspan x="-10.2" y="40.8" class="st5 st8 st9">loves talking about wine.</tspan></text>
<rect x="821.3" y="135.2" class="st4" width="193.5" height="107"/>
<text transform="matrix(1 0 0 1 854.2589 147.9608)"><tspan x="0" y="0" class="st5 st8 st9">Someone that no </tspan><tspan x="-27.8" y="20.4" class="st5 st8 st9">necessarily knows about </tspan><tspan x="-31.6" y="40.8" class="st5 st8 st9">wine. Enjoys a wide range </tspan><tspan x="11" y="61.2" class="st5 st8 st9">of wine styles.</tspan></text>
<rect x="816.3" y="464.4" class="st4" width="200.8" height="61"/>
<text transform="matrix(1 0 0 1 841.4908 476.3749)"><tspan x="0" y="0" class="st5 st8 st10">One who appreciates, </tspan><tspan x="-7" y="19.2" class="st5 st8 st10">enjoys, or collects wine; </tspan><tspan x="5.8" y="38.4" class="st5 st8 st10">a wine connoisseur.</tspan></text>
<rect x="407.2" y="433.4" class="st4" width="208.3" height="120.6"/>
<text transform="matrix(1 0 0 1 410.6324 445.3749)"><tspan x="0" y="0" class="st5 st8 st10">A trained and knowledgeable </tspan><tspan x="-1.7" y="19.2" class="st5 st8 st10">wine professional. Working in </tspan><tspan x="27.3" y="38.4" class="st5 st8 st10">fine restaurants, who </tspan><tspan x="5.6" y="57.6" class="st5 st8 st10">specializes in all aspects of </tspan><tspan x="3.1" y="76.8" class="st5 st8 st10">wine service as well as wine </tspan><tspan x="41.9" y="96" class="st5 st8 st10">and food pairing.</tspan></text>
</svg>
