<?xml version="1.0" encoding="utf-8"?>
<!-- Generator: Adobe Illustrator 24.3.0, SVG Export Plug-In . SVG Version: 6.00 Build 0)  -->
<svg version="1.1" id="Layer_1" xmlns="http://www.w3.org/2000/svg" xmlns:xlink="http://www.w3.org/1999/xlink" x="0px" y="0px"
	 viewBox="0 0 1061.5 637.1" style="enable-background:new 0 0 1061.5 637.1;" xml:space="preserve">
<style type="text/css">
	.st0{fill:#116C51;}
	.st1{fill:#116C51;stroke:#2FB08F;stroke-miterlimit:10;}
</style>
<g>
	<path class="st0" d="M344.2,91.8h-108c-7.8,0-14.2-6.4-14.2-14.2V72c0-7.8,6.4-14.2,14.2-14.2h108c7.8,0,14.2,6.4,14.2,14.2v5.7
		C358.4,85.4,352,91.8,344.2,91.8z M236.2,60.8c-6.2,0-11.2,5-11.2,11.2v5.7c0,6.2,5,11.2,11.2,11.2h108c6.2,0,11.2-5,11.2-11.2V72
		c0-6.2-5-11.2-11.2-11.2H236.2z"/>
</g>
<g>
	<path class="st0" d="M256.8,81.3c-2.4,0-4.1-0.9-5.1-1.8l0.7-2.3c1,0.9,2.5,1.9,4.4,1.9c1.4,0,2.5-0.7,2.5-2c0-1.2-0.7-1.8-3-2.4
		c-3-0.7-4.2-2.4-4.2-4.4c0-2.4,1.9-4.1,5-4.1c1.8,0,3.4,0.7,4.3,1.4l-0.6,2c-1-0.7-2.4-1.2-3.7-1.2c-1.4,0-2.3,0.6-2.3,1.7
		c0,0.8,0.5,1.5,2.5,2c3.4,0.8,4.8,2.3,4.8,4.8C262,80,259.5,81.3,256.8,81.3z"/>
	<path class="st0" d="M264.2,81V66.6h2.9V81H264.2z"/>
	<path class="st0" d="M277,81.4c-4.2,0-7.7-3-7.7-7.6s3.6-7.5,7.8-7.5c1.9,0,3.9,0.6,5.1,1.5v2.7c-1.2-1-2.7-1.8-4.8-1.8
		c-3,0-5.1,2-5.1,5.3c0,3.2,2,5.3,4.9,5.3c1.1,0,2-0.2,2.8-0.6v-2.8h-2.5v-2.2h5.4V80C282.1,80.4,279.8,81.4,277,81.4z"/>
	<path class="st0" d="M296,81l-7.5-9.5V81h-2.6V66.6h2l7.5,9.5v-9.5h2.6V81H296z"/>
	<path class="st0" d="M312.3,81.4c-3.8,0-6.6-2.2-6.6-7.1v-7.8h3v7.7c0,3.1,1.3,4.6,3.7,4.6s3.7-1.5,3.7-4.6v-7.7h2.9v7.8
		C318.9,79.3,316.1,81.4,312.3,81.4z"/>
	<path class="st0" d="M327.3,75.8h-2.5V81h-2.9V66.6h5.5c3.5,0,5,2.1,5,4.6C332.3,73.7,330.8,75.8,327.3,75.8z M326.9,68.7h-2.1v5
		h2.1c1.9,0,2.6-1.1,2.6-2.5C329.4,69.9,328.8,68.7,326.9,68.7z"/>
</g>
<g>
	<path class="st0" d="M804.6,90.8h-108c-7.3,0-13.2-5.9-13.2-13.2V72c0-7.3,5.9-13.2,13.2-13.2h108c7.3,0,13.2,5.9,13.2,13.2v5.7
		C817.7,84.9,811.8,90.8,804.6,90.8z M696.6,59.8c-6.7,0-12.2,5.5-12.2,12.2v5.7c0,6.7,5.5,12.2,12.2,12.2h108
		c6.7,0,12.2-5.5,12.2-12.2V72c0-6.7-5.5-12.2-12.2-12.2H696.6z"/>
</g>
<g>
	<path class="st0" d="M717.1,82.3c-2.4,0-4.1-0.9-5.1-1.8l0.7-2.3c1,0.9,2.5,1.9,4.4,1.9c1.4,0,2.5-0.7,2.5-2c0-1.2-0.7-1.8-3-2.4
		c-3-0.7-4.2-2.4-4.2-4.4c0-2.4,1.9-4.1,5-4.1c1.8,0,3.4,0.7,4.3,1.4l-0.6,2c-1-0.7-2.4-1.2-3.7-1.2c-1.4,0-2.3,0.6-2.3,1.7
		c0,0.8,0.5,1.5,2.5,2c3.4,0.8,4.8,2.3,4.8,4.8C722.4,81,719.8,82.3,717.1,82.3z"/>
	<path class="st0" d="M724.5,82V67.6h2.9V82H724.5z"/>
	<path class="st0" d="M737.4,82.5c-4.2,0-7.7-3-7.7-7.6s3.6-7.5,7.8-7.5c1.9,0,3.9,0.6,5.1,1.5v2.7c-1.2-1-2.7-1.8-4.8-1.8
		c-3,0-5.1,2-5.1,5.3c0,3.2,2,5.3,4.9,5.3c1.1,0,2-0.2,2.8-0.6v-2.8h-2.5v-2.2h5.4V81C742.5,81.4,740.2,82.5,737.4,82.5z"/>
	<path class="st0" d="M756.3,82l-7.5-9.5V82h-2.6V67.6h2l7.5,9.5v-9.5h2.6V82H756.3z"/>
	<path class="st0" d="M766,82V67.6h2.9V82H766z"/>
	<path class="st0" d="M782.1,82l-7.5-9.5V82h-2.6V67.6h2l7.5,9.5v-9.5h2.6V82H782.1z"/>
</g>
<g>
	<path class="st0" d="M377.1,620.4h-108c-7.8,0-14.2-6.4-14.2-14.2v-5.7c0-7.8,6.4-14.2,14.2-14.2h108c7.8,0,14.2,6.4,14.2,14.2v5.7
		C391.3,614,384.9,620.4,377.1,620.4z M269.2,589.4c-6.2,0-11.2,5-11.2,11.2v5.7c0,6.2,5,11.2,11.2,11.2h108c6.2,0,11.2-5,11.2-11.2
		v-5.7c0-6.2-5-11.2-11.2-11.2H269.2z"/>
</g>
<g>
	<path class="st0" d="M273.2,598.5v3.5h5.1v2.3h-5.1v6.4h-2.9v-14.4h9.2v2.3H273.2z"/>
	<path class="st0" d="M281.1,610.6v-14.4h9.4v2.3H284v3.4h5.3v2.3H284v4.2h6.5v2.3H281.1z"/>
	<path class="st0" d="M293,610.6v-14.4h9.4v2.3h-6.5v3.4h5.3v2.3h-5.3v4.2h6.5v2.3H293z"/>
	<path class="st0" d="M309.9,610.6h-5.1v-14.4h5.1c5.8,0,8.2,3.2,8.2,7.2C318.1,607.4,315.7,610.6,309.9,610.6z M309.8,598.6h-2v9.7
		h2c3.9,0,5.3-2,5.3-4.8C315.1,600.6,313.7,598.6,309.8,598.6z"/>
	<path class="st0" d="M330.9,610.6H325v-14.4h5.6c3.1,0,4.3,1.7,4.3,3.8c0,1.1-0.7,2.3-1.5,2.8c1.4,0.6,2.3,2.1,2.3,3.6
		C335.7,608.8,334.3,610.6,330.9,610.6z M328,602h2.2c1.5,0,2.1-0.8,2.1-1.9c0-1.1-0.6-1.9-2.1-1.9H328V602z M330.4,604.1H328v4.5
		h2.4c1.8,0,2.5-1,2.5-2.3C332.9,605,332.2,604.1,330.4,604.1z"/>
	<path class="st0" d="M348,610.6l-1.5-3.6h-5.8l-1.5,3.6h-2.8l6.1-14.4h2.3l6.1,14.4H348z M343.6,599.8l-2.1,5.2h4.2L343.6,599.8z"
		/>
	<path class="st0" d="M358.6,611c-4.2,0-7.7-2.9-7.7-7.5s3.6-7.5,7.7-7.5c1.9,0,3.8,0.6,5,1.5v2.7c-1.2-1-2.7-1.8-4.7-1.8
		c-2.9,0-5,1.9-5,5.2c0,3.2,2.1,5.2,5,5.2c2,0,3.6-0.8,4.7-1.8v2.7C362.4,610.4,360.5,611,358.6,611z"/>
	<path class="st0" d="M375.5,610.6l-5.5-6.2l-1.1,1.1v5.1H366v-14.4h2.9v6.4l6-6.4h3.2l-6.2,6.4l7.2,8H375.5z"/>
</g>
<g>
	<path class="st0" d="M837.5,620.4h-108c-7.8,0-14.2-6.4-14.2-14.2v-5.7c0-7.8,6.4-14.2,14.2-14.2h108c7.8,0,14.2,6.4,14.2,14.2v5.7
		C851.6,614,845.3,620.4,837.5,620.4z M729.5,589.4c-6.2,0-11.2,5-11.2,11.2v5.7c0,6.2,5,11.2,11.2,11.2h108c6.2,0,11.2-5,11.2-11.2
		v-5.7c0-6.2-5-11.2-11.2-11.2H729.5z"/>
</g>
<g>
	<path class="st0" d="M730.3,611c-4.2,0-7.7-2.9-7.7-7.5s3.6-7.5,7.7-7.5c1.9,0,3.8,0.6,5,1.5v2.7c-1.2-1-2.7-1.8-4.7-1.8
		c-2.9,0-5,1.9-5,5.2c0,3.2,2.1,5.2,5,5.2c2,0,3.6-0.8,4.7-1.8v2.7C734.1,610.4,732.2,611,730.3,611z"/>
	<path class="st0" d="M747.4,610.7v-6.4h-6.8v6.4h-2.9v-14.4h2.9v5.6h6.8v-5.6h2.9v14.4H747.4z"/>
	<path class="st0" d="M753.2,610.7v-14.4h9.4v2.3h-6.5v3.4h5.3v2.3h-5.3v4.2h6.5v2.3H753.2z"/>
	<path class="st0" d="M771.7,611c-4.2,0-7.7-2.9-7.7-7.5s3.6-7.5,7.7-7.5c1.9,0,3.8,0.6,5,1.5v2.7c-1.2-1-2.7-1.8-4.7-1.8
		c-2.9,0-5,1.9-5,5.2c0,3.2,2.1,5.2,5,5.2c2,0,3.6-0.8,4.7-1.8v2.7C775.5,610.4,773.6,611,771.7,611z"/>
	<path class="st0" d="M788.6,610.7l-5.5-6.2l-1.1,1.1v5.1h-2.9v-14.4h2.9v6.4l6-6.4h3.2l-6.2,6.4l7.2,8H788.6z"/>
	<path class="st0" d="M805.1,611.1c-4.4,0-7.8-3.2-7.8-7.6c0-4.4,3.4-7.6,7.8-7.6c4.4,0,7.8,3.2,7.8,7.6
		C812.9,607.9,809.5,611.1,805.1,611.1z M805.1,598.2c-2.9,0-4.8,2.2-4.8,5.3c0,3.1,1.9,5.3,4.8,5.3c2.8,0,4.7-2.2,4.7-5.3
		C809.8,600.3,808,598.2,805.1,598.2z"/>
	<path class="st0" d="M821.8,611.1c-3.8,0-6.6-2.2-6.6-7.1v-7.8h3v7.7c0,3.1,1.3,4.6,3.7,4.6s3.7-1.5,3.7-4.6v-7.7h2.9v7.8
		C828.4,608.9,825.6,611.1,821.8,611.1z"/>
	<path class="st0" d="M837.8,598.5v12.1h-2.9v-12.1H830v-2.3h12.7v2.3H837.8z"/>
</g>
<g>
	<path class="st0" d="M597.6,620.4h-108c-7.8,0-14.2-6.4-14.2-14.2v-5.7c0-7.8,6.4-14.2,14.2-14.2h108c7.8,0,14.2,6.4,14.2,14.2v5.7
		C611.8,614,605.4,620.4,597.6,620.4z M489.6,589.4c-6.2,0-11.2,5-11.2,11.2v5.7c0,6.2,5,11.2,11.2,11.2h108c6.2,0,11.2-5,11.2-11.2
		v-5.7c0-6.2-5-11.2-11.2-11.2H489.6z"/>
</g>
<g>
	<path class="st0" d="M530.6,610.6v-6.4h-6.8v6.4h-2.9v-14.4h2.9v5.6h6.8v-5.6h2.9v14.4H530.6z"/>
	<path class="st0" d="M536.4,610.6v-14.4h9.4v2.3h-6.5v3.4h5.3v2.3h-5.3v4.2h6.5v2.3H536.4z"/>
	<path class="st0" d="M548.3,610.6v-14.4h2.9v12.1h6.5v2.3H548.3z"/>
	<path class="st0" d="M564.8,605.4h-2.5v5.2h-2.9v-14.4h5.5c3.5,0,5,2.1,5,4.6C569.8,603.3,568.2,605.4,564.8,605.4z M564.3,598.3
		h-2.1v5h2.1c1.9,0,2.6-1.1,2.6-2.5C566.9,599.5,566.2,598.3,564.3,598.3z"/>
</g>
<g>
	<path class="st0" d="M289.3,249.8H167.5c-8.2,0-14.9-6.7-14.9-14.9v-4.2c0-8.2,6.7-14.9,14.9-14.9h121.8c8.2,0,14.9,6.7,14.9,14.9
		v4.2C304.2,243.1,297.5,249.8,289.3,249.8z M167.5,218.8c-6.5,0-11.9,5.3-11.9,11.9v4.2c0,6.5,5.3,11.9,11.9,11.9h121.8
		c6.5,0,11.9-5.3,11.9-11.9v-4.2c0-6.5-5.3-11.9-11.9-11.9H167.5z"/>
</g>
<g>
	<path class="st0" d="M179,239v-8.8c0-0.3,0.1-1.3,0.1-1.4l-0.5,1.4l-3.9,8.8h-1.8l-3.9-8.8c-0.1-0.3-0.5-1.2-0.5-1.4
		c0,0.1,0.1,1,0.1,1.4v8.8h-2.6v-14.4h3.1l4.8,10.5l4.7-10.5h3V239H179z"/>
	<path class="st0" d="M184.6,239v-14.4h9.4v2.3h-6.5v3.4h5.3v2.3h-5.3v4.2h6.5v2.3H184.6z"/>
	<path class="st0" d="M201.6,239h-5.1v-14.4h5.1c5.8,0,8.2,3.2,8.2,7.2C209.8,235.8,207.3,239,201.6,239z M201.4,227h-2v9.7h2
		c3.9,0,5.3-2,5.3-4.8C206.8,229,205.4,227,201.4,227z"/>
	<path class="st0" d="M212,239v-14.4h2.9V239H212z"/>
	<path class="st0" d="M224.3,226.9V239h-2.9v-12.1h-4.9v-2.3h12.7v2.3H224.3z"/>
	<path class="st0" d="M239.2,239l-1.5-3.6h-5.8l-1.5,3.6h-2.8l6.1-14.4h2.3l6.1,14.4H239.2z M234.8,228.2l-2.1,5.2h4.2L234.8,228.2z
		"/>
	<path class="st0" d="M248.3,226.9V239h-2.9v-12.1h-4.9v-2.3h12.7v2.3H248.3z"/>
	<path class="st0" d="M254.8,239v-14.4h2.9V239H254.8z"/>
	<path class="st0" d="M267.8,239.4c-4.4,0-7.8-3.2-7.8-7.6c0-4.4,3.4-7.6,7.8-7.6c4.4,0,7.8,3.2,7.8,7.6
		C275.6,236.2,272.2,239.4,267.8,239.4z M267.8,226.6c-2.9,0-4.8,2.2-4.8,5.3s1.9,5.3,4.8,5.3c2.8,0,4.7-2.2,4.7-5.3
		S270.6,226.6,267.8,226.6z"/>
	<path class="st0" d="M288,239l-7.5-9.5v9.5h-2.6v-14.4h2l7.5,9.5v-9.5h2.6V239H288z"/>
</g>
<g>
	<path class="st0" d="M213.7,362h-51.4c-5.6,0-10.1-4.5-10.1-10.1v-10.7c0-5.6,4.5-10.1,10.1-10.1h51.4c5.6,0,10.1,4.5,10.1,10.1
		v10.7C223.8,357.4,219.3,362,213.7,362z M162.3,334c-3.9,0-7.1,3.2-7.1,7.1v10.7c0,3.9,3.2,7.1,7.1,7.1h51.4c3.9,0,7.1-3.2,7.1-7.1
		v-10.7c0-3.9-3.2-7.1-7.1-7.1H162.3z"/>
</g>
<g>
	<path class="st0" d="M179.9,346.8h-1.2v2.4h-1.3v-6.6h2.5c1.6,0,2.3,1,2.3,2.1C182.1,345.9,181.4,346.8,179.9,346.8z M179.6,343.6
		h-0.9v2.3h0.9c0.9,0,1.2-0.5,1.2-1.1C180.8,344.1,180.5,343.6,179.6,343.6z"/>
	<path class="st0" d="M182.9,349.2v-6.6h1.3v5.6h3v1H182.9z"/>
	<path class="st0" d="M192.6,349.2l-0.7-1.6h-2.7l-0.7,1.6h-1.3l2.8-6.6h1l2.8,6.6H192.6z M190.6,344.3l-1,2.4h1.9L190.6,344.3z"/>
	<path class="st0" d="M196.8,346.6v2.6h-1.3v-2.6l-2.6-4h1.5l1.8,2.9l1.8-2.9h1.4L196.8,346.6z"/>
</g>
<g>
	<path class="st0" d="M584.5,361h-93.3c-6.5,0-11.7-5.3-11.7-11.7v-5.6c0-6.5,5.3-11.7,11.7-11.7h93.3c6.5,0,11.7,5.3,11.7,11.7v5.6
		C596.2,355.7,590.9,361,584.5,361z M491.2,333c-5.9,0-10.7,4.8-10.7,10.7v5.6c0,5.9,4.8,10.7,10.7,10.7h93.3
		c5.9,0,10.7-4.8,10.7-10.7v-5.6c0-5.9-4.8-10.7-10.7-10.7H491.2z"/>
</g>
<g>
	<path class="st0" d="M488.9,349.3c-1.1,0-1.9-0.4-2.3-0.8l0.3-1.1c0.4,0.4,1.1,0.9,2,0.9c0.7,0,1.2-0.3,1.2-0.9
		c0-0.5-0.3-0.8-1.4-1.1c-1.4-0.3-1.9-1.1-1.9-2c0-1.1,0.9-1.9,2.3-1.9c0.8,0,1.5,0.3,2,0.6l-0.3,0.9c-0.5-0.3-1.1-0.6-1.7-0.6
		c-0.6,0-1,0.3-1,0.8c0,0.4,0.2,0.7,1.1,0.9c1.5,0.4,2.2,1,2.2,2.2C491.3,348.7,490.1,349.3,488.9,349.3z"/>
	<path class="st0" d="M495.1,343.6v5.6h-1.3v-5.6h-2.2v-1h5.8v1H495.1z"/>
	<path class="st0" d="M501.9,349.2l-0.7-1.6h-2.7l-0.7,1.6h-1.3l2.8-6.6h1l2.8,6.6H501.9z M499.9,344.2l-1,2.4h1.9L499.9,344.2z"/>
	<path class="st0" d="M508.6,349.3c-0.8,0-1.5-0.3-1.9-1.3l-0.7-1.4h-0.8v2.6h-1.3v-6.6h2.6c1.6,0,2.2,0.9,2.2,2
		c0,0.9-0.5,1.7-1.5,1.9l0.6,1.1c0.3,0.6,0.6,0.8,1.1,0.8c0.1,0,0.2,0,0.4-0.1v0.8C509.2,349.2,508.9,349.3,508.6,349.3z
		 M505.3,345.6h1c0.8,0,1.1-0.4,1.1-1c0-0.6-0.3-1-1.1-1h-1V345.6z"/>
	<path class="st0" d="M512.7,343.6v5.6h-1.3v-5.6h-2.2v-1h5.8v1H512.7z"/>
	<path class="st0" d="M521,349.3c-1.9,0-3.5-1.3-3.5-3.4c0-2.1,1.6-3.4,3.5-3.4c0.9,0,1.7,0.3,2.3,0.7v1.2c-0.5-0.5-1.2-0.8-2.2-0.8
		c-1.3,0-2.3,0.9-2.3,2.4c0,1.5,1,2.4,2.3,2.4c0.9,0,1.6-0.4,2.2-0.8v1.2C522.8,349.1,521.9,349.3,521,349.3z"/>
	<path class="st0" d="M527.6,349.4c-2,0-3.6-1.5-3.6-3.5c0-2,1.6-3.5,3.6-3.5c2,0,3.6,1.5,3.6,3.5
		C531.1,347.9,529.6,349.4,527.6,349.4z M527.6,343.5c-1.3,0-2.2,1-2.2,2.4c0,1.4,0.9,2.4,2.2,2.4c1.3,0,2.2-1,2.2-2.4
		C529.7,344.5,528.9,343.5,527.6,343.5z"/>
	<path class="st0" d="M536.8,349.2l-3.5-4.4v4.4h-1.2v-6.6h0.9l3.5,4.4v-4.4h1.2v6.6H536.8z"/>
	<path class="st0" d="M542.3,349.2h-1l-2.8-6.6h1.4l2,4.7l1.9-4.7h1.3L542.3,349.2z"/>
	<path class="st0" d="M545.8,349.2v-6.6h4.3v1h-3v1.6h2.4v1h-2.4v1.9h3v1H545.8z"/>
	<path class="st0" d="M556,349.3c-0.8,0-1.5-0.3-1.9-1.3l-0.7-1.4h-0.8v2.6h-1.3v-6.6h2.6c1.6,0,2.2,0.9,2.2,2
		c0,0.9-0.5,1.7-1.5,1.9l0.6,1.1c0.3,0.6,0.6,0.8,1.1,0.8c0.1,0,0.2,0,0.4-0.1v0.8C556.5,349.2,556.2,349.3,556,349.3z M552.6,345.6
		h1c0.8,0,1.1-0.4,1.1-1c0-0.6-0.3-1-1.1-1h-1V345.6z"/>
	<path class="st0" d="M559.5,349.3c-1.1,0-1.9-0.4-2.3-0.8l0.3-1.1c0.4,0.4,1.1,0.9,2,0.9c0.7,0,1.2-0.3,1.2-0.9
		c0-0.5-0.3-0.8-1.4-1.1c-1.4-0.3-1.9-1.1-1.9-2c0-1.1,0.9-1.9,2.3-1.9c0.8,0,1.5,0.3,2,0.6l-0.3,0.9c-0.5-0.3-1.1-0.6-1.7-0.6
		c-0.6,0-1,0.3-1,0.8c0,0.4,0.2,0.7,1.1,0.9c1.5,0.4,2.2,1,2.2,2.2C561.9,348.7,560.7,349.3,559.5,349.3z"/>
	<path class="st0" d="M567.4,349.2l-0.7-1.6h-2.7l-0.7,1.6h-1.3l2.8-6.6h1l2.8,6.6H567.4z M565.4,344.2l-1,2.4h1.9L565.4,344.2z"/>
	<path class="st0" d="M571.6,343.6v5.6h-1.3v-5.6H568v-1h5.8v1H571.6z"/>
	<path class="st0" d="M574.6,349.2v-6.6h1.3v6.6H574.6z"/>
	<path class="st0" d="M580.5,349.4c-2,0-3.6-1.5-3.6-3.5c0-2,1.6-3.5,3.6-3.5c2,0,3.6,1.5,3.6,3.5
		C584.1,347.9,582.5,349.4,580.5,349.4z M580.5,343.5c-1.3,0-2.2,1-2.2,2.4c0,1.4,0.9,2.4,2.2,2.4c1.3,0,2.2-1,2.2-2.4
		C582.7,344.5,581.8,343.5,580.5,343.5z"/>
	<path class="st0" d="M589.8,349.2l-3.5-4.4v4.4h-1.2v-6.6h0.9l3.5,4.4v-4.4h1.2v6.6H589.8z"/>
</g>
<g>
	<path class="st0" d="M797.2,359.5h-93.3c-6.5,0-11.7-5.3-11.7-11.7v-5.6c0-6.5,5.3-11.7,11.7-11.7h93.3c6.5,0,11.7,5.3,11.7,11.7
		v5.6C808.9,354.2,803.7,359.5,797.2,359.5z M703.9,331.5c-5.9,0-10.7,4.8-10.7,10.7v5.6c0,5.9,4.8,10.7,10.7,10.7h93.3
		c5.9,0,10.7-4.8,10.7-10.7v-5.6c0-5.9-4.8-10.7-10.7-10.7H703.9z"/>
</g>
<g>
	<path class="st0" d="M712.2,347.7h-1l-1.3-3.9c0-0.1-0.1-0.4-0.1-0.5c0,0-0.1,0.4-0.1,0.5l-1.3,3.9h-1l-2.3-6.6h1.3l1.3,4.1
		c0,0.1,0.1,0.6,0.1,0.6c0,0,0.1-0.5,0.2-0.6l1.3-4.1h1l1.3,4.1l0.2,0.6c0,0,0.1-0.5,0.1-0.6l1.3-4.1h1.3L712.2,347.7z"/>
	<path class="st0" d="M719.1,347.7l-0.7-1.6h-2.7l-0.7,1.6h-1.3l2.8-6.6h1l2.8,6.6H719.1z M717.1,342.7l-1,2.4h1.9L717.1,342.7z"/>
	<path class="st0" d="M721.2,347.7v-6.6h1.3v5.6h3v1H721.2z"/>
	<path class="st0" d="M730.6,347.7l-2.5-2.9l-0.5,0.5v2.3h-1.3v-6.6h1.3v2.9l2.8-2.9h1.5l-2.8,2.9l3.3,3.7H730.6z"/>
	<path class="st0" d="M732.7,347.7v-6.6h1.3v6.6H732.7z"/>
	<path class="st0" d="M740.1,347.7l-3.5-4.4v4.4h-1.2v-6.6h0.9l3.5,4.4v-4.4h1.2v6.6H740.1z"/>
	<path class="st0" d="M745.5,347.9c-1.9,0-3.5-1.4-3.5-3.5c0-2.1,1.7-3.4,3.6-3.4c0.9,0,1.8,0.3,2.3,0.7v1.2
		c-0.5-0.5-1.2-0.8-2.2-0.8c-1.4,0-2.3,0.9-2.3,2.4c0,1.5,0.9,2.4,2.3,2.4c0.5,0,0.9-0.1,1.3-0.3v-1.3h-1.2v-1h2.5v2.9
		C747.9,347.4,746.8,347.9,745.5,347.9z"/>
	<path class="st0" d="M754.3,345.3h-1.2v2.4h-1.3v-6.6h2.5c1.6,0,2.3,1,2.3,2.1C756.5,344.3,755.8,345.3,754.3,345.3z M754,342.1
		h-0.9v2.3h0.9c0.9,0,1.2-0.5,1.2-1.1C755.2,342.6,754.9,342.1,754,342.1z"/>
	<path class="st0" d="M761.4,347.7l-0.7-1.6h-2.7l-0.7,1.6h-1.3l2.8-6.6h1l2.8,6.6H761.4z M759.4,342.7l-1,2.4h1.9L759.4,342.7z"/>
	<path class="st0" d="M765.6,342.1v5.6h-1.3v-5.6H762v-1h5.8v1H765.6z"/>
	<path class="st0" d="M771.7,342.1v5.6h-1.3v-5.6h-2.2v-1h5.8v1H771.7z"/>
	<path class="st0" d="M774.7,347.7v-6.6h4.3v1h-3v1.6h2.4v1H776v1.9h3v1H774.7z"/>
	<path class="st0" d="M784.9,347.8c-0.8,0-1.5-0.3-1.9-1.3l-0.7-1.4h-0.8v2.6h-1.3v-6.6h2.6c1.6,0,2.2,0.9,2.2,2
		c0,0.9-0.5,1.7-1.5,1.9l0.6,1.1c0.3,0.6,0.6,0.8,1.1,0.8c0.1,0,0.2,0,0.4-0.1v0.8C785.4,347.7,785.1,347.8,784.9,347.8z
		 M781.5,344.1h1c0.8,0,1.1-0.4,1.1-1c0-0.6-0.3-1-1.1-1h-1V344.1z"/>
	<path class="st0" d="M791.1,347.7l-3.5-4.4v4.4h-1.2v-6.6h0.9l3.5,4.4v-4.4h1.2v6.6H791.1z"/>
	<path class="st0" d="M795.3,347.8c-1.1,0-1.9-0.4-2.3-0.8l0.3-1.1c0.4,0.4,1.1,0.9,2,0.9c0.7,0,1.2-0.3,1.2-0.9
		c0-0.5-0.3-0.8-1.4-1.1c-1.4-0.3-1.9-1.1-1.9-2c0-1.1,0.9-1.9,2.3-1.9c0.8,0,1.5,0.3,2,0.6l-0.3,0.9c-0.5-0.3-1.1-0.6-1.7-0.6
		c-0.6,0-1,0.3-1,0.8c0,0.4,0.2,0.7,1.1,0.9c1.5,0.4,2.2,1,2.2,2.2C797.7,347.2,796.6,347.8,795.3,347.8z"/>
</g>
<g>
	<path class="st0" d="M927.8,359.5h-93.3c-6.5,0-11.7-5.3-11.7-11.7v-5.6c0-6.5,5.3-11.7,11.7-11.7h93.3c6.5,0,11.7,5.3,11.7,11.7
		v5.6C939.5,354.2,934.3,359.5,927.8,359.5z M834.6,331.5c-5.9,0-10.7,4.8-10.7,10.7v5.6c0,5.9,4.8,10.7,10.7,10.7h93.3
		c5.9,0,10.7-4.8,10.7-10.7v-5.6c0-5.9-4.8-10.7-10.7-10.7H834.6z"/>
</g>
<g>
	<path class="st0" d="M853.9,347.8c-1.9,0-3.5-1.3-3.5-3.4c0-2.1,1.6-3.4,3.5-3.4c0.9,0,1.7,0.3,2.3,0.7v1.2
		c-0.5-0.5-1.2-0.8-2.2-0.8c-1.3,0-2.3,0.9-2.3,2.4c0,1.5,1,2.4,2.3,2.4c0.9,0,1.6-0.4,2.2-0.8v1.2
		C855.7,347.6,854.8,347.8,853.9,347.8z"/>
	<path class="st0" d="M860.5,347.9c-2,0-3.6-1.5-3.6-3.5c0-2,1.6-3.5,3.6-3.5c2,0,3.6,1.5,3.6,3.5
		C864.1,346.4,862.5,347.9,860.5,347.9z M860.5,342c-1.3,0-2.2,1-2.2,2.4c0,1.4,0.9,2.4,2.2,2.4c1.3,0,2.2-1,2.2-2.4
		C862.6,343,861.8,342,860.5,342z"/>
	<path class="st0" d="M868.1,347.9c-1.7,0-3-1-3-3.2v-3.6h1.4v3.5c0,1.4,0.6,2.1,1.7,2.1s1.7-0.7,1.7-2.1v-3.5h1.3v3.6
		C871.1,346.9,869.9,347.9,868.1,347.9z"/>
	<path class="st0" d="M877.2,347.7l-3.5-4.4v4.4h-1.2v-6.6h0.9l3.5,4.4v-4.4h1.2v6.6H877.2z"/>
	<path class="st0" d="M882.4,342.1v5.6h-1.3v-5.6h-2.2v-1h5.8v1H882.4z"/>
	<path class="st0" d="M889.5,347.8c-1.1,0-1.9-0.4-2.3-0.8l0.3-1.1c0.4,0.4,1.1,0.9,2,0.9c0.7,0,1.2-0.3,1.2-0.9
		c0-0.5-0.3-0.8-1.4-1.1c-1.4-0.3-1.9-1.1-1.9-2c0-1.1,0.9-1.9,2.3-1.9c0.8,0,1.5,0.3,2,0.6l-0.3,0.9c-0.5-0.3-1.1-0.6-1.7-0.6
		c-0.6,0-1,0.3-1,0.8c0,0.4,0.2,0.7,1.1,0.9c1.5,0.4,2.2,1,2.2,2.2C891.9,347.2,890.7,347.8,889.5,347.8z"/>
	<path class="st0" d="M895.6,342.1v5.6h-1.3v-5.6H892v-1h5.8v1H895.6z"/>
	<path class="st0" d="M898.6,347.7v-6.6h4.3v1h-3v1.6h2.4v1h-2.4v1.9h3v1H898.6z"/>
	<path class="st0" d="M906.5,345.3h-1.2v2.4H904v-6.6h2.5c1.6,0,2.3,1,2.3,2.1C908.8,344.3,908.1,345.3,906.5,345.3z M906.3,342.1
		h-0.9v2.3h0.9c0.9,0,1.2-0.5,1.2-1.1C907.5,342.6,907.2,342.1,906.3,342.1z"/>
	<path class="st0" d="M911.6,347.8c-1.1,0-1.9-0.4-2.3-0.8l0.3-1.1c0.4,0.4,1.1,0.9,2,0.9c0.7,0,1.2-0.3,1.2-0.9
		c0-0.5-0.3-0.8-1.4-1.1c-1.4-0.3-1.9-1.1-1.9-2c0-1.1,0.9-1.9,2.3-1.9c0.8,0,1.5,0.3,2,0.6l-0.3,0.9c-0.5-0.3-1.1-0.6-1.7-0.6
		c-0.6,0-1,0.3-1,0.8c0,0.4,0.2,0.7,1.1,0.9c1.5,0.4,2.2,1,2.2,2.2C914,347.2,912.9,347.8,911.6,347.8z"/>
</g>
<g>
	<path class="st0" d="M798.5,436h-93.3c-6.5,0-11.7-5.3-11.7-11.7v-5.6c0-6.5,5.3-11.7,11.7-11.7h93.3c6.5,0,11.7,5.3,11.7,11.7v5.6
		C810.2,430.7,805,436,798.5,436z M705.3,408c-5.9,0-10.7,4.8-10.7,10.7v5.6c0,5.9,4.8,10.7,10.7,10.7h93.3
		c5.9,0,10.7-4.8,10.7-10.7v-5.6c0-5.9-4.8-10.7-10.7-10.7H705.3z"/>
</g>
<g>
	<path class="st0" d="M701.9,424.2v-6.6h4.3v1h-3v1.6h2.4v1h-2.4v1.9h3v1H701.9z"/>
	<path class="st0" d="M711.6,424.2l-1.7-2.5l-1.8,2.5h-1.5l2.4-3.4l-2.3-3.2h1.5l1.6,2.3l1.6-2.3h1.5l-2.3,3.2l2.4,3.4H711.6z"/>
	<path class="st0" d="M713.7,424.2v-6.6h4.3v1h-3v1.6h2.4v1h-2.4v1.9h3v1H713.7z"/>
	<path class="st0" d="M723.9,424.3c-0.8,0-1.5-0.3-1.9-1.3l-0.7-1.4h-0.8v2.6h-1.3v-6.6h2.6c1.6,0,2.2,0.9,2.2,2
		c0,0.9-0.5,1.7-1.5,1.9l0.6,1.1c0.3,0.6,0.6,0.8,1.1,0.8c0.1,0,0.2,0,0.4-0.1v0.8C724.4,424.3,724.1,424.3,723.9,424.3z
		 M720.5,420.7h1c0.8,0,1.1-0.4,1.1-1c0-0.6-0.3-1-1.1-1h-1V420.7z"/>
	<path class="st0" d="M728.5,424.4c-1.9,0-3.5-1.3-3.5-3.4c0-2.1,1.6-3.4,3.5-3.4c0.9,0,1.7,0.3,2.3,0.7v1.2
		c-0.5-0.5-1.2-0.8-2.2-0.8c-1.3,0-2.3,0.9-2.3,2.4c0,1.5,1,2.4,2.3,2.4c0.9,0,1.6-0.4,2.2-0.8v1.2
		C730.3,424.1,729.4,424.4,728.5,424.4z"/>
	<path class="st0" d="M731.9,424.2v-6.6h1.3v6.6H731.9z"/>
	<path class="st0" d="M736.5,424.4c-1.1,0-1.9-0.4-2.3-0.8l0.3-1.1c0.4,0.4,1.1,0.9,2,0.9c0.7,0,1.2-0.3,1.2-0.9
		c0-0.5-0.3-0.8-1.4-1.1c-1.4-0.3-1.9-1.1-1.9-2c0-1.1,0.9-1.9,2.3-1.9c0.8,0,1.5,0.3,2,0.6l-0.3,0.9c-0.5-0.3-1.1-0.6-1.7-0.6
		c-0.6,0-1,0.3-1,0.8c0,0.4,0.2,0.7,1.1,0.9c1.5,0.4,2.2,1,2.2,2.2C738.9,423.7,737.8,424.4,736.5,424.4z"/>
	<path class="st0" d="M739.9,424.2v-6.6h4.3v1h-3v1.6h2.4v1h-2.4v1.9h3v1H739.9z"/>
	<path class="st0" d="M750.8,421.6v2.6h-1.3v-2.6l-2.6-4h1.5l1.8,2.9l1.8-2.9h1.4L750.8,421.6z"/>
	<path class="st0" d="M756.6,424.4c-2,0-3.6-1.5-3.6-3.5s1.6-3.5,3.6-3.5c2,0,3.6,1.5,3.6,3.5S758.6,424.4,756.6,424.4z
		 M756.6,418.5c-1.3,0-2.2,1-2.2,2.4c0,1.4,0.9,2.4,2.2,2.4c1.3,0,2.2-1,2.2-2.4C758.8,419.5,757.9,418.5,756.6,418.5z"/>
	<path class="st0" d="M764.2,424.4c-1.7,0-3-1-3-3.2v-3.6h1.4v3.5c0,1.4,0.6,2.1,1.7,2.1s1.7-0.7,1.7-2.1v-3.5h1.3v3.6
		C767.3,423.4,766,424.4,764.2,424.4z"/>
	<path class="st0" d="M773.3,424.3c-0.8,0-1.5-0.3-1.9-1.3l-0.7-1.4H770v2.6h-1.3v-6.6h2.6c1.6,0,2.2,0.9,2.2,2
		c0,0.9-0.5,1.7-1.5,1.9l0.6,1.1c0.3,0.6,0.6,0.8,1.1,0.8c0.1,0,0.2,0,0.4-0.1v0.8C773.9,424.3,773.6,424.3,773.3,424.3z M770,420.7
		h1c0.8,0,1.1-0.4,1.1-1c0-0.6-0.3-1-1.1-1h-1V420.7z"/>
	<path class="st0" d="M779.7,424.2H777v-6.6h2.6c1.4,0,2,0.8,2,1.7c0,0.5-0.3,1-0.7,1.3c0.6,0.3,1.1,0.9,1.1,1.6
		C782,423.4,781.3,424.2,779.7,424.2z M778.4,420.3h1c0.7,0,0.9-0.4,0.9-0.9c0-0.5-0.3-0.9-0.9-0.9h-1V420.3z M779.5,421.2h-1.1v2.1
		h1.1c0.8,0,1.2-0.5,1.2-1S780.3,421.2,779.5,421.2z"/>
	<path class="st0" d="M787.6,424.3c-0.8,0-1.5-0.3-1.9-1.3l-0.7-1.4h-0.8v2.6h-1.3v-6.6h2.6c1.6,0,2.2,0.9,2.2,2
		c0,0.9-0.5,1.7-1.5,1.9l0.6,1.1c0.3,0.6,0.6,0.8,1.1,0.8c0.1,0,0.2,0,0.4-0.1v0.8C788.2,424.3,787.9,424.3,787.6,424.3z
		 M784.3,420.7h1c0.8,0,1.1-0.4,1.1-1c0-0.6-0.3-1-1.1-1h-1V420.7z"/>
	<path class="st0" d="M793.6,424.2l-0.7-1.6h-2.7l-0.7,1.6h-1.3l2.8-6.6h1l2.8,6.6H793.6z M791.6,419.3l-1,2.4h1.9L791.6,419.3z"/>
	<path class="st0" d="M795.6,424.2v-6.6h1.3v6.6H795.6z"/>
	<path class="st0" d="M803,424.2l-3.5-4.4v4.4h-1.2v-6.6h0.9l3.5,4.4v-4.4h1.2v6.6H803z"/>
</g>
<g>
	<path class="st0" d="M929.2,436h-93.3c-6.5,0-11.7-5.3-11.7-11.7v-5.6c0-6.5,5.3-11.7,11.7-11.7h93.3c6.5,0,11.7,5.3,11.7,11.7v5.6
		C940.9,430.7,935.6,436,929.2,436z M835.9,408c-5.9,0-10.7,4.8-10.7,10.7v5.6c0,5.9,4.8,10.7,10.7,10.7h93.3
		c5.9,0,10.7-4.8,10.7-10.7v-5.6c0-5.9-4.8-10.7-10.7-10.7H835.9z"/>
</g>
<g>
	<path class="st0" d="M846.7,424.4c-1.9,0-3.5-1.3-3.5-3.4c0-2.1,1.6-3.4,3.5-3.4c0.9,0,1.7,0.3,2.3,0.7v1.2
		c-0.5-0.5-1.2-0.8-2.2-0.8c-1.3,0-2.3,0.9-2.3,2.4c0,1.5,1,2.4,2.3,2.4c0.9,0,1.6-0.4,2.2-0.8v1.2
		C848.4,424.1,847.5,424.4,846.7,424.4z"/>
	<path class="st0" d="M853.2,424.4c-2,0-3.6-1.5-3.6-3.5s1.6-3.5,3.6-3.5c2,0,3.6,1.5,3.6,3.5S855.2,424.4,853.2,424.4z
		 M853.2,418.5c-1.3,0-2.2,1-2.2,2.4c0,1.4,0.9,2.4,2.2,2.4c1.3,0,2.2-1,2.2-2.4C855.4,419.5,854.5,418.5,853.2,418.5z"/>
	<path class="st0" d="M862.5,424.2l-3.5-4.4v4.4h-1.2v-6.6h0.9l3.5,4.4v-4.4h1.2v6.6H862.5z"/>
	<path class="st0" d="M868,424.4c-1.9,0-3.5-1.3-3.5-3.4c0-2.1,1.6-3.4,3.5-3.4c0.9,0,1.7,0.3,2.3,0.7v1.2c-0.5-0.5-1.2-0.8-2.2-0.8
		c-1.3,0-2.3,0.9-2.3,2.4c0,1.5,1,2.4,2.3,2.4c0.9,0,1.6-0.4,2.2-0.8v1.2C869.7,424.1,868.8,424.4,868,424.4z"/>
	<path class="st0" d="M871.4,424.2v-6.6h4.3v1h-3v1.6h2.4v1h-2.4v1.9h3v1H871.4z"/>
	<path class="st0" d="M881.5,424.2l-3.5-4.4v4.4h-1.2v-6.6h0.9l3.5,4.4v-4.4h1.2v6.6H881.5z"/>
	<path class="st0" d="M886.7,418.7v5.6h-1.3v-5.6h-2.2v-1h5.8v1H886.7z"/>
	<path class="st0" d="M894.4,424.3c-0.8,0-1.5-0.3-1.9-1.3l-0.7-1.4H891v2.6h-1.3v-6.6h2.6c1.6,0,2.2,0.9,2.2,2
		c0,0.9-0.5,1.7-1.5,1.9l0.6,1.1c0.3,0.6,0.6,0.8,1.1,0.8c0.1,0,0.2,0,0.4-0.1v0.8C894.9,424.3,894.6,424.3,894.4,424.3z M891,420.7
		h1c0.8,0,1.1-0.4,1.1-1c0-0.6-0.3-1-1.1-1h-1V420.7z"/>
	<path class="st0" d="M900.3,424.2l-0.7-1.6H897l-0.7,1.6H895l2.8-6.6h1l2.8,6.6H900.3z M898.3,419.3l-1,2.4h1.9L898.3,419.3z"/>
	<path class="st0" d="M904.5,418.7v5.6h-1.3v-5.6h-2.2v-1h5.8v1H904.5z"/>
	<path class="st0" d="M907.5,424.2v-6.6h1.3v6.6H907.5z"/>
	<path class="st0" d="M913.4,424.4c-2,0-3.6-1.5-3.6-3.5s1.6-3.5,3.6-3.5c2,0,3.6,1.5,3.6,3.5S915.5,424.4,913.4,424.4z
		 M913.4,418.5c-1.3,0-2.2,1-2.2,2.4c0,1.4,0.9,2.4,2.2,2.4c1.3,0,2.2-1,2.2-2.4C915.6,419.5,914.7,418.5,913.4,418.5z"/>
	<path class="st0" d="M922.7,424.2l-3.5-4.4v4.4H918v-6.6h0.9l3.5,4.4v-4.4h1.2v6.6H922.7z"/>
</g>
<g>
	<path class="st0" d="M584.5,436h-93.3c-6.5,0-11.7-5.3-11.7-11.7v-5.6c0-6.5,5.3-11.7,11.7-11.7h93.3c6.5,0,11.7,5.3,11.7,11.7v5.6
		C596.2,430.7,590.9,436,584.5,436z M491.2,408c-5.9,0-10.7,4.8-10.7,10.7v5.6c0,5.9,4.8,10.7,10.7,10.7h93.3
		c5.9,0,10.7-4.8,10.7-10.7v-5.6c0-5.9-4.8-10.7-10.7-10.7H491.2z"/>
</g>
<g>
	<path class="st0" d="M488.9,424.4c-1.1,0-1.9-0.4-2.3-0.8l0.3-1.1c0.4,0.4,1.1,0.9,2,0.9c0.7,0,1.2-0.3,1.2-0.9
		c0-0.5-0.3-0.8-1.4-1.1c-1.4-0.3-1.9-1.1-1.9-2c0-1.1,0.9-1.9,2.3-1.9c0.8,0,1.5,0.3,2,0.6l-0.3,0.9c-0.5-0.3-1.1-0.6-1.7-0.6
		c-0.6,0-1,0.3-1,0.8c0,0.4,0.2,0.7,1.1,0.9c1.5,0.4,2.2,1,2.2,2.2C491.3,423.7,490.1,424.4,488.9,424.4z"/>
	<path class="st0" d="M495.1,418.7v5.6h-1.3v-5.6h-2.2v-1h5.8v1H495.1z"/>
	<path class="st0" d="M501.9,424.2l-0.7-1.6h-2.7l-0.7,1.6h-1.3l2.8-6.6h1l2.8,6.6H501.9z M499.9,419.3l-1,2.4h1.9L499.9,419.3z"/>
	<path class="st0" d="M508.6,424.3c-0.8,0-1.5-0.3-1.9-1.3l-0.7-1.4h-0.8v2.6h-1.3v-6.6h2.6c1.6,0,2.2,0.9,2.2,2
		c0,0.9-0.5,1.7-1.5,1.9l0.6,1.1c0.3,0.6,0.6,0.8,1.1,0.8c0.1,0,0.2,0,0.4-0.1v0.8C509.2,424.3,508.9,424.3,508.6,424.3z
		 M505.3,420.7h1c0.8,0,1.1-0.4,1.1-1c0-0.6-0.3-1-1.1-1h-1V420.7z"/>
	<path class="st0" d="M512.7,418.7v5.6h-1.3v-5.6h-2.2v-1h5.8v1H512.7z"/>
	<path class="st0" d="M521,424.4c-1.9,0-3.5-1.3-3.5-3.4c0-2.1,1.6-3.4,3.5-3.4c0.9,0,1.7,0.3,2.3,0.7v1.2c-0.5-0.5-1.2-0.8-2.2-0.8
		c-1.3,0-2.3,0.9-2.3,2.4c0,1.5,1,2.4,2.3,2.4c0.9,0,1.6-0.4,2.2-0.8v1.2C522.8,424.1,521.9,424.4,521,424.4z"/>
	<path class="st0" d="M527.6,424.4c-2,0-3.6-1.5-3.6-3.5s1.6-3.5,3.6-3.5c2,0,3.6,1.5,3.6,3.5S529.6,424.4,527.6,424.4z
		 M527.6,418.5c-1.3,0-2.2,1-2.2,2.4c0,1.4,0.9,2.4,2.2,2.4c1.3,0,2.2-1,2.2-2.4C529.7,419.5,528.9,418.5,527.6,418.5z"/>
	<path class="st0" d="M536.8,424.2l-3.5-4.4v4.4h-1.2v-6.6h0.9l3.5,4.4v-4.4h1.2v6.6H536.8z"/>
	<path class="st0" d="M542.3,424.2h-1l-2.8-6.6h1.4l2,4.7l1.9-4.7h1.3L542.3,424.2z"/>
	<path class="st0" d="M545.8,424.2v-6.6h4.3v1h-3v1.6h2.4v1h-2.4v1.9h3v1H545.8z"/>
	<path class="st0" d="M556,424.3c-0.8,0-1.5-0.3-1.9-1.3l-0.7-1.4h-0.8v2.6h-1.3v-6.6h2.6c1.6,0,2.2,0.9,2.2,2
		c0,0.9-0.5,1.7-1.5,1.9l0.6,1.1c0.3,0.6,0.6,0.8,1.1,0.8c0.1,0,0.2,0,0.4-0.1v0.8C556.5,424.3,556.2,424.3,556,424.3z M552.6,420.7
		h1c0.8,0,1.1-0.4,1.1-1c0-0.6-0.3-1-1.1-1h-1V420.7z"/>
	<path class="st0" d="M559.5,424.4c-1.1,0-1.9-0.4-2.3-0.8l0.3-1.1c0.4,0.4,1.1,0.9,2,0.9c0.7,0,1.2-0.3,1.2-0.9
		c0-0.5-0.3-0.8-1.4-1.1c-1.4-0.3-1.9-1.1-1.9-2c0-1.1,0.9-1.9,2.3-1.9c0.8,0,1.5,0.3,2,0.6l-0.3,0.9c-0.5-0.3-1.1-0.6-1.7-0.6
		c-0.6,0-1,0.3-1,0.8c0,0.4,0.2,0.7,1.1,0.9c1.5,0.4,2.2,1,2.2,2.2C561.9,423.7,560.7,424.4,559.5,424.4z"/>
	<path class="st0" d="M567.4,424.2l-0.7-1.6h-2.7l-0.7,1.6h-1.3l2.8-6.6h1l2.8,6.6H567.4z M565.4,419.3l-1,2.4h1.9L565.4,419.3z"/>
	<path class="st0" d="M571.6,418.7v5.6h-1.3v-5.6H568v-1h5.8v1H571.6z"/>
	<path class="st0" d="M574.6,424.2v-6.6h1.3v6.6H574.6z"/>
	<path class="st0" d="M580.5,424.4c-2,0-3.6-1.5-3.6-3.5s1.6-3.5,3.6-3.5c2,0,3.6,1.5,3.6,3.5S582.5,424.4,580.5,424.4z
		 M580.5,418.5c-1.3,0-2.2,1-2.2,2.4c0,1.4,0.9,2.4,2.2,2.4c1.3,0,2.2-1,2.2-2.4C582.7,419.5,581.8,418.5,580.5,418.5z"/>
	<path class="st0" d="M589.8,424.2l-3.5-4.4v4.4h-1.2v-6.6h0.9l3.5,4.4v-4.4h1.2v6.6H589.8z"/>
</g>
<g>
	<path class="st0" d="M214.9,436h-51.4c-5,0-9.1-4.1-9.1-9.1v-10.7c0-5,4.1-9.1,9.1-9.1h51.4c5,0,9.1,4.1,9.1,9.1v10.7
		C224.1,431.9,220,436,214.9,436z M163.5,408c-4.5,0-8.1,3.6-8.1,8.1v10.7c0,4.5,3.6,8.1,8.1,8.1h51.4c4.5,0,8.1-3.6,8.1-8.1v-10.7
		c0-4.5-3.6-8.1-8.1-8.1H163.5z"/>
</g>
<g>
	<path class="st0" d="M179.7,425.3c-0.8,0-1.5-0.3-1.9-1.3l-0.7-1.4h-0.8v2.6H175v-6.6h2.6c1.6,0,2.2,0.9,2.2,2
		c0,0.9-0.5,1.7-1.5,1.9l0.6,1.1c0.3,0.6,0.6,0.8,1.1,0.8c0.1,0,0.2,0,0.4-0.1v0.8C180.2,425.3,179.9,425.3,179.7,425.3z
		 M176.3,421.7h1c0.8,0,1.1-0.4,1.1-1c0-0.6-0.3-1-1.1-1h-1V421.7z"/>
	<path class="st0" d="M181.2,425.3v-6.6h4.3v1h-3v1.6h2.4v1h-2.4v1.9h3v1H181.2z"/>
	<path class="st0" d="M186.7,425.3v-6.6h1.3v5.6h3v1H186.7z"/>
	<path class="st0" d="M196.4,425.3l-0.7-1.6h-2.7l-0.7,1.6h-1.3l2.8-6.6h1l2.8,6.6H196.4z M194.4,420.3l-1,2.4h1.9L194.4,420.3z"/>
	<path class="st0" d="M202.7,425.3l-1.7-2.5l-1.8,2.5h-1.5l2.4-3.4l-2.3-3.2h1.5l1.6,2.3l1.6-2.3h1.5l-2.3,3.2l2.4,3.4H202.7z"/>
</g>
<g>
	<path class="st0" d="M294.5,436h-51.4c-5,0-9.1-4.1-9.1-9.1v-10.7c0-5,4.1-9.1,9.1-9.1h51.4c5,0,9.1,4.1,9.1,9.1v10.7
		C303.6,431.9,299.5,436,294.5,436z M243.1,408c-4.5,0-8.1,3.6-8.1,8.1v10.7c0,4.5,3.6,8.1,8.1,8.1h51.4c4.5,0,8.1-3.6,8.1-8.1
		v-10.7c0-4.5-3.6-8.1-8.1-8.1H243.1z"/>
</g>
<g>
	<path class="st0" d="M252.4,425.3v-4c0-0.2,0-0.6,0-0.6l-0.2,0.6l-1.8,4h-0.8l-1.8-4c-0.1-0.2-0.2-0.6-0.2-0.6c0,0,0,0.5,0,0.6v4
		h-1.2v-6.6h1.4l2.2,4.8l2.2-4.8h1.4v6.6H252.4z"/>
	<path class="st0" d="M254.9,425.3v-6.6h4.3v1h-3v1.6h2.4v1h-2.4v1.9h3v1H254.9z"/>
	<path class="st0" d="M262.7,425.3h-2.3v-6.6h2.3c2.6,0,3.8,1.5,3.8,3.3C266.4,423.8,265.3,425.3,262.7,425.3z M262.6,419.7h-0.9
		v4.4h0.9c1.8,0,2.4-0.9,2.4-2.2S264.4,419.7,262.6,419.7z"/>
	<path class="st0" d="M267.5,425.3v-6.6h1.3v6.6H267.5z"/>
	<path class="st0" d="M273.1,419.7v5.6h-1.3v-5.6h-2.2v-1h5.8v1H273.1z"/>
	<path class="st0" d="M279.9,425.3l-0.7-1.6h-2.7l-0.7,1.6h-1.3l2.8-6.6h1l2.8,6.6H279.9z M277.9,420.3l-1,2.4h1.9L277.9,420.3z"/>
	<path class="st0" d="M284.1,419.7v5.6h-1.3v-5.6h-2.2v-1h5.8v1H284.1z"/>
	<path class="st0" d="M287.1,425.3v-6.6h4.3v1h-3v1.6h2.4v1h-2.4v1.9h3v1H287.1z"/>
</g>
<g>
	<path class="st0" d="M290,361.9h-51.4c-5.6,0-10.1-4.5-10.1-10.1V341c0-5.6,4.5-10.1,10.1-10.1H290c5.6,0,10.1,4.5,10.1,10.1v10.7
		C300.1,357.3,295.6,361.9,290,361.9z M238.6,333.9c-3.9,0-7.1,3.2-7.1,7.1v10.7c0,3.9,3.2,7.1,7.1,7.1H290c3.9,0,7.1-3.2,7.1-7.1
		V341c0-3.9-3.2-7.1-7.1-7.1H238.6z"/>
</g>
<g>
	<path class="st0" d="M238.3,349.3c-1.9,0-3.5-1.3-3.5-3.4c0-2.1,1.6-3.4,3.5-3.4c0.9,0,1.7,0.3,2.3,0.7v1.2
		c-0.5-0.5-1.2-0.8-2.2-0.8c-1.3,0-2.3,0.9-2.3,2.4c0,1.5,1,2.4,2.3,2.4c0.9,0,1.6-0.4,2.2-0.8v1.2
		C240.1,349,239.2,349.3,238.3,349.3z"/>
	<path class="st0" d="M244.9,349.3c-2,0-3.6-1.5-3.6-3.5c0-2,1.6-3.5,3.6-3.5c2,0,3.6,1.5,3.6,3.5
		C248.5,347.8,246.9,349.3,244.9,349.3z M244.9,343.4c-1.3,0-2.2,1-2.2,2.4c0,1.4,0.9,2.4,2.2,2.4c1.3,0,2.2-1,2.2-2.4
		C247.1,344.4,246.2,343.4,244.9,343.4z"/>
	<path class="st0" d="M249.5,349.1v-6.6h1.3v5.6h3v1H249.5z"/>
	<path class="st0" d="M254.6,349.1v-6.6h1.3v5.6h3v1H254.6z"/>
	<path class="st0" d="M259.6,349.1v-6.6h4.3v1h-3v1.6h2.4v1h-2.4v1.9h3v1H259.6z"/>
	<path class="st0" d="M268,349.3c-1.9,0-3.5-1.3-3.5-3.4c0-2.1,1.6-3.4,3.5-3.4c0.9,0,1.7,0.3,2.3,0.7v1.2c-0.5-0.5-1.2-0.8-2.2-0.8
		c-1.3,0-2.3,0.9-2.3,2.4c0,1.5,1,2.4,2.3,2.4c0.9,0,1.6-0.4,2.2-0.8v1.2C269.8,349,268.9,349.3,268,349.3z"/>
	<path class="st0" d="M274.4,343.6v5.6h-1.3v-5.6h-2.2v-1h5.8v1H274.4z"/>
	<path class="st0" d="M277.4,349.1v-6.6h1.3v6.6H277.4z"/>
	<path class="st0" d="M283.3,349.3c-2,0-3.6-1.5-3.6-3.5c0-2,1.6-3.5,3.6-3.5c2,0,3.6,1.5,3.6,3.5
		C286.9,347.8,285.3,349.3,283.3,349.3z M283.3,343.4c-1.3,0-2.2,1-2.2,2.4c0,1.4,0.9,2.4,2.2,2.4c1.3,0,2.2-1,2.2-2.4
		C285.5,344.4,284.6,343.4,283.3,343.4z"/>
	<path class="st0" d="M292.6,349.1l-3.5-4.4v4.4h-1.2v-6.6h0.9l3.5,4.4v-4.4h1.2v6.6H292.6z"/>
</g>
<g>
	<path class="st0" d="M459.2,500.7h-28.6c-3.2,0-5.9-2.6-5.9-5.8v-8c0-3.2,2.6-5.9,5.9-5.9h28.6c3.2,0,5.9,2.6,5.9,5.9v8
		C465,498.1,462.4,500.7,459.2,500.7z M430.5,482c-2.7,0-4.9,2.2-4.9,4.9v8c0,2.7,2.2,4.8,4.9,4.8h28.6c2.7,0,4.9-2.2,4.9-4.8v-8
		c0-2.7-2.2-4.9-4.9-4.9H430.5z"/>
</g>
<g>
	<path class="st0" d="M434.3,493.5v-6h1.2v5h2.7v0.9H434.3z"/>
	<path class="st0" d="M441.7,493.7c-1.8,0-3.3-1.3-3.3-3.2s1.4-3.2,3.3-3.2c1.8,0,3.2,1.3,3.2,3.2S443.5,493.7,441.7,493.7z
		 M441.7,488.3c-1.2,0-2,0.9-2,2.2c0,1.3,0.8,2.2,2,2.2c1.2,0,2-0.9,2-2.2C443.7,489.2,442.9,488.3,441.7,488.3z"/>
	<path class="st0" d="M448.4,493.5h-0.9l-2.5-6h1.2l1.8,4.3l1.8-4.3h1.2L448.4,493.5z"/>
	<path class="st0" d="M451.6,493.5v-6h3.9v0.9h-2.7v1.4h2.2v0.9h-2.2v1.7h2.7v0.9H451.6z"/>
</g>
<g>
	<path class="st0" d="M501.5,500.7h-28.6c-3.2,0-5.8-2.6-5.8-5.8v-8c0-3.2,2.6-5.9,5.8-5.9h28.6c3.2,0,5.8,2.6,5.8,5.9v8
		C507.4,498.1,504.7,500.7,501.5,500.7z M472.9,482c-2.7,0-4.8,2.2-4.8,4.9v8c0,2.7,2.2,4.8,4.8,4.8h28.6c2.7,0,4.8-2.2,4.8-4.8v-8
		c0-2.7-2.2-4.9-4.8-4.9H472.9z"/>
</g>
<g>
	<path class="st0" d="M479.5,493.5v-6h1.2v5h2.7v0.9H479.5z"/>
	<path class="st0" d="M484.1,493.5v-6h1.2v6H484.1z"/>
	<path class="st0" d="M487.8,488.5v1.4h2.1v0.9h-2.1v2.7h-1.2v-6h3.8v0.9H487.8z"/>
	<path class="st0" d="M491.1,493.5v-6h3.9v0.9h-2.7v1.4h2.2v0.9h-2.2v1.7h2.7v0.9H491.1z"/>
</g>
<g>
	<path class="st0" d="M558.8,500.7h-43.9c-3.8,0-6.9-3.1-6.9-6.9v-5.9c0-3.8,3.1-6.9,6.9-6.9h43.9c3.8,0,6.9,3.1,6.9,6.9v5.9
		C565.7,497.6,562.6,500.7,558.8,500.7z M514.9,482c-3.3,0-5.9,2.7-5.9,5.9v5.9c0,3.3,2.7,5.9,5.9,5.9h43.9c3.3,0,5.9-2.7,5.9-5.9
		v-5.9c0-3.3-2.7-5.9-5.9-5.9H514.9z"/>
</g>
<g>
	<path class="st0" d="M514.4,488.5v1.4h2.1v0.9h-2.1v2.7h-1.2v-6h3.8v0.9H514.4z"/>
	<path class="st0" d="M522,493.6c-0.7,0-1.3-0.3-1.7-1.2l-0.6-1.3h-0.7v2.4h-1.2v-6h2.4c1.4,0,2,0.8,2,1.8c0,0.8-0.5,1.5-1.3,1.7
		l0.6,1c0.3,0.5,0.6,0.7,1,0.7c0.1,0,0.2,0,0.3,0v0.8C522.4,493.5,522.2,493.6,522,493.6z M518.9,490.3h0.9c0.8,0,1-0.4,1-0.9
		c0-0.5-0.3-0.9-1-0.9h-0.9V490.3z"/>
	<path class="st0" d="M523.4,493.5v-6h1.2v6H523.4z"/>
	<path class="st0" d="M525.8,493.5v-6h3.9v0.9H527v1.4h2.2v0.9H527v1.7h2.7v0.9H525.8z"/>
	<path class="st0" d="M535,493.5l-3.1-4v4h-1.1v-6h0.8l3.1,4v-4h1.1v6H535z"/>
	<path class="st0" d="M539.2,493.5h-2.1v-6h2.1c2.4,0,3.4,1.3,3.4,3S541.6,493.5,539.2,493.5z M539.1,488.5h-0.8v4h0.8
		c1.6,0,2.2-0.8,2.2-2S540.8,488.5,539.1,488.5z"/>
	<path class="st0" d="M545.3,493.6c-1,0-1.7-0.4-2.1-0.8l0.3-1c0.4,0.4,1,0.8,1.8,0.8c0.6,0,1.1-0.3,1.1-0.8c0-0.5-0.3-0.7-1.3-1
		c-1.3-0.3-1.8-1-1.8-1.8c0-1,0.8-1.7,2.1-1.7c0.7,0,1.4,0.3,1.8,0.6l-0.3,0.8c-0.4-0.3-1-0.5-1.5-0.5c-0.6,0-0.9,0.3-0.9,0.7
		c0,0.3,0.2,0.6,1,0.8c1.4,0.3,2,0.9,2,2C547.5,493.1,546.4,493.6,545.3,493.6z"/>
	<path class="st0" d="M552.4,493.5v-2.6h-2.8v2.6h-1.2v-6h1.2v2.3h2.8v-2.3h1.2v6H552.4z"/>
	<path class="st0" d="M554.9,493.5v-6h1.2v6H554.9z"/>
	<path class="st0" d="M559.6,491.3h-1.1v2.2h-1.2v-6h2.3c1.4,0,2.1,0.9,2.1,1.9C561.7,490.5,561,491.3,559.6,491.3z M559.4,488.4
		h-0.9v2.1h0.9c0.8,0,1.1-0.5,1.1-1C560.5,488.9,560.2,488.4,559.4,488.4z"/>
</g>
<g>
	<path class="st0" d="M604.7,500.7H573c-3.4,0-6.1-2.7-6.1-6.1v-7.6c0-3.4,2.7-6.1,6.1-6.1h31.7c3.4,0,6.1,2.7,6.1,6.1v7.6
		C610.8,498,608,500.7,604.7,500.7z M573,482c-2.8,0-5.1,2.3-5.1,5.1v7.6c0,2.8,2.3,5.1,5.1,5.1h31.7c2.8,0,5.1-2.3,5.1-5.1v-7.6
		c0-2.8-2.3-5.1-5.1-5.1H573z"/>
</g>
<g>
	<path class="st0" d="M572,493.6c-1,0-1.7-0.4-2.1-0.8l0.3-1c0.4,0.4,1,0.8,1.8,0.8c0.6,0,1.1-0.3,1.1-0.8c0-0.5-0.3-0.7-1.3-1
		c-1.3-0.3-1.8-1-1.8-1.8c0-1,0.8-1.7,2.1-1.7c0.7,0,1.4,0.3,1.8,0.6l-0.3,0.8c-0.4-0.3-1-0.5-1.5-0.5c-0.6,0-0.9,0.3-0.9,0.7
		c0,0.3,0.2,0.6,1,0.8c1.4,0.3,2,0.9,2,2C574.1,493.1,573.1,493.6,572,493.6z"/>
	<path class="st0" d="M577.8,493.7c-1.6,0-2.8-0.9-2.8-2.9v-3.2h1.2v3.2c0,1.3,0.6,1.9,1.5,1.9s1.5-0.6,1.5-1.9v-3.2h1.2v3.2
		C580.6,492.8,579.4,493.7,577.8,493.7z"/>
	<path class="st0" d="M584.7,493.6c-1.7,0-3.2-1.2-3.2-3.1c0-1.9,1.5-3.1,3.2-3.1c0.8,0,1.6,0.2,2.1,0.6v1.1c-0.5-0.4-1.1-0.7-2-0.7
		c-1.2,0-2.1,0.8-2.1,2.1c0,1.3,0.9,2.1,2.1,2.1c0.8,0,1.5-0.3,2-0.7v1.1C586.3,493.4,585.5,493.6,584.7,493.6z"/>
	<path class="st0" d="M590.6,493.6c-1.7,0-3.2-1.2-3.2-3.1c0-1.9,1.5-3.1,3.2-3.1c0.8,0,1.6,0.2,2.1,0.6v1.1c-0.5-0.4-1.1-0.7-2-0.7
		c-1.2,0-2.1,0.8-2.1,2.1c0,1.3,0.9,2.1,2.1,2.1c0.8,0,1.5-0.3,2-0.7v1.1C592.2,493.4,591.4,493.6,590.6,493.6z"/>
	<path class="st0" d="M593.7,493.5v-6h3.9v0.9h-2.7v1.4h2.2v0.9h-2.2v1.7h2.7v0.9H593.7z"/>
	<path class="st0" d="M600.4,493.6c-1,0-1.7-0.4-2.1-0.8l0.3-1c0.4,0.4,1,0.8,1.8,0.8c0.6,0,1.1-0.3,1.1-0.8c0-0.5-0.3-0.7-1.3-1
		c-1.3-0.3-1.8-1-1.8-1.8c0-1,0.8-1.7,2.1-1.7c0.7,0,1.4,0.3,1.8,0.6l-0.3,0.8c-0.4-0.3-1-0.5-1.5-0.5c-0.6,0-0.9,0.3-0.9,0.7
		c0,0.3,0.2,0.6,1,0.8c1.4,0.3,2,0.9,2,2C602.6,493.1,601.6,493.6,600.4,493.6z"/>
	<path class="st0" d="M605.3,493.6c-1,0-1.7-0.4-2.1-0.8l0.3-1c0.4,0.4,1,0.8,1.8,0.8c0.6,0,1.1-0.3,1.1-0.8c0-0.5-0.3-0.7-1.3-1
		c-1.3-0.3-1.8-1-1.8-1.8c0-1,0.8-1.7,2.1-1.7c0.7,0,1.4,0.3,1.8,0.6l-0.3,0.8c-0.4-0.3-1-0.5-1.5-0.5c-0.6,0-0.9,0.3-0.9,0.7
		c0,0.3,0.2,0.6,1,0.8c1.4,0.3,2,0.9,2,2C607.5,493.1,606.4,493.6,605.3,493.6z"/>
</g>
<g>
	<path class="st0" d="M649.4,500.7h-31.7c-3.4,0-6.1-2.7-6.1-6.1v-7.6c0-3.4,2.7-6.1,6.1-6.1h31.7c3.4,0,6.1,2.7,6.1,6.1v7.6
		C655.4,498,652.7,500.7,649.4,500.7z M617.7,482c-2.8,0-5.1,2.3-5.1,5.1v7.6c0,2.8,2.3,5.1,5.1,5.1h31.7c2.8,0,5.1-2.3,5.1-5.1
		v-7.6c0-2.8-2.3-5.1-5.1-5.1H617.7z"/>
</g>
<g>
	<path class="st0" d="M621.2,493.5h-0.9l-1.2-3.6c0-0.1-0.1-0.4-0.1-0.5c0,0-0.1,0.3-0.1,0.5l-1.2,3.6h-0.9l-2.1-6h1.2l1.2,3.8
		c0,0.1,0.1,0.5,0.1,0.6c0,0,0.1-0.4,0.2-0.6l1.2-3.8h0.9l1.2,3.8l0.1,0.6c0,0,0.1-0.4,0.1-0.6l1.2-3.8h1.2L621.2,493.5z"/>
	<path class="st0" d="M623.9,493.5v-6h1.2v6H623.9z"/>
	<path class="st0" d="M628.1,493.6c-1,0-1.7-0.4-2.1-0.8l0.3-1c0.4,0.4,1,0.8,1.8,0.8c0.6,0,1.1-0.3,1.1-0.8c0-0.5-0.3-0.7-1.3-1
		c-1.3-0.3-1.8-1-1.8-1.8c0-1,0.8-1.7,2.1-1.7c0.7,0,1.4,0.3,1.8,0.6l-0.3,0.8c-0.4-0.3-1-0.5-1.5-0.5c-0.6,0-0.9,0.3-0.9,0.7
		c0,0.3,0.2,0.6,1,0.8c1.4,0.3,2,0.9,2,2C630.3,493.1,629.3,493.6,628.1,493.6z"/>
	<path class="st0" d="M633.4,493.5h-2.1v-6h2.1c2.4,0,3.4,1.3,3.4,3S635.7,493.5,633.4,493.5z M633.3,488.5h-0.8v4h0.8
		c1.6,0,2.2-0.8,2.2-2S634.9,488.5,633.3,488.5z"/>
	<path class="st0" d="M640.7,493.7c-1.8,0-3.3-1.3-3.3-3.2s1.4-3.2,3.3-3.2c1.8,0,3.2,1.3,3.2,3.2S642.5,493.7,640.7,493.7z
		 M640.7,488.3c-1.2,0-2,0.9-2,2.2c0,1.3,0.8,2.2,2,2.2c1.2,0,2-0.9,2-2.2C642.6,489.2,641.8,488.3,640.7,488.3z"/>
	<path class="st0" d="M650.2,493.5v-3.7c0-0.1,0-0.5,0-0.6l-0.2,0.6l-1.6,3.7h-0.8l-1.6-3.7c-0.1-0.1-0.2-0.5-0.2-0.6
		c0,0,0,0.4,0,0.6v3.7h-1.1v-6h1.3l2,4.4l2-4.4h1.3v6H650.2z"/>
</g>
<g>
	<path class="st0" d="M726.2,501.7h-28.6c-3.2,0-5.8-2.6-5.8-5.8v-8c0-3.2,2.6-5.9,5.8-5.9h28.6c3.2,0,5.9,2.6,5.9,5.9v8
		C732,499.1,729.4,501.7,726.2,501.7z M697.5,483c-2.7,0-4.8,2.2-4.8,4.9v8c0,2.7,2.2,4.8,4.8,4.8h28.6c2.7,0,4.9-2.2,4.9-4.8v-8
		c0-2.7-2.2-4.9-4.9-4.9H697.5z"/>
</g>
<g>
	<path class="st0" d="M701.3,494.5v-6h1.2v5h2.7v0.9H701.3z"/>
	<path class="st0" d="M708.7,494.7c-1.8,0-3.3-1.3-3.3-3.2s1.4-3.2,3.3-3.2c1.8,0,3.2,1.3,3.2,3.2S710.5,494.7,708.7,494.7z
		 M708.7,489.3c-1.2,0-2,0.9-2,2.2c0,1.3,0.8,2.2,2,2.2c1.2,0,2-0.9,2-2.2C710.7,490.2,709.9,489.3,708.7,489.3z"/>
	<path class="st0" d="M715.4,494.5h-0.9l-2.5-6h1.2l1.8,4.3l1.8-4.3h1.2L715.4,494.5z"/>
	<path class="st0" d="M718.6,494.5v-6h3.9v0.9h-2.7v1.4h2.2v0.9h-2.2v1.7h2.7v0.9H718.6z"/>
</g>
<g>
	<path class="st0" d="M768.5,501.7h-28.6c-3.2,0-5.8-2.6-5.8-5.8v-8c0-3.2,2.6-5.9,5.8-5.9h28.6c3.2,0,5.8,2.6,5.8,5.9v8
		C774.4,499.1,771.7,501.7,768.5,501.7z M739.9,483c-2.7,0-4.8,2.2-4.8,4.9v8c0,2.7,2.2,4.8,4.8,4.8h28.6c2.7,0,4.8-2.2,4.8-4.8v-8
		c0-2.7-2.2-4.9-4.8-4.9H739.9z"/>
</g>
<g>
	<path class="st0" d="M746.5,494.5v-6h1.2v5h2.7v0.9H746.5z"/>
	<path class="st0" d="M751.1,494.5v-6h1.2v6H751.1z"/>
	<path class="st0" d="M754.8,489.5v1.4h2.1v0.9h-2.1v2.7h-1.2v-6h3.8v0.9H754.8z"/>
	<path class="st0" d="M758.1,494.5v-6h3.9v0.9h-2.7v1.4h2.2v0.9h-2.2v1.7h2.7v0.9H758.1z"/>
</g>
<g>
	<path class="st0" d="M825.8,501.7h-43.9c-3.8,0-6.9-3.1-6.9-6.9v-5.9c0-3.8,3.1-6.9,6.9-6.9h43.9c3.8,0,6.9,3.1,6.9,6.9v5.9
		C832.7,498.6,829.6,501.7,825.8,501.7z M781.9,483c-3.3,0-5.9,2.7-5.9,5.9v5.9c0,3.3,2.7,5.9,5.9,5.9h43.9c3.3,0,5.9-2.7,5.9-5.9
		v-5.9c0-3.3-2.7-5.9-5.9-5.9H781.9z"/>
</g>
<g>
	<path class="st0" d="M781.4,489.5v1.4h2.1v0.9h-2.1v2.7h-1.2v-6h3.8v0.9H781.4z"/>
	<path class="st0" d="M789,494.6c-0.7,0-1.3-0.3-1.7-1.2l-0.6-1.3h-0.7v2.4h-1.2v-6h2.4c1.4,0,2,0.8,2,1.8c0,0.8-0.5,1.5-1.3,1.7
		l0.6,1c0.3,0.5,0.6,0.7,1,0.7c0.1,0,0.2,0,0.3,0v0.8C789.4,494.5,789.2,494.6,789,494.6z M785.9,491.3h0.9c0.8,0,1-0.4,1-0.9
		c0-0.5-0.3-0.9-1-0.9h-0.9V491.3z"/>
	<path class="st0" d="M790.4,494.5v-6h1.2v6H790.4z"/>
	<path class="st0" d="M792.8,494.5v-6h3.9v0.9H794v1.4h2.2v0.9H794v1.7h2.7v0.9H792.8z"/>
	<path class="st0" d="M802,494.5l-3.1-4v4h-1.1v-6h0.8l3.1,4v-4h1.1v6H802z"/>
	<path class="st0" d="M806.2,494.5h-2.1v-6h2.1c2.4,0,3.4,1.3,3.4,3S808.6,494.5,806.2,494.5z M806.1,489.5h-0.8v4h0.8
		c1.6,0,2.2-0.8,2.2-2S807.8,489.5,806.1,489.5z"/>
	<path class="st0" d="M812.3,494.6c-1,0-1.7-0.4-2.1-0.8l0.3-1c0.4,0.4,1,0.8,1.8,0.8c0.6,0,1.1-0.3,1.1-0.8c0-0.5-0.3-0.7-1.3-1
		c-1.3-0.3-1.8-1-1.8-1.8c0-1,0.8-1.7,2.1-1.7c0.7,0,1.4,0.3,1.8,0.6l-0.3,0.8c-0.4-0.3-1-0.5-1.5-0.5c-0.6,0-0.9,0.3-0.9,0.7
		c0,0.3,0.2,0.6,1,0.8c1.4,0.3,2,0.9,2,2C814.5,494.1,813.4,494.6,812.3,494.6z"/>
	<path class="st0" d="M819.4,494.5v-2.6h-2.8v2.6h-1.2v-6h1.2v2.3h2.8v-2.3h1.2v6H819.4z"/>
	<path class="st0" d="M821.9,494.5v-6h1.2v6H821.9z"/>
	<path class="st0" d="M826.6,492.3h-1.1v2.2h-1.2v-6h2.3c1.4,0,2.1,0.9,2.1,1.9C828.7,491.5,828,492.3,826.6,492.3z M826.4,489.4
		h-0.9v2.1h0.9c0.8,0,1.1-0.5,1.1-1C827.5,489.9,827.2,489.4,826.4,489.4z"/>
</g>
<g>
	<path class="st0" d="M871.7,501.7H840c-3.4,0-6.1-2.7-6.1-6.1v-7.6c0-3.4,2.7-6.1,6.1-6.1h31.7c3.4,0,6.1,2.7,6.1,6.1v7.6
		C877.8,499,875,501.7,871.7,501.7z M840,483c-2.8,0-5.1,2.3-5.1,5.1v7.6c0,2.8,2.3,5.1,5.1,5.1h31.7c2.8,0,5.1-2.3,5.1-5.1v-7.6
		c0-2.8-2.3-5.1-5.1-5.1H840z"/>
</g>
<g>
	<path class="st0" d="M839,494.6c-1,0-1.7-0.4-2.1-0.8l0.3-1c0.4,0.4,1,0.8,1.8,0.8c0.6,0,1.1-0.3,1.1-0.8c0-0.5-0.3-0.7-1.3-1
		c-1.3-0.3-1.8-1-1.8-1.8c0-1,0.8-1.7,2.1-1.7c0.7,0,1.4,0.3,1.8,0.6l-0.3,0.8c-0.4-0.3-1-0.5-1.5-0.5c-0.6,0-0.9,0.3-0.9,0.7
		c0,0.3,0.2,0.6,1,0.8c1.4,0.3,2,0.9,2,2C841.1,494.1,840.1,494.6,839,494.6z"/>
	<path class="st0" d="M844.8,494.7c-1.6,0-2.8-0.9-2.8-2.9v-3.2h1.2v3.2c0,1.3,0.6,1.9,1.5,1.9s1.5-0.6,1.5-1.9v-3.2h1.2v3.2
		C847.6,493.8,846.4,494.7,844.8,494.7z"/>
	<path class="st0" d="M851.7,494.6c-1.7,0-3.2-1.2-3.2-3.1c0-1.9,1.5-3.1,3.2-3.1c0.8,0,1.6,0.2,2.1,0.6v1.1c-0.5-0.4-1.1-0.7-2-0.7
		c-1.2,0-2.1,0.8-2.1,2.1c0,1.3,0.9,2.1,2.1,2.1c0.8,0,1.5-0.3,2-0.7v1.1C853.3,494.4,852.5,494.6,851.7,494.6z"/>
	<path class="st0" d="M857.6,494.6c-1.7,0-3.2-1.2-3.2-3.1c0-1.9,1.5-3.1,3.2-3.1c0.8,0,1.6,0.2,2.1,0.6v1.1c-0.5-0.4-1.1-0.7-2-0.7
		c-1.2,0-2.1,0.8-2.1,2.1c0,1.3,0.9,2.1,2.1,2.1c0.8,0,1.5-0.3,2-0.7v1.1C859.2,494.4,858.4,494.6,857.6,494.6z"/>
	<path class="st0" d="M860.7,494.5v-6h3.9v0.9h-2.7v1.4h2.2v0.9h-2.2v1.7h2.7v0.9H860.7z"/>
	<path class="st0" d="M867.4,494.6c-1,0-1.7-0.4-2.1-0.8l0.3-1c0.4,0.4,1,0.8,1.8,0.8c0.6,0,1.1-0.3,1.1-0.8c0-0.5-0.3-0.7-1.3-1
		c-1.3-0.3-1.8-1-1.8-1.8c0-1,0.8-1.7,2.1-1.7c0.7,0,1.4,0.3,1.8,0.6l-0.3,0.8c-0.4-0.3-1-0.5-1.5-0.5c-0.6,0-0.9,0.3-0.9,0.7
		c0,0.3,0.2,0.6,1,0.8c1.4,0.3,2,0.9,2,2C869.6,494.1,868.6,494.6,867.4,494.6z"/>
	<path class="st0" d="M872.3,494.6c-1,0-1.7-0.4-2.1-0.8l0.3-1c0.4,0.4,1,0.8,1.8,0.8c0.6,0,1.1-0.3,1.1-0.8c0-0.5-0.3-0.7-1.3-1
		c-1.3-0.3-1.8-1-1.8-1.8c0-1,0.8-1.7,2.1-1.7c0.7,0,1.4,0.3,1.8,0.6l-0.3,0.8c-0.4-0.3-1-0.5-1.5-0.5c-0.6,0-0.9,0.3-0.9,0.7
		c0,0.3,0.2,0.6,1,0.8c1.4,0.3,2,0.9,2,2C874.5,494.1,873.4,494.6,872.3,494.6z"/>
</g>
<g>
	<path class="st0" d="M916.4,501.7h-31.7c-3.4,0-6.1-2.7-6.1-6.1v-7.6c0-3.4,2.7-6.1,6.1-6.1h31.7c3.4,0,6.1,2.7,6.1,6.1v7.6
		C922.4,499,919.7,501.7,916.4,501.7z M884.7,483c-2.8,0-5.1,2.3-5.1,5.1v7.6c0,2.8,2.3,5.1,5.1,5.1h31.7c2.8,0,5.1-2.3,5.1-5.1
		v-7.6c0-2.8-2.3-5.1-5.1-5.1H884.7z"/>
</g>
<g>
	<path class="st0" d="M888.2,494.5h-0.9l-1.2-3.6c0-0.1-0.1-0.4-0.1-0.5c0,0-0.1,0.3-0.1,0.5l-1.2,3.6h-0.9l-2.1-6h1.2l1.2,3.8
		c0,0.1,0.1,0.5,0.1,0.6c0,0,0.1-0.4,0.2-0.6l1.2-3.8h0.9l1.2,3.8l0.1,0.6c0,0,0.1-0.4,0.1-0.6l1.2-3.8h1.2L888.2,494.5z"/>
	<path class="st0" d="M890.9,494.5v-6h1.2v6H890.9z"/>
	<path class="st0" d="M895.1,494.6c-1,0-1.7-0.4-2.1-0.8l0.3-1c0.4,0.4,1,0.8,1.8,0.8c0.6,0,1.1-0.3,1.1-0.8c0-0.5-0.3-0.7-1.3-1
		c-1.3-0.3-1.8-1-1.8-1.8c0-1,0.8-1.7,2.1-1.7c0.7,0,1.4,0.3,1.8,0.6l-0.3,0.8c-0.4-0.3-1-0.5-1.5-0.5c-0.6,0-0.9,0.3-0.9,0.7
		c0,0.3,0.2,0.6,1,0.8c1.4,0.3,2,0.9,2,2C897.3,494.1,896.3,494.6,895.1,494.6z"/>
	<path class="st0" d="M900.4,494.5h-2.1v-6h2.1c2.4,0,3.4,1.3,3.4,3S902.7,494.5,900.4,494.5z M900.3,489.5h-0.8v4h0.8
		c1.6,0,2.2-0.8,2.2-2S901.9,489.5,900.3,489.5z"/>
	<path class="st0" d="M907.7,494.7c-1.8,0-3.3-1.3-3.3-3.2s1.4-3.2,3.3-3.2c1.8,0,3.2,1.3,3.2,3.2S909.5,494.7,907.7,494.7z
		 M907.7,489.3c-1.2,0-2,0.9-2,2.2c0,1.3,0.8,2.2,2,2.2c1.2,0,2-0.9,2-2.2C909.6,490.2,908.8,489.3,907.7,489.3z"/>
	<path class="st0" d="M917.2,494.5v-3.7c0-0.1,0-0.5,0-0.6l-0.2,0.6l-1.6,3.7h-0.8l-1.6-3.7c-0.1-0.1-0.2-0.5-0.2-0.6
		c0,0,0,0.4,0,0.6v3.7h-1.1v-6h1.3l2,4.4l2-4.4h1.3v6H917.2z"/>
</g>
<g>
	<path class="st0" d="M289.3,324.9H167.5c-8.2,0-14.9-6.7-14.9-14.9v-4.2c0-8.2,6.7-14.9,14.9-14.9h121.8c8.2,0,14.9,6.7,14.9,14.9
		v4.2C304.2,318.2,297.5,324.9,289.3,324.9z M167.5,293.9c-6.5,0-11.9,5.3-11.9,11.9v4.2c0,6.5,5.3,11.9,11.9,11.9h121.8
		c6.5,0,11.9-5.3,11.9-11.9v-4.2c0-6.5-5.3-11.9-11.9-11.9H167.5z"/>
</g>
<g>
	<path class="st0" d="M211,314.2v-8.8c0-0.3,0.1-1.3,0.1-1.4l-0.5,1.4l-3.9,8.8h-1.8l-3.9-8.8c-0.1-0.3-0.5-1.2-0.5-1.4
		c0,0.1,0.1,1,0.1,1.4v8.8h-2.6v-14.4h3.1l4.8,10.5l4.7-10.5h3v14.4H211z"/>
	<path class="st0" d="M223.3,314.6c-3.8,0-6.6-2.2-6.6-7.1v-7.8h3v7.7c0,3.1,1.3,4.6,3.7,4.6s3.7-1.5,3.7-4.6v-7.7h2.9v7.8
		C229.9,312.4,227.1,314.6,223.3,314.6z"/>
	<path class="st0" d="M237.1,314.4c-2.4,0-4.1-0.9-5.1-1.8l0.7-2.3c1,0.9,2.5,1.9,4.4,1.9c1.4,0,2.5-0.7,2.5-2c0-1.2-0.7-1.8-3-2.4
		c-3-0.7-4.2-2.4-4.2-4.4c0-2.4,1.9-4.1,5-4.1c1.8,0,3.4,0.7,4.3,1.4l-0.6,2c-1-0.7-2.4-1.2-3.7-1.2c-1.4,0-2.3,0.6-2.3,1.7
		c0,0.8,0.5,1.5,2.5,2c3.4,0.8,4.8,2.3,4.8,4.8C242.3,313.1,239.8,314.4,237.1,314.4z"/>
	<path class="st0" d="M244.5,314.2v-14.4h2.9v14.4H244.5z"/>
	<path class="st0" d="M257.4,314.5c-4.2,0-7.7-2.9-7.7-7.5s3.6-7.5,7.7-7.5c1.9,0,3.8,0.6,5,1.5v2.7c-1.2-1-2.7-1.8-4.7-1.8
		c-2.9,0-5,1.9-5,5.2c0,3.2,2.1,5.2,5,5.2c2,0,3.6-0.8,4.7-1.8v2.7C261.2,313.9,259.3,314.5,257.4,314.5z"/>
</g>
<g>
	<path class="st0" d="M289.3,401H167.5c-7.6,0-13.9-6.2-13.9-13.9v-4.2c0-7.6,6.2-13.9,13.9-13.9h121.8c7.6,0,13.9,6.2,13.9,13.9
		v4.2C303.2,394.8,297,401,289.3,401z M167.5,370c-7.1,0-12.9,5.8-12.9,12.9v4.2c0,7.1,5.8,12.9,12.9,12.9h121.8
		c7.1,0,12.9-5.8,12.9-12.9v-4.2c0-7.1-5.8-12.9-12.9-12.9H167.5z"/>
</g>
<g>
	<path class="st0" d="M197.4,391.3h-5.8v-14.4h5.6c3.1,0,4.3,1.7,4.3,3.8c0,1.1-0.7,2.3-1.5,2.8c1.4,0.6,2.3,2.1,2.3,3.6
		C202.3,389.4,200.9,391.3,197.4,391.3z M194.5,382.7h2.2c1.5,0,2.1-0.8,2.1-1.9s-0.6-1.9-2.1-1.9h-2.2V382.7z M196.9,384.7h-2.4
		v4.5h2.4c1.8,0,2.5-1,2.5-2.3C199.4,385.7,198.7,384.7,196.9,384.7z"/>
	<path class="st0" d="M214.7,391.5c-1.7,0-3.2-0.7-4.2-2.8l-1.5-3.1h-1.7v5.7h-2.9v-14.4h5.7c3.4,0,4.9,2,4.9,4.3
		c0,2-1.2,3.6-3.2,4.1l1.4,2.5c0.7,1.3,1.4,1.7,2.4,1.7c0.3,0,0.5,0,0.8-0.1v1.8C215.8,391.4,215.2,391.5,214.7,391.5z M207.3,383.5
		h2.3c1.8,0,2.5-1,2.5-2.2c0-1.3-0.6-2.3-2.5-2.3h-2.3V383.5z"/>
	<path class="st0" d="M218,391.3v-14.4h9.4v2.3H221v3.4h5.3v2.3H221v4.2h6.5v2.3H218z"/>
	<path class="st0" d="M240.1,391.3l-1.5-3.6h-5.8l-1.5,3.6h-2.8l6.1-14.4h2.3l6.1,14.4H240.1z M235.8,380.5l-2.1,5.2h4.2
		L235.8,380.5z"/>
	<path class="st0" d="M249.2,379.2v12.1h-2.9v-12.1h-4.9v-2.3h12.7v2.3H249.2z"/>
	<path class="st0" d="M265.4,391.3v-6.4h-6.8v6.4h-2.9v-14.4h2.9v5.6h6.8v-5.6h2.9v14.4H265.4z"/>
</g>
<g>
	<path class="st0" d="M594,323.9H472.2c-7.6,0-13.9-6.2-13.9-13.9v-4.2c0-7.6,6.2-13.9,13.9-13.9H594c7.6,0,13.9,6.2,13.9,13.9v4.2
		C607.9,317.7,601.7,323.9,594,323.9z M472.2,292.9c-7.1,0-12.9,5.8-12.9,12.9v4.2c0,7.1,5.8,12.9,12.9,12.9H594
		c7.1,0,12.9-5.8,12.9-12.9v-4.2c0-7.1-5.8-12.9-12.9-12.9H472.2z"/>
</g>
<g>
	<path class="st0" d="M494.2,314.5c-4.2,0-7.7-2.9-7.7-7.5s3.6-7.5,7.7-7.5c1.9,0,3.8,0.6,5,1.5v2.7c-1.2-1-2.7-1.8-4.7-1.8
		c-2.9,0-5,1.9-5,5.2c0,3.2,2.1,5.2,5,5.2c2,0,3.6-0.8,4.7-1.8v2.7C498,313.9,496.1,314.5,494.2,314.5z"/>
	<path class="st0" d="M511.3,314.2v-6.4h-6.8v6.4h-2.9v-14.4h2.9v5.6h6.8v-5.6h2.9v14.4H511.3z"/>
	<path class="st0" d="M527.4,314.2l-1.5-3.6h-5.8l-1.5,3.6h-2.8l6.1-14.4h2.3l6.1,14.4H527.4z M523,303.3l-2.1,5.2h4.2L523,303.3z"
		/>
	<path class="st0" d="M536.5,302v12.1h-2.9V302h-4.9v-2.3h12.7v2.3H536.5z"/>
	<path class="st0" d="M548.8,314.2H543v-14.4h5.6c3.1,0,4.3,1.7,4.3,3.8c0,1.1-0.7,2.3-1.5,2.8c1.4,0.6,2.3,2.1,2.3,3.6
		C553.7,312.3,552.2,314.2,548.8,314.2z M545.9,305.5h2.2c1.5,0,2.1-0.8,2.1-1.9c0-1.1-0.6-1.9-2.1-1.9h-2.2V305.5z M548.3,307.6
		h-2.4v4.5h2.4c1.8,0,2.5-1,2.5-2.3S550.1,307.6,548.3,307.6z"/>
	<path class="st0" d="M562.9,314.6c-4.4,0-7.8-3.2-7.8-7.6c0-4.4,3.4-7.6,7.8-7.6c4.4,0,7.8,3.2,7.8,7.6
		C570.7,311.4,567.3,314.6,562.9,314.6z M562.9,301.7c-2.9,0-4.8,2.2-4.8,5.3s1.9,5.3,4.8,5.3c2.8,0,4.7-2.2,4.7-5.3
		S565.7,301.7,562.9,301.7z"/>
	<path class="st0" d="M578.6,302v12.1h-2.9V302h-4.9v-2.3h12.7v2.3H578.6z"/>
</g>
<g>
	<path class="st0" d="M594,401H472.2c-7.6,0-13.9-6.2-13.9-13.9v-4.2c0-7.6,6.2-13.9,13.9-13.9H594c7.6,0,13.9,6.2,13.9,13.9v4.2
		C607.9,394.8,601.7,401,594,401z M472.2,370c-7.1,0-12.9,5.8-12.9,12.9v4.2c0,7.1,5.8,12.9,12.9,12.9H594c7.1,0,12.9-5.8,12.9-12.9
		v-4.2c0-7.1-5.8-12.9-12.9-12.9H472.2z"/>
</g>
<g>
	<path class="st0" d="M511.5,391.3h-2.2l-6.1-14.4h3l4.3,10.3l4.2-10.3h2.9L511.5,391.3z"/>
	<path class="st0" d="M525.5,391.7c-4.4,0-7.8-3.2-7.8-7.6s3.4-7.6,7.8-7.6c4.4,0,7.8,3.2,7.8,7.6S529.9,391.7,525.5,391.7z
		 M525.5,378.8c-2.9,0-4.8,2.2-4.8,5.3s1.9,5.3,4.8,5.3c2.8,0,4.7-2.2,4.7-5.3S528.3,378.8,525.5,378.8z"/>
	<path class="st0" d="M535.5,391.3v-14.4h2.9v14.4H535.5z"/>
	<path class="st0" d="M548.4,391.6c-4.2,0-7.7-2.9-7.7-7.5s3.6-7.5,7.7-7.5c1.9,0,3.8,0.6,5,1.5v2.7c-1.2-1-2.7-1.8-4.7-1.8
		c-2.9,0-5,1.9-5,5.2c0,3.2,2.1,5.2,5,5.2c2,0,3.6-0.8,4.7-1.8v2.7C552.2,391,550.3,391.6,548.4,391.6z"/>
	<path class="st0" d="M555.8,391.3v-14.4h9.4v2.3h-6.5v3.4h5.3v2.3h-5.3v4.2h6.5v2.3H555.8z"/>
</g>
<g>
	<path class="st0" d="M594,474.1H472.2c-7.6,0-13.9-6.2-13.9-13.9V456c0-7.6,6.2-13.9,13.9-13.9H594c7.6,0,13.9,6.2,13.9,13.9v4.2
		C607.9,467.9,601.7,474.1,594,474.1z M472.2,443.2c-7.1,0-12.9,5.8-12.9,12.9v4.2c0,7.1,5.8,12.9,12.9,12.9H594
		c7.1,0,12.9-5.8,12.9-12.9V456c0-7.1-5.8-12.9-12.9-12.9H472.2z"/>
</g>
<g>
	<path class="st0" d="M472.2,464.4V450h2.9v14.4H472.2z"/>
	<path class="st0" d="M488.3,464.4l-7.5-9.5v9.5h-2.6V450h2l7.5,9.5V450h2.6v14.4H488.3z"/>
	<path class="st0" d="M497.5,464.7c-2.4,0-4.1-0.9-5.1-1.8l0.7-2.3c1,0.9,2.5,1.9,4.4,1.9c1.4,0,2.5-0.7,2.5-2c0-1.2-0.7-1.8-3-2.4
		c-3-0.7-4.2-2.4-4.2-4.4c0-2.4,1.9-4.1,5-4.1c1.8,0,3.4,0.7,4.3,1.4l-0.6,2c-1-0.7-2.4-1.2-3.7-1.2c-1.4,0-2.3,0.6-2.3,1.7
		c0,0.8,0.5,1.5,2.5,2c3.4,0.8,4.8,2.3,4.8,4.8C502.8,463.4,500.2,464.7,497.5,464.7z"/>
	<path class="st0" d="M510.4,459.2h-2.5v5.2h-2.9V450h5.5c3.5,0,5,2.1,5,4.6C515.4,457.1,513.9,459.2,510.4,459.2z M509.9,452.1
		h-2.1v5h2.1c1.9,0,2.6-1.1,2.6-2.5C512.5,453.2,511.8,452.1,509.9,452.1z"/>
	<path class="st0" d="M517.1,464.4V450h2.9v14.4H517.1z"/>
	<path class="st0" d="M533.2,464.6c-1.7,0-3.2-0.7-4.2-2.8l-1.5-3.1h-1.7v5.7h-2.9V450h5.7c3.4,0,4.9,2,4.9,4.3c0,2-1.2,3.6-3.2,4.1
		l1.4,2.5c0.7,1.3,1.4,1.7,2.4,1.7c0.3,0,0.5,0,0.8-0.1v1.8C534.4,464.5,533.8,464.6,533.2,464.6z M525.9,456.6h2.3
		c1.8,0,2.5-1,2.5-2.2c0-1.3-0.6-2.3-2.5-2.3h-2.3V456.6z"/>
	<path class="st0" d="M546.2,464.4l-1.5-3.6h-5.8l-1.5,3.6h-2.8l6.1-14.4h2.3l6.1,14.4H546.2z M541.8,453.6l-2.1,5.2h4.2
		L541.8,453.6z"/>
	<path class="st0" d="M555.3,452.3v12.1h-2.9v-12.1h-4.9V450h12.7v2.3H555.3z"/>
	<path class="st0" d="M561.8,464.4V450h2.9v14.4H561.8z"/>
	<path class="st0" d="M574.8,464.8c-4.4,0-7.8-3.2-7.8-7.6c0-4.4,3.4-7.6,7.8-7.6c4.4,0,7.8,3.2,7.8,7.6
		C582.6,461.6,579.2,464.8,574.8,464.8z M574.8,451.9c-2.9,0-4.8,2.2-4.8,5.3s1.9,5.3,4.8,5.3c2.8,0,4.7-2.2,4.7-5.3
		S577.6,451.9,574.8,451.9z"/>
	<path class="st0" d="M595,464.4l-7.5-9.5v9.5h-2.6V450h2l7.5,9.5V450h2.6v14.4H595z"/>
</g>
<g>
	<path class="st0" d="M878.1,323.9H756.3c-7.6,0-13.9-6.2-13.9-13.9v-4.2c0-7.6,6.2-13.9,13.9-13.9h121.8c7.6,0,13.9,6.2,13.9,13.9
		v4.2C892,317.7,885.8,323.9,878.1,323.9z M756.3,292.9c-7.1,0-12.9,5.8-12.9,12.9v4.2c0,7.1,5.8,12.9,12.9,12.9h121.8
		c7.1,0,12.9-5.8,12.9-12.9v-4.2c0-7.1-5.8-12.9-12.9-12.9H756.3z"/>
</g>
<g>
	<path class="st0" d="M794.5,314.4c-2.4,0-4.1-0.9-5.1-1.8l0.7-2.3c1,0.9,2.5,1.9,4.4,1.9c1.4,0,2.5-0.7,2.5-2c0-1.2-0.7-1.8-3-2.4
		c-3-0.7-4.2-2.4-4.2-4.4c0-2.4,1.9-4.1,5-4.1c1.8,0,3.4,0.7,4.3,1.4l-0.6,2c-1-0.7-2.4-1.2-3.7-1.2c-1.4,0-2.3,0.6-2.3,1.7
		c0,0.8,0.5,1.5,2.5,2c3.4,0.8,4.8,2.3,4.8,4.8C799.7,313.1,797.2,314.4,794.5,314.4z"/>
	<path class="st0" d="M807.9,302v12.1H805V302h-4.9v-2.3h12.7v2.3H807.9z"/>
	<path class="st0" d="M814.4,314.2v-14.4h9.4v2.3h-6.5v3.4h5.3v2.3h-5.3v4.2h6.5v2.3H814.4z"/>
	<path class="st0" d="M831.7,308.9h-2.5v5.2h-2.9v-14.4h5.5c3.5,0,5,2.1,5,4.6C836.7,306.8,835.2,308.9,831.7,308.9z M831.2,301.8
		h-2.1v5h2.1c1.9,0,2.6-1.1,2.6-2.5C833.8,303,833.1,301.8,831.2,301.8z"/>
	<path class="st0" d="M842.8,314.4c-2.4,0-4.1-0.9-5.1-1.8l0.7-2.3c1,0.9,2.5,1.9,4.4,1.9c1.4,0,2.5-0.7,2.5-2c0-1.2-0.7-1.8-3-2.4
		c-3-0.7-4.2-2.4-4.2-4.4c0-2.4,1.9-4.1,5-4.1c1.8,0,3.4,0.7,4.3,1.4l-0.6,2c-1-0.7-2.4-1.2-3.7-1.2c-1.4,0-2.3,0.6-2.3,1.7
		c0,0.8,0.5,1.5,2.5,2c3.4,0.8,4.8,2.3,4.8,4.8C848.1,313.1,845.5,314.4,842.8,314.4z"/>
</g>
<g>
	<path class="st0" d="M878.1,401H756.3c-7.6,0-13.9-6.2-13.9-13.9v-4.2c0-7.6,6.2-13.9,13.9-13.9h121.8c7.6,0,13.9,6.2,13.9,13.9
		v4.2C892,394.8,885.8,401,878.1,401z M756.3,370c-7.1,0-12.9,5.8-12.9,12.9v4.2c0,7.1,5.8,12.9,12.9,12.9h121.8
		c7.1,0,12.9-5.8,12.9-12.9v-4.2c0-7.1-5.8-12.9-12.9-12.9H756.3z"/>
</g>
<g>
	<path class="st0" d="M786.8,391.3v-8.8c0-0.3,0.1-1.3,0.1-1.4l-0.5,1.4l-3.9,8.8h-1.8l-3.9-8.8c-0.1-0.3-0.5-1.2-0.5-1.4
		c0,0.1,0.1,1,0.1,1.4v8.8h-2.6v-14.4h3.1l4.8,10.5l4.7-10.5h3v14.4H786.8z"/>
	<path class="st0" d="M792.4,391.3v-14.4h9.4v2.3h-6.5v3.4h5.3v2.3h-5.3v4.2h6.5v2.3H792.4z"/>
	<path class="st0" d="M817.3,391.3v-8.8c0-0.3,0.1-1.3,0.1-1.4l-0.5,1.4l-3.9,8.8h-1.8l-3.9-8.8c-0.1-0.3-0.5-1.2-0.5-1.4
		c0,0.1,0.1,1,0.1,1.4v8.8h-2.6v-14.4h3.1l4.8,10.5l4.7-10.5h3v14.4H817.3z"/>
	<path class="st0" d="M830,391.7c-4.4,0-7.8-3.2-7.8-7.6s3.4-7.6,7.8-7.6c4.4,0,7.8,3.2,7.8,7.6S834.4,391.7,830,391.7z M830,378.8
		c-2.9,0-4.8,2.2-4.8,5.3s1.9,5.3,4.8,5.3c2.8,0,4.7-2.2,4.7-5.3S832.9,378.8,830,378.8z"/>
	<path class="st0" d="M850.3,391.5c-1.7,0-3.2-0.7-4.2-2.8l-1.5-3.1H843v5.7H840v-14.4h5.7c3.4,0,4.9,2,4.9,4.3c0,2-1.2,3.6-3.2,4.1
		l1.4,2.5c0.7,1.3,1.4,1.7,2.4,1.7c0.3,0,0.5,0,0.8-0.1v1.8C851.5,391.4,850.9,391.5,850.3,391.5z M843,383.5h2.3
		c1.8,0,2.5-1,2.5-2.2c0-1.3-0.6-2.3-2.5-2.3H843V383.5z"/>
	<path class="st0" d="M859.6,385.5v5.8h-2.9v-5.8l-5.6-8.6h3.2l4,6.3l4-6.3h3.1L859.6,385.5z"/>
</g>
<g>
	<path class="st0" d="M878.1,474.1H756.3c-7.6,0-13.9-6.2-13.9-13.9V456c0-7.6,6.2-13.9,13.9-13.9h121.8c7.6,0,13.9,6.2,13.9,13.9
		v4.2C892,467.9,885.8,474.1,878.1,474.1z M756.3,443.2c-7.1,0-12.9,5.8-12.9,12.9v4.2c0,7.1,5.8,12.9,12.9,12.9h121.8
		c7.1,0,12.9-5.8,12.9-12.9V456c0-7.1-5.8-12.9-12.9-12.9H756.3z"/>
</g>
<g>
	<path class="st0" d="M782.7,464.7c-2.4,0-4.1-0.9-5.1-1.8l0.7-2.3c1,0.9,2.5,1.9,4.4,1.9c1.4,0,2.5-0.7,2.5-2c0-1.2-0.7-1.8-3-2.4
		c-3-0.7-4.2-2.4-4.2-4.4c0-2.4,1.9-4.1,5-4.1c1.8,0,3.4,0.7,4.3,1.4l-0.6,2c-1-0.7-2.4-1.2-3.7-1.2c-1.4,0-2.3,0.6-2.3,1.7
		c0,0.8,0.5,1.5,2.5,2c3.4,0.8,4.8,2.3,4.8,4.8C787.9,463.4,785.4,464.7,782.7,464.7z"/>
	<path class="st0" d="M796.1,452.3v12.1h-2.9v-12.1h-4.9V450H801v2.3H796.1z"/>
	<path class="st0" d="M808.9,464.8c-4.4,0-7.8-3.2-7.8-7.6c0-4.4,3.4-7.6,7.8-7.6c4.4,0,7.8,3.2,7.8,7.6
		C816.7,461.6,813.3,464.8,808.9,464.8z M808.9,451.9c-2.9,0-4.8,2.2-4.8,5.3s1.9,5.3,4.8,5.3c2.8,0,4.7-2.2,4.7-5.3
		S811.8,451.9,808.9,451.9z"/>
	<path class="st0" d="M829.3,464.6c-1.7,0-3.2-0.7-4.2-2.8l-1.5-3.1h-1.7v5.7H819V450h5.7c3.4,0,4.9,2,4.9,4.3c0,2-1.2,3.6-3.2,4.1
		l1.4,2.5c0.7,1.3,1.4,1.7,2.4,1.7c0.3,0,0.5,0,0.8-0.1v1.8C830.4,464.5,829.8,464.6,829.3,464.6z M821.9,456.6h2.3
		c1.8,0,2.5-1,2.5-2.2c0-1.3-0.6-2.3-2.5-2.3h-2.3V456.6z"/>
	<path class="st0" d="M832.6,464.4V450h2.9v14.4H832.6z"/>
	<path class="st0" d="M838.5,464.4V450h9.4v2.3h-6.5v3.4h5.3v2.3h-5.3v4.2h6.5v2.3H838.5z"/>
	<path class="st0" d="M854.6,464.7c-2.4,0-4.1-0.9-5.1-1.8l0.7-2.3c1,0.9,2.5,1.9,4.4,1.9c1.4,0,2.5-0.7,2.5-2c0-1.2-0.7-1.8-3-2.4
		c-3-0.7-4.2-2.4-4.2-4.4c0-2.4,1.9-4.1,5-4.1c1.8,0,3.4,0.7,4.3,1.4l-0.6,2c-1-0.7-2.4-1.2-3.7-1.2c-1.4,0-2.3,0.6-2.3,1.7
		c0,0.8,0.5,1.5,2.5,2c3.4,0.8,4.8,2.3,4.8,4.8C859.9,463.4,857.3,464.7,854.6,464.7z"/>
</g>
<g>
	<path class="st0" d="M600.2,248.8H466c-8,0-14.5-6.5-14.5-14.5v-3c0-8,6.5-14.5,14.5-14.5h134.3c8,0,14.5,6.5,14.5,14.5v3
		C614.7,242.3,608.2,248.8,600.2,248.8z M466,217.8c-7.4,0-13.5,6-13.5,13.5v3c0,7.4,6,13.5,13.5,13.5h134.3c7.4,0,13.5-6,13.5-13.5
		v-3c0-7.4-6-13.5-13.5-13.5H466z"/>
</g>
<g>
	<path class="st0" d="M482.9,239v-8.8c0-0.3,0.1-1.3,0.1-1.4l-0.5,1.4l-3.9,8.8h-1.8l-3.9-8.8c-0.1-0.3-0.5-1.2-0.5-1.4
		c0,0.1,0.1,1,0.1,1.4v8.8h-2.6v-14.4h3.1l4.8,10.5l4.7-10.5h3V239H482.9z"/>
	<path class="st0" d="M495.7,239.4c-4.4,0-7.8-3.2-7.8-7.6c0-4.4,3.4-7.6,7.8-7.6c4.4,0,7.8,3.2,7.8,7.6
		C503.4,236.2,500.1,239.4,495.7,239.4z M495.7,226.6c-2.9,0-4.8,2.2-4.8,5.3s1.9,5.3,4.8,5.3c2.8,0,4.7-2.2,4.7-5.3
		S498.5,226.6,495.7,226.6z"/>
	<path class="st0" d="M511.4,226.9V239h-2.9v-12.1h-4.9v-2.3h12.7v2.3H511.4z"/>
	<path class="st0" d="M517.8,239v-14.4h2.9V239H517.8z"/>
	<path class="st0" d="M530.6,239h-2.2l-6.1-14.4h3l4.3,10.3l4.2-10.3h2.9L530.6,239z"/>
	<path class="st0" d="M546.5,239l-1.5-3.6h-5.8l-1.5,3.6h-2.8l6.1-14.4h2.3l6.1,14.4H546.5z M542.1,228.2l-2.1,5.2h4.2L542.1,228.2z
		"/>
	<path class="st0" d="M555.6,226.9V239h-2.9v-12.1h-4.9v-2.3h12.7v2.3H555.6z"/>
	<path class="st0" d="M562.1,239v-14.4h2.9V239H562.1z"/>
	<path class="st0" d="M575.1,239.4c-4.4,0-7.8-3.2-7.8-7.6c0-4.4,3.4-7.6,7.8-7.6c4.4,0,7.8,3.2,7.8,7.6
		C582.9,236.2,579.5,239.4,575.1,239.4z M575.1,226.6c-2.9,0-4.8,2.2-4.8,5.3s1.9,5.3,4.8,5.3c2.8,0,4.7-2.2,4.7-5.3
		S578,226.6,575.1,226.6z"/>
	<path class="st0" d="M595.3,239l-7.5-9.5v9.5h-2.6v-14.4h2l7.5,9.5v-9.5h2.6V239H595.3z"/>
</g>
<g>
	<path class="st0" d="M871.2,248.8h-108c-7.3,0-13.2-5.9-13.2-13.2V230c0-7.3,5.9-13.2,13.2-13.2h108c7.3,0,13.2,5.9,13.2,13.2v5.7
		C884.4,242.9,878.5,248.8,871.2,248.8z M763.2,217.8c-6.7,0-12.2,5.5-12.2,12.2v5.7c0,6.7,5.5,12.2,12.2,12.2h108
		c6.7,0,12.2-5.5,12.2-12.2V230c0-6.7-5.5-12.2-12.2-12.2H763.2z"/>
</g>
<g>
	<path class="st0" d="M788.4,226.9v3.5h5.1v2.3h-5.1v6.4h-2.9v-14.4h9.2v2.3H788.4z"/>
	<path class="st0" d="M803.4,239.4c-4.4,0-7.8-3.2-7.8-7.6c0-4.4,3.4-7.6,7.8-7.6c4.4,0,7.8,3.2,7.8,7.6
		C811.2,236.2,807.8,239.4,803.4,239.4z M803.4,226.6c-2.9,0-4.8,2.2-4.8,5.3s1.9,5.3,4.8,5.3c2.8,0,4.7-2.2,4.7-5.3
		S806.2,226.6,803.4,226.6z"/>
	<path class="st0" d="M820.5,239.3c-4.2,0-7.7-2.9-7.7-7.5s3.6-7.5,7.7-7.5c1.9,0,3.8,0.6,5,1.5v2.7c-1.2-1-2.7-1.8-4.7-1.8
		c-2.9,0-5,1.9-5,5.2c0,3.2,2.1,5.2,5,5.2c2,0,3.6-0.8,4.7-1.8v2.7C824.3,238.8,822.4,239.3,820.5,239.3z"/>
	<path class="st0" d="M834.5,239.4c-3.8,0-6.6-2.2-6.6-7.1v-7.8h3v7.7c0,3.1,1.3,4.6,3.7,4.6s3.7-1.5,3.7-4.6v-7.7h2.9v7.8
		C841.1,237.3,838.3,239.4,834.5,239.4z"/>
	<path class="st0" d="M848.3,239.3c-2.4,0-4.1-0.9-5.1-1.8l0.7-2.3c1,0.9,2.5,1.9,4.4,1.9c1.4,0,2.5-0.7,2.5-2c0-1.2-0.7-1.8-3-2.4
		c-3-0.7-4.2-2.4-4.2-4.4c0-2.4,1.9-4.1,5-4.1c1.8,0,3.4,0.7,4.3,1.4l-0.6,2c-1-0.7-2.4-1.2-3.7-1.2c-1.4,0-2.3,0.6-2.3,1.7
		c0,0.8,0.5,1.5,2.5,2c3.4,0.8,4.8,2.3,4.8,4.8C853.5,238,851,239.3,848.3,239.3z"/>
</g>
<g>
	<path class="st0" d="M625.9,172H436.1c-7.6,0-13.9-6.2-13.9-13.9v-6.3c0-7.6,6.2-13.9,13.9-13.9h189.8c7.6,0,13.9,6.2,13.9,13.9
		v6.3C639.8,165.8,633.6,172,625.9,172z M436.1,141.1c-6,0-10.9,4.9-10.9,10.9v6.3c0,6,4.9,10.9,10.9,10.9h189.8
		c6,0,10.9-4.9,10.9-10.9v-6.3c0-6-4.9-10.9-10.9-10.9H436.1z"/>
</g>
<g>
	<path class="st0" d="M446.8,156.1h-2.5v5.2h-2.9v-14.4h5.5c3.5,0,5,2.1,5,4.6C451.8,154,450.3,156.1,446.8,156.1z M446.4,149h-2.1
		v5h2.1c1.9,0,2.6-1.1,2.6-2.5C448.9,150.1,448.2,149,446.4,149z"/>
	<path class="st0" d="M453.5,161.3v-14.4h9.4v2.3h-6.5v3.4h5.3v2.3h-5.3v4.2h6.5v2.3H453.5z"/>
	<path class="st0" d="M475.7,161.5c-1.7,0-3.2-0.7-4.2-2.8l-1.5-3.1h-1.7v5.7h-2.9v-14.4h5.7c3.4,0,4.9,2,4.9,4.3
		c0,2-1.2,3.6-3.2,4.1l1.4,2.5c0.7,1.3,1.4,1.7,2.4,1.7c0.3,0,0.5,0,0.8-0.1v1.8C476.8,161.4,476.2,161.5,475.7,161.5z M468.3,153.5
		h2.3c1.8,0,2.5-1,2.5-2.2c0-1.3-0.6-2.3-2.5-2.3h-2.3V153.5z"/>
	<path class="st0" d="M483.3,161.6c-2.4,0-4.1-0.9-5.1-1.8l0.7-2.3c1,0.9,2.5,1.9,4.4,1.9c1.4,0,2.5-0.7,2.5-2c0-1.2-0.7-1.8-3-2.4
		c-3-0.7-4.2-2.4-4.2-4.4c0-2.4,1.9-4.1,5-4.1c1.8,0,3.4,0.7,4.3,1.4l-0.6,2c-1-0.7-2.4-1.2-3.7-1.2c-1.4,0-2.3,0.6-2.3,1.7
		c0,0.8,0.5,1.5,2.5,2c3.4,0.8,4.8,2.3,4.8,4.8C488.6,160.2,486,161.6,483.3,161.6z"/>
	<path class="st0" d="M497.9,161.7c-4.4,0-7.8-3.2-7.8-7.6c0-4.4,3.4-7.6,7.8-7.6c4.4,0,7.8,3.2,7.8,7.6
		C505.7,158.5,502.3,161.7,497.9,161.7z M497.9,148.8c-2.9,0-4.8,2.2-4.8,5.3s1.9,5.3,4.8,5.3c2.8,0,4.7-2.2,4.7-5.3
		S500.7,148.8,497.9,148.8z"/>
	<path class="st0" d="M518.1,161.3l-7.5-9.5v9.5h-2.6v-14.4h2l7.5,9.5v-9.5h2.6v14.4H518.1z"/>
	<path class="st0" d="M533.3,161.3l-1.5-3.6H526l-1.5,3.6h-2.8l6.1-14.4h2.3l6.1,14.4H533.3z M528.9,150.5l-2.1,5.2h4.2L528.9,150.5
		z"/>
	<path class="st0" d="M537.8,161.3v-14.4h2.9V159h6.5v2.3H537.8z"/>
	<path class="st0" d="M548.8,161.3v-14.4h2.9v14.4H548.8z"/>
	<path class="st0" d="M564.6,148.3l-7,10.7h7v2.3h-10.7v-1.4l7-10.7H554v-2.3h10.6V148.3z"/>
	<path class="st0" d="M566.8,161.3v-14.4h9.4v2.3h-6.5v3.4h5.3v2.3h-5.3v4.2h6.5v2.3H566.8z"/>
	<path class="st0" d="M593.6,161.3l-1.5-3.6h-5.8l-1.5,3.6H582l6.1-14.4h2.3l6.1,14.4H593.6z M589.2,150.5l-2.1,5.2h4.2L589.2,150.5
		z"/>
	<path class="st0" d="M603.6,156.1H601v5.2h-2.9v-14.4h5.5c3.5,0,5,2.1,5,4.6C608.6,154,607,156.1,603.6,156.1z M603.1,149H601v5
		h2.1c1.9,0,2.6-1.1,2.6-2.5C605.7,150.1,605,149,603.1,149z"/>
	<path class="st0" d="M615.7,156.1h-2.5v5.2h-2.9v-14.4h5.5c3.5,0,5,2.1,5,4.6C620.7,154,619.2,156.1,615.7,156.1z M615.2,149h-2.1
		v5h2.1c1.9,0,2.6-1.1,2.6-2.5C617.8,150.1,617.1,149,615.2,149z"/>
</g>
<g>
	<path class="st0" d="M110.2,333.4H31.1c-4.2,0-7.7-3.4-7.7-7.7s3.4-7.7,7.7-7.7h79.2c4.2,0,7.7,3.4,7.7,7.7
		S114.5,333.4,110.2,333.4z M31.1,320.1c-3.1,0-5.7,2.5-5.7,5.7s2.5,5.7,5.7,5.7h79.2c3.1,0,5.7-2.5,5.7-5.7s-2.5-5.7-5.7-5.7H31.1z
		"/>
</g>
<g>
	<path class="st0" d="M108.7,315.1H32.6c-4.1,0-7.4-3.3-7.4-7.4c0-4.1,3.3-7.4,7.4-7.4h76.1c4.1,0,7.4,3.3,7.4,7.4
		C116.1,311.8,112.8,315.1,108.7,315.1z M32.6,302.3c-3,0-5.4,2.4-5.4,5.4s2.4,5.4,5.4,5.4h76.1c3,0,5.4-2.4,5.4-5.4
		s-2.4-5.4-5.4-5.4H32.6z"/>
</g>
<g>
	<path class="st0" d="M585,42.3H477c-7.8,0-14.2-6.4-14.2-14.2v-5.7c0-7.8,6.4-14.2,14.2-14.2h108c7.8,0,14.2,6.4,14.2,14.2v5.7
		C599.2,36,592.8,42.3,585,42.3z M477,11.3c-6.2,0-11.2,5-11.2,11.2v5.7c0,6.2,5,11.2,11.2,11.2h108c6.2,0,11.2-5,11.2-11.2v-5.7
		c0-6.2-5-11.2-11.2-11.2H477z"/>
</g>
<g>
	<path class="st0" d="M494.2,31.6h-2.1l-2.9-8.6c-0.1-0.3-0.3-1-0.3-1.1c0,0.1-0.2,0.8-0.3,1.1l-2.9,8.6h-2.1l-4.9-14.4h2.9l2.9,9
		c0.1,0.3,0.3,1.2,0.3,1.3c0-0.1,0.2-1,0.4-1.3l2.8-9h2.1l2.8,9l0.3,1.3c0-0.1,0.2-1,0.3-1.3l2.9-9h2.8L494.2,31.6z"/>
	<path class="st0" d="M500.7,31.6V17.2h9.4v2.3h-6.5v3.4h5.3v2.3h-5.3v4.2h6.5v2.3H500.7z"/>
	<path class="st0" d="M512.6,31.6V17.2h2.9v12.1h6.5v2.3H512.6z"/>
	<path class="st0" d="M530.1,31.9c-4.2,0-7.7-2.9-7.7-7.5s3.6-7.5,7.7-7.5c1.9,0,3.8,0.6,5,1.5V21c-1.2-1-2.7-1.8-4.7-1.8
		c-2.9,0-5,1.9-5,5.2c0,3.2,2.1,5.2,5,5.2c2,0,3.6-0.8,4.7-1.8v2.7C534,31.3,532,31.9,530.1,31.9z"/>
	<path class="st0" d="M544.5,32c-4.4,0-7.8-3.2-7.8-7.6s3.4-7.6,7.8-7.6c4.4,0,7.8,3.2,7.8,7.6S548.8,32,544.5,32z M544.5,19.1
		c-2.9,0-4.8,2.2-4.8,5.3s1.9,5.3,4.8,5.3c2.8,0,4.7-2.2,4.7-5.3S547.3,19.1,544.5,19.1z"/>
	<path class="st0" d="M567.4,31.6v-8.8c0-0.3,0.1-1.3,0.1-1.4l-0.5,1.4l-3.9,8.8h-1.8l-3.9-8.8c-0.1-0.3-0.5-1.2-0.5-1.4
		c0,0.1,0.1,1,0.1,1.4v8.8h-2.6V17.2h3.1l4.8,10.5l4.7-10.5h3v14.4H567.4z"/>
	<path class="st0" d="M573.1,31.6V17.2h9.4v2.3H576v3.4h5.3v2.3H576v4.2h6.5v2.3H573.1z"/>
</g>
<g>
	<polygon class="st0" points="295.8,59.3 294.8,59.3 294.8,27.6 464.4,27.6 464.4,28.6 295.8,28.6 	"/>
</g>
<g>
	<polygon class="st0" points="754.7,59.3 753.7,59.3 753.7,28.6 597.7,28.6 597.7,27.6 754.7,27.6 	"/>
</g>
<g>
	<polygon class="st0" points="423.8,158.7 294.8,157.5 295.4,90.3 296.4,90.3 295.8,156.5 423.8,157.7 	"/>
</g>
<g>
	<polygon class="st0" points="754.7,155.5 638.3,155.5 638.3,154.5 753.7,154.5 753.7,90.3 754.7,90.3 	"/>
</g>
<g>
	<rect x="530.5" y="170.5" class="st0" width="1" height="46.8"/>
</g>
<g>
	<polygon class="st0" points="825.2,217.3 824.2,217.3 824.2,194.4 224.1,194.4 224.1,217.3 223.1,217.3 223.1,193.4 825.2,193.4 	
		"/>
</g>
<g>
	<path class="st1" d="M223.6,248.3"/>
</g>
<g>
	<polygon class="st0" points="154.1,387.5 124.9,387.5 124.9,230.2 154.1,230.2 154.1,231.2 125.9,231.2 125.9,309.4 154.1,309.4 
		154.1,310.4 125.9,310.4 125.9,386.5 154.1,386.5 	"/>
</g>
<g>
	<polygon class="st0" points="458.8,460.7 423.3,460.7 423.3,230.8 452,230.8 452,231.8 424.3,231.8 424.3,459.7 458.8,459.7 	"/>
</g>
<g>
	<rect x="423.8" y="384.5" class="st0" width="35" height="1"/>
</g>
<g>
	<rect x="423.8" y="309.4" class="st0" width="35" height="1"/>
</g>
<g>
	<polygon class="st0" points="742.9,458.7 662.3,458.7 662.3,229.5 750.6,229.5 750.6,230.5 663.3,230.5 663.3,457.7 742.9,457.7 	
		"/>
</g>
<g>
	<rect x="662.8" y="386.5" class="st0" width="80.2" height="1"/>
</g>
<g>
	<rect x="662.8" y="309.4" class="st0" width="80.2" height="1"/>
</g>
<g>
	<rect x="263.8" y="323.4" class="st0" width="1" height="9"/>
</g>
<g>
	<rect x="187.5" y="323.4" class="st0" width="1" height="9"/>
</g>
<g>
	<rect x="263.8" y="360.5" class="st0" width="1" height="9.1"/>
</g>
<g>
	<rect x="188.7" y="360.4" class="st0" width="1" height="9.2"/>
</g>
<g>
	<rect x="263.8" y="400.5" class="st0" width="1" height="7"/>
</g>
<g>
	<rect x="188.7" y="400.5" class="st0" width="1" height="7"/>
</g>
<g>
	<rect x="536.4" y="323.4" class="st0" width="1" height="9.1"/>
</g>
<g>
	<rect x="536.5" y="435.5" class="st0" width="1" height="7.2"/>
</g>
<g>
	<rect x="536.4" y="360.4" class="st0" width="1" height="9.2"/>
</g>
<g>
	<rect x="536.7" y="400.5" class="st0" width="1" height="7"/>
</g>
<g>
	
		<rect x="443.4" y="475.6" transform="matrix(0.8672 -0.498 0.498 0.8672 -176.7501 289.4944)" class="st0" width="21.8" height="1"/>
</g>
<g>
	
		<rect x="715.2" y="475.1" transform="matrix(0.8971 -0.4417 0.4417 0.8971 -134.8912 371.7939)" class="st0" width="31.4" height="1"/>
</g>
<g>
	<rect x="485.2" y="473.6" class="st0" width="1" height="7.8"/>
</g>
<g>
	<rect x="754.3" y="473.7" class="st0" width="1" height="8.8"/>
</g>
<g>
	<rect x="770.9" y="399.9" class="st0" width="1" height="7.6"/>
</g>
<g>
	<rect x="863.6" y="399.9" class="st0" width="1" height="7.6"/>
</g>
<g>
	<rect x="805.5" y="473.5" class="st0" width="1" height="9"/>
</g>
<g>
	<rect x="855.2" y="474.1" class="st0" width="1" height="7.8"/>
</g>
<g>
	<rect x="540.3" y="473.6" class="st0" width="1" height="7.8"/>
</g>
<g>
	<rect x="580.9" y="473.4" class="st0" width="1" height="8.1"/>
</g>
<g>
	
		<rect x="619.1" y="458.4" transform="matrix(0.4752 -0.8799 0.8799 0.4752 -91.9637 793.9088)" class="st0" width="1" height="31.3"/>
</g>
<g>
	
		<rect x="897.1" y="464.1" transform="matrix(0.4752 -0.8799 0.8799 0.4752 51.7199 1039.8369)" class="st0" width="1" height="25"/>
</g>
<g>
	<rect x="877.6" y="323.4" class="st0" width="1" height="7.6"/>
</g>
<g>
	<rect x="755.8" y="323.4" class="st0" width="1" height="7.6"/>
</g>
<g>
	<polygon class="st0" points="256.5,606.9 17.4,606.9 17.4,71.5 223.6,71.5 223.6,72.5 18.4,72.5 18.4,605.9 256.5,605.9 	"/>
</g>
<g>
	<polygon class="st0" points="850.2,606.7 850.1,605.7 1039.3,604.4 1039.3,72.5 817.2,72.5 817.2,71.5 1040.3,71.5 1040.3,605.4 
		1039.8,605.4 	"/>
</g>
<g>
	<rect x="389.8" y="605.1" class="st0" width="87.2" height="1"/>
</g>
<g>
	
		<rect x="610.3" y="605.2" transform="matrix(1 -9.765159e-03 9.765159e-03 1 -5.8834 6.5086)" class="st0" width="106.6" height="1"/>
</g>
<g>
	<rect x="72.1" y="270" class="st0" width="53.4" height="1"/>
</g>
<g>
	<rect x="71.4" y="363.3" class="st0" width="54.8" height="1"/>
</g>
<g>
	<rect x="71.9" y="270.1" class="st0" width="1" height="30.3"/>
</g>
<g>
	<rect x="71.9" y="333.4" class="st0" width="1" height="30.7"/>
</g>
<g>
	<path class="st0" d="M33.1,328.4h-2.5v-6.2H33c1.3,0,1.9,0.7,1.9,1.6c0,0.5-0.3,1-0.7,1.2c0.6,0.3,1,0.9,1,1.5
		C35.2,327.6,34.6,328.4,33.1,328.4z M31.8,324.7h0.9c0.6,0,0.9-0.4,0.9-0.8c0-0.5-0.3-0.8-0.9-0.8h-0.9V324.7z M32.9,325.6h-1v2h1
		c0.8,0,1.1-0.4,1.1-1S33.6,325.6,32.9,325.6z"/>
	<path class="st0" d="M36.1,328.4v-6.2h1.3v5.2h2.8v1H36.1z"/>
	<path class="st0" d="M43.7,328.6c-1.9,0-3.4-1.4-3.4-3.3s1.5-3.3,3.4-3.3c1.9,0,3.4,1.4,3.4,3.3S45.6,328.6,43.7,328.6z
		 M43.7,323.1c-1.2,0-2.1,0.9-2.1,2.3s0.8,2.3,2.1,2.3c1.2,0,2-0.9,2-2.3S44.9,323.1,43.7,323.1z"/>
	<path class="st0" d="M51.1,328.6c-1.9,0-3.4-1.4-3.4-3.3s1.5-3.3,3.4-3.3c1.9,0,3.4,1.4,3.4,3.3S53,328.6,51.1,328.6z M51.1,323.1
		c-1.2,0-2.1,0.9-2.1,2.3s0.8,2.3,2.1,2.3c1.2,0,2-0.9,2-2.3S52.4,323.1,51.1,323.1z"/>
	<path class="st0" d="M57.6,328.4h-2.2v-6.2h2.2c2.5,0,3.5,1.4,3.5,3.1S60.1,328.4,57.6,328.4z M57.6,323.3h-0.9v4.2h0.9
		c1.7,0,2.3-0.8,2.3-2.1S59.3,323.3,57.6,323.3z"/>
	<path class="st0" d="M66.5,326.2h-1.1v2.3h-1.3v-6.2h2.4c1.5,0,2.2,0.9,2.2,2C68.7,325.3,68,326.2,66.5,326.2z M66.3,323.1h-0.9
		v2.2h0.9c0.8,0,1.1-0.5,1.1-1.1C67.4,323.6,67.1,323.1,66.3,323.1z"/>
	<path class="st0" d="M73.8,328.5c-0.7,0-1.4-0.3-1.8-1.2l-0.7-1.3h-0.7v2.5h-1.3v-6.2h2.4c1.5,0,2.1,0.9,2.1,1.9
		c0,0.9-0.5,1.6-1.4,1.8l0.6,1.1c0.3,0.5,0.6,0.7,1,0.7c0.1,0,0.2,0,0.4-0.1v0.8C74.3,328.5,74.1,328.5,73.8,328.5z M70.7,325.1h1
		c0.8,0,1.1-0.4,1.1-1c0-0.6-0.3-1-1.1-1h-1V325.1z"/>
	<path class="st0" d="M75.3,328.4v-6.2h4v1h-2.8v1.5h2.3v1h-2.3v1.8h2.8v1H75.3z"/>
	<path class="st0" d="M82.3,328.6c-1,0-1.8-0.4-2.2-0.8l0.3-1c0.4,0.4,1.1,0.8,1.9,0.8c0.6,0,1.1-0.3,1.1-0.9c0-0.5-0.3-0.8-1.3-1
		c-1.3-0.3-1.8-1-1.8-1.9c0-1,0.8-1.7,2.1-1.7c0.8,0,1.4,0.3,1.9,0.6l-0.3,0.9c-0.4-0.3-1.1-0.5-1.6-0.5c-0.6,0-1,0.3-1,0.7
		c0,0.4,0.2,0.6,1.1,0.8c1.4,0.4,2.1,1,2.1,2C84.5,328,83.4,328.6,82.3,328.6z"/>
	<path class="st0" d="M87.3,328.6c-1,0-1.8-0.4-2.2-0.8l0.3-1c0.4,0.4,1.1,0.8,1.9,0.8c0.6,0,1.1-0.3,1.1-0.9c0-0.5-0.3-0.8-1.3-1
		c-1.3-0.3-1.8-1-1.8-1.9c0-1,0.8-1.7,2.1-1.7c0.8,0,1.4,0.3,1.9,0.6l-0.3,0.9c-0.4-0.3-1.1-0.5-1.6-0.5c-0.6,0-1,0.3-1,0.7
		c0,0.4,0.2,0.6,1.1,0.8c1.4,0.4,2.1,1,2.1,2C89.6,328,88.5,328.6,87.3,328.6z"/>
	<path class="st0" d="M93.4,328.6c-1.6,0-2.9-0.9-2.9-3v-3.3h1.3v3.3c0,1.3,0.6,2,1.6,2s1.6-0.7,1.6-2v-3.3h1.2v3.3
		C96.2,327.7,95,328.6,93.4,328.6z"/>
	<path class="st0" d="M101.9,328.5c-0.7,0-1.4-0.3-1.8-1.2l-0.7-1.3h-0.7v2.5h-1.3v-6.2h2.4c1.5,0,2.1,0.9,2.1,1.9
		c0,0.9-0.5,1.6-1.4,1.8l0.6,1.1c0.3,0.5,0.6,0.7,1,0.7c0.1,0,0.2,0,0.4-0.1v0.8C102.4,328.5,102.2,328.5,101.9,328.5z M98.8,325.1
		h1c0.8,0,1.1-0.4,1.1-1c0-0.6-0.3-1-1.1-1h-1V325.1z"/>
	<path class="st0" d="M103.4,328.4v-6.2h4v1h-2.8v1.5h2.3v1h-2.3v1.8h2.8v1H103.4z"/>
</g>
<g>
	<path class="st0" d="M49.7,311.3v-2.6h-2.8v2.6h-1.2v-6h1.2v2.3h2.8v-2.3h1.2v6H49.7z"/>
	<path class="st0" d="M52.2,311.3v-6h3.9v0.9h-2.7v1.4h2.2v0.9h-2.2v1.7h2.7v0.9H52.2z"/>
	<path class="st0" d="M61.3,311.3l-0.6-1.5h-2.4l-0.6,1.5h-1.2l2.5-6H60l2.5,6H61.3z M59.5,306.8l-0.9,2.2h1.8L59.5,306.8z"/>
	<path class="st0" d="M67.5,311.4c-0.7,0-1.3-0.3-1.7-1.2l-0.6-1.3h-0.7v2.4h-1.2v-6h2.3c1.4,0,2,0.8,2,1.8c0,0.8-0.5,1.5-1.3,1.7
		l0.6,1c0.3,0.5,0.6,0.7,1,0.7c0.1,0,0.2,0,0.3,0v0.8C67.9,311.3,67.7,311.4,67.5,311.4z M64.4,308.1h0.9c0.8,0,1-0.4,1-0.9
		c0-0.5-0.3-0.9-1-0.9h-0.9V308.1z"/>
	<path class="st0" d="M71.1,306.3v5h-1.2v-5h-2v-0.9h5.3v0.9H71.1z"/>
	<path class="st0" d="M80,311.4c-0.7,0-1.3-0.3-1.7-1.2l-0.6-1.3H77v2.4h-1.2v-6h2.3c1.4,0,2,0.8,2,1.8c0,0.8-0.5,1.5-1.3,1.7l0.6,1
		c0.3,0.5,0.6,0.7,1,0.7c0.1,0,0.2,0,0.3,0v0.8C80.5,311.3,80.2,311.4,80,311.4z M77,308.1h0.9c0.8,0,1-0.4,1-0.9
		c0-0.5-0.3-0.9-1-0.9H77V308.1z"/>
	<path class="st0" d="M85.4,311.3l-0.6-1.5h-2.4l-0.6,1.5h-1.2l2.5-6h0.9l2.5,6H85.4z M83.6,306.8l-0.9,2.2h1.8L83.6,306.8z"/>
	<path class="st0" d="M89.2,306.3v5H88v-5h-2v-0.9h5.3v0.9H89.2z"/>
	<path class="st0" d="M91.9,311.3v-6h3.9v0.9h-2.7v1.4h2.2v0.9h-2.2v1.7h2.7v0.9H91.9z"/>
</g>
</svg>
