<?xml version="1.0" encoding="utf-8"?>
<!-- Generator: Adobe Illustrator 24.3.0, SVG Export Plug-In . SVG Version: 6.00 Build 0)  -->
<svg version="1.1" id="Layer_1" xmlns="http://www.w3.org/2000/svg" xmlns:xlink="http://www.w3.org/1999/xlink" x="0px" y="0px"
	 viewBox="0 0 795.6 591.3" style="enable-background:new 0 0 795.6 591.3;" xml:space="preserve">
<style type="text/css">
	.st0{fill:#87232F;}
</style>
<g>
	<path class="st0" d="M497.5,71.4H349c-10.5,0-19.1-8.5-19.1-19.1V32.2c0-10.5,8.5-19.1,19.1-19.1h148.5c10.5,0,19.1,8.5,19.1,19.1
		v20.1C516.6,62.9,508,71.4,497.5,71.4z M349,13.9c-10.1,0-18.3,8.2-18.3,18.3v20.1c0,10.1,8.2,18.3,18.3,18.3h148.5
		c10.1,0,18.3-8.2,18.3-18.3V32.2c0-10.1-8.2-18.3-18.3-18.3H349z"/>
</g>
<g>
	<path class="st0" d="M357.8,126.4H240.8c-8.3,0-15-6.7-15-15V95.5c0-8.3,6.7-15,15-15h116.9c8.3,0,15,6.7,15,15v15.8
		C372.8,119.7,366.1,126.4,357.8,126.4z M240.8,81.1c-8,0-14.4,6.5-14.4,14.4v15.8c0,8,6.5,14.4,14.4,14.4h116.9
		c8,0,14.4-6.5,14.4-14.4V95.5c0-8-6.5-14.4-14.4-14.4H240.8z"/>
</g>
<g>
	<path class="st0" d="M357.8,190H240.8c-8.3,0-15-6.7-15-15v-15.8c0-8.3,6.7-15,15-15h116.9c8.3,0,15,6.7,15,15v15.8
		C372.8,183.2,366.1,190,357.8,190z M240.8,144.7c-8,0-14.4,6.5-14.4,14.4v15.8c0,8,6.5,14.4,14.4,14.4h116.9
		c8,0,14.4-6.5,14.4-14.4v-15.8c0-8-6.5-14.4-14.4-14.4H240.8z"/>
</g>
<g>
	<path class="st0" d="M184.9,345H30.6c-8,0-14.5-6.5-14.5-14.5v-5.3c0-8,6.5-14.5,14.5-14.5h154.4c8,0,14.5,6.5,14.5,14.5v5.3
		C199.4,338.5,192.9,345,184.9,345z M30.6,311.2c-7.7,0-13.9,6.2-13.9,13.9v5.3c0,7.7,6.2,13.9,13.9,13.9h154.4
		c7.7,0,13.9-6.2,13.9-13.9v-5.3c0-7.7-6.2-13.9-13.9-13.9H30.6z"/>
</g>
<g>
	<path class="st0" d="M146.3,386.5H89.7c-4,0-7.3-3.3-7.3-7.3v-7.7c0-4,3.3-7.3,7.3-7.3h56.6c4,0,7.3,3.3,7.3,7.3v7.7
		C153.5,383.2,150.3,386.5,146.3,386.5z M89.7,364.6c-3.9,0-7,3.1-7,7v7.7c0,3.9,3.1,7,7,7h56.6c3.9,0,7-3.1,7-7v-7.7
		c0-3.9-3.1-7-7-7H89.7z"/>
</g>
<g>
	<path class="st0" d="M120.7,442.5H64.1c-4,0-7.3-3.3-7.3-7.3v-7.7c0-4,3.3-7.3,7.3-7.3h56.6c4,0,7.3,3.3,7.3,7.3v7.7
		C127.9,439.2,124.7,442.5,120.7,442.5z M64.1,420.6c-3.9,0-7,3.1-7,7v7.7c0,3.9,3.1,7,7,7h56.6c3.9,0,7-3.1,7-7v-7.7
		c0-3.9-3.1-7-7-7H64.1z"/>
</g>
<g>
	<path class="st0" d="M203.5,442.5h-56.6c-4,0-7.3-3.3-7.3-7.3v-7.7c0-4,3.3-7.3,7.3-7.3h56.6c4,0,7.3,3.3,7.3,7.3v7.7
		C210.8,439.2,207.5,442.5,203.5,442.5z M146.9,420.6c-3.9,0-7,3.1-7,7v7.7c0,3.9,3.1,7,7,7h56.6c3.9,0,7-3.1,7-7v-7.7
		c0-3.9-3.1-7-7-7H146.9z"/>
</g>
<g>
	<path class="st0" d="M203.5,477h-56.6c-4,0-7.3-3.3-7.3-7.3v-7.7c0-4,3.3-7.3,7.3-7.3h56.6c4,0,7.3,3.3,7.3,7.3v7.7
		C210.8,473.7,207.5,477,203.5,477z M146.9,455.1c-3.9,0-7,3.1-7,7v7.7c0,3.9,3.1,7,7,7h56.6c3.9,0,7-3.1,7-7v-7.7c0-3.9-3.1-7-7-7
		H146.9z"/>
</g>
<g>
	<path class="st0" d="M260.1,511.5h-56.6c-4,0-7.3-3.3-7.3-7.3v-7.7c0-4,3.3-7.3,7.3-7.3h56.6c4,0,7.3,3.3,7.3,7.3v7.7
		C267.4,508.2,264.1,511.5,260.1,511.5z M203.6,489.6c-3.9,0-7,3.1-7,7v7.7c0,3.9,3.1,7,7,7h56.6c3.9,0,7-3.1,7-7v-7.7
		c0-3.9-3.1-7-7-7H203.6z"/>
</g>
<g>
	<path class="st0" d="M226.5,580.5h-89.9c-4.9,0-8.9-4-8.9-8.9v-4.4c0-4.9,4-8.9,8.9-8.9h89.9c4.9,0,8.9,4,8.9,8.9v4.4
		C235.4,576.4,231.4,580.5,226.5,580.5z M136.6,558.6c-4.7,0-8.6,3.9-8.6,8.6v4.4c0,4.7,3.9,8.6,8.6,8.6h89.9c4.7,0,8.6-3.9,8.6-8.6
		v-4.4c0-4.7-3.9-8.6-8.6-8.6H136.6z"/>
</g>
<g>
	<path class="st0" d="M289.8,442.5h-56.6c-4,0-7.3-3.3-7.3-7.3v-7.7c0-4,3.3-7.3,7.3-7.3h56.6c4,0,7.3,3.3,7.3,7.3v7.7
		C297.1,439.2,293.8,442.5,289.8,442.5z M233.2,420.6c-3.9,0-7,3.1-7,7v7.7c0,3.9,3.1,7,7,7h56.6c3.9,0,7-3.1,7-7v-7.7
		c0-3.9-3.1-7-7-7H233.2z"/>
</g>
<g>
	<path class="st0" d="M605.7,126.4H488.8c-8.3,0-15-6.7-15-15V95.5c0-8.3,6.7-15,15-15h116.9c8.3,0,15,6.7,15,15v15.8
		C620.7,119.7,614,126.4,605.7,126.4z M488.8,81.1c-8,0-14.4,6.5-14.4,14.4v15.8c0,8,6.5,14.4,14.4,14.4h116.9
		c8,0,14.4-6.5,14.4-14.4V95.5c0-8-6.5-14.4-14.4-14.4H488.8z"/>
</g>
<g>
	<path d="M377.7,44.8l0.3,1.9l0.4-1.7l2.8-9.9h1.6l2.7,9.9l0.4,1.7l0.3-1.9l2.2-9.7h1.9l-3.4,14.2h-1.7L382.3,39l-0.2-1.1l-0.2,1.1
		l-3,10.4h-1.7l-3.4-14.2h1.9L377.7,44.8z"/>
	<path d="M400.5,42.7h-6.2v5h7.2v1.5h-9V35.1h8.9v1.5h-7.1v4.6h6.2V42.7z"/>
	<path d="M405.7,47.8h6.7v1.5h-8.6V35.1h1.9V47.8z"/>
	<path d="M425,44.8c-0.2,1.5-0.7,2.7-1.7,3.5c-0.9,0.8-2.2,1.2-3.7,1.2c-1.7,0-3-0.6-4-1.8c-1-1.2-1.5-2.8-1.5-4.8v-1.4
		c0-1.3,0.2-2.5,0.7-3.5c0.5-1,1.1-1.8,2-2.3c0.9-0.5,1.9-0.8,3-0.8c1.5,0,2.7,0.4,3.6,1.3c0.9,0.8,1.4,2,1.6,3.5h-1.9
		c-0.2-1.1-0.5-2-1.1-2.5c-0.5-0.5-1.3-0.8-2.3-0.8c-1.2,0-2.1,0.4-2.8,1.3c-0.7,0.9-1,2.1-1,3.8v1.4c0,1.5,0.3,2.8,1,3.7
		s1.5,1.4,2.7,1.4c1,0,1.8-0.2,2.4-0.7s0.9-1.3,1.1-2.5H425z"/>
	<path d="M438.5,42.7c0,1.4-0.2,2.6-0.7,3.6s-1.1,1.8-2,2.4s-1.9,0.8-3,0.8c-1.1,0-2.1-0.3-3-0.8c-0.9-0.6-1.5-1.3-2-2.4
		s-0.7-2.2-0.7-3.5v-1c0-1.4,0.2-2.6,0.7-3.6c0.5-1,1.1-1.9,2-2.4s1.9-0.8,3-0.8c1.1,0,2.1,0.3,3,0.8s1.5,1.3,2,2.4s0.7,2.3,0.7,3.6
		V42.7z M436.6,41.8c0-1.7-0.3-3-1-3.9c-0.7-0.9-1.6-1.4-2.8-1.4c-1.2,0-2.1,0.5-2.8,1.4c-0.7,0.9-1,2.2-1,3.8v1
		c0,1.6,0.3,2.9,1,3.9c0.7,0.9,1.6,1.4,2.8,1.4c1.2,0,2.1-0.4,2.8-1.3s1-2.1,1-3.8V41.8z"/>
	<path d="M443.7,35.1l4.6,11.6l4.6-11.6h2.4v14.2h-1.9v-5.5l0.2-6l-4.7,11.5h-1.4L443,37.8l0.2,5.9v5.5h-1.9V35.1H443.7z"/>
	<path d="M466.8,42.7h-6.2v5h7.2v1.5h-9V35.1h8.9v1.5h-7.1v4.6h6.2V42.7z"/>
</g>
<g>
	<path d="M272.9,104.4c-1.6-0.5-2.8-1-3.5-1.7s-1.1-1.5-1.1-2.5c0-1.1,0.4-2,1.3-2.8s2.1-1.1,3.5-1.1c1,0,1.8,0.2,2.6,0.6
		s1.4,0.9,1.8,1.6s0.6,1.4,0.6,2.2h-1.9c0-0.9-0.3-1.5-0.8-2c-0.5-0.5-1.3-0.7-2.3-0.7c-0.9,0-1.6,0.2-2.2,0.6
		c-0.5,0.4-0.8,1-0.8,1.7c0,0.6,0.2,1.1,0.7,1.5c0.5,0.4,1.3,0.8,2.5,1.1s2.1,0.7,2.8,1.1s1.2,0.9,1.5,1.4s0.5,1.2,0.5,1.9
		c0,1.2-0.4,2.1-1.3,2.8s-2.1,1-3.6,1c-1,0-1.9-0.2-2.7-0.6s-1.5-0.9-2-1.5s-0.7-1.4-0.7-2.2h1.9c0,0.9,0.3,1.5,1,2s1.5,0.7,2.5,0.7
		c1,0,1.7-0.2,2.3-0.6s0.8-1,0.8-1.7s-0.2-1.2-0.7-1.6S274.2,104.8,272.9,104.4z"/>
	<path d="M280.3,97.4c0-0.3,0.1-0.5,0.3-0.7s0.4-0.3,0.8-0.3s0.6,0.1,0.8,0.3s0.3,0.4,0.3,0.7s-0.1,0.5-0.3,0.7s-0.4,0.3-0.8,0.3
		s-0.6-0.1-0.8-0.3S280.3,97.7,280.3,97.4z M282.2,110.7h-1.8v-10.6h1.8V110.7z"/>
	<path d="M284.7,105.4c0-1.6,0.4-3,1.1-3.9s1.8-1.5,3-1.5c1.3,0,2.3,0.5,3,1.4l0.1-1.2h1.7v10.3c0,1.4-0.4,2.4-1.2,3.2
		s-1.9,1.2-3.3,1.2c-0.8,0-1.5-0.2-2.2-0.5s-1.3-0.8-1.7-1.3l0.9-1.1c0.8,1,1.7,1.4,2.8,1.4c0.9,0,1.6-0.2,2.1-0.7s0.7-1.2,0.7-2.1
		v-0.9c-0.7,0.8-1.7,1.2-3,1.2c-1.2,0-2.2-0.5-3-1.5S284.7,107.1,284.7,105.4z M286.5,105.6c0,1.2,0.2,2.1,0.7,2.8s1.2,1,2.1,1
		c1.1,0,2-0.5,2.5-1.6V103c-0.6-1-1.4-1.5-2.5-1.5c-0.9,0-1.6,0.3-2.1,1S286.5,104.2,286.5,105.6z"/>
	<path d="M298,100.2l0.1,1.3c0.8-1,1.9-1.5,3.2-1.5c2.2,0,3.4,1.3,3.4,3.8v7h-1.8v-7c0-0.8-0.2-1.3-0.5-1.7s-0.9-0.5-1.6-0.5
		c-0.6,0-1.1,0.2-1.5,0.5s-0.8,0.7-1,1.2v7.5h-1.8v-10.6H298z"/>
	<path d="M314.6,110.7h-1.9V96.5h1.9V110.7z"/>
	<path d="M319.5,100.2l0.1,1.3c0.8-1,1.9-1.5,3.2-1.5c2.2,0,3.4,1.3,3.4,3.8v7h-1.8v-7c0-0.8-0.2-1.3-0.5-1.7s-0.9-0.5-1.6-0.5
		c-0.6,0-1.1,0.2-1.5,0.5s-0.8,0.7-1,1.2v7.5h-1.8v-10.6H319.5z"/>
</g>
<g>
	<path d="M532.4,96.5h1.9v10.1c0,1.4-0.4,2.4-1.2,3.2c-0.8,0.8-1.9,1.2-3.3,1.2c-1.4,0-2.5-0.4-3.3-1.1c-0.8-0.7-1.2-1.7-1.2-3h1.9
		c0,0.8,0.2,1.4,0.7,1.9c0.4,0.5,1.1,0.7,1.9,0.7c0.8,0,1.4-0.2,1.9-0.7s0.7-1.2,0.7-2.1V96.5z"/>
	<path d="M536.7,105.4c0-1,0.2-2,0.6-2.8c0.4-0.8,1-1.5,1.7-1.9c0.7-0.4,1.6-0.7,2.5-0.7c1.4,0,2.6,0.5,3.5,1.5s1.3,2.3,1.3,4v0.1
		c0,1-0.2,2-0.6,2.8c-0.4,0.8-1,1.5-1.7,1.9s-1.6,0.7-2.5,0.7c-1.4,0-2.6-0.5-3.5-1.5s-1.3-2.3-1.3-4V105.4z M538.5,105.6
		c0,1.2,0.3,2.1,0.8,2.8c0.5,0.7,1.3,1.1,2.2,1.1c0.9,0,1.6-0.4,2.2-1.1c0.5-0.7,0.8-1.7,0.8-3c0-1.2-0.3-2.1-0.8-2.8
		c-0.5-0.7-1.3-1.1-2.2-1.1c-0.9,0-1.6,0.4-2.2,1.1S538.5,104.2,538.5,105.6z"/>
	<path d="M548.6,97.4c0-0.3,0.1-0.5,0.3-0.7c0.2-0.2,0.4-0.3,0.8-0.3s0.6,0.1,0.8,0.3c0.2,0.2,0.3,0.4,0.3,0.7s-0.1,0.5-0.3,0.7
		c-0.2,0.2-0.4,0.3-0.8,0.3s-0.6-0.1-0.8-0.3C548.7,97.9,548.6,97.7,548.6,97.4z M550.6,110.7h-1.8v-10.6h1.8V110.7z"/>
	<path d="M555.2,100.2l0.1,1.3c0.8-1,1.9-1.5,3.2-1.5c2.2,0,3.4,1.3,3.4,3.8v7H560v-7c0-0.8-0.2-1.3-0.5-1.7s-0.9-0.5-1.6-0.5
		c-0.6,0-1.1,0.2-1.5,0.5c-0.4,0.3-0.8,0.7-1,1.2v7.5h-1.8v-10.6H555.2z"/>
</g>
<g>
	<path d="M238.4,169.6l0.3,1.9l0.4-1.7l2.8-9.9h1.6l2.7,9.9l0.4,1.7l0.3-1.9l2.2-9.7h1.9l-3.4,14.2h-1.7l-2.9-10.4l-0.2-1.1
		l-0.2,1.1l-3,10.4h-1.7l-3.4-14.2h1.9L238.4,169.6z"/>
	<path d="M252.8,160.7c0-0.3,0.1-0.5,0.3-0.7s0.4-0.3,0.8-0.3s0.6,0.1,0.8,0.3s0.3,0.4,0.3,0.7s-0.1,0.5-0.3,0.7s-0.4,0.3-0.8,0.3
		s-0.6-0.1-0.8-0.3S252.8,161,252.8,160.7z M254.8,174H253v-10.6h1.8V174z"/>
	<path d="M259.4,163.5l0.1,1.3c0.8-1,1.9-1.5,3.2-1.5c2.2,0,3.4,1.3,3.4,3.8v7h-1.8v-7c0-0.8-0.2-1.3-0.5-1.7s-0.9-0.5-1.6-0.5
		c-0.6,0-1.1,0.2-1.5,0.5s-0.8,0.7-1,1.2v7.5h-1.8v-10.6H259.4z"/>
	<path d="M273.1,174.2c-1.4,0-2.6-0.5-3.5-1.4s-1.3-2.2-1.3-3.8v-0.3c0-1,0.2-2,0.6-2.8s1-1.5,1.7-1.9s1.5-0.7,2.3-0.7
		c1.4,0,2.4,0.5,3.2,1.4s1.1,2.2,1.1,3.9v0.8H270c0,1,0.3,1.9,0.9,2.5s1.3,1,2.2,1c0.6,0,1.2-0.1,1.6-0.4s0.8-0.6,1.2-1l1.1,0.9
		C276.2,173.6,274.8,174.2,273.1,174.2z M272.8,164.8c-0.7,0-1.3,0.3-1.8,0.8s-0.8,1.3-0.9,2.2h5.3v-0.1c-0.1-0.9-0.3-1.6-0.7-2.1
		S273.6,164.8,272.8,164.8z"/>
	<path d="M288.7,167.7c-1.6-0.5-2.8-1-3.5-1.7s-1.1-1.5-1.1-2.5c0-1.1,0.4-2,1.3-2.8s2.1-1.1,3.5-1.1c1,0,1.8,0.2,2.6,0.6
		s1.4,0.9,1.8,1.6s0.6,1.4,0.6,2.2h-1.9c0-0.9-0.3-1.5-0.8-2c-0.5-0.5-1.3-0.7-2.3-0.7c-0.9,0-1.6,0.2-2.2,0.6
		c-0.5,0.4-0.8,1-0.8,1.7c0,0.6,0.2,1.1,0.7,1.5c0.5,0.4,1.3,0.8,2.5,1.1s2.1,0.7,2.8,1.1s1.2,0.9,1.5,1.4s0.5,1.2,0.5,1.9
		c0,1.2-0.4,2.1-1.3,2.8s-2.1,1-3.6,1c-1,0-1.9-0.2-2.7-0.6s-1.5-0.9-2-1.5s-0.7-1.4-0.7-2.2h1.9c0,0.9,0.3,1.5,1,2s1.5,0.7,2.5,0.7
		c1,0,1.7-0.2,2.3-0.6s0.8-1,0.8-1.7s-0.2-1.2-0.7-1.6S290,168.1,288.7,167.7z"/>
	<path d="M300.5,174.2c-1.4,0-2.6-0.5-3.5-1.4s-1.3-2.2-1.3-3.8v-0.3c0-1,0.2-2,0.6-2.8s1-1.5,1.7-1.9s1.5-0.7,2.3-0.7
		c1.4,0,2.4,0.5,3.2,1.4s1.1,2.2,1.1,3.9v0.8h-7.2c0,1,0.3,1.9,0.9,2.5s1.3,1,2.2,1c0.6,0,1.2-0.1,1.6-0.4s0.8-0.6,1.2-1l1.1,0.9
		C303.6,173.6,302.3,174.2,300.5,174.2z M300.3,164.8c-0.7,0-1.3,0.3-1.8,0.8s-0.8,1.3-0.9,2.2h5.3v-0.1c-0.1-0.9-0.3-1.6-0.7-2.1
		S301,164.8,300.3,164.8z"/>
	<path d="M308.7,174h-1.8v-15h1.8V174z"/>
	<path d="M315.9,174.2c-1.4,0-2.6-0.5-3.5-1.4s-1.3-2.2-1.3-3.8v-0.3c0-1,0.2-2,0.6-2.8s1-1.5,1.7-1.9s1.5-0.7,2.3-0.7
		c1.4,0,2.4,0.5,3.2,1.4s1.1,2.2,1.1,3.9v0.8h-7.2c0,1,0.3,1.9,0.9,2.5s1.3,1,2.2,1c0.6,0,1.2-0.1,1.6-0.4s0.8-0.6,1.2-1l1.1,0.9
		C319,173.6,317.7,174.2,315.9,174.2z M315.7,164.8c-0.7,0-1.3,0.3-1.8,0.8s-0.8,1.3-0.9,2.2h5.3v-0.1c-0.1-0.9-0.3-1.6-0.7-2.1
		S316.5,164.8,315.7,164.8z"/>
	<path d="M326.4,172.8c0.6,0,1.2-0.2,1.7-0.6s0.7-0.9,0.8-1.5h1.7c0,0.6-0.2,1.2-0.6,1.7s-0.9,1-1.5,1.3s-1.3,0.5-2,0.5
		c-1.4,0-2.6-0.5-3.4-1.4s-1.3-2.3-1.3-3.9v-0.3c0-1,0.2-1.9,0.6-2.7s0.9-1.4,1.6-1.9s1.5-0.7,2.5-0.7c1.2,0,2.2,0.4,3,1.1
		s1.2,1.6,1.3,2.8h-1.7c-0.1-0.7-0.3-1.2-0.8-1.7s-1-0.7-1.7-0.7c-0.9,0-1.6,0.3-2.1,1s-0.8,1.6-0.8,2.9v0.3c0,1.2,0.3,2.2,0.8,2.8
		S325.4,172.8,326.4,172.8z"/>
	<path d="M335.1,160.9v2.6h2v1.4h-2v6.6c0,0.4,0.1,0.7,0.3,1c0.2,0.2,0.5,0.3,0.9,0.3c0.2,0,0.5,0,0.9-0.1v1.5
		c-0.5,0.1-0.9,0.2-1.4,0.2c-0.8,0-1.4-0.2-1.8-0.7s-0.6-1.2-0.6-2.1v-6.6h-1.9v-1.4h1.9v-2.6H335.1z"/>
	<path d="M339.2,160.7c0-0.3,0.1-0.5,0.3-0.7s0.4-0.3,0.8-0.3s0.6,0.1,0.8,0.3s0.3,0.4,0.3,0.7s-0.1,0.5-0.3,0.7s-0.4,0.3-0.8,0.3
		s-0.6-0.1-0.8-0.3S339.2,161,339.2,160.7z M341.1,174h-1.8v-10.6h1.8V174z"/>
	<path d="M343.5,168.7c0-1,0.2-2,0.6-2.8s1-1.5,1.7-1.9s1.6-0.7,2.5-0.7c1.4,0,2.6,0.5,3.5,1.5s1.3,2.3,1.3,4v0.1c0,1-0.2,2-0.6,2.8
		s-1,1.5-1.7,1.9s-1.6,0.7-2.5,0.7c-1.4,0-2.6-0.5-3.5-1.5s-1.3-2.3-1.3-4V168.7z M345.3,168.9c0,1.2,0.3,2.1,0.8,2.8
		s1.3,1.1,2.2,1.1c0.9,0,1.6-0.4,2.2-1.1s0.8-1.7,0.8-3c0-1.2-0.3-2.1-0.8-2.8s-1.3-1.1-2.2-1.1c-0.9,0-1.6,0.4-2.2,1.1
		S345.3,167.6,345.3,168.9z"/>
	<path d="M357.1,163.5l0.1,1.3c0.8-1,1.9-1.5,3.2-1.5c2.2,0,3.4,1.3,3.4,3.8v7h-1.8v-7c0-0.8-0.2-1.3-0.5-1.7s-0.9-0.5-1.6-0.5
		c-0.6,0-1.1,0.2-1.5,0.5s-0.8,0.7-1,1.2v7.5h-1.8v-10.6H357.1z"/>
</g>
<g>
	<path d="M42.6,328h-4.2v4.4h-1.3v-10h6.2v1.1h-4.9v3.4h4.2V328z"/>
	<path d="M44.7,323c0-0.2,0.1-0.4,0.2-0.5c0.1-0.1,0.3-0.2,0.6-0.2s0.4,0.1,0.6,0.2c0.1,0.1,0.2,0.3,0.2,0.5s-0.1,0.4-0.2,0.5
		s-0.3,0.2-0.6,0.2s-0.4-0.1-0.6-0.2S44.7,323.2,44.7,323z M46.1,332.4h-1.3V325h1.3V332.4z"/>
	<path d="M49.3,325l0,0.9c0.6-0.7,1.3-1.1,2.2-1.1c1.6,0,2.4,0.9,2.4,2.6v4.9h-1.3v-4.9c0-0.5-0.1-0.9-0.4-1.2
		c-0.2-0.3-0.6-0.4-1.1-0.4c-0.4,0-0.8,0.1-1.1,0.3s-0.6,0.5-0.7,0.9v5.3h-1.3V325H49.3z"/>
	<path d="M55.5,328.6c0-1.1,0.3-2,0.8-2.7s1.2-1,2.1-1c0.9,0,1.6,0.3,2.1,0.9v-3.9h1.3v10.5h-1.2l-0.1-0.8c-0.5,0.6-1.2,0.9-2.1,0.9
		c-0.9,0-1.6-0.4-2.1-1.1C55.8,330.8,55.5,329.8,55.5,328.6L55.5,328.6z M56.8,328.8c0,0.8,0.2,1.5,0.5,2c0.3,0.5,0.8,0.7,1.4,0.7
		c0.8,0,1.4-0.4,1.8-1.1V327c-0.4-0.7-1-1-1.7-1c-0.6,0-1.1,0.2-1.4,0.7S56.8,327.8,56.8,328.8z"/>
	<path d="M74.7,329.2c-0.1,1.1-0.5,1.9-1.2,2.4c-0.7,0.6-1.5,0.9-2.6,0.9c-1.2,0-2.1-0.4-2.8-1.3c-0.7-0.8-1.1-2-1.1-3.4v-1
		c0-0.9,0.2-1.7,0.5-2.4c0.3-0.7,0.8-1.2,1.4-1.6s1.3-0.6,2.1-0.6c1.1,0,1.9,0.3,2.5,0.9c0.6,0.6,1,1.4,1.1,2.5h-1.3
		c-0.1-0.8-0.4-1.4-0.7-1.7s-0.9-0.5-1.6-0.5c-0.8,0-1.5,0.3-2,0.9s-0.7,1.5-0.7,2.6v1c0,1.1,0.2,1.9,0.7,2.6c0.5,0.6,1.1,1,1.9,1
		c0.7,0,1.3-0.2,1.7-0.5c0.4-0.3,0.6-0.9,0.8-1.7H74.7z"/>
	<path d="M80.9,332.4c-0.1-0.1-0.1-0.4-0.2-0.8c-0.6,0.6-1.3,0.9-2.1,0.9c-0.7,0-1.3-0.2-1.8-0.6c-0.5-0.4-0.7-0.9-0.7-1.6
		c0-0.8,0.3-1.4,0.9-1.8c0.6-0.4,1.4-0.6,2.5-0.6h1.2v-0.6c0-0.4-0.1-0.8-0.4-1.1c-0.3-0.3-0.7-0.4-1.2-0.4c-0.5,0-0.8,0.1-1.1,0.3
		c-0.3,0.2-0.5,0.5-0.5,0.8h-1.3c0-0.4,0.1-0.7,0.4-1.1c0.3-0.3,0.6-0.6,1.1-0.8c0.4-0.2,0.9-0.3,1.5-0.3c0.9,0,1.5,0.2,2,0.6
		c0.5,0.4,0.7,1,0.8,1.8v3.4c0,0.7,0.1,1.2,0.3,1.6v0.1H80.9z M78.8,331.4c0.4,0,0.8-0.1,1.1-0.3s0.6-0.5,0.8-0.8v-1.5h-1
		c-1.5,0-2.3,0.5-2.3,1.4c0,0.4,0.1,0.7,0.4,0.9C78,331.3,78.3,331.4,78.8,331.4z"/>
	<path d="M85.3,332.4H84v-10.5h1.3V332.4z"/>
	<path d="M87.3,323c0-0.2,0.1-0.4,0.2-0.5c0.1-0.1,0.3-0.2,0.6-0.2s0.4,0.1,0.6,0.2c0.1,0.1,0.2,0.3,0.2,0.5s-0.1,0.4-0.2,0.5
		s-0.3,0.2-0.6,0.2s-0.4-0.1-0.6-0.2S87.3,323.2,87.3,323z M88.7,332.4h-1.3V325h1.3V332.4z"/>
	<path d="M91.3,332.4V326h-1.2v-1h1.2v-0.8c0-0.8,0.2-1.4,0.6-1.8c0.4-0.4,1-0.6,1.8-0.6c0.3,0,0.6,0,0.9,0.1l-0.1,1
		c-0.2,0-0.4-0.1-0.7-0.1c-0.4,0-0.7,0.1-1,0.4s-0.3,0.6-0.3,1v0.8h1.6v1h-1.6v6.4H91.3z"/>
	<path d="M95.2,328.6c0-0.7,0.1-1.4,0.4-2c0.3-0.6,0.7-1,1.2-1.3s1.1-0.5,1.7-0.5c1,0,1.8,0.3,2.4,1s0.9,1.6,0.9,2.8v0.1
		c0,0.7-0.1,1.4-0.4,1.9c-0.3,0.6-0.7,1-1.2,1.3c-0.5,0.3-1.1,0.5-1.8,0.5c-1,0-1.8-0.3-2.4-1S95.2,329.8,95.2,328.6L95.2,328.6z
		 M96.5,328.8c0,0.8,0.2,1.5,0.6,2c0.4,0.5,0.9,0.7,1.5,0.7c0.6,0,1.2-0.3,1.5-0.8c0.4-0.5,0.6-1.2,0.6-2.1c0-0.8-0.2-1.5-0.6-2
		c-0.4-0.5-0.9-0.8-1.5-0.8c-0.6,0-1.1,0.2-1.5,0.7C96.7,327.1,96.5,327.8,96.5,328.8z"/>
	<path d="M107.1,326.1c-0.2,0-0.4,0-0.6,0c-0.8,0-1.4,0.4-1.7,1.1v5.2h-1.3V325h1.2l0,0.9c0.4-0.7,1-1,1.8-1c0.2,0,0.4,0,0.6,0.1
		V326.1z"/>
	<path d="M109.5,325l0,0.9c0.6-0.7,1.3-1.1,2.2-1.1c1.6,0,2.4,0.9,2.4,2.6v4.9h-1.3v-4.9c0-0.5-0.1-0.9-0.4-1.2
		c-0.2-0.3-0.6-0.4-1.1-0.4c-0.4,0-0.8,0.1-1.1,0.3s-0.6,0.5-0.7,0.9v5.3h-1.3V325H109.5z"/>
	<path d="M116,323c0-0.2,0.1-0.4,0.2-0.5c0.1-0.1,0.3-0.2,0.6-0.2s0.4,0.1,0.6,0.2c0.1,0.1,0.2,0.3,0.2,0.5s-0.1,0.4-0.2,0.5
		s-0.3,0.2-0.6,0.2s-0.4-0.1-0.6-0.2S116,323.2,116,323z M117.4,332.4h-1.3V325h1.3V332.4z"/>
	<path d="M124,332.4c-0.1-0.1-0.1-0.4-0.2-0.8c-0.6,0.6-1.3,0.9-2.1,0.9c-0.7,0-1.3-0.2-1.8-0.6c-0.5-0.4-0.7-0.9-0.7-1.6
		c0-0.8,0.3-1.4,0.9-1.8c0.6-0.4,1.4-0.6,2.5-0.6h1.2v-0.6c0-0.4-0.1-0.8-0.4-1.1c-0.3-0.3-0.7-0.4-1.2-0.4c-0.5,0-0.8,0.1-1.1,0.3
		c-0.3,0.2-0.5,0.5-0.5,0.8h-1.3c0-0.4,0.1-0.7,0.4-1.1c0.3-0.3,0.6-0.6,1.1-0.8c0.4-0.2,0.9-0.3,1.5-0.3c0.9,0,1.5,0.2,2,0.6
		c0.5,0.4,0.7,1,0.8,1.8v3.4c0,0.7,0.1,1.2,0.3,1.6v0.1H124z M121.9,331.4c0.4,0,0.8-0.1,1.1-0.3s0.6-0.5,0.8-0.8v-1.5h-1
		c-1.5,0-2.3,0.5-2.3,1.4c0,0.4,0.1,0.7,0.4,0.9C121.1,331.3,121.5,331.4,121.9,331.4z"/>
	<path d="M138,329.2c-0.1,1.1-0.5,1.9-1.2,2.4c-0.7,0.6-1.5,0.9-2.6,0.9c-1.2,0-2.1-0.4-2.8-1.3c-0.7-0.8-1.1-2-1.1-3.4v-1
		c0-0.9,0.2-1.7,0.5-2.4c0.3-0.7,0.8-1.2,1.4-1.6s1.3-0.6,2.1-0.6c1.1,0,1.9,0.3,2.5,0.9c0.6,0.6,1,1.4,1.1,2.5h-1.3
		c-0.1-0.8-0.4-1.4-0.7-1.7s-0.9-0.5-1.6-0.5c-0.8,0-1.5,0.3-2,0.9s-0.7,1.5-0.7,2.6v1c0,1.1,0.2,1.9,0.7,2.6c0.5,0.6,1.1,1,1.9,1
		c0.7,0,1.3-0.2,1.7-0.5c0.4-0.3,0.6-0.9,0.8-1.7H138z"/>
	<path d="M144.2,332.4c-0.1-0.1-0.1-0.4-0.2-0.8c-0.6,0.6-1.3,0.9-2.1,0.9c-0.7,0-1.3-0.2-1.8-0.6c-0.5-0.4-0.7-0.9-0.7-1.6
		c0-0.8,0.3-1.4,0.9-1.8c0.6-0.4,1.4-0.6,2.5-0.6h1.2v-0.6c0-0.4-0.1-0.8-0.4-1.1c-0.3-0.3-0.7-0.4-1.2-0.4c-0.5,0-0.8,0.1-1.1,0.3
		c-0.3,0.2-0.5,0.5-0.5,0.8h-1.3c0-0.4,0.1-0.7,0.4-1.1c0.3-0.3,0.6-0.6,1.1-0.8c0.4-0.2,0.9-0.3,1.5-0.3c0.9,0,1.5,0.2,2,0.6
		c0.5,0.4,0.7,1,0.8,1.8v3.4c0,0.7,0.1,1.2,0.3,1.6v0.1H144.2z M142.1,331.4c0.4,0,0.8-0.1,1.1-0.3s0.6-0.5,0.8-0.8v-1.5h-1
		c-1.5,0-2.3,0.5-2.3,1.4c0,0.4,0.1,0.7,0.4,0.9C141.3,331.3,141.7,331.4,142.1,331.4z"/>
	<path d="M153.5,328.8c0,1.1-0.3,2-0.8,2.7c-0.5,0.7-1.2,1-2.1,1c-0.9,0-1.7-0.3-2.2-1l-0.1,0.9h-1.2v-10.5h1.3v3.9
		c0.5-0.6,1.2-1,2.1-1s1.6,0.3,2.1,1c0.5,0.7,0.8,1.6,0.8,2.8V328.8z M152.2,328.6c0-0.9-0.2-1.5-0.5-2c-0.3-0.5-0.8-0.7-1.4-0.7
		c-0.8,0-1.4,0.4-1.8,1.2v3.2c0.4,0.8,1,1.2,1.8,1.2c0.6,0,1.1-0.2,1.4-0.7C152,330.3,152.2,329.6,152.2,328.6z"/>
	<path d="M158.1,332.5c-1,0-1.8-0.3-2.4-1c-0.6-0.7-0.9-1.5-0.9-2.6v-0.2c0-0.7,0.1-1.4,0.4-2c0.3-0.6,0.7-1,1.2-1.4
		c0.5-0.3,1-0.5,1.6-0.5c1,0,1.7,0.3,2.2,1c0.5,0.6,0.8,1.5,0.8,2.7v0.5h-5c0,0.7,0.2,1.3,0.6,1.8c0.4,0.4,0.9,0.7,1.6,0.7
		c0.4,0,0.8-0.1,1.1-0.3c0.3-0.2,0.6-0.4,0.8-0.7l0.8,0.6C160.3,332,159.4,332.5,158.1,332.5z M158,325.9c-0.5,0-0.9,0.2-1.3,0.6
		c-0.3,0.4-0.6,0.9-0.6,1.6h3.7v-0.1c0-0.6-0.2-1.1-0.5-1.5C158.9,326.1,158.5,325.9,158,325.9z"/>
	<path d="M166.1,326.1c-0.2,0-0.4,0-0.6,0c-0.8,0-1.4,0.4-1.7,1.1v5.2h-1.3V325h1.2l0,0.9c0.4-0.7,1-1,1.8-1c0.2,0,0.4,0,0.6,0.1
		V326.1z"/>
	<path d="M168.4,325l0,0.9c0.6-0.7,1.3-1.1,2.2-1.1c1.6,0,2.4,0.9,2.4,2.6v4.9h-1.3v-4.9c0-0.5-0.1-0.9-0.4-1.2
		c-0.2-0.3-0.6-0.4-1.1-0.4c-0.4,0-0.8,0.1-1.1,0.3s-0.6,0.5-0.7,0.9v5.3h-1.3V325H168.4z"/>
	<path d="M178,332.5c-1,0-1.8-0.3-2.4-1c-0.6-0.7-0.9-1.5-0.9-2.6v-0.2c0-0.7,0.1-1.4,0.4-2c0.3-0.6,0.7-1,1.2-1.4
		c0.5-0.3,1-0.5,1.6-0.5c1,0,1.7,0.3,2.2,1c0.5,0.6,0.8,1.5,0.8,2.7v0.5h-5c0,0.7,0.2,1.3,0.6,1.8c0.4,0.4,0.9,0.7,1.6,0.7
		c0.4,0,0.8-0.1,1.1-0.3c0.3-0.2,0.6-0.4,0.8-0.7l0.8,0.6C180.2,332,179.3,332.5,178,332.5z M177.9,325.9c-0.5,0-0.9,0.2-1.3,0.6
		c-0.3,0.4-0.6,0.9-0.6,1.6h3.7v-0.1c0-0.6-0.2-1.1-0.5-1.5C178.8,326.1,178.4,325.9,177.9,325.9z"/>
	<path d="M184.1,323.2v1.8h1.4v1h-1.4v4.6c0,0.3,0.1,0.5,0.2,0.7c0.1,0.1,0.3,0.2,0.6,0.2c0.1,0,0.3,0,0.6-0.1v1
		c-0.3,0.1-0.7,0.1-1,0.1c-0.6,0-1-0.2-1.3-0.5s-0.4-0.8-0.4-1.5V326h-1.3v-1h1.3v-1.8H184.1z"/>
</g>
<g>
	<path d="M94.3,380.2v-8.5h2.8c0.9,0,1.6,0.2,2.1,0.6s0.7,0.9,0.7,1.7c0,0.4-0.1,0.8-0.3,1.1s-0.5,0.5-0.9,0.7
		c0.5,0.1,0.8,0.4,1.1,0.7s0.4,0.8,0.4,1.3c0,0.8-0.2,1.4-0.7,1.8s-1.2,0.7-2.1,0.7H94.3z M95.4,375.3h1.7c0.5,0,0.9-0.1,1.2-0.4
		s0.4-0.6,0.4-1c0-0.5-0.1-0.8-0.4-1c-0.3-0.2-0.7-0.3-1.2-0.3h-1.7V375.3z M95.4,376.2v3.1h1.9c0.5,0,0.9-0.1,1.2-0.4
		s0.5-0.6,0.5-1.1c0-1-0.6-1.5-1.7-1.5H95.4z"/>
	<path d="M105.5,379.5c-0.4,0.5-1,0.7-1.9,0.7c-0.7,0-1.2-0.2-1.5-0.6s-0.5-1-0.5-1.7v-4.1h1.1v4.1c0,1,0.4,1.4,1.2,1.4
		c0.8,0,1.4-0.3,1.7-0.9v-4.6h1.1v6.3h-1L105.5,379.5z"/>
	<path d="M110.3,378.6l1.5-4.8h1.2l-2.5,7.3c-0.4,1.1-1,1.6-1.9,1.6l-0.2,0l-0.4-0.1v-0.9l0.3,0c0.4,0,0.7-0.1,0.9-0.2
		s0.4-0.4,0.5-0.8l0.2-0.6l-2.3-6.3h1.2L110.3,378.6z"/>
	<path d="M123.6,380.2h-1.1l-4.3-6.6v6.6H117v-8.5h1.1l4.3,6.6v-6.6h1.1V380.2z"/>
	<path d="M125.1,376.9c0-0.6,0.1-1.2,0.4-1.7s0.6-0.9,1-1.1s0.9-0.4,1.5-0.4c0.9,0,1.6,0.3,2.1,0.9s0.8,1.4,0.8,2.4v0.1
		c0,0.6-0.1,1.2-0.4,1.7s-0.6,0.9-1,1.1s-0.9,0.4-1.5,0.4c-0.9,0-1.6-0.3-2.1-0.9S125.1,378,125.1,376.9L125.1,376.9z M126.2,377.1
		c0,0.7,0.2,1.3,0.5,1.7s0.8,0.6,1.3,0.6c0.6,0,1-0.2,1.3-0.6s0.5-1,0.5-1.8c0-0.7-0.2-1.3-0.5-1.7s-0.8-0.6-1.3-0.6
		c-0.5,0-1,0.2-1.3,0.6S126.2,376.3,126.2,377.1z"/>
	<path d="M137.9,378.7l1.2-4.8h1.1l-1.8,6.3h-0.9l-1.5-4.8l-1.5,4.8h-0.9l-1.8-6.3h1.1l1.2,4.7l1.5-4.7h0.9L137.9,378.7z"/>
</g>
<g>
	<path d="M77.4,433.2l0.2,1.1l0.2-1l1.7-6h0.9l1.6,6l0.2,1l0.2-1.1l1.3-5.8H85l-2.1,8.5h-1l-1.8-6.2L80,429l-0.1,0.7l-1.8,6.2h-1
		l-2.1-8.5h1.1L77.4,433.2z"/>
	<path d="M86.1,427.8c0-0.2,0.1-0.3,0.2-0.4s0.3-0.2,0.5-0.2s0.4,0.1,0.5,0.2s0.2,0.3,0.2,0.4s-0.1,0.3-0.2,0.4s-0.3,0.2-0.5,0.2
		s-0.4-0.1-0.5-0.2S86.1,428,86.1,427.8z M87.3,435.9h-1.1v-6.3h1.1V435.9z"/>
	<path d="M90,429.5l0,0.8c0.5-0.6,1.1-0.9,1.9-0.9c1.3,0,2,0.8,2,2.3v4.2h-1.1v-4.2c0-0.5-0.1-0.8-0.3-1s-0.5-0.3-1-0.3
		c-0.4,0-0.7,0.1-0.9,0.3s-0.5,0.4-0.6,0.7v4.5H89v-6.3H90z"/>
	<path d="M98.2,436c-0.9,0-1.6-0.3-2.1-0.8s-0.8-1.3-0.8-2.3v-0.2c0-0.6,0.1-1.2,0.4-1.7s0.6-0.9,1-1.2s0.9-0.4,1.4-0.4
		c0.8,0,1.5,0.3,1.9,0.8s0.7,1.3,0.7,2.3v0.5h-4.3c0,0.6,0.2,1.1,0.5,1.5s0.8,0.6,1.3,0.6c0.4,0,0.7-0.1,1-0.2s0.5-0.4,0.7-0.6
		l0.7,0.5C100.1,435.6,99.3,436,98.2,436z M98.1,430.3c-0.4,0-0.8,0.2-1.1,0.5s-0.5,0.8-0.6,1.3h3.2V432c0-0.6-0.2-1-0.4-1.3
		S98.6,430.3,98.1,430.3z"/>
	<path d="M105,430.5c-0.2,0-0.3,0-0.5,0c-0.7,0-1.2,0.3-1.4,0.9v4.5H102v-6.3h1.1l0,0.7c0.4-0.6,0.9-0.8,1.5-0.8
		c0.2,0,0.4,0,0.5,0.1V430.5z"/>
	<path d="M108.1,434.3l1.5-4.8h1.2l-2.5,7.3c-0.4,1.1-1,1.6-1.9,1.6l-0.2,0l-0.4-0.1v-0.9l0.3,0c0.4,0,0.7-0.1,0.9-0.2
		s0.4-0.4,0.5-0.8l0.2-0.6l-2.3-6.3h1.2L108.1,434.3z"/>
</g>
<g>
	<path d="M152.3,435.9v-8.5h2.8c0.9,0,1.6,0.2,2.1,0.6s0.7,0.9,0.7,1.7c0,0.4-0.1,0.8-0.3,1.1s-0.5,0.5-0.9,0.7
		c0.5,0.1,0.8,0.4,1.1,0.7s0.4,0.8,0.4,1.3c0,0.8-0.2,1.4-0.7,1.8s-1.2,0.7-2.1,0.7H152.3z M153.4,431h1.7c0.5,0,0.9-0.1,1.2-0.4
		s0.4-0.6,0.4-1c0-0.5-0.1-0.8-0.4-1c-0.3-0.2-0.7-0.3-1.2-0.3h-1.7V431z M153.4,431.9v3.1h1.9c0.5,0,0.9-0.1,1.2-0.4
		s0.5-0.6,0.5-1.1c0-1-0.6-1.5-1.7-1.5H153.4z"/>
	<path d="M163.5,435.2c-0.4,0.5-1,0.7-1.9,0.7c-0.7,0-1.2-0.2-1.5-0.6s-0.5-1-0.5-1.7v-4.1h1.1v4.1c0,1,0.4,1.4,1.2,1.4
		c0.8,0,1.4-0.3,1.7-0.9v-4.6h1.1v6.3h-1L163.5,435.2z"/>
	<path d="M168.2,434.3l1.5-4.8h1.2l-2.5,7.3c-0.4,1.1-1,1.6-1.9,1.6l-0.2,0l-0.4-0.1v-0.9l0.3,0c0.4,0,0.7-0.1,0.9-0.2
		s0.4-0.4,0.5-0.8l0.2-0.6l-2.3-6.3h1.2L168.2,434.3z"/>
	<path d="M181.5,435.9h-1.1l-4.3-6.6v6.6H175v-8.5h1.1l4.3,6.6v-6.6h1.1V435.9z"/>
	<path d="M183.1,432.6c0-0.6,0.1-1.2,0.4-1.7s0.6-0.9,1-1.1s0.9-0.4,1.5-0.4c0.9,0,1.6,0.3,2.1,0.9s0.8,1.4,0.8,2.4v0.1
		c0,0.6-0.1,1.2-0.4,1.7s-0.6,0.9-1,1.1s-0.9,0.4-1.5,0.4c-0.9,0-1.6-0.3-2.1-0.9S183.1,433.7,183.1,432.6L183.1,432.6z
		 M184.2,432.8c0,0.7,0.2,1.3,0.5,1.7s0.8,0.6,1.3,0.6c0.6,0,1-0.2,1.3-0.6s0.5-1,0.5-1.8c0-0.7-0.2-1.3-0.5-1.7s-0.8-0.6-1.3-0.6
		c-0.5,0-1,0.2-1.3,0.6S184.2,432,184.2,432.8z"/>
	<path d="M195.8,434.4l1.2-4.8h1.1l-1.8,6.3h-0.9l-1.5-4.8l-1.5,4.8h-0.9l-1.8-6.3h1.1l1.2,4.7l1.5-4.7h0.9L195.8,434.4z"/>
</g>
<g>
	<path d="M170.1,469.4h-1.1l-4.3-6.6v6.6h-1.1v-8.5h1.1l4.3,6.6v-6.6h1.1V469.4z"/>
	<path d="M174.5,469.5c-0.9,0-1.6-0.3-2.1-0.8s-0.8-1.3-0.8-2.3v-0.2c0-0.6,0.1-1.2,0.4-1.7s0.6-0.9,1-1.2s0.9-0.4,1.4-0.4
		c0.8,0,1.5,0.3,1.9,0.8s0.7,1.3,0.7,2.3v0.5h-4.3c0,0.6,0.2,1.1,0.5,1.5s0.8,0.6,1.3,0.6c0.4,0,0.7-0.1,1-0.2s0.5-0.4,0.7-0.6
		l0.7,0.5C176.4,469.1,175.6,469.5,174.5,469.5z M174.4,463.8c-0.4,0-0.8,0.2-1.1,0.5s-0.5,0.8-0.6,1.3h3.2v-0.1
		c0-0.6-0.2-1-0.4-1.3S174.8,463.8,174.4,463.8z"/>
	<path d="M180.4,465.4l1.4-2.3h1.3l-2.1,3.1l2.1,3.2h-1.3l-1.5-2.4l-1.5,2.4h-1.3l2.1-3.2l-2.1-3.1h1.3L180.4,465.4z"/>
	<path d="M185.7,461.5v1.5h1.2v0.8h-1.2v3.9c0,0.3,0.1,0.4,0.2,0.6c0.1,0.1,0.3,0.2,0.5,0.2c0.1,0,0.3,0,0.5-0.1v0.9
		c-0.3,0.1-0.6,0.1-0.8,0.1c-0.5,0-0.8-0.1-1.1-0.4s-0.4-0.7-0.4-1.2v-3.9h-1.2v-0.8h1.2v-1.5H185.7z"/>
</g>
<g>
	<path d="M225.7,504.9h-1.1l-4.3-6.6v6.6h-1.1v-8.5h1.1l4.3,6.6v-6.6h1.1V504.9z"/>
	<path d="M230.2,505c-0.9,0-1.6-0.3-2.1-0.8s-0.8-1.3-0.8-2.3v-0.2c0-0.6,0.1-1.2,0.4-1.7s0.6-0.9,1-1.2s0.9-0.4,1.4-0.4
		c0.8,0,1.5,0.3,1.9,0.8s0.7,1.3,0.7,2.3v0.5h-4.3c0,0.6,0.2,1.1,0.5,1.5s0.8,0.6,1.3,0.6c0.4,0,0.7-0.1,1-0.2s0.5-0.4,0.7-0.6
		l0.7,0.5C232,504.6,231.2,505,230.2,505z M230,499.3c-0.4,0-0.8,0.2-1.1,0.5s-0.5,0.8-0.6,1.3h3.2v-0.1c0-0.6-0.2-1-0.4-1.3
		S230.5,499.3,230,499.3z"/>
	<path d="M236,500.9l1.4-2.3h1.3l-2.1,3.1l2.1,3.2h-1.3l-1.5-2.4l-1.5,2.4h-1.3l2.1-3.2l-2.1-3.1h1.3L236,500.9z"/>
	<path d="M241.3,497v1.5h1.2v0.8h-1.2v3.9c0,0.3,0.1,0.4,0.2,0.6c0.1,0.1,0.3,0.2,0.5,0.2c0.1,0,0.3,0,0.5-0.1v0.9
		c-0.3,0.1-0.6,0.1-0.8,0.1c-0.5,0-0.8-0.1-1.1-0.4s-0.4-0.7-0.4-1.2v-3.9h-1.2v-0.8h1.2V497H241.3z"/>
</g>
<g>
	<path class="st0" d="M170,511.5H57.3c-5.5,0-9.9-4.4-9.9-9.9v-2.5c0-5.5,4.4-9.9,9.9-9.9H170c5.5,0,9.9,4.4,9.9,9.9v2.5
		C179.9,507.1,175.4,511.5,170,511.5z M57.3,489.6c-5.3,0-9.5,4.3-9.5,9.5v2.5c0,5.3,4.3,9.5,9.5,9.5H170c5.3,0,9.5-4.3,9.5-9.5
		v-2.5c0-5.3-4.3-9.5-9.5-9.5H57.3z"/>
</g>
<g>
	<path d="M60.8,501.7h-3.6l-0.8,2.2h-1.2l3.3-8.5h1l3.3,8.5h-1.2L60.8,501.7z M57.6,500.7h2.9l-1.5-4L57.6,500.7z"/>
	<path d="M63.5,500.7c0-1,0.2-1.8,0.7-2.3c0.5-0.6,1.1-0.9,1.8-0.9c0.7,0,1.3,0.3,1.8,0.8v-3.3h1.1v9h-1l-0.1-0.7
		c-0.4,0.5-1,0.8-1.8,0.8c-0.7,0-1.3-0.3-1.8-0.9C63.7,502.5,63.5,501.7,63.5,500.7L63.5,500.7z M64.6,500.8c0,0.7,0.1,1.3,0.4,1.7
		s0.7,0.6,1.2,0.6c0.7,0,1.2-0.3,1.5-0.9v-2.9c-0.3-0.6-0.8-0.9-1.5-0.9c-0.5,0-0.9,0.2-1.2,0.6S64.6,500,64.6,500.8z"/>
	<path d="M70.2,500.7c0-1,0.2-1.8,0.7-2.3s1.1-0.9,1.8-0.9c0.7,0,1.3,0.3,1.8,0.8v-3.3h1.1v9h-1l-0.1-0.7c-0.4,0.5-1,0.8-1.8,0.8
		c-0.7,0-1.3-0.3-1.8-0.9S70.2,501.7,70.2,500.7L70.2,500.7z M71.3,500.8c0,0.7,0.1,1.3,0.4,1.7s0.7,0.6,1.2,0.6
		c0.7,0,1.2-0.3,1.5-0.9v-2.9c-0.3-0.6-0.8-0.9-1.5-0.9c-0.5,0-0.9,0.2-1.2,0.6S71.3,500,71.3,500.8z"/>
	<path d="M82.9,500.1c-1-0.3-1.7-0.6-2.1-1s-0.7-0.9-0.7-1.5c0-0.7,0.3-1.2,0.8-1.7s1.2-0.7,2.1-0.7c0.6,0,1.1,0.1,1.6,0.3
		s0.8,0.5,1.1,0.9s0.4,0.8,0.4,1.3h-1.1c0-0.5-0.2-0.9-0.5-1.2s-0.8-0.4-1.4-0.4c-0.6,0-1,0.1-1.3,0.4c-0.3,0.2-0.5,0.6-0.5,1
		c0,0.3,0.1,0.6,0.4,0.9s0.8,0.5,1.5,0.7c0.7,0.2,1.3,0.4,1.7,0.7s0.7,0.5,0.9,0.8s0.3,0.7,0.3,1.1c0,0.7-0.3,1.2-0.8,1.7
		S84,504,83.1,504c-0.6,0-1.1-0.1-1.6-0.3s-0.9-0.5-1.2-0.9s-0.4-0.8-0.4-1.3H81c0,0.5,0.2,0.9,0.6,1.2s0.9,0.4,1.5,0.4
		c0.6,0,1-0.1,1.4-0.4s0.5-0.6,0.5-1s-0.1-0.7-0.4-1S83.7,500.3,82.9,500.1z"/>
	<path d="M88.4,498.3c0.5-0.6,1.1-0.9,1.9-0.9c1.3,0,2,0.8,2,2.3v4.2h-1.1v-4.2c0-0.5-0.1-0.8-0.3-1s-0.5-0.3-1-0.3
		c-0.4,0-0.7,0.1-0.9,0.3s-0.5,0.4-0.6,0.7v4.5h-1.1v-9h1.1V498.3z"/>
	<path d="M94,495.9c0-0.2,0.1-0.3,0.2-0.4s0.3-0.2,0.5-0.2s0.4,0.1,0.5,0.2s0.2,0.3,0.2,0.4s-0.1,0.3-0.2,0.4s-0.3,0.2-0.5,0.2
		s-0.4-0.1-0.5-0.2S94,496,94,495.9z M95.2,503.9h-1.1v-6.3h1.1V503.9z"/>
	<path d="M102.2,500.8c0,1-0.2,1.7-0.7,2.3s-1,0.9-1.8,0.9c-0.8,0-1.4-0.2-1.8-0.7v3.1h-1.1v-8.8h1l0.1,0.7c0.4-0.5,1.1-0.8,1.8-0.8
		c0.8,0,1.4,0.3,1.8,0.9S102.2,499.7,102.2,500.8L102.2,500.8z M101.2,500.7c0-0.7-0.2-1.3-0.5-1.7s-0.7-0.6-1.3-0.6
		c-0.7,0-1.1,0.3-1.5,0.9v3c0.3,0.6,0.8,0.9,1.5,0.9c0.5,0,0.9-0.2,1.2-0.6S101.2,501.5,101.2,500.7z"/>
	<path d="M109,500.8c0,1-0.2,1.7-0.7,2.3s-1,0.9-1.8,0.9c-0.8,0-1.4-0.2-1.8-0.7v3.1h-1.1v-8.8h1l0.1,0.7c0.4-0.5,1.1-0.8,1.8-0.8
		c0.8,0,1.4,0.3,1.8,0.9S109,499.7,109,500.8L109,500.8z M107.9,500.7c0-0.7-0.2-1.3-0.5-1.7s-0.7-0.6-1.3-0.6
		c-0.7,0-1.1,0.3-1.5,0.9v3c0.3,0.6,0.8,0.9,1.5,0.9c0.5,0,0.9-0.2,1.2-0.6S107.9,501.5,107.9,500.7z"/>
	<path d="M110.4,495.9c0-0.2,0.1-0.3,0.2-0.4s0.3-0.2,0.5-0.2s0.4,0.1,0.5,0.2s0.2,0.3,0.2,0.4s-0.1,0.3-0.2,0.4s-0.3,0.2-0.5,0.2
		s-0.4-0.1-0.5-0.2S110.4,496,110.4,495.9z M111.5,503.9h-1.1v-6.3h1.1V503.9z"/>
	<path d="M114.3,497.6l0,0.8c0.5-0.6,1.1-0.9,1.9-0.9c1.3,0,2,0.8,2,2.3v4.2h-1.1v-4.2c0-0.5-0.1-0.8-0.3-1s-0.5-0.3-1-0.3
		c-0.4,0-0.7,0.1-0.9,0.3s-0.5,0.4-0.6,0.7v4.5h-1.1v-6.3H114.3z"/>
	<path d="M119.6,500.7c0-1,0.2-1.8,0.7-2.4s1.1-0.9,1.8-0.9c0.8,0,1.4,0.3,1.8,0.8l0.1-0.7h1v6.2c0,0.8-0.2,1.5-0.7,1.9
		s-1.1,0.7-2,0.7c-0.5,0-0.9-0.1-1.3-0.3s-0.8-0.5-1-0.8l0.6-0.7c0.5,0.6,1,0.9,1.7,0.9c0.5,0,0.9-0.1,1.2-0.4s0.4-0.7,0.4-1.3v-0.5
		c-0.4,0.5-1,0.8-1.8,0.8c-0.7,0-1.3-0.3-1.8-0.9S119.6,501.7,119.6,500.7z M120.7,500.8c0,0.7,0.1,1.3,0.4,1.7s0.7,0.6,1.2,0.6
		c0.7,0,1.2-0.3,1.5-0.9v-2.9c-0.3-0.6-0.8-0.9-1.5-0.9c-0.5,0-0.9,0.2-1.2,0.6S120.7,500,120.7,500.8z"/>
	<path d="M134.5,501.7h-3.6l-0.8,2.2h-1.2l3.3-8.5h1l3.3,8.5h-1.2L134.5,501.7z M131.2,500.7h2.9l-1.5-4L131.2,500.7z"/>
	<path d="M137.2,500.7c0-1,0.2-1.8,0.7-2.3s1.1-0.9,1.8-0.9c0.7,0,1.3,0.3,1.8,0.8v-3.3h1.1v9h-1l-0.1-0.7c-0.4,0.5-1,0.8-1.8,0.8
		c-0.7,0-1.3-0.3-1.8-0.9S137.2,501.7,137.2,500.7L137.2,500.7z M138.2,500.8c0,0.7,0.1,1.3,0.4,1.7s0.7,0.6,1.2,0.6
		c0.7,0,1.2-0.3,1.5-0.9v-2.9c-0.3-0.6-0.8-0.9-1.5-0.9c-0.5,0-0.9,0.2-1.2,0.6S138.2,500,138.2,500.8z"/>
	<path d="M143.9,500.7c0-1,0.2-1.8,0.7-2.3s1.1-0.9,1.8-0.9c0.7,0,1.3,0.3,1.8,0.8v-3.3h1.1v9h-1l-0.1-0.7c-0.4,0.5-1,0.8-1.8,0.8
		c-0.7,0-1.3-0.3-1.8-0.9S143.9,501.7,143.9,500.7L143.9,500.7z M145,500.8c0,0.7,0.1,1.3,0.4,1.7s0.7,0.6,1.2,0.6
		c0.7,0,1.2-0.3,1.5-0.9v-2.9c-0.3-0.6-0.8-0.9-1.5-0.9c-0.5,0-0.9,0.2-1.2,0.6S145,500,145,500.8z"/>
	<path d="M154,498.5c-0.2,0-0.3,0-0.5,0c-0.7,0-1.2,0.3-1.4,0.9v4.5H151v-6.3h1.1l0,0.7c0.4-0.6,0.9-0.8,1.5-0.8
		c0.2,0,0.4,0,0.5,0.1V498.5z"/>
	<path d="M157.6,504c-0.9,0-1.6-0.3-2.1-0.8s-0.8-1.3-0.8-2.3v-0.2c0-0.6,0.1-1.2,0.4-1.7s0.6-0.9,1-1.2s0.9-0.4,1.4-0.4
		c0.8,0,1.5,0.3,1.9,0.8s0.7,1.3,0.7,2.3v0.5h-4.3c0,0.6,0.2,1.1,0.5,1.5s0.8,0.6,1.3,0.6c0.4,0,0.7-0.1,1-0.2s0.5-0.4,0.7-0.6
		l0.7,0.5C159.5,503.6,158.7,504,157.6,504z M157.5,498.3c-0.4,0-0.8,0.2-1.1,0.5s-0.5,0.8-0.6,1.3h3.2v-0.1c0-0.6-0.2-1-0.4-1.3
		S158,498.3,157.5,498.3z"/>
	<path d="M165.1,502.2c0-0.3-0.1-0.5-0.3-0.7s-0.6-0.3-1.2-0.4s-1-0.3-1.3-0.4s-0.6-0.4-0.7-0.6s-0.2-0.5-0.2-0.8
		c0-0.5,0.2-1,0.7-1.3s1-0.5,1.7-0.5c0.7,0,1.3,0.2,1.7,0.6s0.7,0.8,0.7,1.4H165c0-0.3-0.1-0.6-0.4-0.8s-0.6-0.3-1-0.3
		c-0.4,0-0.7,0.1-0.9,0.3s-0.3,0.4-0.3,0.7c0,0.3,0.1,0.5,0.3,0.6s0.6,0.3,1.1,0.4s1,0.3,1.3,0.4s0.6,0.4,0.7,0.6s0.2,0.5,0.2,0.9
		c0,0.6-0.2,1-0.7,1.4s-1,0.5-1.8,0.5c-0.5,0-1-0.1-1.3-0.3s-0.7-0.4-0.9-0.8s-0.3-0.7-0.3-1h1.1c0,0.4,0.2,0.7,0.4,0.9
		s0.6,0.3,1.1,0.3c0.4,0,0.7-0.1,1-0.2S165.1,502.5,165.1,502.2z"/>
	<path d="M171.2,502.2c0-0.3-0.1-0.5-0.3-0.7s-0.6-0.3-1.2-0.4s-1-0.3-1.3-0.4s-0.6-0.4-0.7-0.6s-0.2-0.5-0.2-0.8
		c0-0.5,0.2-1,0.7-1.3s1-0.5,1.7-0.5c0.7,0,1.3,0.2,1.7,0.6s0.7,0.8,0.7,1.4h-1.1c0-0.3-0.1-0.6-0.4-0.8s-0.6-0.3-1-0.3
		c-0.4,0-0.7,0.1-0.9,0.3s-0.3,0.4-0.3,0.7c0,0.3,0.1,0.5,0.3,0.6s0.6,0.3,1.1,0.4s1,0.3,1.3,0.4s0.6,0.4,0.7,0.6s0.2,0.5,0.2,0.9
		c0,0.6-0.2,1-0.7,1.4s-1,0.5-1.8,0.5c-0.5,0-1-0.1-1.3-0.3s-0.7-0.4-0.9-0.8s-0.3-0.7-0.3-1h1.1c0,0.4,0.2,0.7,0.4,0.9
		s0.6,0.3,1.1,0.3c0.4,0,0.7-0.1,1-0.2S171.2,502.5,171.2,502.2z"/>
</g>
<g>
	<path class="st0" d="M260.1,544.7h-56.6c-4,0-7.3-3.3-7.3-7.3v-7.7c0-4,3.3-7.3,7.3-7.3h56.6c4,0,7.3,3.3,7.3,7.3v7.7
		C267.4,541.4,264.1,544.7,260.1,544.7z M203.6,522.8c-3.9,0-7,3.1-7,7v7.7c0,3.9,3.1,7,7,7h56.6c3.9,0,7-3.1,7-7v-7.7
		c0-3.9-3.1-7-7-7H203.6z"/>
</g>
<g>
	<path d="M225.7,538.1h-1.1l-4.3-6.6v6.6h-1.1v-8.5h1.1l4.3,6.6v-6.6h1.1V538.1z"/>
	<path d="M230.2,538.3c-0.9,0-1.6-0.3-2.1-0.8s-0.8-1.3-0.8-2.3v-0.2c0-0.6,0.1-1.2,0.4-1.7s0.6-0.9,1-1.2s0.9-0.4,1.4-0.4
		c0.8,0,1.5,0.3,1.9,0.8s0.7,1.3,0.7,2.3v0.5h-4.3c0,0.6,0.2,1.1,0.5,1.5s0.8,0.6,1.3,0.6c0.4,0,0.7-0.1,1-0.2s0.5-0.4,0.7-0.6
		l0.7,0.5C232,537.8,231.2,538.3,230.2,538.3z M230,532.6c-0.4,0-0.8,0.2-1.1,0.5s-0.5,0.8-0.6,1.3h3.2v-0.1c0-0.6-0.2-1-0.4-1.3
		S230.5,532.6,230,532.6z"/>
	<path d="M236,534.1l1.4-2.3h1.3l-2.1,3.1l2.1,3.2h-1.3l-1.5-2.4l-1.5,2.4h-1.3l2.1-3.2l-2.1-3.1h1.3L236,534.1z"/>
	<path d="M241.3,530.3v1.5h1.2v0.8h-1.2v3.9c0,0.3,0.1,0.4,0.2,0.6s0.3,0.2,0.5,0.2c0.1,0,0.3,0,0.5-0.1v0.9
		c-0.3,0.1-0.6,0.1-0.8,0.1c-0.5,0-0.8-0.1-1.1-0.4s-0.4-0.7-0.4-1.2v-3.9h-1.2v-0.8h1.2v-1.5H241.3z"/>
</g>
<g>
	<path class="st0" d="M170,544.8H57.3c-5.5,0-9.9-4.4-9.9-9.9v-2.5c0-5.5,4.4-9.9,9.9-9.9H170c5.5,0,9.9,4.4,9.9,9.9v2.5
		C179.9,540.3,175.4,544.8,170,544.8z M57.3,522.8c-5.3,0-9.5,4.3-9.5,9.5v2.5c0,5.3,4.3,9.5,9.5,9.5H170c5.3,0,9.5-4.3,9.5-9.5
		v-2.5c0-5.3-4.3-9.5-9.5-9.5H57.3z"/>
</g>
<g>
	<path d="M74.8,534.9h-3.6l-0.8,2.2h-1.2l3.3-8.5h1l3.3,8.5h-1.2L74.8,534.9z M71.6,534h2.9l-1.5-4L71.6,534z"/>
	<path d="M77.5,533.9c0-1,0.2-1.8,0.7-2.3s1.1-0.9,1.8-0.9c0.7,0,1.3,0.3,1.8,0.8v-3.3h1.1v9h-1l-0.1-0.7c-0.4,0.5-1,0.8-1.8,0.8
		c-0.7,0-1.3-0.3-1.8-0.9S77.5,535,77.5,533.9L77.5,533.9z M78.6,534c0,0.7,0.1,1.3,0.4,1.7s0.7,0.6,1.2,0.6c0.7,0,1.2-0.3,1.5-0.9
		v-2.9c-0.3-0.6-0.8-0.9-1.5-0.9c-0.5,0-0.9,0.2-1.2,0.6S78.6,533.2,78.6,534z"/>
	<path d="M84.2,533.9c0-1,0.2-1.8,0.7-2.3s1.1-0.9,1.8-0.9c0.7,0,1.3,0.3,1.8,0.8v-3.3h1.1v9h-1l-0.1-0.7c-0.4,0.5-1,0.8-1.8,0.8
		c-0.7,0-1.3-0.3-1.8-0.9S84.2,535,84.2,533.9L84.2,533.9z M85.3,534c0,0.7,0.1,1.3,0.4,1.7s0.7,0.6,1.2,0.6c0.7,0,1.2-0.3,1.5-0.9
		v-2.9c-0.3-0.6-0.8-0.9-1.5-0.9c-0.5,0-0.9,0.2-1.2,0.6S85.3,533.2,85.3,534z"/>
	<path d="M100.7,534.4c-0.1,0.9-0.4,1.6-1,2.1s-1.3,0.7-2.2,0.7c-1,0-1.8-0.4-2.4-1.1s-0.9-1.7-0.9-2.9v-0.8c0-0.8,0.1-1.5,0.4-2.1
		s0.7-1.1,1.2-1.4s1.1-0.5,1.8-0.5c0.9,0,1.6,0.3,2.2,0.8s0.9,1.2,1,2.1h-1.1c-0.1-0.7-0.3-1.2-0.6-1.5s-0.8-0.5-1.4-0.5
		c-0.7,0-1.3,0.3-1.7,0.8c-0.4,0.5-0.6,1.3-0.6,2.3v0.8c0,0.9,0.2,1.7,0.6,2.2c0.4,0.5,0.9,0.8,1.6,0.8c0.6,0,1.1-0.1,1.4-0.4
		s0.6-0.8,0.7-1.5H100.7z"/>
	<path d="M105.1,531.8c-0.2,0-0.3,0-0.5,0c-0.7,0-1.2,0.3-1.4,0.9v4.5h-1.1v-6.3h1.1l0,0.7c0.4-0.6,0.9-0.8,1.5-0.8
		c0.2,0,0.4,0,0.5,0.1V531.8z"/>
	<path d="M108.7,537.3c-0.9,0-1.6-0.3-2.1-0.8s-0.8-1.3-0.8-2.3v-0.2c0-0.6,0.1-1.2,0.4-1.7s0.6-0.9,1-1.2s0.9-0.4,1.4-0.4
		c0.8,0,1.5,0.3,1.9,0.8s0.7,1.3,0.7,2.3v0.5h-4.3c0,0.6,0.2,1.1,0.5,1.5s0.8,0.6,1.3,0.6c0.4,0,0.7-0.1,1-0.2s0.5-0.4,0.7-0.6
		l0.7,0.5C110.6,536.8,109.8,537.3,108.7,537.3z M108.6,531.6c-0.4,0-0.8,0.2-1.1,0.5s-0.5,0.8-0.6,1.3h3.2v-0.1
		c0-0.6-0.2-1-0.4-1.3S109.1,531.6,108.6,531.6z"/>
	<path d="M112.2,533.9c0-1,0.2-1.8,0.7-2.3s1.1-0.9,1.8-0.9c0.7,0,1.3,0.3,1.8,0.8v-3.3h1.1v9h-1l-0.1-0.7c-0.4,0.5-1,0.8-1.8,0.8
		c-0.7,0-1.3-0.3-1.8-0.9S112.2,535,112.2,533.9L112.2,533.9z M113.3,534c0,0.7,0.1,1.3,0.4,1.7s0.7,0.6,1.2,0.6
		c0.7,0,1.2-0.3,1.5-0.9v-2.9c-0.3-0.6-0.8-0.9-1.5-0.9c-0.5,0-0.9,0.2-1.2,0.6S113.3,533.2,113.3,534z"/>
	<path d="M119.2,529.1c0-0.2,0.1-0.3,0.2-0.4s0.3-0.2,0.5-0.2s0.4,0.1,0.5,0.2s0.2,0.3,0.2,0.4s-0.1,0.3-0.2,0.4s-0.3,0.2-0.5,0.2
		s-0.4-0.1-0.5-0.2S119.2,529.3,119.2,529.1z M120.4,537.1h-1.1v-6.3h1.1V537.1z"/>
	<path d="M123.6,529.3v1.5h1.2v0.8h-1.2v3.9c0,0.3,0.1,0.4,0.2,0.6c0.1,0.1,0.3,0.2,0.5,0.2c0.1,0,0.3,0,0.5-0.1v0.9
		c-0.3,0.1-0.6,0.1-0.8,0.1c-0.5,0-0.8-0.1-1.1-0.4s-0.4-0.7-0.4-1.2v-3.9h-1.2v-0.8h1.2v-1.5H123.6z"/>
	<path d="M135.5,534.4c-0.1,0.9-0.4,1.6-1,2.1s-1.3,0.7-2.2,0.7c-1,0-1.8-0.4-2.4-1.1s-0.9-1.7-0.9-2.9v-0.8c0-0.8,0.1-1.5,0.4-2.1
		s0.7-1.1,1.2-1.4s1.1-0.5,1.8-0.5c0.9,0,1.6,0.3,2.2,0.8s0.9,1.2,1,2.1h-1.1c-0.1-0.7-0.3-1.2-0.6-1.5s-0.8-0.5-1.4-0.5
		c-0.7,0-1.3,0.3-1.7,0.8c-0.4,0.5-0.6,1.3-0.6,2.3v0.8c0,0.9,0.2,1.7,0.6,2.2c0.4,0.5,0.9,0.8,1.6,0.8c0.6,0,1.1-0.1,1.4-0.4
		s0.6-0.8,0.7-1.5H135.5z"/>
	<path d="M140.8,537.1c-0.1-0.1-0.1-0.3-0.2-0.7c-0.5,0.5-1.1,0.8-1.8,0.8c-0.6,0-1.1-0.2-1.5-0.5s-0.6-0.8-0.6-1.3
		c0-0.7,0.3-1.2,0.8-1.5s1.2-0.5,2.1-0.5h1.1v-0.5c0-0.4-0.1-0.7-0.3-0.9s-0.6-0.3-1-0.3c-0.4,0-0.7,0.1-1,0.3s-0.4,0.4-0.4,0.7
		h-1.1c0-0.3,0.1-0.6,0.3-0.9s0.5-0.5,0.9-0.7s0.8-0.3,1.3-0.3c0.7,0,1.3,0.2,1.7,0.5s0.6,0.9,0.6,1.5v2.9c0,0.6,0.1,1,0.2,1.4v0.1
		H140.8z M139,536.3c0.3,0,0.7-0.1,1-0.3s0.5-0.4,0.7-0.7v-1.3h-0.8c-1.3,0-2,0.4-2,1.2c0,0.3,0.1,0.6,0.3,0.8
		S138.6,536.3,139,536.3z"/>
	<path d="M146.4,531.8c-0.2,0-0.3,0-0.5,0c-0.7,0-1.2,0.3-1.4,0.9v4.5h-1.1v-6.3h1.1l0,0.7c0.4-0.6,0.9-0.8,1.5-0.8
		c0.2,0,0.4,0,0.5,0.1V531.8z"/>
	<path d="M147.2,533.9c0-1,0.2-1.8,0.7-2.3s1.1-0.9,1.8-0.9c0.7,0,1.3,0.3,1.8,0.8v-3.3h1.1v9h-1l-0.1-0.7c-0.4,0.5-1,0.8-1.8,0.8
		c-0.7,0-1.3-0.3-1.8-0.9S147.2,535,147.2,533.9L147.2,533.9z M148.3,534c0,0.7,0.1,1.3,0.4,1.7s0.7,0.6,1.2,0.6
		c0.7,0,1.2-0.3,1.5-0.9v-2.9c-0.3-0.6-0.8-0.9-1.5-0.9c-0.5,0-0.9,0.2-1.2,0.6S148.3,533.2,148.3,534z"/>
</g>
<g>
	<path d="M141.6,569.3c-1-0.3-1.7-0.6-2.1-1s-0.7-0.9-0.7-1.5c0-0.7,0.3-1.2,0.8-1.7s1.2-0.7,2.1-0.7c0.6,0,1.1,0.1,1.6,0.3
		s0.8,0.5,1.1,0.9s0.4,0.8,0.4,1.3h-1.1c0-0.5-0.2-0.9-0.5-1.2s-0.8-0.4-1.4-0.4c-0.6,0-1,0.1-1.3,0.4c-0.3,0.2-0.5,0.6-0.5,1
		c0,0.3,0.1,0.6,0.4,0.9s0.8,0.5,1.5,0.7c0.7,0.2,1.3,0.4,1.7,0.7s0.7,0.5,0.9,0.8s0.3,0.7,0.3,1.1c0,0.7-0.3,1.2-0.8,1.7
		s-1.3,0.6-2.2,0.6c-0.6,0-1.1-0.1-1.6-0.3s-0.9-0.5-1.2-0.9s-0.4-0.8-0.4-1.3h1.1c0,0.5,0.2,0.9,0.6,1.2s0.9,0.4,1.5,0.4
		c0.6,0,1-0.1,1.4-0.4s0.5-0.6,0.5-1s-0.1-0.7-0.4-1S142.4,569.6,141.6,569.3z"/>
	<path d="M150,572.5c-0.4,0.5-1,0.7-1.9,0.7c-0.7,0-1.2-0.2-1.5-0.6s-0.5-1-0.5-1.7v-4.1h1.1v4.1c0,1,0.4,1.4,1.2,1.4
		c0.8,0,1.4-0.3,1.7-0.9v-4.6h1.1v6.3h-1L150,572.5z"/>
	<path d="M158.1,570c0,1-0.2,1.7-0.7,2.3s-1,0.9-1.8,0.9c-0.8,0-1.4-0.3-1.9-0.8l-0.1,0.7h-1v-9h1.1v3.4c0.4-0.5,1-0.8,1.8-0.8
		s1.4,0.3,1.8,0.9S158.1,568.9,158.1,570L158.1,570z M157,569.9c0-0.7-0.1-1.3-0.4-1.7s-0.7-0.6-1.2-0.6c-0.7,0-1.2,0.3-1.5,1v2.7
		c0.3,0.7,0.8,1,1.6,1c0.5,0,0.9-0.2,1.2-0.6S157,570.7,157,569.9z"/>
	<path d="M160.4,566.8l0,0.7c0.5-0.5,1.1-0.8,1.9-0.8c0.9,0,1.5,0.3,1.8,1c0.2-0.3,0.5-0.6,0.8-0.7s0.7-0.3,1.2-0.3
		c1.4,0,2.1,0.7,2.1,2.2v4.2h-1.1V569c0-0.5-0.1-0.8-0.3-1s-0.6-0.3-1-0.3c-0.4,0-0.7,0.1-1,0.4s-0.4,0.6-0.5,1v4.2h-1.1V569
		c0-0.9-0.5-1.4-1.4-1.4c-0.7,0-1.2,0.3-1.5,0.9v4.6h-1.1v-6.3H160.4z"/>
	<path d="M169.9,565.1c0-0.2,0.1-0.3,0.2-0.4s0.3-0.2,0.5-0.2s0.4,0.1,0.5,0.2s0.2,0.3,0.2,0.4s-0.1,0.3-0.2,0.4s-0.3,0.2-0.5,0.2
		s-0.4-0.1-0.5-0.2S169.9,565.3,169.9,565.1z M171.1,573.1H170v-6.3h1.1V573.1z"/>
	<path d="M174.3,565.3v1.5h1.2v0.8h-1.2v3.9c0,0.3,0.1,0.4,0.2,0.6c0.1,0.1,0.3,0.2,0.5,0.2c0.1,0,0.3,0,0.5-0.1v0.9
		c-0.3,0.1-0.6,0.1-0.8,0.1c-0.5,0-0.8-0.1-1.1-0.4s-0.4-0.7-0.4-1.2v-3.9h-1.2v-0.8h1.2v-1.5H174.3z"/>
	<path d="M181,569.8v3.3h-1.1v-8.5h3.1c0.9,0,1.7,0.2,2.2,0.7s0.8,1.1,0.8,1.9c0,0.8-0.3,1.5-0.8,1.9s-1.3,0.7-2.2,0.7H181z
		 M181,568.9h2c0.6,0,1.1-0.1,1.4-0.4c0.3-0.3,0.5-0.7,0.5-1.2c0-0.5-0.2-0.9-0.5-1.2c-0.3-0.3-0.8-0.5-1.3-0.5H181V568.9z"/>
	<path d="M191.2,573.1c-0.1-0.1-0.1-0.3-0.2-0.7c-0.5,0.5-1.1,0.8-1.8,0.8c-0.6,0-1.1-0.2-1.5-0.5s-0.6-0.8-0.6-1.3
		c0-0.7,0.3-1.2,0.8-1.5s1.2-0.5,2.1-0.5h1.1v-0.5c0-0.4-0.1-0.7-0.3-0.9s-0.6-0.3-1-0.3c-0.4,0-0.7,0.1-1,0.3s-0.4,0.4-0.4,0.7
		h-1.1c0-0.3,0.1-0.6,0.3-0.9s0.5-0.5,0.9-0.7s0.8-0.3,1.3-0.3c0.7,0,1.3,0.2,1.7,0.5s0.6,0.9,0.6,1.5v2.9c0,0.6,0.1,1,0.2,1.4v0.1
		H191.2z M189.4,572.3c0.3,0,0.7-0.1,1-0.3s0.5-0.4,0.7-0.7v-1.3h-0.8c-1.3,0-2,0.4-2,1.2c0,0.3,0.1,0.6,0.3,0.8
		S189,572.3,189.4,572.3z"/>
	<path d="M195.9,571.5l1.5-4.8h1.2l-2.5,7.3c-0.4,1.1-1,1.6-1.9,1.6l-0.2,0l-0.4-0.1v-0.9l0.3,0c0.4,0,0.7-0.1,0.9-0.2
		s0.4-0.4,0.5-0.8l0.2-0.6l-2.3-6.3h1.2L195.9,571.5z"/>
	<path d="M200.5,566.8l0,0.7c0.5-0.5,1.1-0.8,1.9-0.8c0.9,0,1.5,0.3,1.8,1c0.2-0.3,0.5-0.6,0.8-0.7s0.7-0.3,1.2-0.3
		c1.4,0,2.1,0.7,2.1,2.2v4.2h-1.1V569c0-0.5-0.1-0.8-0.3-1s-0.6-0.3-1-0.3c-0.4,0-0.7,0.1-1,0.4s-0.4,0.6-0.5,1v4.2h-1.1V569
		c0-0.9-0.5-1.4-1.4-1.4c-0.7,0-1.2,0.3-1.5,0.9v4.6h-1.1v-6.3H200.5z"/>
	<path d="M212.6,573.3c-0.9,0-1.6-0.3-2.1-0.8s-0.8-1.3-0.8-2.3v-0.2c0-0.6,0.1-1.2,0.4-1.7s0.6-0.9,1-1.2s0.9-0.4,1.4-0.4
		c0.8,0,1.5,0.3,1.9,0.8s0.7,1.3,0.7,2.3v0.5h-4.3c0,0.6,0.2,1.1,0.5,1.5s0.8,0.6,1.3,0.6c0.4,0,0.7-0.1,1-0.2s0.5-0.4,0.7-0.6
		l0.7,0.5C214.5,572.8,213.7,573.3,212.6,573.3z M212.5,567.6c-0.4,0-0.8,0.2-1.1,0.5s-0.5,0.8-0.6,1.3h3.2v-0.1
		c0-0.6-0.2-1-0.4-1.3S212.9,567.6,212.5,567.6z"/>
	<path d="M217.4,566.8l0,0.8c0.5-0.6,1.1-0.9,1.9-0.9c1.3,0,2,0.8,2,2.3v4.2h-1.1v-4.2c0-0.5-0.1-0.8-0.3-1s-0.5-0.3-1-0.3
		c-0.4,0-0.7,0.1-0.9,0.3s-0.5,0.4-0.6,0.7v4.5h-1.1v-6.3H217.4z"/>
	<path d="M224.4,565.3v1.5h1.2v0.8h-1.2v3.9c0,0.3,0.1,0.4,0.2,0.6c0.1,0.1,0.3,0.2,0.5,0.2c0.1,0,0.3,0,0.5-0.1v0.9
		c-0.3,0.1-0.6,0.1-0.8,0.1c-0.5,0-0.8-0.1-1.1-0.4s-0.4-0.7-0.4-1.2v-3.9h-1.2v-0.8h1.2v-1.5H224.4z"/>
</g>
<g>
	<path d="M237.5,433.1H234l-0.8,2.2H232l3.3-8.5h1l3.3,8.5h-1.2L237.5,433.1z M234.3,432.2h2.9l-1.5-4L234.3,432.2z"/>
	<path d="M240.2,432.1c0-1,0.2-1.8,0.7-2.3s1.1-0.9,1.8-0.9c0.7,0,1.3,0.3,1.8,0.8v-3.3h1.1v9h-1l-0.1-0.7c-0.4,0.5-1,0.8-1.8,0.8
		c-0.7,0-1.3-0.3-1.8-0.9S240.2,433.1,240.2,432.1L240.2,432.1z M241.3,432.2c0,0.7,0.1,1.3,0.4,1.7s0.7,0.6,1.2,0.6
		c0.7,0,1.2-0.3,1.5-0.9v-2.9c-0.3-0.6-0.8-0.9-1.5-0.9c-0.5,0-0.9,0.2-1.2,0.6S241.3,431.4,241.3,432.2z"/>
	<path d="M247,432.1c0-1,0.2-1.8,0.7-2.3s1.1-0.9,1.8-0.9c0.7,0,1.3,0.3,1.8,0.8v-3.3h1.1v9h-1l-0.1-0.7c-0.4,0.5-1,0.8-1.8,0.8
		c-0.7,0-1.3-0.3-1.8-0.9S247,433.1,247,432.1L247,432.1z M248.1,432.2c0,0.7,0.1,1.3,0.4,1.7s0.7,0.6,1.2,0.6
		c0.7,0,1.2-0.3,1.5-0.9v-2.9c-0.3-0.6-0.8-0.9-1.5-0.9c-0.5,0-0.9,0.2-1.2,0.6S248.1,431.4,248.1,432.2z"/>
	<path d="M258.5,427.4v1.5h1.2v0.8h-1.2v3.9c0,0.3,0.1,0.4,0.2,0.6s0.3,0.2,0.5,0.2c0.1,0,0.3,0,0.5-0.1v0.9
		c-0.3,0.1-0.6,0.1-0.8,0.1c-0.5,0-0.8-0.1-1.1-0.4s-0.4-0.7-0.4-1.2v-3.9h-1.2V429h1.2v-1.5H258.5z"/>
	<path d="M260.5,432.1c0-0.6,0.1-1.2,0.4-1.7s0.6-0.9,1-1.1s0.9-0.4,1.5-0.4c0.9,0,1.6,0.3,2.1,0.9s0.8,1.4,0.8,2.4v0.1
		c0,0.6-0.1,1.2-0.4,1.7s-0.6,0.9-1,1.1s-0.9,0.4-1.5,0.4c-0.9,0-1.6-0.3-2.1-0.9S260.5,433.1,260.5,432.1L260.5,432.1z
		 M261.6,432.2c0,0.7,0.2,1.3,0.5,1.7s0.8,0.6,1.3,0.6c0.6,0,1-0.2,1.3-0.6s0.5-1,0.5-1.8c0-0.7-0.2-1.3-0.5-1.7s-0.8-0.6-1.3-0.6
		c-0.5,0-1,0.2-1.3,0.6S261.6,431.4,261.6,432.2z"/>
	<path d="M270.8,435.3v-8.5h2.8c0.9,0,1.6,0.2,2.1,0.6s0.7,0.9,0.7,1.7c0,0.4-0.1,0.8-0.3,1.1s-0.5,0.5-0.9,0.7
		c0.5,0.1,0.8,0.4,1.1,0.7s0.4,0.8,0.4,1.3c0,0.8-0.2,1.4-0.7,1.8s-1.2,0.7-2.1,0.7H270.8z M271.9,430.4h1.7c0.5,0,0.9-0.1,1.2-0.4
		c0.3-0.2,0.4-0.6,0.4-1c0-0.5-0.1-0.8-0.4-1s-0.7-0.3-1.2-0.3h-1.7V430.4z M271.9,431.3v3.1h1.9c0.5,0,0.9-0.1,1.2-0.4
		s0.5-0.6,0.5-1.1c0-1-0.6-1.5-1.7-1.5H271.9z"/>
	<path d="M282,435.3c-0.1-0.1-0.1-0.3-0.2-0.7c-0.5,0.5-1.1,0.8-1.8,0.8c-0.6,0-1.1-0.2-1.5-0.5s-0.6-0.8-0.6-1.3
		c0-0.7,0.3-1.2,0.8-1.5s1.2-0.5,2.1-0.5h1.1V431c0-0.4-0.1-0.7-0.3-0.9s-0.6-0.3-1-0.3c-0.4,0-0.7,0.1-1,0.3s-0.4,0.4-0.4,0.7H278
		c0-0.3,0.1-0.6,0.3-0.9s0.5-0.5,0.9-0.7s0.8-0.3,1.3-0.3c0.7,0,1.3,0.2,1.7,0.5s0.6,0.9,0.6,1.5v2.9c0,0.6,0.1,1,0.2,1.4v0.1H282z
		 M280.2,434.5c0.3,0,0.7-0.1,1-0.3s0.5-0.4,0.7-0.7v-1.3H281c-1.3,0-2,0.4-2,1.2c0,0.3,0.1,0.6,0.3,0.8S279.8,434.5,280.2,434.5z"
		/>
	<path d="M284.4,432.1c0-1,0.2-1.8,0.7-2.4s1.1-0.9,1.8-0.9c0.8,0,1.4,0.3,1.8,0.8l0.1-0.7h1v6.2c0,0.8-0.2,1.5-0.7,1.9
		s-1.1,0.7-2,0.7c-0.5,0-0.9-0.1-1.3-0.3s-0.8-0.5-1-0.8l0.6-0.7c0.5,0.6,1,0.9,1.7,0.9c0.5,0,0.9-0.1,1.2-0.4s0.4-0.7,0.4-1.3v-0.5
		c-0.4,0.5-1,0.8-1.8,0.8c-0.7,0-1.3-0.3-1.8-0.9S284.4,433.1,284.4,432.1z M285.4,432.2c0,0.7,0.1,1.3,0.4,1.7s0.7,0.6,1.2,0.6
		c0.7,0,1.2-0.3,1.5-0.9v-2.9c-0.3-0.6-0.8-0.9-1.5-0.9c-0.5,0-0.9,0.2-1.2,0.6S285.4,431.4,285.4,432.2z"/>
</g>
<g>
	<g>
		<path class="st0" d="M145.8,296.1H27.9c-7.1,0-12.8-5.7-12.8-12.8v-8.6c0-7.1,5.7-12.8,12.8-12.8h117.9c7.1,0,12.8,5.7,12.8,12.8
			v8.6C158.7,290.4,152.9,296.1,145.8,296.1z M27.9,262.4c-6.8,0-12.3,5.5-12.3,12.3v8.6c0,6.8,5.5,12.3,12.3,12.3h117.9
			c6.8,0,12.3-5.5,12.3-12.3v-8.6c0-6.8-5.5-12.3-12.3-12.3H27.9z"/>
	</g>
	<g>
		<path d="M41.1,279.4c-0.1,1.2-0.6,2.1-1.3,2.8c-0.7,0.7-1.7,1-3,1c-1.3,0-2.4-0.5-3.2-1.4c-0.8-1-1.2-2.3-1.2-3.9v-1.1
			c0-1.1,0.2-2,0.6-2.8c0.4-0.8,0.9-1.4,1.6-1.8c0.7-0.4,1.5-0.6,2.4-0.6c1.2,0,2.2,0.3,2.9,1c0.7,0.7,1.2,1.6,1.3,2.8h-1.5
			c-0.1-0.9-0.4-1.6-0.8-2c-0.4-0.4-1-0.6-1.8-0.6c-1,0-1.7,0.4-2.3,1.1c-0.5,0.7-0.8,1.7-0.8,3v1.1c0,1.2,0.3,2.2,0.8,2.9
			c0.5,0.7,1.2,1.1,2.2,1.1c0.8,0,1.5-0.2,1.9-0.6c0.4-0.4,0.7-1,0.9-2H41.1z"/>
		<path d="M48.1,283c-0.1-0.2-0.2-0.5-0.2-0.9c-0.7,0.7-1.5,1-2.4,1c-0.8,0-1.5-0.2-2.1-0.7c-0.5-0.5-0.8-1.1-0.8-1.8
			c0-0.9,0.3-1.6,1-2.1c0.7-0.5,1.6-0.7,2.8-0.7h1.4v-0.7c0-0.5-0.2-0.9-0.5-1.2c-0.3-0.3-0.7-0.4-1.3-0.4c-0.5,0-0.9,0.1-1.3,0.4
			c-0.3,0.3-0.5,0.6-0.5,0.9h-1.5c0-0.4,0.1-0.8,0.4-1.2c0.3-0.4,0.7-0.7,1.2-0.9c0.5-0.2,1.1-0.3,1.7-0.3c1,0,1.7,0.2,2.3,0.7
			c0.6,0.5,0.8,1.2,0.9,2v3.9c0,0.8,0.1,1.4,0.3,1.9v0.1H48.1z M45.7,281.9c0.5,0,0.9-0.1,1.3-0.4s0.7-0.5,0.9-0.9v-1.7h-1.1
			c-1.8,0-2.7,0.5-2.7,1.6c0,0.5,0.2,0.8,0.5,1.1C44.9,281.8,45.3,281.9,45.7,281.9z"/>
		<path d="M58.8,278.9c0,1.3-0.3,2.3-0.9,3.1c-0.6,0.8-1.4,1.2-2.4,1.2c-1.1,0-1.9-0.4-2.5-1.1l-0.1,1h-1.3v-12h1.4v4.5
			c0.6-0.7,1.4-1.1,2.4-1.1c1,0,1.8,0.4,2.4,1.2c0.6,0.8,0.9,1.8,0.9,3.2V278.9z M57.3,278.7c0-1-0.2-1.7-0.6-2.3
			c-0.4-0.5-0.9-0.8-1.6-0.8c-1,0-1.6,0.4-2.1,1.3v3.7c0.4,0.9,1.1,1.3,2.1,1.3c0.7,0,1.2-0.3,1.6-0.8
			C57.1,280.6,57.3,279.8,57.3,278.7z"/>
		<path d="M64.1,283.2c-1.1,0-2.1-0.4-2.8-1.1c-0.7-0.8-1.1-1.8-1.1-3v-0.3c0-0.8,0.2-1.6,0.5-2.2c0.3-0.7,0.8-1.2,1.3-1.5
			c0.6-0.4,1.2-0.6,1.9-0.6c1.1,0,2,0.4,2.6,1.1c0.6,0.7,0.9,1.8,0.9,3.1v0.6h-5.7c0,0.8,0.3,1.5,0.7,2c0.5,0.5,1.1,0.8,1.8,0.8
			c0.5,0,0.9-0.1,1.3-0.3c0.4-0.2,0.7-0.5,0.9-0.8l0.9,0.7C66.6,282.7,65.5,283.2,64.1,283.2z M63.9,275.6c-0.6,0-1.1,0.2-1.5,0.6
			c-0.4,0.4-0.6,1-0.7,1.8H66v-0.1c0-0.7-0.2-1.3-0.6-1.7C65,275.8,64.5,275.6,63.9,275.6z"/>
		<path d="M73.2,275.9c-0.2,0-0.5-0.1-0.7-0.1c-0.9,0-1.6,0.4-1.9,1.2v6h-1.4v-8.5h1.4l0,1c0.5-0.8,1.1-1.1,2-1.1
			c0.3,0,0.5,0,0.6,0.1V275.9z"/>
		<path d="M75.9,274.6l0,1.1c0.6-0.8,1.5-1.2,2.5-1.2c1.8,0,2.7,1,2.7,3v5.6h-1.4v-5.6c0-0.6-0.1-1.1-0.4-1.4
			c-0.3-0.3-0.7-0.4-1.3-0.4c-0.5,0-0.9,0.1-1.2,0.4c-0.4,0.2-0.6,0.6-0.8,1v6h-1.4v-8.5H75.9z"/>
		<path d="M86.8,283.2c-1.1,0-2.1-0.4-2.8-1.1c-0.7-0.8-1.1-1.8-1.1-3v-0.3c0-0.8,0.2-1.6,0.5-2.2c0.3-0.7,0.8-1.2,1.3-1.5
			c0.6-0.4,1.2-0.6,1.9-0.6c1.1,0,2,0.4,2.6,1.1c0.6,0.7,0.9,1.8,0.9,3.1v0.6h-5.7c0,0.8,0.3,1.5,0.7,2c0.5,0.5,1.1,0.8,1.8,0.8
			c0.5,0,0.9-0.1,1.3-0.3c0.4-0.2,0.7-0.5,0.9-0.8l0.9,0.7C89.3,282.7,88.2,283.2,86.8,283.2z M86.6,275.6c-0.6,0-1.1,0.2-1.5,0.6
			c-0.4,0.4-0.6,1-0.7,1.8h4.2v-0.1c0-0.7-0.2-1.3-0.6-1.7C87.7,275.8,87.3,275.6,86.6,275.6z"/>
		<path d="M93.8,272.5v2h1.6v1.1h-1.6v5.2c0,0.3,0.1,0.6,0.2,0.8c0.1,0.2,0.4,0.3,0.7,0.3c0.2,0,0.4,0,0.7-0.1v1.2
			c-0.4,0.1-0.8,0.2-1.1,0.2c-0.6,0-1.1-0.2-1.5-0.6s-0.5-0.9-0.5-1.7v-5.2h-1.5v-1.1h1.5v-2H93.8z"/>
		<path d="M107.5,278h-4.8v5h-1.5v-11.4h7v1.2h-5.5v3.9h4.8V278z"/>
		<path d="M113.7,275.9c-0.2,0-0.5-0.1-0.7-0.1c-0.9,0-1.6,0.4-1.9,1.2v6h-1.4v-8.5h1.4l0,1c0.5-0.8,1.1-1.1,2-1.1
			c0.3,0,0.5,0,0.6,0.1V275.9z"/>
		<path d="M119.9,283c-0.1-0.2-0.2-0.5-0.2-0.9c-0.7,0.7-1.5,1-2.4,1c-0.8,0-1.5-0.2-2.1-0.7c-0.5-0.5-0.8-1.1-0.8-1.8
			c0-0.9,0.3-1.6,1-2.1c0.7-0.5,1.6-0.7,2.8-0.7h1.4v-0.7c0-0.5-0.2-0.9-0.5-1.2c-0.3-0.3-0.7-0.4-1.3-0.4c-0.5,0-0.9,0.1-1.3,0.4
			c-0.3,0.3-0.5,0.6-0.5,0.9h-1.5c0-0.4,0.1-0.8,0.4-1.2c0.3-0.4,0.7-0.7,1.2-0.9c0.5-0.2,1.1-0.3,1.7-0.3c1,0,1.7,0.2,2.3,0.7
			c0.6,0.5,0.8,1.2,0.9,2v3.9c0,0.8,0.1,1.4,0.3,1.9v0.1H119.9z M117.5,281.9c0.5,0,0.9-0.1,1.3-0.4s0.7-0.5,0.9-0.9v-1.7h-1.1
			c-1.8,0-2.7,0.5-2.7,1.6c0,0.5,0.2,0.8,0.5,1.1C116.7,281.8,117.1,281.9,117.5,281.9z"/>
		<path d="M124.8,274.6l0,1.1c0.6-0.8,1.5-1.2,2.5-1.2c1.8,0,2.7,1,2.7,3v5.6h-1.4v-5.6c0-0.6-0.1-1.1-0.4-1.4
			c-0.3-0.3-0.7-0.4-1.3-0.4c-0.5,0-0.9,0.1-1.2,0.4c-0.4,0.2-0.6,0.6-0.8,1v6h-1.4v-8.5H124.8z"/>
		<path d="M135.6,282c0.5,0,1-0.2,1.4-0.5c0.4-0.3,0.6-0.7,0.6-1.2h1.4c0,0.5-0.2,0.9-0.5,1.4c-0.3,0.4-0.7,0.8-1.2,1
			c-0.5,0.3-1.1,0.4-1.6,0.4c-1.2,0-2.1-0.4-2.7-1.2c-0.7-0.8-1-1.8-1-3.2v-0.2c0-0.8,0.2-1.6,0.5-2.2c0.3-0.6,0.7-1.1,1.3-1.5
			c0.6-0.4,1.2-0.5,2-0.5c0.9,0,1.7,0.3,2.4,0.9c0.6,0.6,1,1.3,1,2.2h-1.4c0-0.5-0.2-1-0.6-1.3c-0.4-0.4-0.8-0.5-1.4-0.5
			c-0.7,0-1.3,0.3-1.7,0.8c-0.4,0.5-0.6,1.3-0.6,2.3v0.3c0,1,0.2,1.7,0.6,2.2C134.3,281.8,134.9,282,135.6,282z"/>
	</g>
</g>
<g>
	<g>
		<path class="st0" d="M308.1,296.1H178.8c-7.4,0-13.4-6-13.4-13.4v-7.5c0-7.4,6-13.4,13.4-13.4h129.4c7.4,0,13.4,6,13.4,13.4v7.5
			C321.5,290.1,315.5,296.1,308.1,296.1z M178.8,262.4c-7.1,0-12.8,5.8-12.8,12.8v7.5c0,7.1,5.8,12.8,12.8,12.8h129.4
			c7.1,0,12.8-5.8,12.8-12.8v-7.5c0-7.1-5.8-12.8-12.8-12.8H178.8z"/>
	</g>
	<g>
		<path d="M181.1,280.1c-0.1,1.2-0.6,2.1-1.3,2.8c-0.7,0.7-1.7,1-3,1c-1.3,0-2.4-0.5-3.2-1.4c-0.8-1-1.2-2.3-1.2-3.9v-1.1
			c0-1.1,0.2-2,0.6-2.8c0.4-0.8,0.9-1.4,1.6-1.8c0.7-0.4,1.5-0.6,2.4-0.6c1.2,0,2.2,0.3,2.9,1c0.7,0.7,1.2,1.6,1.3,2.8h-1.5
			c-0.1-0.9-0.4-1.6-0.8-2c-0.4-0.4-1-0.6-1.8-0.6c-1,0-1.7,0.4-2.3,1.1c-0.5,0.7-0.8,1.7-0.8,3v1.1c0,1.2,0.3,2.2,0.8,2.9
			c0.5,0.7,1.2,1.1,2.2,1.1c0.8,0,1.5-0.2,1.9-0.6c0.4-0.4,0.7-1,0.9-2H181.1z"/>
		<path d="M188.2,283.7c-0.1-0.2-0.2-0.5-0.2-0.9c-0.7,0.7-1.5,1-2.4,1c-0.8,0-1.5-0.2-2.1-0.7c-0.5-0.5-0.8-1.1-0.8-1.8
			c0-0.9,0.3-1.6,1-2.1c0.7-0.5,1.6-0.7,2.8-0.7h1.4v-0.7c0-0.5-0.2-0.9-0.5-1.2c-0.3-0.3-0.7-0.4-1.3-0.4c-0.5,0-0.9,0.1-1.3,0.4
			c-0.3,0.3-0.5,0.6-0.5,0.9h-1.5c0-0.4,0.1-0.8,0.4-1.2c0.3-0.4,0.7-0.7,1.2-0.9c0.5-0.2,1.1-0.3,1.7-0.3c1,0,1.7,0.2,2.3,0.7
			c0.6,0.5,0.8,1.2,0.9,2v3.9c0,0.8,0.1,1.4,0.3,1.9v0.1H188.2z M185.8,282.6c0.5,0,0.9-0.1,1.3-0.4s0.7-0.5,0.9-0.9v-1.7h-1.1
			c-1.8,0-2.7,0.5-2.7,1.6c0,0.5,0.2,0.8,0.5,1.1C184.9,282.4,185.3,282.6,185.8,282.6z"/>
		<path d="M198.8,279.5c0,1.3-0.3,2.3-0.9,3.1c-0.6,0.8-1.4,1.2-2.4,1.2c-1.1,0-1.9-0.4-2.5-1.1l-0.1,1h-1.3v-12h1.4v4.5
			c0.6-0.7,1.4-1.1,2.4-1.1c1,0,1.8,0.4,2.4,1.2c0.6,0.8,0.9,1.8,0.9,3.2V279.5z M197.4,279.4c0-1-0.2-1.7-0.6-2.3
			c-0.4-0.5-0.9-0.8-1.6-0.8c-1,0-1.6,0.4-2.1,1.3v3.7c0.4,0.9,1.1,1.3,2.1,1.3c0.7,0,1.2-0.3,1.6-0.8
			C197.2,281.3,197.4,280.4,197.4,279.4z"/>
		<path d="M204.2,283.8c-1.1,0-2.1-0.4-2.8-1.1c-0.7-0.8-1.1-1.8-1.1-3v-0.3c0-0.8,0.2-1.6,0.5-2.2c0.3-0.7,0.8-1.2,1.3-1.5
			c0.6-0.4,1.2-0.6,1.9-0.6c1.1,0,2,0.4,2.6,1.1c0.6,0.7,0.9,1.8,0.9,3.1v0.6h-5.7c0,0.8,0.3,1.5,0.7,2c0.5,0.5,1.1,0.8,1.8,0.8
			c0.5,0,0.9-0.1,1.3-0.3c0.4-0.2,0.7-0.5,0.9-0.8l0.9,0.7C206.6,283.3,205.6,283.8,204.2,283.8z M204,276.2c-0.6,0-1.1,0.2-1.5,0.6
			c-0.4,0.4-0.6,1-0.7,1.8h4.2v-0.1c0-0.7-0.2-1.3-0.6-1.7C205.1,276.4,204.6,276.2,204,276.2z"/>
		<path d="M213.2,276.5c-0.2,0-0.5-0.1-0.7-0.1c-0.9,0-1.6,0.4-1.9,1.2v6h-1.4v-8.5h1.4l0,1c0.5-0.8,1.1-1.1,2-1.1
			c0.3,0,0.5,0,0.6,0.1V276.5z"/>
		<path d="M215.9,275.2l0,1.1c0.6-0.8,1.5-1.2,2.5-1.2c1.8,0,2.7,1,2.7,3v5.6h-1.4v-5.6c0-0.6-0.1-1.1-0.4-1.4
			c-0.3-0.3-0.7-0.4-1.3-0.4c-0.5,0-0.9,0.1-1.2,0.4c-0.4,0.2-0.6,0.6-0.8,1v6h-1.4v-8.5H215.9z"/>
		<path d="M226.9,283.8c-1.1,0-2.1-0.4-2.8-1.1c-0.7-0.8-1.1-1.8-1.1-3v-0.3c0-0.8,0.2-1.6,0.5-2.2c0.3-0.7,0.8-1.2,1.3-1.5
			c0.6-0.4,1.2-0.6,1.9-0.6c1.1,0,2,0.4,2.6,1.1c0.6,0.7,0.9,1.8,0.9,3.1v0.6h-5.7c0,0.8,0.3,1.5,0.7,2c0.5,0.5,1.1,0.8,1.8,0.8
			c0.5,0,0.9-0.1,1.3-0.3c0.4-0.2,0.7-0.5,0.9-0.8l0.9,0.7C229.4,283.3,228.3,283.8,226.9,283.8z M226.7,276.2
			c-0.6,0-1.1,0.2-1.5,0.6c-0.4,0.4-0.6,1-0.7,1.8h4.2v-0.1c0-0.7-0.2-1.3-0.6-1.7C227.8,276.4,227.3,276.2,226.7,276.2z"/>
		<path d="M233.8,273.2v2h1.6v1.1h-1.6v5.2c0,0.3,0.1,0.6,0.2,0.8c0.1,0.2,0.4,0.3,0.7,0.3c0.2,0,0.4,0,0.7-0.1v1.2
			c-0.4,0.1-0.8,0.2-1.1,0.2c-0.6,0-1.1-0.2-1.5-0.6s-0.5-0.9-0.5-1.7v-5.2h-1.5v-1.1h1.5v-2H233.8z"/>
		<path d="M244.6,278.6c-1.3-0.4-2.2-0.8-2.8-1.4s-0.9-1.2-0.9-2c0-0.9,0.4-1.6,1.1-2.2c0.7-0.6,1.6-0.9,2.8-0.9
			c0.8,0,1.5,0.2,2.1,0.5c0.6,0.3,1.1,0.7,1.4,1.2s0.5,1.1,0.5,1.7h-1.5c0-0.7-0.2-1.2-0.7-1.6s-1.1-0.6-1.9-0.6
			c-0.7,0-1.3,0.2-1.7,0.5s-0.6,0.8-0.6,1.4c0,0.5,0.2,0.9,0.6,1.2c0.4,0.3,1.1,0.6,2,0.9c0.9,0.3,1.7,0.6,2.2,0.9
			c0.5,0.3,0.9,0.7,1.2,1.1c0.3,0.4,0.4,0.9,0.4,1.5c0,0.9-0.4,1.7-1.1,2.2s-1.7,0.8-2.9,0.8c-0.8,0-1.5-0.1-2.2-0.4
			c-0.7-0.3-1.2-0.7-1.6-1.2c-0.4-0.5-0.6-1.1-0.6-1.8h1.5c0,0.7,0.3,1.2,0.8,1.6s1.2,0.6,2,0.6c0.8,0,1.4-0.2,1.8-0.5
			c0.4-0.3,0.6-0.8,0.6-1.3c0-0.6-0.2-1-0.6-1.3S245.6,278.9,244.6,278.6z"/>
		<path d="M255.7,283.7c-0.1-0.2-0.2-0.5-0.2-0.9c-0.7,0.7-1.5,1-2.4,1c-0.8,0-1.5-0.2-2.1-0.7c-0.5-0.5-0.8-1.1-0.8-1.8
			c0-0.9,0.3-1.6,1-2.1c0.7-0.5,1.6-0.7,2.8-0.7h1.4v-0.7c0-0.5-0.2-0.9-0.5-1.2c-0.3-0.3-0.7-0.4-1.3-0.4c-0.5,0-0.9,0.1-1.3,0.4
			c-0.3,0.3-0.5,0.6-0.5,0.9h-1.5c0-0.4,0.1-0.8,0.4-1.2c0.3-0.4,0.7-0.7,1.2-0.9c0.5-0.2,1.1-0.3,1.7-0.3c1,0,1.7,0.2,2.3,0.7
			c0.6,0.5,0.8,1.2,0.9,2v3.9c0,0.8,0.1,1.4,0.3,1.9v0.1H255.7z M253.3,282.6c0.5,0,0.9-0.1,1.3-0.4s0.7-0.5,0.9-0.9v-1.7h-1.1
			c-1.8,0-2.7,0.5-2.7,1.6c0,0.5,0.2,0.8,0.5,1.1C252.5,282.4,252.9,282.6,253.3,282.6z"/>
		<path d="M264.4,282.8c-0.6,0.7-1.4,1-2.5,1c-0.9,0-1.6-0.3-2.1-0.8c-0.5-0.5-0.7-1.3-0.7-2.3v-5.5h1.4v5.5c0,1.3,0.5,1.9,1.6,1.9
			c1.1,0,1.8-0.4,2.2-1.2v-6.1h1.4v8.5h-1.4L264.4,282.8z"/>
		<path d="M270.8,281.7l2.1-6.5h1.5l-3,8.5h-1.1l-3.1-8.5h1.5L270.8,281.7z"/>
		<path d="M275.8,273c0-0.2,0.1-0.4,0.2-0.6c0.1-0.2,0.4-0.2,0.6-0.2s0.5,0.1,0.6,0.2c0.1,0.2,0.2,0.4,0.2,0.6s-0.1,0.4-0.2,0.6
			c-0.1,0.2-0.4,0.2-0.6,0.2s-0.5-0.1-0.6-0.2C275.9,273.4,275.8,273.2,275.8,273z M277.4,283.7h-1.4v-8.5h1.4V283.7z"/>
		<path d="M279.3,279.4c0-1.3,0.3-2.4,0.9-3.1c0.6-0.8,1.4-1.2,2.4-1.2c1,0,1.8,0.4,2.4,1.1l0.1-0.9h1.3v8.2c0,1.1-0.3,2-1,2.6
			c-0.6,0.6-1.5,0.9-2.6,0.9c-0.6,0-1.2-0.1-1.8-0.4c-0.6-0.3-1-0.6-1.3-1.1l0.8-0.9c0.6,0.8,1.4,1.1,2.3,1.1c0.7,0,1.3-0.2,1.6-0.6
			c0.4-0.4,0.6-1,0.6-1.7v-0.7c-0.6,0.7-1.4,1-2.4,1c-1,0-1.8-0.4-2.4-1.2C279.6,281.8,279.3,280.7,279.3,279.4z M280.8,279.5
			c0,1,0.2,1.7,0.6,2.2c0.4,0.5,0.9,0.8,1.6,0.8c0.9,0,1.6-0.4,2-1.2v-3.9c-0.4-0.8-1.1-1.2-2-1.2c-0.7,0-1.3,0.3-1.6,0.8
			C281,277.7,280.8,278.5,280.8,279.5z"/>
		<path d="M290,275.2l0,1.1c0.6-0.8,1.5-1.2,2.5-1.2c1.8,0,2.7,1,2.7,3v5.6h-1.4v-5.6c0-0.6-0.1-1.1-0.4-1.4
			c-0.3-0.3-0.7-0.4-1.3-0.4c-0.5,0-0.9,0.1-1.2,0.4c-0.4,0.2-0.6,0.6-0.8,1v6h-1.4v-8.5H290z"/>
		<path d="M297.1,279.4c0-0.8,0.2-1.6,0.5-2.2c0.3-0.7,0.8-1.2,1.4-1.5c0.6-0.4,1.2-0.5,2-0.5c1.2,0,2.1,0.4,2.8,1.2
			s1.1,1.9,1.1,3.2v0.1c0,0.8-0.2,1.6-0.5,2.2c-0.3,0.7-0.8,1.2-1.4,1.5c-0.6,0.4-1.3,0.5-2,0.5c-1.1,0-2.1-0.4-2.8-1.2
			s-1.1-1.9-1.1-3.2V279.4z M298.6,279.5c0,0.9,0.2,1.7,0.7,2.3c0.4,0.6,1,0.9,1.7,0.9c0.7,0,1.3-0.3,1.8-0.9
			c0.4-0.6,0.6-1.4,0.6-2.4c0-0.9-0.2-1.7-0.7-2.3c-0.4-0.6-1-0.9-1.8-0.9c-0.7,0-1.3,0.3-1.7,0.9
			C298.8,277.7,298.6,278.5,298.6,279.5z"/>
		<path d="M308,275.2l0,1.1c0.6-0.8,1.5-1.2,2.5-1.2c1.8,0,2.7,1,2.7,3v5.6h-1.4v-5.6c0-0.6-0.1-1.1-0.4-1.4
			c-0.3-0.3-0.7-0.4-1.3-0.4c-0.5,0-0.9,0.1-1.2,0.4c-0.4,0.2-0.6,0.6-0.8,1v6h-1.4v-8.5H308z"/>
	</g>
</g>
<g>
	<g>
		<path class="st0" d="M458.9,296.1H341c-7.1,0-12.8-5.7-12.8-12.8v-8.6c0-7.1,5.7-12.8,12.8-12.8h117.9c7.1,0,12.8,5.7,12.8,12.8
			v8.6C471.8,290.4,466,296.1,458.9,296.1z M341,262.4c-6.8,0-12.3,5.5-12.3,12.3v8.6c0,6.8,5.5,12.3,12.3,12.3h117.9
			c6.8,0,12.3-5.5,12.3-12.3v-8.6c0-6.8-5.5-12.3-12.3-12.3H341z"/>
	</g>
	<g>
		<path d="M375.3,273.3l3.7,9.3l3.7-9.3h1.9v11.4h-1.5v-4.4l0.1-4.8l-3.7,9.2h-1.1l-3.7-9.2l0.1,4.8v4.4h-1.5v-11.4H375.3z"/>
		<path d="M392.3,284.7c-0.1-0.2-0.2-0.5-0.2-0.9c-0.7,0.7-1.5,1-2.4,1c-0.8,0-1.5-0.2-2.1-0.7c-0.5-0.5-0.8-1.1-0.8-1.8
			c0-0.9,0.3-1.6,1-2.1c0.7-0.5,1.6-0.7,2.8-0.7h1.4v-0.7c0-0.5-0.2-0.9-0.5-1.2c-0.3-0.3-0.7-0.4-1.3-0.4c-0.5,0-0.9,0.1-1.3,0.4
			c-0.3,0.3-0.5,0.6-0.5,0.9H387c0-0.4,0.1-0.8,0.4-1.2c0.3-0.4,0.7-0.7,1.2-0.9c0.5-0.2,1.1-0.3,1.7-0.3c1,0,1.7,0.2,2.3,0.7
			c0.6,0.5,0.8,1.2,0.9,2v3.9c0,0.8,0.1,1.4,0.3,1.9v0.1H392.3z M389.9,283.6c0.5,0,0.9-0.1,1.3-0.4s0.7-0.5,0.9-0.9v-1.7h-1.1
			c-1.8,0-2.7,0.5-2.7,1.6c0,0.5,0.2,0.8,0.5,1.1C389,283.4,389.4,283.6,389.9,283.6z"/>
		<path d="M397.3,284.7h-1.4v-12h1.4V284.7z"/>
		<path d="M406.8,280.5c0,1.3-0.3,2.3-0.9,3.1c-0.6,0.8-1.4,1.2-2.4,1.2c-1.1,0-1.9-0.4-2.5-1.1l-0.1,1h-1.3v-12h1.4v4.5
			c0.6-0.7,1.4-1.1,2.4-1.1c1,0,1.8,0.4,2.4,1.2c0.6,0.8,0.9,1.8,0.9,3.2V280.5z M405.4,280.4c0-1-0.2-1.7-0.6-2.3
			c-0.4-0.5-0.9-0.8-1.6-0.8c-1,0-1.6,0.4-2.1,1.3v3.7c0.4,0.9,1.1,1.3,2.1,1.3c0.7,0,1.2-0.3,1.6-0.8
			C405.2,282.3,405.4,281.5,405.4,280.4z"/>
		<path d="M412.1,284.8c-1.1,0-2.1-0.4-2.8-1.1c-0.7-0.8-1.1-1.8-1.1-3v-0.3c0-0.8,0.2-1.6,0.5-2.2c0.3-0.7,0.8-1.2,1.3-1.5
			c0.6-0.4,1.2-0.6,1.9-0.6c1.1,0,2,0.4,2.6,1.1c0.6,0.7,0.9,1.8,0.9,3.1v0.6h-5.7c0,0.8,0.3,1.5,0.7,2c0.5,0.5,1.1,0.8,1.8,0.8
			c0.5,0,0.9-0.1,1.3-0.3c0.4-0.2,0.7-0.5,0.9-0.8l0.9,0.7C414.6,284.3,413.6,284.8,412.1,284.8z M412,277.2c-0.6,0-1.1,0.2-1.5,0.6
			c-0.4,0.4-0.6,1-0.7,1.8h4.2v-0.1c0-0.7-0.2-1.3-0.6-1.7C413,277.5,412.6,277.2,412,277.2z"/>
		<path d="M420.5,283.6c0.5,0,1-0.2,1.4-0.5c0.4-0.3,0.6-0.7,0.6-1.2h1.4c0,0.5-0.2,0.9-0.5,1.4c-0.3,0.4-0.7,0.8-1.2,1
			c-0.5,0.3-1.1,0.4-1.6,0.4c-1.2,0-2.1-0.4-2.7-1.2c-0.7-0.8-1-1.8-1-3.2v-0.2c0-0.8,0.2-1.6,0.5-2.2c0.3-0.6,0.7-1.1,1.3-1.5
			c0.6-0.4,1.2-0.5,2-0.5c0.9,0,1.7,0.3,2.4,0.9c0.6,0.6,1,1.3,1,2.2h-1.4c0-0.5-0.2-1-0.6-1.3c-0.4-0.4-0.8-0.5-1.4-0.5
			c-0.7,0-1.3,0.3-1.7,0.8c-0.4,0.5-0.6,1.3-0.6,2.3v0.3c0,1,0.2,1.7,0.6,2.2C419.2,283.4,419.8,283.6,420.5,283.6z"/>
	</g>
</g>
<g>
	<g>
		<path class="st0" d="M615.5,296.1H497.6c-7.1,0-12.8-5.7-12.8-12.8v-8.6c0-7.1,5.7-12.8,12.8-12.8h117.9c7.1,0,12.8,5.7,12.8,12.8
			v8.6C628.3,290.4,622.6,296.1,615.5,296.1z M497.6,262.4c-6.8,0-12.3,5.5-12.3,12.3v8.6c0,6.8,5.5,12.3,12.3,12.3h117.9
			c6.8,0,12.3-5.5,12.3-12.3v-8.6c0-6.8-5.5-12.3-12.3-12.3H497.6z"/>
	</g>
	<g>
		<path d="M536.3,272.3l3.7,9.3l3.7-9.3h1.9v11.4h-1.5v-4.4l0.1-4.8l-3.7,9.2h-1.1l-3.7-9.2l0.1,4.8v4.4h-1.5v-11.4H536.3z"/>
		<path d="M551.6,283.8c-1.1,0-2.1-0.4-2.8-1.1c-0.7-0.8-1.1-1.8-1.1-3v-0.3c0-0.8,0.2-1.6,0.5-2.2c0.3-0.7,0.8-1.2,1.3-1.5
			c0.6-0.4,1.2-0.6,1.9-0.6c1.1,0,2,0.4,2.6,1.1c0.6,0.7,0.9,1.8,0.9,3.1v0.6h-5.7c0,0.8,0.3,1.5,0.7,2c0.5,0.5,1.1,0.8,1.8,0.8
			c0.5,0,0.9-0.1,1.3-0.3c0.4-0.2,0.7-0.5,0.9-0.8l0.9,0.7C554.1,283.3,553.1,283.8,551.6,283.8z M551.5,276.2
			c-0.6,0-1.1,0.2-1.5,0.6c-0.4,0.4-0.6,1-0.7,1.8h4.2v-0.1c0-0.7-0.2-1.3-0.6-1.7C552.5,276.4,552.1,276.2,551.5,276.2z"/>
		<path d="M560.7,276.5c-0.2,0-0.5-0.1-0.7-0.1c-0.9,0-1.6,0.4-1.9,1.2v6h-1.4v-8.5h1.4l0,1c0.5-0.8,1.1-1.1,2-1.1
			c0.3,0,0.5,0,0.6,0.1V276.5z"/>
		<path d="M563.6,283.7h-1.4v-12h1.4V283.7z"/>
		<path d="M565.5,279.4c0-0.8,0.2-1.6,0.5-2.2c0.3-0.7,0.8-1.2,1.4-1.5c0.6-0.4,1.2-0.5,2-0.5c1.2,0,2.1,0.4,2.8,1.2
			s1.1,1.9,1.1,3.2v0.1c0,0.8-0.2,1.6-0.5,2.2c-0.3,0.7-0.8,1.2-1.4,1.5c-0.6,0.4-1.3,0.5-2,0.5c-1.1,0-2.1-0.4-2.8-1.2
			s-1.1-1.9-1.1-3.2V279.4z M567,279.5c0,0.9,0.2,1.7,0.7,2.3c0.4,0.6,1,0.9,1.7,0.9c0.7,0,1.3-0.3,1.8-0.9c0.4-0.6,0.6-1.4,0.6-2.4
			c0-0.9-0.2-1.7-0.7-2.3c-0.4-0.6-1-0.9-1.8-0.9c-0.7,0-1.3,0.3-1.7,0.9C567.2,277.7,567,278.5,567,279.5z"/>
		<path d="M577,273.2v2h1.6v1.1H577v5.2c0,0.3,0.1,0.6,0.2,0.8c0.1,0.2,0.4,0.3,0.7,0.3c0.2,0,0.4,0,0.7-0.1v1.2
			c-0.4,0.1-0.8,0.2-1.1,0.2c-0.6,0-1.1-0.2-1.5-0.6s-0.5-0.9-0.5-1.7v-5.2H574v-1.1h1.5v-2H577z"/>
	</g>
</g>
<g>
	<g>
		<path class="st0" d="M772,296.1H654.1c-7.1,0-12.8-5.7-12.8-12.8v-8.6c0-7.1,5.7-12.8,12.8-12.8H772c7.1,0,12.8,5.7,12.8,12.8v8.6
			C784.9,290.4,779.1,296.1,772,296.1z M654.1,262.4c-6.8,0-12.3,5.5-12.3,12.3v8.6c0,6.8,5.5,12.3,12.3,12.3H772
			c6.8,0,12.3-5.5,12.3-12.3v-8.6c0-6.8-5.5-12.3-12.3-12.3H654.1z"/>
	</g>
	<g>
		<path d="M694.3,278.6c-1.3-0.4-2.2-0.8-2.8-1.4s-0.9-1.2-0.9-2c0-0.9,0.4-1.6,1.1-2.2s1.6-0.9,2.8-0.9c0.8,0,1.5,0.2,2.1,0.5
			c0.6,0.3,1.1,0.7,1.4,1.2s0.5,1.1,0.5,1.7H697c0-0.7-0.2-1.2-0.7-1.6s-1.1-0.6-1.9-0.6c-0.7,0-1.3,0.2-1.7,0.5s-0.6,0.8-0.6,1.4
			c0,0.5,0.2,0.9,0.6,1.2s1.1,0.6,2,0.9c0.9,0.3,1.7,0.6,2.2,0.9s0.9,0.7,1.2,1.1c0.3,0.4,0.4,0.9,0.4,1.5c0,0.9-0.4,1.7-1.1,2.2
			s-1.7,0.8-2.9,0.8c-0.8,0-1.5-0.1-2.2-0.4s-1.2-0.7-1.6-1.2c-0.4-0.5-0.6-1.1-0.6-1.8h1.5c0,0.7,0.3,1.2,0.8,1.6s1.2,0.6,2,0.6
			c0.8,0,1.4-0.2,1.8-0.5c0.4-0.3,0.6-0.8,0.6-1.3c0-0.6-0.2-1-0.6-1.3S695.3,278.9,694.3,278.6z"/>
		<path d="M701.6,276.2c0.6-0.8,1.5-1.2,2.5-1.2c1.8,0,2.7,1,2.7,3v5.6h-1.4v-5.6c0-0.6-0.1-1.1-0.4-1.4c-0.3-0.3-0.7-0.4-1.3-0.4
			c-0.5,0-0.9,0.1-1.2,0.4s-0.6,0.6-0.8,1v6h-1.4v-12h1.4V276.2z"/>
		<path d="M709,273c0-0.2,0.1-0.4,0.2-0.6c0.1-0.2,0.4-0.2,0.6-0.2s0.5,0.1,0.6,0.2c0.1,0.2,0.2,0.4,0.2,0.6s-0.1,0.4-0.2,0.6
			s-0.4,0.2-0.6,0.2s-0.5-0.1-0.6-0.2S709,273.2,709,273z M710.6,283.7h-1.4v-8.5h1.4V283.7z"/>
		<path d="M717,276.5c-0.2,0-0.5-0.1-0.7-0.1c-0.9,0-1.6,0.4-1.9,1.2v6h-1.4v-8.5h1.4l0,1c0.5-0.8,1.1-1.1,2-1.1
			c0.3,0,0.5,0,0.6,0.1V276.5z"/>
		<path d="M723.2,283.7c-0.1-0.2-0.2-0.5-0.2-0.9c-0.7,0.7-1.5,1-2.4,1c-0.8,0-1.5-0.2-2.1-0.7c-0.5-0.5-0.8-1.1-0.8-1.8
			c0-0.9,0.3-1.6,1-2.1c0.7-0.5,1.6-0.7,2.8-0.7h1.4v-0.7c0-0.5-0.2-0.9-0.5-1.2c-0.3-0.3-0.7-0.4-1.3-0.4c-0.5,0-0.9,0.1-1.3,0.4
			c-0.3,0.3-0.5,0.6-0.5,0.9h-1.5c0-0.4,0.1-0.8,0.4-1.2c0.3-0.4,0.7-0.7,1.2-0.9c0.5-0.2,1.1-0.3,1.7-0.3c1,0,1.7,0.2,2.3,0.7
			c0.6,0.5,0.8,1.2,0.9,2v3.9c0,0.8,0.1,1.4,0.3,1.9v0.1H723.2z M720.8,282.6c0.5,0,0.9-0.1,1.3-0.4s0.7-0.5,0.9-0.9v-1.7h-1.1
			c-1.8,0-2.7,0.5-2.7,1.6c0,0.5,0.2,0.8,0.5,1.1C720,282.4,720.3,282.6,720.8,282.6z"/>
		<path d="M728.1,282.5h4.9v1.2h-6.7v-1.1l4.7-6.2h-4.6v-1.2h6.4v1L728.1,282.5z"/>
	</g>
</g>
<g>
	<g>
		<path class="st0" d="M114.5,247.3H27.3c-6.2,0-11.2-5-11.2-11.2v-11.8c0-6.2,5-11.2,11.2-11.2h87.2c6.2,0,11.2,5,11.2,11.2v11.8
			C125.7,242.2,120.7,247.3,114.5,247.3z M27.3,213.5c-5.9,0-10.8,4.8-10.8,10.8v11.8c0,5.9,4.8,10.8,10.8,10.8h87.2
			c5.9,0,10.8-4.8,10.8-10.8v-11.8c0-5.9-4.8-10.8-10.8-10.8H27.3z"/>
	</g>
	<g>
		<path d="M59.1,231.5h-3.3v5.8h-1.9V223h4.7c1.6,0,2.8,0.4,3.7,1.1s1.3,1.8,1.3,3.2c0,0.9-0.2,1.7-0.7,2.3s-1.1,1.1-2,1.5l3.3,6
			v0.1h-2L59.1,231.5z M55.7,230h2.9c0.9,0,1.7-0.2,2.2-0.7c0.6-0.5,0.8-1.1,0.8-1.9c0-0.9-0.3-1.6-0.8-2s-1.3-0.7-2.3-0.7h-2.9V230
			z"/>
		<path d="M70.3,237.4c-1.4,0-2.6-0.5-3.5-1.4s-1.3-2.2-1.3-3.8v-0.3c0-1,0.2-2,0.6-2.8s1-1.5,1.7-1.9s1.5-0.7,2.3-0.7
			c1.4,0,2.4,0.5,3.2,1.4s1.1,2.2,1.1,3.9v0.8h-7.2c0,1,0.3,1.9,0.9,2.5s1.3,1,2.2,1c0.6,0,1.2-0.1,1.6-0.4s0.8-0.6,1.2-1l1.1,0.9
			C73.4,236.8,72.1,237.4,70.3,237.4z M70.1,228c-0.7,0-1.3,0.3-1.8,0.8s-0.8,1.3-0.9,2.2h5.3v-0.1c-0.1-0.9-0.3-1.6-0.7-2.1
			S70.8,228,70.1,228z"/>
		<path d="M76.1,231.9c0-1.6,0.4-2.9,1.2-3.9s1.8-1.5,3-1.5c1.2,0,2.2,0.4,2.9,1.3v-5.5H85v15h-1.7l-0.1-1.1c-0.7,0.9-1.7,1.3-3,1.3
			c-1.2,0-2.2-0.5-3-1.5s-1.2-2.3-1.2-3.9V231.9z M77.9,232.1c0,1.2,0.2,2.1,0.7,2.8s1.2,1,2.1,1c1.1,0,2-0.5,2.5-1.5v-4.9
			c-0.5-1-1.4-1.5-2.5-1.5c-0.9,0-1.6,0.3-2.1,1S77.9,230.7,77.9,232.1z"/>
	</g>
</g>
<g>
	<g>
		<path class="st0" d="M234,247.3h-87.2c-6.2,0-11.2-5-11.2-11.2v-11.8c0-6.2,5-11.2,11.2-11.2H234c6.2,0,11.2,5,11.2,11.2v11.8
			C245.2,242.2,240.2,247.3,234,247.3z M146.9,213.5c-5.9,0-10.8,4.8-10.8,10.8v11.8c0,5.9,4.8,10.8,10.8,10.8H234
			c5.9,0,10.8-4.8,10.8-10.8v-11.8c0-5.9-4.8-10.8-10.8-10.8H146.9z"/>
	</g>
	<g>
		<path d="M167.5,232.8l0.3,1.9l0.4-1.7l2.8-9.9h1.6l2.7,9.9l0.4,1.7l0.3-1.9l2.2-9.7h1.9l-3.4,14.2H175l-2.9-10.4l-0.2-1.1
			l-0.2,1.1l-3,10.4h-1.7l-3.4-14.2h1.9L167.5,232.8z"/>
		<path d="M183.7,228c0.8-1,1.8-1.5,3.1-1.5c2.2,0,3.4,1.3,3.4,3.8v7h-1.8v-7c0-0.8-0.2-1.3-0.5-1.7s-0.9-0.5-1.6-0.5
			c-0.6,0-1.1,0.2-1.5,0.5s-0.8,0.7-1,1.2v7.5h-1.8v-15h1.8V228z"/>
		<path d="M193,223.9c0-0.3,0.1-0.5,0.3-0.7s0.4-0.3,0.8-0.3s0.6,0.1,0.8,0.3s0.3,0.4,0.3,0.7s-0.1,0.5-0.3,0.7s-0.4,0.3-0.8,0.3
			s-0.6-0.1-0.8-0.3S193,224.2,193,223.9z M194.9,237.3h-1.8v-10.6h1.8V237.3z"/>
		<path d="M200.3,224.1v2.6h2v1.4h-2v6.6c0,0.4,0.1,0.7,0.3,1c0.2,0.2,0.5,0.3,0.9,0.3c0.2,0,0.5,0,0.9-0.1v1.5
			c-0.5,0.1-0.9,0.2-1.4,0.2c-0.8,0-1.4-0.2-1.8-0.7s-0.6-1.2-0.6-2.1v-6.6h-1.9v-1.4h1.9v-2.6H200.3z"/>
		<path d="M208.7,237.5c-1.4,0-2.6-0.5-3.5-1.4s-1.3-2.2-1.3-3.8V232c0-1,0.2-2,0.6-2.8s1-1.5,1.7-1.9s1.5-0.7,2.3-0.7
			c1.4,0,2.4,0.5,3.2,1.4s1.1,2.2,1.1,3.9v0.8h-7.2c0,1,0.3,1.9,0.9,2.5s1.3,1,2.2,1c0.6,0,1.2-0.1,1.6-0.4s0.8-0.6,1.2-1l1.1,0.9
			C211.8,236.8,210.5,237.5,208.7,237.5z M208.5,228c-0.7,0-1.3,0.3-1.8,0.8s-0.8,1.3-0.9,2.2h5.3v-0.1c-0.1-0.9-0.3-1.6-0.7-2.1
			S209.3,228,208.5,228z"/>
	</g>
</g>
<g>
	<g>
		<path class="st0" d="M353.6,247.3h-87.2c-6.2,0-11.2-5-11.2-11.2v-11.8c0-6.2,5-11.2,11.2-11.2h87.2c6.2,0,11.2,5,11.2,11.2v11.8
			C364.7,242.2,359.7,247.3,353.6,247.3z M266.4,213.5c-5.9,0-10.8,4.8-10.8,10.8v11.8c0,5.9,4.8,10.8,10.8,10.8h87.2
			c5.9,0,10.8-4.8,10.8-10.8v-11.8c0-5.9-4.8-10.8-10.8-10.8H266.4z"/>
	</g>
	<g>
		<path d="M292.2,231.5h-3.3v5.8H287v-14.2h4.7c1.6,0,2.8,0.4,3.7,1.1c0.9,0.7,1.3,1.8,1.3,3.2c0,0.9-0.2,1.7-0.7,2.3
			s-1.1,1.1-2,1.5l3.3,6v0.1h-2L292.2,231.5z M288.9,230h2.9c0.9,0,1.7-0.2,2.2-0.7c0.5-0.5,0.8-1.1,0.8-1.9c0-0.9-0.3-1.6-0.8-2
			c-0.5-0.5-1.3-0.7-2.3-0.7h-2.9V230z"/>
		<path d="M298.5,231.9c0-1,0.2-2,0.6-2.8c0.4-0.8,1-1.5,1.7-1.9c0.7-0.4,1.6-0.7,2.5-0.7c1.4,0,2.6,0.5,3.5,1.5s1.3,2.3,1.3,4v0.1
			c0,1-0.2,2-0.6,2.8c-0.4,0.8-1,1.5-1.7,1.9s-1.6,0.7-2.5,0.7c-1.4,0-2.6-0.5-3.5-1.5s-1.3-2.3-1.3-4V231.9z M300.4,232.1
			c0,1.2,0.3,2.1,0.8,2.8c0.5,0.7,1.3,1.1,2.2,1.1c0.9,0,1.6-0.4,2.2-1.1c0.5-0.7,0.8-1.7,0.8-3c0-1.2-0.3-2.1-0.8-2.8
			c-0.6-0.7-1.3-1.1-2.2-1.1c-0.9,0-1.6,0.4-2.2,1.1S300.4,230.8,300.4,232.1z"/>
		<path d="M316.6,234.5c0-0.5-0.2-0.9-0.6-1.1c-0.4-0.3-1-0.5-1.9-0.7c-0.9-0.2-1.6-0.4-2.2-0.7s-0.9-0.6-1.2-1
			c-0.3-0.4-0.4-0.8-0.4-1.3c0-0.9,0.4-1.6,1.1-2.2s1.7-0.9,2.8-0.9c1.2,0,2.2,0.3,2.9,0.9c0.7,0.6,1.1,1.4,1.1,2.4h-1.8
			c0-0.5-0.2-0.9-0.6-1.3s-0.9-0.5-1.6-0.5c-0.7,0-1.2,0.1-1.5,0.4s-0.6,0.7-0.6,1.1c0,0.4,0.2,0.8,0.5,1c0.3,0.2,1,0.4,1.9,0.6
			c0.9,0.2,1.6,0.4,2.2,0.7c0.6,0.3,1,0.6,1.2,1c0.3,0.4,0.4,0.9,0.4,1.4c0,0.9-0.4,1.7-1.1,2.3c-0.8,0.6-1.7,0.9-2.9,0.9
			c-0.8,0-1.6-0.1-2.2-0.4c-0.7-0.3-1.2-0.7-1.5-1.3c-0.4-0.5-0.6-1.1-0.6-1.7h1.8c0,0.6,0.3,1.1,0.7,1.4c0.5,0.4,1,0.5,1.8,0.5
			c0.7,0,1.2-0.1,1.6-0.4C316.4,235.3,316.6,234.9,316.6,234.5z"/>
		<path d="M325.1,237.5c-1.4,0-2.6-0.5-3.5-1.4s-1.3-2.2-1.3-3.8V232c0-1,0.2-2,0.6-2.8s1-1.5,1.7-1.9c0.7-0.5,1.5-0.7,2.3-0.7
			c1.4,0,2.4,0.5,3.2,1.4s1.1,2.2,1.1,3.9v0.8h-7.2c0,1,0.3,1.9,0.9,2.5c0.6,0.6,1.3,1,2.2,1c0.6,0,1.2-0.1,1.6-0.4
			c0.4-0.3,0.8-0.6,1.2-1l1.1,0.9C328.2,236.8,326.9,237.5,325.1,237.5z M324.9,228c-0.7,0-1.3,0.3-1.8,0.8
			c-0.5,0.5-0.8,1.3-0.9,2.2h5.3v-0.1c-0.1-0.9-0.3-1.6-0.7-2.1C326.2,228.2,325.7,228,324.9,228z M325.8,222.3h2.2l-2.6,2.9l-1.5,0
			L325.8,222.3z"/>
	</g>
</g>
<g>
	<g>
		<path class="st0" d="M473.1,247.3h-87.2c-6.2,0-11.2-5-11.2-11.2v-11.8c0-6.2,5-11.2,11.2-11.2h87.2c6.2,0,11.2,5,11.2,11.2v11.8
			C484.3,242.2,479.3,247.3,473.1,247.3z M385.9,213.5c-5.9,0-10.8,4.8-10.8,10.8v11.8c0,5.9,4.8,10.8,10.8,10.8h87.2
			c5.9,0,10.8-4.8,10.8-10.8v-11.8c0-5.9-4.8-10.8-10.8-10.8H385.9z"/>
	</g>
	<g>
		<path d="M390.7,230.9c-1.6-0.5-2.8-1-3.5-1.7s-1.1-1.5-1.1-2.5c0-1.1,0.4-2,1.3-2.8c0.9-0.7,2.1-1.1,3.5-1.1c1,0,1.8,0.2,2.6,0.6
			c0.8,0.4,1.4,0.9,1.8,1.6s0.6,1.4,0.6,2.2h-1.9c0-0.9-0.3-1.5-0.8-2c-0.5-0.5-1.3-0.7-2.3-0.7c-0.9,0-1.6,0.2-2.2,0.6
			c-0.5,0.4-0.8,1-0.8,1.7c0,0.6,0.2,1.1,0.7,1.5c0.5,0.4,1.3,0.8,2.5,1.1s2.1,0.7,2.8,1.1c0.7,0.4,1.2,0.9,1.5,1.4s0.5,1.2,0.5,1.9
			c0,1.2-0.4,2.1-1.3,2.8s-2.1,1-3.6,1c-1,0-1.9-0.2-2.7-0.6c-0.8-0.4-1.5-0.9-2-1.5s-0.7-1.4-0.7-2.2h1.9c0,0.9,0.3,1.5,1,2
			s1.5,0.7,2.5,0.7c1,0,1.7-0.2,2.3-0.6s0.8-1,0.8-1.7s-0.2-1.2-0.7-1.6S392,231.3,390.7,230.9z"/>
		<path d="M407,232.1c0,1.6-0.4,2.9-1.1,3.9c-0.7,1-1.7,1.5-3,1.5c-1.3,0-2.3-0.4-3-1.2v5.1h-1.8v-14.6h1.7l0.1,1.2
			c0.7-0.9,1.8-1.4,3.1-1.4c1.3,0,2.3,0.5,3,1.4c0.7,1,1.1,2.3,1.1,4V232.1z M405.2,231.9c0-1.2-0.3-2.1-0.8-2.8s-1.2-1-2.1-1
			c-1.1,0-1.9,0.5-2.5,1.5v5c0.5,1,1.4,1.4,2.5,1.4c0.9,0,1.6-0.3,2.1-1C405,234.3,405.2,233.3,405.2,231.9z"/>
		<path d="M415.8,237.3c-0.1-0.2-0.2-0.6-0.3-1.1c-0.8,0.9-1.8,1.3-3,1.3c-1,0-1.9-0.3-2.6-0.9c-0.7-0.6-1-1.3-1-2.2
			c0-1.1,0.4-2,1.3-2.6c0.8-0.6,2-0.9,3.5-0.9h1.8V230c0-0.6-0.2-1.1-0.6-1.5c-0.4-0.4-0.9-0.6-1.7-0.6c-0.6,0-1.2,0.2-1.6,0.5
			c-0.4,0.3-0.7,0.7-0.7,1.2h-1.8c0-0.5,0.2-1,0.6-1.5c0.4-0.5,0.9-0.9,1.5-1.2c0.6-0.3,1.3-0.4,2.1-0.4c1.2,0,2.2,0.3,2.9,0.9
			c0.7,0.6,1,1.4,1.1,2.5v4.9c0,1,0.1,1.7,0.4,2.3v0.2H415.8z M412.8,235.9c0.6,0,1.1-0.1,1.6-0.4s0.9-0.7,1.1-1.1v-2.2h-1.4
			c-2.2,0-3.3,0.6-3.3,1.9c0,0.6,0.2,1,0.6,1.3C411.8,235.7,412.3,235.9,412.8,235.9z"/>
		<path d="M425.3,228.3c-0.3,0-0.6-0.1-0.9-0.1c-1.2,0-2,0.5-2.4,1.5v7.5h-1.8v-10.6h1.8l0,1.2c0.6-0.9,1.4-1.4,2.5-1.4
			c0.4,0,0.6,0,0.8,0.1V228.3z"/>
		<path d="M429.9,232.4l-1.1,1.2v3.7H427v-15h1.8v9.1l1-1.2l3.3-3.5h2.2l-4.1,4.4l4.6,6.2h-2.1L429.9,232.4z"/>
		<path d="M439.1,237.3h-1.8v-15h1.8V237.3z"/>
		<path d="M442,223.9c0-0.3,0.1-0.5,0.3-0.7c0.2-0.2,0.4-0.3,0.8-0.3s0.6,0.1,0.8,0.3c0.2,0.2,0.3,0.4,0.3,0.7s-0.1,0.5-0.3,0.7
			c-0.2,0.2-0.4,0.3-0.8,0.3s-0.6-0.1-0.8-0.3C442.1,224.4,442,224.2,442,223.9z M443.9,237.3h-1.8v-10.6h1.8V237.3z"/>
		<path d="M448.5,226.7l0.1,1.3c0.8-1,1.9-1.5,3.2-1.5c2.2,0,3.4,1.3,3.4,3.8v7h-1.8v-7c0-0.8-0.2-1.3-0.5-1.7s-0.9-0.5-1.6-0.5
			c-0.6,0-1.1,0.2-1.5,0.5c-0.4,0.3-0.8,0.7-1,1.2v7.5h-1.8v-10.6H448.5z"/>
		<path d="M457.4,231.9c0-1.6,0.4-3,1.1-3.9s1.8-1.5,3-1.5c1.3,0,2.3,0.5,3,1.4l0.1-1.2h1.7V237c0,1.4-0.4,2.4-1.2,3.2
			s-1.9,1.2-3.3,1.2c-0.8,0-1.5-0.2-2.2-0.5c-0.7-0.3-1.3-0.8-1.7-1.3l0.9-1.1c0.8,1,1.7,1.4,2.8,1.4c0.9,0,1.6-0.2,2.1-0.7
			c0.5-0.5,0.7-1.2,0.7-2.1v-0.9c-0.7,0.8-1.7,1.2-3,1.2c-1.2,0-2.2-0.5-3-1.5C457.8,235,457.4,233.6,457.4,231.9z M459.2,232.1
			c0,1.2,0.2,2.1,0.7,2.8s1.2,1,2.1,1c1.1,0,2-0.5,2.5-1.6v-4.8c-0.6-1-1.4-1.5-2.5-1.5c-0.9,0-1.6,0.3-2.1,1
			C459.5,229.8,459.2,230.8,459.2,232.1z"/>
	</g>
</g>
<g>
	<g>
		<path class="st0" d="M592.6,247.3h-87.2c-6.2,0-11.2-5-11.2-11.2v-11.8c0-6.2,5-11.2,11.2-11.2h87.2c6.2,0,11.2,5,11.2,11.2v11.8
			C603.8,242.2,598.8,247.3,592.6,247.3z M505.5,213.5c-5.9,0-10.8,4.8-10.8,10.8v11.8c0,5.9,4.8,10.8,10.8,10.8h87.2
			c5.9,0,10.8-4.8,10.8-10.8v-11.8c0-5.9-4.8-10.8-10.8-10.8H505.5z"/>
	</g>
	<g>
		<path d="M512.2,237.3v-14.2h4c1.2,0,2.3,0.3,3.3,0.8c1,0.5,1.7,1.3,2.2,2.3s0.8,2.2,0.8,3.5v0.9c0,1.3-0.3,2.5-0.8,3.5
			s-1.3,1.8-2.2,2.3c-1,0.5-2.1,0.8-3.4,0.8H512.2z M514.1,224.6v11.2h2c1.4,0,2.6-0.4,3.4-1.3c0.8-0.9,1.2-2.2,1.2-3.8v-0.8
			c0-1.6-0.4-2.9-1.1-3.8c-0.8-0.9-1.8-1.4-3.2-1.4H514.1z"/>
		<path d="M529.4,237.5c-1.4,0-2.6-0.5-3.5-1.4s-1.3-2.2-1.3-3.8V232c0-1,0.2-2,0.6-2.8s1-1.5,1.7-1.9c0.7-0.5,1.5-0.7,2.3-0.7
			c1.4,0,2.4,0.5,3.2,1.4s1.1,2.2,1.1,3.9v0.8h-7.2c0,1,0.3,1.9,0.9,2.5c0.6,0.6,1.3,1,2.2,1c0.6,0,1.2-0.1,1.6-0.4
			c0.4-0.3,0.8-0.6,1.2-1l1.1,0.9C532.5,236.8,531.2,237.5,529.4,237.5z M529.2,228c-0.7,0-1.3,0.3-1.8,0.8
			c-0.5,0.5-0.8,1.3-0.9,2.2h5.3v-0.1c-0.1-0.9-0.3-1.6-0.7-2.1C530.5,228.2,529.9,228,529.2,228z"/>
		<path d="M541.8,234.5c0-0.5-0.2-0.9-0.6-1.1c-0.4-0.3-1-0.5-1.9-0.7c-0.9-0.2-1.6-0.4-2.2-0.7s-0.9-0.6-1.2-1
			c-0.3-0.4-0.4-0.8-0.4-1.3c0-0.9,0.4-1.6,1.1-2.2s1.7-0.9,2.8-0.9c1.2,0,2.2,0.3,2.9,0.9c0.7,0.6,1.1,1.4,1.1,2.4h-1.8
			c0-0.5-0.2-0.9-0.6-1.3s-0.9-0.5-1.6-0.5c-0.7,0-1.2,0.1-1.5,0.4s-0.6,0.7-0.6,1.1c0,0.4,0.2,0.8,0.5,1c0.3,0.2,1,0.4,1.9,0.6
			c0.9,0.2,1.6,0.4,2.2,0.7c0.6,0.3,1,0.6,1.2,1c0.3,0.4,0.4,0.9,0.4,1.4c0,0.9-0.4,1.7-1.1,2.3c-0.8,0.6-1.7,0.9-2.9,0.9
			c-0.8,0-1.6-0.1-2.2-0.4c-0.7-0.3-1.2-0.7-1.5-1.3c-0.4-0.5-0.6-1.1-0.6-1.7h1.8c0,0.6,0.3,1.1,0.7,1.4c0.5,0.4,1,0.5,1.8,0.5
			c0.7,0,1.2-0.1,1.6-0.4C541.6,235.3,541.8,234.9,541.8,234.5z"/>
		<path d="M552.1,234.5c0-0.5-0.2-0.9-0.6-1.1c-0.4-0.3-1-0.5-1.9-0.7c-0.9-0.2-1.6-0.4-2.2-0.7s-0.9-0.6-1.2-1
			c-0.3-0.4-0.4-0.8-0.4-1.3c0-0.9,0.4-1.6,1.1-2.2s1.7-0.9,2.8-0.9c1.2,0,2.2,0.3,2.9,0.9c0.7,0.6,1.1,1.4,1.1,2.4H552
			c0-0.5-0.2-0.9-0.6-1.3s-0.9-0.5-1.6-0.5c-0.7,0-1.2,0.1-1.5,0.4s-0.6,0.7-0.6,1.1c0,0.4,0.2,0.8,0.5,1c0.3,0.2,1,0.4,1.9,0.6
			c0.9,0.2,1.6,0.4,2.2,0.7c0.6,0.3,1,0.6,1.2,1c0.3,0.4,0.4,0.9,0.4,1.4c0,0.9-0.4,1.7-1.1,2.3c-0.8,0.6-1.7,0.9-2.9,0.9
			c-0.8,0-1.6-0.1-2.2-0.4c-0.7-0.3-1.2-0.7-1.5-1.3c-0.4-0.5-0.6-1.1-0.6-1.7h1.8c0,0.6,0.3,1.1,0.7,1.4c0.5,0.4,1,0.5,1.8,0.5
			c0.7,0,1.2-0.1,1.6-0.4C551.9,235.3,552.1,234.9,552.1,234.5z"/>
		<path d="M560.6,237.5c-1.4,0-2.6-0.5-3.5-1.4s-1.3-2.2-1.3-3.8V232c0-1,0.2-2,0.6-2.8s1-1.5,1.7-1.9c0.7-0.5,1.5-0.7,2.3-0.7
			c1.4,0,2.4,0.5,3.2,1.4s1.1,2.2,1.1,3.9v0.8h-7.2c0,1,0.3,1.9,0.9,2.5c0.6,0.6,1.3,1,2.2,1c0.6,0,1.2-0.1,1.6-0.4
			c0.4-0.3,0.8-0.6,1.2-1l1.1,0.9C563.7,236.8,562.4,237.5,560.6,237.5z M560.4,228c-0.7,0-1.3,0.3-1.8,0.8
			c-0.5,0.5-0.8,1.3-0.9,2.2h5.3v-0.1c-0.1-0.9-0.3-1.6-0.7-2.1C561.8,228.2,561.2,228,560.4,228z"/>
		<path d="M572,228.3c-0.3,0-0.6-0.1-0.9-0.1c-1.2,0-2,0.5-2.4,1.5v7.5h-1.8v-10.6h1.8l0,1.2c0.6-0.9,1.4-1.4,2.5-1.4
			c0.4,0,0.6,0,0.8,0.1V228.3z"/>
		<path d="M576.6,224.1v2.6h2v1.4h-2v6.6c0,0.4,0.1,0.7,0.3,1c0.2,0.2,0.5,0.3,0.9,0.3c0.2,0,0.5,0,0.9-0.1v1.5
			c-0.5,0.1-0.9,0.2-1.4,0.2c-0.8,0-1.4-0.2-1.8-0.7s-0.6-1.2-0.6-2.1v-6.6h-1.9v-1.4h1.9v-2.6H576.6z"/>
	</g>
</g>
<g>
	<rect x="348.7" y="71.1" class="st0" width="0.7" height="9.8"/>
</g>
<g>
	<rect x="497.2" y="71.1" class="st0" width="0.7" height="9.8"/>
</g>
<g>
	<rect x="296.6" y="126.1" class="st0" width="0.7" height="18.3"/>
</g>
<g>
	<rect x="296.6" y="189.7" class="st0" width="0.7" height="23.6"/>
</g>
<g>
	<polygon class="st0" points="71.3,213.3 70.5,213.3 70.5,174.6 226.1,174.6 226.1,175.3 71.3,175.3 	"/>
</g>
<g>
	<rect x="229.6" y="184.7" class="st0" width="0.6" height="29"/>
</g>
<g>
	<polygon class="st0" points="429.9,213.3 429.2,213.3 429.2,175.3 372.5,175.3 372.5,174.6 429.9,174.6 	"/>
</g>
<g>
	<polygon class="st0" points="549.4,213.3 548.7,213.3 548.7,175.3 429.5,175.3 429.5,174.6 549.4,174.6 	"/>
</g>
<g>
	<rect x="70.5" y="247" class="st0" width="0.7" height="15.1"/>
</g>
<g>
	<polygon class="st0" points="241.2,328.2 199.1,328.2 199.1,327.5 240.5,327.5 240.5,295.9 241.2,295.9 	"/>
</g>
<g>
	<rect x="117.5" y="344.7" class="st0" width="0.7" height="19.7"/>
</g>
<g>
	<rect x="100.4" y="386.2" class="st0" width="0.7" height="34.3"/>
</g>
<g>
	<polygon class="st0" points="262.8,420.4 262,420.4 262,379.6 153.4,379.6 153.4,378.9 262.8,378.9 	"/>
</g>
<g>
	<rect x="171.1" y="379.2" class="st0" width="0.7" height="41.2"/>
</g>
<g>
	<rect x="171.1" y="442.4" class="st0" width="0.7" height="12.6"/>
</g>
<g>
	<polygon class="st0" points="139.8,467.2 97.9,467.2 97.9,442.2 98.7,442.2 98.7,466.5 139.8,466.5 	"/>
</g>
<g>
	<polygon class="st0" points="261.9,467.2 210.6,467.2 210.6,466.5 261.2,466.5 261.2,442.4 261.9,442.4 	"/>
</g>
<g>
	<rect x="153" y="476.8" class="st0" width="0.7" height="12.6"/>
</g>
<g>
	<rect x="203.1" y="476.8" class="st0" width="0.7" height="12.6"/>
</g>
<g>
	<rect x="117.5" y="511.3" class="st0" width="0.7" height="11.3"/>
</g>
<g>
	<rect x="233.3" y="511.3" class="st0" width="0.7" height="11.3"/>
</g>
<g>
	<rect x="153" y="544.6" class="st0" width="0.7" height="13.8"/>
</g>
<g>
	<rect x="221.9" y="544.6" class="st0" width="0.7" height="13.8"/>
</g>
<g>
	<polygon class="st0" points="720.7,262.1 720.2,262.1 720.2,254.9 70.9,254.9 70.9,254.3 720.7,254.3 	"/>
</g>
<g>
	<rect x="556.2" y="254.6" class="st0" width="0.6" height="7.5"/>
</g>
<g>
	<rect x="399.7" y="254.6" class="st0" width="0.6" height="7.5"/>
</g>
<g>
	<rect x="240.5" y="254.6" class="st0" width="0.6" height="7.5"/>
</g>
</svg>
